<?xml version="1.0" standalone="no"?>
<!DOCTYPE svg PUBLIC "-//W3C//DTD SVG 1.1//EN" "http://www.w3.org/Graphics/SVG/1.1/DTD/svg11.dtd" >
<svg xmlns="http://www.w3.org/2000/svg" xmlns:xlink="http://www.w3.org/1999/xlink" version="1.1">
<metadata>
Created by FontForge 20170731 at Mon Jul 24 16:10:42 2017
 By Aleksey,,,
Copyright 2017 The Exo Project Authors (https://github.com/NDISCOVER/Exo-1.0)
</metadata>
<defs>
<font id="Exo-BlackItalic" horiz-adv-x="0" >
  <font-face 
    font-family="Exo Black"
    font-weight="900"
    font-style="italic"
    font-stretch="normal"
    units-per-em="1000"
    panose-1="0 0 10 0 0 0 0 0 0 0"
    ascent="800"
    descent="-200"
    x-height="539"
    cap-height="743"
    bbox="-556 -270 1398 1133"
    underline-thickness="50"
    underline-position="-150"
    slope="-9"
    unicode-range="U+000D-FB04"
  />
<missing-glyph horiz-adv-x="659" 
d="M80 549h559v-559h-559v559zM555 74v391h-391v-391h391zM193 179l90 90l-90 90l77 77l90 -90l90 90l77 -77l-90 -90l90 -90l-77 -77l-90 90l-90 -90z" />
    <glyph glyph-name="fi" unicode="fi" horiz-adv-x="681" 
d="M639 0h-194l61 385h-171l-61 -385h-194l61 385h-71l20 124l75 30l13 77q14 86 66 119.5t148 33.5q71 0 124 -11l-23 -143h-63q-34 0 -50 -11.5t-19 -43.5l-2 -21h365zM755.5 759q4.5 -7 2.5 -18l-17 -111q-5 -23 -26 -23h-152q-11 0 -16.5 6.5t-3.5 16.5l17 111
q5 25 28 25h152q11 0 15.5 -7z" />
    <glyph glyph-name="fl" unicode="fl" horiz-adv-x="743" 
d="M682.5 158.5q10.5 -8.5 35.5 -12.5l29 -5l-22 -141h-68q-90 0 -137.5 35.5t-47.5 93.5q0 42 3 60l67 426h-112q-35 0 -50.5 -11t-18.5 -44l-2 -21h109l-24 -154h-109l-61 -385h-194l61 385h-71l20 124l75 30l13 77q14 87 69 120t165 33q88 0 166.5 -8t176.5 -29l-75 -474
q-8 -52 -8 -69q0 -22 10.5 -30.5z" />
    <glyph glyph-name="f_f" unicode="ff" horiz-adv-x="802" 
d="M781 603.5q-16 -11.5 -19 -43.5l-2 -21h109l-24 -154h-109l-61 -385h-194l61 385h-207l-61 -385h-194l61 385h-71l20 124l75 30l13 77q14 86 66 119.5t148 33.5q71 0 124 -11l-23 -143h-63q-34 0 -50 -11.5t-19 -43.5l-2 -21h207l13 77q14 86 66 119.5t148 33.5
q71 0 124 -11l-23 -143h-63q-34 0 -50 -11.5z" />
    <glyph glyph-name="f_f_i" unicode="ffi" horiz-adv-x="1082" 
d="M1040 0h-194l61 385h-171l-61 -385h-194l61 385h-207l-61 -385h-194l61 385h-71l20 124l75 30l13 77q14 86 66 119.5t148 33.5q71 0 124 -11l-23 -143h-63q-34 0 -50 -11.5t-19 -43.5l-2 -21h207l13 77q14 86 66 119.5t148 33.5q71 0 124 -11l-23 -143h-63
q-34 0 -50 -11.5t-19 -43.5l-2 -21h365zM1156.5 759q4.5 -7 2.5 -18l-17 -111q-5 -23 -26 -23h-152q-11 0 -16.5 6.5t-3.5 16.5l17 111q5 25 28 25h152q11 0 15.5 -7z" />
    <glyph glyph-name="f_f_l" unicode="ffl" horiz-adv-x="1144" 
d="M1083.5 158.5q10.5 -8.5 35.5 -12.5l29 -5l-22 -141h-68q-90 0 -137.5 35.5t-47.5 93.5q0 42 3 60l67 426h-112q-35 0 -50.5 -11t-18.5 -44l-2 -21h109l-24 -154h-109l-61 -385h-194l61 385h-207l-61 -385h-194l61 385h-71l20 124l75 30l13 77q14 86 66 119.5t148 33.5
q71 0 124 -11l-23 -143h-63q-34 0 -50 -11.5t-19 -43.5l-2 -21h207l13 77q14 87 69 120t165 33q88 0 166.5 -8t176.5 -29l-75 -474q-8 -52 -8 -69q0 -22 10.5 -30.5z" />
    <glyph glyph-name=".notdef" horiz-adv-x="659" 
d="M80 549h559v-559h-559v559zM555 74v391h-391v-391h391zM193 179l90 90l-90 90l77 77l90 -90l90 90l77 -77l-90 -90l90 -90l-77 -77l-90 90l-90 -90z" />
    <glyph glyph-name=".null" 
 />
    <glyph glyph-name="nonmarkingreturn" unicode="&#xd;" horiz-adv-x="250" 
 />
    <glyph glyph-name="NULL" 
 />
    <glyph glyph-name="NULL" 
 />
    <glyph glyph-name="space" unicode=" " horiz-adv-x="250" 
 />
    <glyph glyph-name="exclam" unicode="!" horiz-adv-x="277" 
d="M159 742h194l-112 -536h-144zM66.5 3q-5.5 5 -5.5 14v4l19 117q2 11 9 18t19 7h113q21 0 21 -18v-7l-19 -117q-4 -23 -28 -23h-113q-10 0 -15.5 5z" />
    <glyph glyph-name="quotedbl" unicode="&#x22;" horiz-adv-x="476" 
d="M141 692l10 67h185l-10 -67l-42 -201h-164zM361 692l10 67h185l-10 -67l-42 -201h-164z" />
    <glyph glyph-name="numbersign" unicode="#" horiz-adv-x="749" 
d="M183 191h-142l41 132h147l30 86h-149l42 132h154l67 191h132l-67 -191h88l66 191h132l-66 -191h167l-40 -132h-168l-30 -86h168l-39 -132h-180l-67 -191h-132l67 191h-89l-67 -191h-132zM455 323l30 86h-94l-30 -86h94z" />
    <glyph glyph-name="dollar" unicode="$" horiz-adv-x="609" 
d="M303 517q-2 -12 -2 -17q0 -41 51 -41h44q98 0 152.5 -47.5t54.5 -123.5q0 -18 -3 -39l-11 -70q-13 -87 -66 -132t-169 -52l-13 -85h-108l13 85q-107 6 -190 28l24 154q93 -9 224 -9q57 0 79.5 10.5t27.5 37.5l2 11q1 5 1 13q0 20 -16.5 28t-53.5 8h-40q-89 0 -140.5 49
t-51.5 126q0 21 3 43l9 57q15 95 76 142t166 55l12 76h108l-12 -77q86 -7 165 -27l-24 -154q-94 9 -233 9q-69 0 -77 -47z" />
    <glyph glyph-name="percent" unicode="%" horiz-adv-x="968" 
d="M98 449q0 17 3 35l18 113q10 66 48.5 100.5t111.5 34.5h101q62 0 90.5 -25.5t28.5 -74.5q0 -17 -3 -35l-18 -113q-11 -66 -49.5 -100.5t-111.5 -34.5h-101q-118 0 -118 100zM762 732h124l-563 -732h-131zM312 474q23 0 32.5 10.5t12.5 29.5l9 53q1 5 1 14q0 15 -7.5 20.5
t-24.5 5.5h-51q-19 0 -30.5 -8.5t-14.5 -31.5l-9 -53l-1 -14q0 -26 32 -26h51zM615 28.5q-28 25.5 -28 74.5q0 16 3 35l18 113q10 66 48 100.5t111 34.5h102q62 0 90.5 -25.5t28.5 -74.5q0 -17 -3 -35l-18 -113q-11 -66 -49.5 -100.5t-111.5 -34.5h-102q-61 0 -89 25.5z
M800 128q23 0 33.5 10.5t13.5 29.5l8 53q1 5 1 14q0 15 -8 20.5t-25 5.5h-50q-19 0 -30.5 -8.5t-14.5 -31.5l-8 -53q-2 -10 -2 -14q0 -26 32 -26h50z" />
    <glyph glyph-name="ampersand" unicode="&#x26;" horiz-adv-x="715" 
d="M106 42q-49 48 -49 126q0 79 30 132t92 88l72 41l-8 16q-16 30 -21 55.5t-5 51.5q0 51 24.5 93.5t76 68t128.5 25.5q47 0 100 -9t85 -20l-22 -142h-152q-25 0 -36.5 -11t-11.5 -27q0 -12 7.5 -29t25.5 -48l77 -136l158 121l56 -88l-76 -121l-56 -48l107 -181h-198l-56 85
l-45 -34q-40 -30 -80.5 -43.5t-92.5 -13.5q-81 0 -130 48zM350 192l24 21l-52 84l-26 -14q-42 -23 -42 -66q0 -20 11.5 -33t30.5 -13q30 0 54 21z" />
    <glyph glyph-name="quotesingle" unicode="'" horiz-adv-x="256" 
d="M141 692l10 67h185l-10 -67l-42 -201h-164z" />
    <glyph glyph-name="parenleft" unicode="(" horiz-adv-x="413" 
d="M112 -51.5q-32 89.5 -32 211.5q0 126 42.5 264t109.5 254.5t135 181.5h171q-67 -86 -127.5 -202.5t-98.5 -244.5t-38 -244q0 -101 24 -189t71 -190h-171q-54 69 -86 158.5z" />
    <glyph glyph-name="parenright" unicode=")" horiz-adv-x="413" 
d="M105.5 -7.5q60.5 116.5 98.5 244.5t38 244q0 101 -24 189t-71 190h171q54 -69 86 -158.5t32 -211.5q0 -126 -42.5 -264t-109.5 -254.5t-135 -181.5h-171q67 86 127.5 202.5z" />
    <glyph glyph-name="asterisk" unicode="*" horiz-adv-x="417" 
d="M271 722l70 22l41 -126l-93 -34zM128 636l142 19l-10 -94l-143 5zM320 571l132 81l32 -57l-117 -97zM142 418l46 138l88 -24l-71 -135zM248 459l64 79l99 -89l-50 -56z" />
    <glyph glyph-name="plus" unicode="+" horiz-adv-x="609" 
d="M572 279h-147l-23 -147h-154l23 147h-147l24 154h147l23 147h154l-23 -147h147z" />
    <glyph glyph-name="comma" unicode="," horiz-adv-x="257" 
d="M61.5 -93.5q-17.5 3.5 -22.5 5.5l10 62q17 0 24.5 4t9.5 17l3 19h-11q-21 0 -21 20l3 24l13 78q3 27 29 27h111q20 0 20 -20q0 -8 -3 -26l-21 -128q-15 -86 -106 -86q-21 0 -38.5 3.5z" />
    <glyph glyph-name="hyphen" unicode="-" horiz-adv-x="353" 
d="M78 367h314l-24 -154h-314z" />
    <glyph glyph-name="period" unicode="." horiz-adv-x="257" 
d="M56.5 3q-5.5 5 -5.5 14v4l19 117q2 11 9 18t19 7h113q21 0 21 -18v-7l-19 -117q-4 -23 -28 -23h-113q-10 0 -15.5 5z" />
    <glyph glyph-name="slash" unicode="/" horiz-adv-x="502" 
d="M414 770h199l-414 -842h-199z" />
    <glyph glyph-name="zero" unicode="0" horiz-adv-x="641" 
d="M110.5 33.5q-43.5 39.5 -43.5 114.5q0 25 4 48l54 341q16 103 78 157.5t160 54.5h162q81 0 123.5 -41t42.5 -118q0 -21 -5 -53l-54 -341q-15 -95 -74.5 -148.5t-153.5 -53.5h-162q-88 0 -131.5 39.5zM378 168q28 0 44 13.5t21 44.5l46 291q1 7 1 18q0 22 -10.5 31
t-29.5 9h-75q-26 0 -40 -14t-19 -44l-46 -290q-2 -14 -2 -18q0 -22 12.5 -31.5t37.5 -9.5h60z" />
    <glyph glyph-name="one" unicode="1" horiz-adv-x="379" 
d="M230 569l-119 -10l19 124l150 60h172l-118 -743h-194z" />
    <glyph glyph-name="two" unicode="2" horiz-adv-x="582" 
d="M64 154l269 236q37 33 57 67t20 62q0 46 -48 46h-221l25 154q71 15 120.5 22.5t114.5 7.5q106 0 154.5 -46t48.5 -126q0 -81 -28.5 -147.5t-93.5 -124.5l-148 -131h248l-28 -174h-514z" />
    <glyph glyph-name="three" unicode="3" horiz-adv-x="575" 
d="M37 21l23 146h218q58 0 79.5 10.5t26.5 38.5l4 26q0 23 -24.5 37.5t-68.5 16.5l-152 7l22 140l171 11q78 4 86 51l2 21q0 28 -22 38.5t-63 10.5h-204l23 146q166 28 270 28q99 0 148.5 -32t49.5 -116q0 -19 -11 -91q-9 -53 -34 -87t-72 -50q36 -12 54 -43t18 -77
q0 -13 -8 -72q-14 -90 -79 -138.5t-167 -48.5q-158 0 -290 27z" />
    <glyph glyph-name="four" unicode="4" horiz-adv-x="635" 
d="M386 137h-309l-21 87l298 519h198l-252 -442h112l17 110l52 96h157l-32 -206h60l-22 -134l-64 -30l-22 -137h-194z" />
    <glyph glyph-name="five" unicode="5" horiz-adv-x="592" 
d="M191 -0.5q-62 5.5 -120 11.5l-26 3l25 154h264q28 0 42.5 9.5t19 21.5t6.5 29l5 31q2 12 2 18q0 17 -9 26t-31 9h-44q-23 0 -33.5 -8t-16.5 -27h-186l95 466h463l-28 -174h-277l-22 -113q33 20 71 20h76q72 0 107.5 -38t35.5 -102q0 -20 -3 -41l-18 -109
q-16 -101 -86.5 -146.5t-205.5 -45.5q-44 0 -106 5.5z" />
    <glyph glyph-name="six" unicode="6" horiz-adv-x="597" 
d="M163.5 13.5q-41.5 19.5 -63 67t-21.5 130.5q0 538 369 538q115 0 188 -20l-24 -154h-169q-66 0 -98.5 -32.5t-43.5 -97.5q29 13 59.5 17t87.5 4q91 0 129 -34.5t38 -96.5q0 -21 -5 -49l-17 -108q-14 -94 -71.5 -139t-148.5 -45h-103q-65 0 -106.5 19.5zM355 168
q24 0 35 12.5t16 38.5l4 28q2 16 2 22q0 19 -10.5 26t-36.5 7h-86q-7 -45 -7 -65q0 -39 15.5 -54t50.5 -15h17z" />
    <glyph glyph-name="seven" unicode="7" horiz-adv-x="561" 
d="M381 549h-277l31 194h481l34 -78l-334 -665h-226z" />
    <glyph glyph-name="eight" unicode="8" horiz-adv-x="618" 
d="M63 115q0 18 4 44l17 105q6 41 29 74t63 42q-25 14 -34.5 32.5t-9.5 42.5q0 17 6 55l13 86q14 86 68.5 119.5t137.5 33.5h156q73 0 109.5 -27t36.5 -87q0 -11 -4 -41l-13 -84q-7 -37 -25.5 -74t-53.5 -42q58 -14 58 -91q0 -6 -3 -39l-16 -99q-16 -100 -70 -135.5
t-140 -35.5h-155q-174 0 -174 121zM408 462q25 0 33 11t13 42l4 31l2 13q0 17 -8 21.5t-24 4.5h-52q-21 0 -30.5 -6.5t-13.5 -32.5l-4 -31q-3 -16 -3 -26q0 -17 7 -22t24 -5h52zM360 158q30 0 40.5 11t13.5 35l8 47l1 9q0 17 -10 27.5t-29 10.5h-54q-23 0 -37 -13t-17 -34
l-8 -47q-1 -6 -1 -16q0 -16 9.5 -23t31.5 -7h52z" />
    <glyph glyph-name="nine" unicode="9" horiz-adv-x="597" 
d="M549.5 729.5q41.5 -19.5 63 -67t21.5 -130.5q0 -538 -369 -538q-115 0 -188 20l24 154h169q66 0 98.5 32.5t43.5 97.5q-29 -13 -59.5 -17t-87.5 -4q-91 0 -129 34.5t-38 96.5q0 21 5 49l17 108q14 94 71.5 139t148.5 45h103q65 0 106.5 -19.5zM358 575q-24 0 -35 -12.5
t-16 -38.5l-4 -28q-2 -16 -2 -22q0 -19 10.5 -26t36.5 -7h86q7 46 7 65q0 39 -15.5 54t-50.5 15h-17z" />
    <glyph glyph-name="colon" unicode=":" horiz-adv-x="257" 
d="M56.5 3q-5.5 5 -5.5 14v4l19 117q2 11 9 18t19 7h113q21 0 21 -18v-7l-19 -117q-4 -23 -28 -23h-113q-10 0 -15.5 5zM116.5 381q-5.5 5 -5.5 14v4l19 117q2 11 9 18t19 7h113q21 0 21 -18v-7l-19 -117q-4 -23 -28 -23h-113q-10 0 -15.5 5z" />
    <glyph glyph-name="semicolon" unicode=";" horiz-adv-x="257" 
d="M116.5 381q-5.5 5 -5.5 14v4l19 117q2 11 9 18t19 7h113q21 0 21 -18v-7l-19 -117q-4 -23 -28 -23h-113q-10 0 -15.5 5zM61.5 -93.5q-17.5 3.5 -22.5 5.5l10 62q17 0 24.5 4t9.5 17l3 19h-11q-21 0 -21 20l3 24l13 78q3 27 29 27h111q20 0 20 -20q0 -8 -3 -26l-21 -128
q-15 -86 -106 -86q-21 0 -38.5 3.5z" />
    <glyph glyph-name="less" unicode="&#x3c;" horiz-adv-x="609" 
d="M133 266l27 170l436 130l-27 -170l-232 -43l216 -53l-27 -170z" />
    <glyph glyph-name="equal" unicode="=" horiz-adv-x="609" 
d="M130 313h448l-25 -154h-448zM168 553h448l-25 -154h-448z" />
    <glyph glyph-name="greater" unicode="&#x3e;" horiz-adv-x="609" 
d="M140 300l234 53l-218 43l27 170l394 -130l-27 -170l-437 -136z" />
    <glyph glyph-name="question" unicode="?" horiz-adv-x="528" 
d="M202 430h82q35 0 56 12.5t26 44.5l3 15v11q0 52 -87 52q-62 0 -156 -30l23 144q99 60 221 60q96 0 148.5 -46.5t52.5 -122.5q0 -18 -3 -36l-9 -51q-15 -97 -74.5 -147t-161.5 -50l-12 -80h-144zM136.5 3q-5.5 5 -5.5 14v4l19 117q2 11 9 18t19 7h113q21 0 21 -18v-7
l-19 -117q-4 -23 -28 -23h-113q-10 0 -15.5 5z" />
    <glyph glyph-name="at" unicode="@" horiz-adv-x="942" 
d="M95.5 -145q-51.5 54 -51.5 141q0 28 5 63l74 462q14 90 53 137.5t97.5 64t144.5 16.5h355q100 0 152.5 -55t52.5 -144q0 -38 -6 -79l-39 -263q-15 -103 -75 -150.5t-163 -47.5h-114l-34 53q-15 -21 -49.5 -40t-81.5 -19q-63 0 -103.5 48.5t-40.5 146.5q0 107 39 186
t104.5 120t141.5 41q62 0 108.5 -18t89.5 -51l-54 -340q27 0 43 6t27 25.5t17 58.5l39 264q4 32 4 43q0 40 -28 60t-74 20h-342q-64 0 -88.5 -33.5t-33.5 -89.5l-70 -442q-3 -15 -3 -29q0 -75 89 -75h386l-17 -107q-50 -10 -129 -18.5t-163 -8.5h-88q-123 0 -174.5 54z
M523 151.5q26 11.5 40 28.5l32 208q-37 5 -51 5q-59 0 -92.5 -50t-33.5 -132q0 -71 52 -71q27 0 53 11.5z" />
    <glyph glyph-name="A" unicode="A" horiz-adv-x="709" 
d="M353 743h242l102 -743h-201l-11 118h-223l-48 -118h-199zM467 292l-21 286l-112 -286h133z" />
    <glyph glyph-name="B" unicode="B" horiz-adv-x="649" 
d="M173 743h306q113 0 156.5 -41t43.5 -117q0 -28 -4 -53q-9 -53 -44.5 -93.5t-91.5 -52.5q58 -16 83.5 -49.5t25.5 -96.5q0 -30 -6 -65q-15 -96 -84.5 -135.5t-197.5 -39.5h-303zM425 451q27 0 39.5 12.5t17.5 33.5q5 23 5 34q0 21 -12 29.5t-37 8.5h-98l-19 -118h104z
M385 174q40 0 57.5 14t22.5 52q1 7 1 20q0 24 -14.5 34t-49.5 10h-104l-20 -130h107z" />
    <glyph glyph-name="C" unicode="C" horiz-adv-x="592" 
d="M151.5 63.5q-65.5 69.5 -65.5 194.5q0 65 12 141q28 180 103 265t219 85q83 0 145 -14.5t103 -34.5l-25 -154q-42 13 -93 21t-94 8q-50 0 -79 -12.5t-50.5 -57.5t-36.5 -139q-12 -79 -12 -110q0 -47 27 -67.5t95 -20.5q56 0 93.5 2.5t91.5 8.5l-24 -153q-81 -32 -213 -32
q-131 0 -196.5 69.5z" />
    <glyph glyph-name="D" unicode="D" horiz-adv-x="696" 
d="M173 743h291q146 0 204 -67t58 -193q0 -72 -11 -139q-20 -128 -67 -203.5t-122 -108t-186 -32.5h-285zM361 174q69 0 106 46.5t54 154.5q11 72 11 99q0 54 -26.5 74.5t-89.5 20.5h-77l-62 -395h84z" />
    <glyph glyph-name="E" unicode="E" horiz-adv-x="604" 
d="M131.5 25q-52.5 31 -52.5 110q0 17 3 38l61 383q29 187 217 187q127 0 304 -15l-26 -164h-248q-30 0 -43 -13.5t-18 -43.5l-7 -47l246 -10l-24 -154l-250 -10l-9 -58q-1 -5 -1 -13q0 -39 47 -39h246l-26 -164q-92 -9 -158.5 -13.5t-141.5 -4.5q-67 0 -119.5 31z" />
    <glyph glyph-name="F" unicode="F" horiz-adv-x="572" 
d="M144 563q16 99 75 139.5t139 40.5q152 0 304 -16l-26 -164h-246q-30 0 -43.5 -13.5t-17.5 -41.5l-12 -79l248 -9l-25 -154l-250 -10l-41 -256h-194z" />
    <glyph glyph-name="G" unicode="G" horiz-adv-x="666" 
d="M126.5 50.5q-44.5 56.5 -44.5 180.5q0 65 18 179q27 173 110 256t222 83q91 0 151.5 -9.5t113.5 -26.5l-24 -152q-77 15 -216 15q-58 0 -89 -18t-48 -61t-30 -129q-12 -76 -12 -118q0 -77 67 -77q30 0 65.5 3t53.5 7l15 96h-103l25 154l37 3q77 7 129 7q78 0 124 -2
l-70 -441h-146l-18 49q-31 -20 -87.5 -37.5t-94.5 -17.5q-104 0 -148.5 56.5z" />
    <glyph glyph-name="H" unicode="H" horiz-adv-x="708" 
d="M173 743h194l-46 -286h220l46 286h194l-118 -743h-194l45 283h-220l-45 -283h-194z" />
    <glyph glyph-name="I" unicode="I" horiz-adv-x="304" 
d="M173 743h194l-118 -743h-194z" />
    <glyph glyph-name="J" unicode="J" horiz-adv-x="417" 
d="M91 0q-35 6 -57 15l25 155h64q40 0 58.5 15.5t23.5 46.5l81 511h194l-88 -554q-17 -106 -71 -150.5t-164 -44.5q-31 0 -66 6z" />
    <glyph glyph-name="K" unicode="K" horiz-adv-x="671" 
d="M173 743h194l-45 -283h76l174 283h197l-229 -374l131 -369h-192l-98 286h-87l-45 -286h-194z" />
    <glyph glyph-name="L" unicode="L" horiz-adv-x="537" 
d="M125 37.5q-42 37.5 -42 112.5q0 26 4 50l86 543h194l-82 -517q-1 -5 -1 -13q0 -39 47 -39h214l-28 -174h-274q-76 0 -118 37.5z" />
    <glyph glyph-name="M" unicode="M" horiz-adv-x="906" 
d="M241 743h182l70 -522l236 522h180l-29 -743h-187l16 400l-162 -400h-182l-35 392l-108 -392h-192z" />
    <glyph glyph-name="N" unicode="N" horiz-adv-x="709" 
d="M173 743h154l195 -414l66 414h194l-118 -743h-154l-195 414l-66 -414h-194z" />
    <glyph glyph-name="O" unicode="O" horiz-adv-x="704" 
d="M206.5 14q-57.5 20 -90.5 74t-33 151q0 69 15 159q22 135 65.5 211t117 108t189.5 32q84 0 141.5 -20.5t91.5 -77t34 -159.5q0 -64 -15 -156q-22 -139 -65.5 -212.5t-115 -101.5t-191.5 -28q-86 0 -143.5 20zM457 190q29 21 45 61.5t27 109.5q14 88 14 129
q0 50 -22.5 67.5t-77.5 17.5q-48 0 -76.5 -17.5t-45.5 -60.5t-30 -124q-14 -84 -14 -124q0 -45 23 -62.5t80 -17.5q48 0 77 21z" />
    <glyph glyph-name="P" unicode="P" horiz-adv-x="616" 
d="M173 743h306q98 0 154 -49t56 -169q0 -19 -10 -82q-20 -124 -86 -181.5t-153 -57.5q-44 0 -88.5 6.5t-66.5 15.5l-36 -226h-194zM412 378q31 0 50 25t24 62q5 28 5 41q0 34 -12 48.5t-38 14.5h-102l-30 -191h103z" />
    <glyph glyph-name="Q" unicode="Q" horiz-adv-x="704" 
d="M206.5 14q-57.5 20 -90.5 74t-33 151q0 69 15 159q22 135 65.5 211t117 108t189.5 32q84 0 141.5 -20.5t91.5 -77t34 -159.5q0 -64 -15 -156q-22 -139 -65.5 -212.5t-115 -101.5t-191.5 -28q-86 0 -143.5 20zM457 190q29 21 45 61.5t27 109.5q14 88 14 129
q0 50 -22.5 67.5t-77.5 17.5q-48 0 -76.5 -17.5t-45.5 -60.5t-30 -124q-14 -84 -14 -124q0 -45 23 -62.5t80 -17.5q48 0 77 21zM355 -170q-55 42 -55 129h134q1 -20 16.5 -28.5t48.5 -8.5q34 0 86 10l-22 -140q-24 -4 -63 -4q-90 0 -145 42z" />
    <glyph glyph-name="R" unicode="R" horiz-adv-x="644" 
d="M173 743h292q108 0 162 -47t54 -147q0 -30 -6 -66q-9 -61 -32.5 -100.5t-47.5 -58.5t-54 -36l83 -288h-197l-63 256h-74l-41 -256h-194zM395 410q44 0 61 19t24 65q2 10 2 27q0 24 -13 36t-43 12h-87l-25 -159h81z" />
    <glyph glyph-name="S" unicode="S" horiz-adv-x="576" 
d="M56 23l24 154q93 -9 224 -9q57 0 79.5 10.5t27.5 37.5l2 11q1 5 1 13q0 20 -16.5 28t-53.5 8h-40q-89 0 -140.5 49t-51.5 126q0 21 3 43l9 57q17 104 88 151t195 47q117 0 232 -29l-24 -154q-94 9 -233 9q-69 0 -77 -47l-2 -11q-2 -12 -2 -17q0 -41 51 -41h44
q98 0 152.5 -47.5t54.5 -123.5q0 -18 -3 -39l-11 -70q-10 -63 -38.5 -103t-87 -61t-154.5 -21q-147 0 -253 29z" />
    <glyph glyph-name="T" unicode="T" horiz-adv-x="612" 
d="M294 569h-184l28 174h562l-28 -174h-184l-90 -569h-194z" />
    <glyph glyph-name="U" unicode="U" horiz-adv-x="696" 
d="M159.5 50.5q-62.5 56.5 -62.5 177.5q0 40 13 122l63 393h194l-67 -423q-1 -10 -5 -34.5t-4 -40.5q0 -39 20 -58t67 -19q36 0 58.5 13.5t37.5 46t24 92.5l67 423h194l-72 -453q-19 -122 -61.5 -186t-107.5 -87t-168 -23q-128 0 -190.5 56.5z" />
    <glyph glyph-name="V" unicode="V" horiz-adv-x="710" 
d="M132 743h201l56 -532l226 532h199l-338 -743h-242z" />
    <glyph glyph-name="W" unicode="W" horiz-adv-x="1050" 
d="M133 743h201l20 -452l183 452h174l38 -452l164 452h201l-288 -743h-194l-54 454l-199 -454h-194z" />
    <glyph glyph-name="X" unicode="X" horiz-adv-x="680" 
d="M510 361l170 -361h-210l-97 214l-151 -214h-214l289 377l-175 366h211l101 -220l155 220h214z" />
    <glyph glyph-name="Y" unicode="Y" horiz-adv-x="660" 
d="M259 200l-131 543h211l49 -335l161 335h219l-315 -543l-32 -200h-194z" />
    <glyph glyph-name="Z" unicode="Z" horiz-adv-x="573" 
d="M56 164l345 405h-281l28 174h503l-26 -164l-344 -405h290l-28 -174h-513z" />
    <glyph glyph-name="bracketleft" unicode="[" horiz-adv-x="344" 
d="M44 -51q0 23 6 63l99 628q16 101 71 151.5t157 50.5h90l-24 -154h-30q-31 0 -49.5 -17.5t-24.5 -60.5l-94 -588q-2 -20 -2 -26q0 -28 13.5 -40t38.5 -12h30l-24 -154h-90q-167 0 -167 159z" />
    <glyph glyph-name="backslash" unicode="\" horiz-adv-x="502" 
d="M133 770h199l148 -842h-199z" />
    <glyph glyph-name="bracketright" unicode="]" horiz-adv-x="344" 
d="M2 -56h30q31 0 49.5 17.5t24.5 60.5l94 588q2 20 2 26q0 28 -13.5 40t-38.5 12h-30l24 154h90q87 0 128 -36.5t41 -109.5q0 -31 -5 -56l-99 -628q-15 -94 -66.5 -158t-164.5 -64h-90z" />
    <glyph glyph-name="asciicircum" unicode="^" horiz-adv-x="378" 
d="M234 671h131l69 -140h-111l-41 51l-58 -51h-112z" />
    <glyph glyph-name="underscore" unicode="_" horiz-adv-x="609" 
d="M-9 -57h609l-24 -154h-609z" />
    <glyph glyph-name="grave" unicode="`" horiz-adv-x="244" 
d="M134 774h154l45 -143h-114z" />
    <glyph glyph-name="a" unicode="a" horiz-adv-x="575" 
d="M104 41q-39 47 -39 141q0 36 12 117q20 124 90 185t200 61q74 0 138.5 -18.5t103.5 -47.5l-76 -479h-174l-12 52q-23 -23 -63.5 -40.5t-80.5 -17.5q-60 0 -99 47zM366 178l33 205q-6 2 -17.5 4.5t-23.5 2.5q-38 0 -60.5 -27t-30.5 -75q-8 -45 -8 -70q0 -69 43 -69
q37 0 64 29z" />
    <glyph glyph-name="b" unicode="b" horiz-adv-x="589" 
d="M313.5 8.5q-39.5 14.5 -66.5 40.5l-29 -49h-174l121 763h194l-39 -248q28 13 60 21.5t56 8.5q81 0 126.5 -51t45.5 -143q0 -39 -14 -128q-17 -111 -68.5 -170t-127.5 -59q-45 0 -84.5 14.5zM382.5 176q18.5 27 27.5 97q4 38 4 47q0 70 -45 70q-18 0 -38 -4t-33 -11
l-32 -204q12 -12 27 -17t42 -5q29 0 47.5 27z" />
    <glyph glyph-name="c" unicode="c" horiz-adv-x="471" 
d="M120 42.5q-51 48.5 -51 161.5q0 41 9 96q37 245 251 245q77 0 190 -36l-18 -111h-125q-52 0 -75 -31.5t-34 -96.5q-5 -32 -5 -47q0 -84 72 -84h133l-17 -109q-39 -18 -81 -27t-99 -9q-99 0 -150 48.5z" />
    <glyph glyph-name="d" unicode="d" horiz-adv-x="580" 
d="M104.5 44q-36.5 50 -36.5 142q0 56 12 117q16 82 44.5 134t83 80t143.5 28q47 0 76 -4l35 222h194l-121 -763h-174l-12 52q-28 -27 -63 -42.5t-71 -15.5q-74 0 -110.5 50zM369 178l33 205q-16 7 -41 7q-33 0 -57.5 -23t-37.5 -96q-5 -32 -5 -54q0 -68 44 -68q35 0 64 29z
" />
    <glyph glyph-name="e" unicode="e" horiz-adv-x="548" 
d="M116.5 47q-48.5 53 -48.5 156q0 42 9 96q21 132 93 189t194 57q92 0 153 -37t61 -132q0 -108 -57.5 -147t-163.5 -39q-62 0 -97 8q-2 -12 -2 -20q0 -22 24 -32.5t75 -10.5h179l-18 -113q-112 -28 -240 -28q-113 0 -161.5 53zM380.5 309.5q17.5 14.5 17.5 45.5
q0 20 -12 31.5t-35 11.5q-32 0 -51 -24.5t-28 -74.5q26 -4 39 -4q52 0 69.5 14.5z" />
    <glyph glyph-name="f" unicode="f" horiz-adv-x="401" 
d="M141 385h-71l20 124l75 30l13 77q14 86 66 119.5t148 33.5q71 0 124 -11l-23 -143h-63q-34 0 -50 -11.5t-19 -43.5l-2 -21h109l-24 -154h-109l-61 -385h-194z" />
    <glyph glyph-name="g" unicode="g" horiz-adv-x="582" 
d="M26 -221l21 134h174q55 0 82 13t33 50l12 76q-20 -22 -63.5 -40t-81.5 -18q-70 0 -103.5 54.5t-33.5 134.5q0 37 14 130q37 232 284 232q73 0 137.5 -11.5t112.5 -28.5l-89 -559q-15 -95 -80.5 -139t-196.5 -44q-39 0 -97 5zM367 178l33 205q-20 7 -45 7q-29 0 -53 -24
t-33 -75q-5 -26 -7 -42.5t-2 -31.5q0 -68 45 -68q35 0 62 29z" />
    <glyph glyph-name="h" unicode="h" horiz-adv-x="600" 
d="M165 763h194l-44 -276q29 25 73 41.5t98 16.5q65 0 98.5 -32t33.5 -104q0 -30 -6 -69l-54 -340h-194l50 318q1 5 1 15q0 38 -41 38q-48 0 -83 -37l-53 -334h-194z" />
    <glyph glyph-name="i" unicode="i" horiz-adv-x="280" 
d="M145.5 613.5q-5.5 6.5 -3.5 16.5l17 111q5 25 28 25h152q11 0 15.5 -7t2.5 -18l-17 -111q-5 -23 -26 -23h-152q-11 0 -16.5 6.5zM129 539h194l-85 -539h-194z" />
    <glyph glyph-name="j" unicode="j" horiz-adv-x="280" 
d="M145.5 613.5q-5.5 6.5 -3.5 16.5l17 111q5 25 28 25h152q11 0 15.5 -7t2.5 -18l-17 -111q-5 -23 -26 -23h-152q-11 0 -16.5 6.5zM129 539h194l-86 -543q-16 -103 -87 -233h-144z" />
    <glyph glyph-name="k" unicode="k" horiz-adv-x="587" 
d="M165 763h194l-63 -397q114 31 147 173h194q-49 -182 -163 -251l131 -288h-198l-94 228q-24 -6 -40 -6l-35 -222h-194z" />
    <glyph glyph-name="l" unicode="l" horiz-adv-x="342" 
d="M118.5 35.5q-47.5 35.5 -47.5 93.5q0 42 3 60l91 574h194l-80 -505q-8 -52 -8 -69q0 -22 10.5 -30.5t35.5 -12.5l29 -5l-22 -141h-68q-90 0 -137.5 35.5z" />
    <glyph glyph-name="m" unicode="m" horiz-adv-x="921" 
d="M129 539h162l24 -52q36 28 76 43t96 15q44 0 75 -18t52 -60q40 40 88 59t92 19q77 0 110 -34t33 -94q0 -47 -8 -95l-51 -322h-194l50 317q1 5 1 14q0 40 -46 40q-41 0 -78 -37l-3 -19l-50 -315h-194l50 317q1 6 1 15q0 21 -11.5 30t-33.5 9q-25 0 -43.5 -10t-35.5 -27
l-53 -334h-194z" />
    <glyph glyph-name="n" unicode="n" horiz-adv-x="600" 
d="M129 539h162l24 -52q73 58 169 58q62 0 98 -32.5t36 -85.5q0 -25 -2 -49.5t-10 -73.5l-48 -304h-194l47 298q4 25 4 36q0 37 -45 37q-22 0 -42.5 -10t-36.5 -27l-53 -334h-194z" />
    <glyph glyph-name="o" unicode="o" horiz-adv-x="579" 
d="M123 43q-55 49 -55 142q0 54 8 104q17 107 52 162t92.5 74.5t154.5 19.5q90 0 137.5 -21t65 -64t17.5 -116q0 -50 -9 -109q-15 -97 -50.5 -149t-94 -72t-152.5 -20q-111 0 -166 49zM353 158q15 9 23.5 32.5t16.5 71.5q9 68 9 91t-12 32t-40 9q-29 0 -44 -10.5
t-23.5 -37.5t-16.5 -84q-6 -40 -6 -68q0 -25 11 -35t38 -10q29 0 44 9z" />
    <glyph glyph-name="p" unicode="p" horiz-adv-x="576" 
d="M125 511q92 17 156 25.5t131 8.5q99 0 140.5 -48t41.5 -149q0 -43 -10 -110q-20 -124 -88 -184t-163 -60q-30 0 -56 4t-38 11l-39 -246h-194zM366 184.5q22 26.5 33 89.5q4 28 4 39q0 41 -11 59t-36 18h-57l-36 -225q14 -7 46 -7q35 0 57 26.5z" />
    <glyph glyph-name="q" unicode="q" horiz-adv-x="573" 
d="M346 52q-22 -23 -61 -40.5t-80 -17.5q-73 0 -106 46.5t-33 138.5q0 44 10 111q23 143 96 199t180 56q78 0 149 -11.5t111 -28.5l-118 -742h-194zM337.5 157.5q16.5 8.5 28.5 20.5l33 205q-24 7 -44 7q-41 0 -60 -27t-30 -86q-7 -38 -7 -59q0 -69 44 -69q19 0 35.5 8.5z
" />
    <glyph glyph-name="r" unicode="r" horiz-adv-x="435" 
d="M130 539h174l9 -72q30 36 63 57t73 21q27 0 46 -5l-29 -194h-58q-39 0 -70 -10t-50 -26l-49 -310h-194z" />
    <glyph glyph-name="s" unicode="s" horiz-adv-x="516" 
d="M140 1.5q-48 7.5 -94 23.5l18 113h242q12 0 20 5t10 13l2 12l1 9q0 15 -25 15h-68q-71 0 -116.5 30t-45.5 90q0 31 3 48l6 35q12 71 67 110.5t173 39.5q53 0 110.5 -9t97.5 -23l-18 -113h-227q-15 0 -22 -4t-10 -15l-1 -4q-2 -10 -2 -14q0 -8 5 -12.5t20 -4.5h81
q69 0 110 -30t41 -80q0 -33 -3 -51l-7 -47q-12 -76 -74.5 -110t-171.5 -34q-74 0 -122 7.5z" />
    <glyph glyph-name="t" unicode="t" horiz-adv-x="424" 
d="M154 31q-45 31 -45 96q0 44 10 98l31 160h-83l20 124l95 30l48 151h154l-24 -151h109l-24 -154h-109l-26 -161q-1 -4 -3 -18t-2 -23q0 -17 9 -24t30 -9l59 -6l-23 -144h-91q-90 0 -135 31z" />
    <glyph glyph-name="u" unicode="u" horiz-adv-x="600" 
d="M67 122q0 36 5 69l55 348h194l-50 -321q-1 -5 -1 -15q0 -35 42 -35q45 0 82 37l53 334h194l-85 -539h-174l-12 52q-44 -32 -80.5 -45t-93.5 -13q-129 0 -129 128z" />
    <glyph glyph-name="v" unicode="v" horiz-adv-x="557" 
d="M75 539h200l25 -360l79 199q19 47 29 84.5t14 84.5h181q-2 -60 -22.5 -117t-56.5 -133l-144 -297h-224z" />
    <glyph glyph-name="w" unicode="w" horiz-adv-x="869" 
d="M75 539h200l24 -360l141 360h123l63 -360l61 216q31 104 35 152h192q0 -50 -18 -111t-40 -110l-150 -326h-205l-45 222l-99 -222h-205z" />
    <glyph glyph-name="x" unicode="x" horiz-adv-x="575" 
d="M433 254l148 -254h-199l-79 135l-111 -135h-198l228 276l-154 263h198l83 -142l98 142h208z" />
    <glyph glyph-name="y" unicode="y" horiz-adv-x="587" 
d="M96 -101q73 14 114.5 36.5t62.5 64.5q-83 7 -115.5 44.5t-39.5 111.5l-32 383h200l3 -342q0 -21 12.5 -30.5t29.5 -10.5l86 238q31 85 34 153h184q0 -133 -74 -290l-116 -247q-61 -129 -143 -184t-206 -63v136z" />
    <glyph glyph-name="z" unicode="z" horiz-adv-x="502" 
d="M53 138l256 247h-228l24 154h452l-21 -138l-257 -247h217q-3 -25 -11.5 -77.5t-12.5 -76.5h-441z" />
    <glyph glyph-name="braceleft" unicode="{" horiz-adv-x="322" 
d="M124.5 -180q-50.5 30 -50.5 100q0 37 27 192q14 79 14 92q0 22 -11.5 31.5t-40.5 9.5l28 177q28 3 46 14.5t22 38.5l29 181q12 74 44 114.5t85.5 56t140.5 15.5l-25 -154q-30 0 -41 -15.5t-17 -58.5l-27 -174q-8 -53 -38.5 -77.5t-83.5 -28.5q89 -19 89 -86
q0 -26 -21 -146q-18 -114 -18 -128q0 -20 8.5 -30t29.5 -10l-23 -144q-116 0 -166.5 30z" />
    <glyph glyph-name="bar" unicode="|" horiz-adv-x="250" 
d="M170 770h154l-133 -842h-154z" />
    <glyph glyph-name="braceright" unicode="}" horiz-adv-x="322" 
d="M0 -66q30 0 40.5 16t15.5 46l35 215q13 82 120 103q-44 3 -67 21.5t-23 58.5q0 22 21 154q14 98 14 102q0 22 -8 30t-29 8l24 154q214 0 214 -148q0 -13 -16 -107q-4 -27 -12 -80.5t-8 -61.5q0 -38 53 -43l-28 -177q-59 0 -67 -53l-33 -210q-11 -72 -40.5 -108.5
t-82.5 -50t-146 -13.5z" />
    <glyph glyph-name="asciitilde" unicode="~" horiz-adv-x="404" 
d="M320.5 535.5q-12.5 4.5 -30.5 13.5q-16 8 -27.5 12.5t-24.5 4.5q-28 0 -49.5 -8t-49.5 -27l-16 67q26 31 60.5 52.5t73.5 21.5q14 0 27 -4.5t33 -14.5q12 -6 24.5 -11t22.5 -5q49 0 93 40l15 -74q-26 -30 -57.5 -51t-66.5 -21q-15 0 -27.5 4.5z" />
    <glyph glyph-name="uni00A0" unicode="&#xa0;" horiz-adv-x="250" 
 />
    <glyph glyph-name="exclamdown" unicode="&#xa1;" horiz-adv-x="277" 
d="M296.5 540q5.5 -5 5.5 -14v-4l-19 -117q-2 -11 -9 -18t-19 -7h-113q-21 0 -21 18v7l19 117q4 23 28 23h113q10 0 15.5 -5zM204 -199h-194l112 536h144z" />
    <glyph glyph-name="cent" unicode="&#xa2;" horiz-adv-x="485" 
d="M211 -5q-50 7 -83 25.5t-52.5 61t-19.5 117.5q0 106 32.5 181t88 114t124.5 42l15 98h108l-15 -100q63 -6 126 -34l-18 -114q-11 1 -52 3.5t-97 2.5q-59 0 -87.5 -50.5t-28.5 -137.5q0 -38 17 -51.5t59 -13.5q57 0 101 3.5t56 4.5l-18 -114q-32 -19 -67.5 -27t-80.5 -12
l-14 -89h-108z" />
    <glyph glyph-name="sterling" unicode="&#xa3;" horiz-adv-x="609" 
d="M78 149l86 25l20 130l-80 13l15 95l87 27l6 43q23 141 94 204t210 63q85 0 170 -16l-25 -157h-165q-42 0 -60.5 -15.5t-25.5 -56.5l-10 -65l158 -17l-17 -105l-163 -13l-20 -130h239l-28 -174h-515z" />
    <glyph glyph-name="currency" unicode="&#xa4;" horiz-adv-x="609" 
d="M513 267l68 -81l-89 -77l-68 81q-41 -19 -86 -19q-46 0 -83 23l-103 -85l-65 77l100 86q-12 29 -12 61q0 61 34 112l-68 81l89 77l68 -81q41 19 86 19q46 0 86 -24l100 86l65 -77l-99 -86q12 -28 12 -61q0 -59 -35 -112zM292.5 287q21.5 -22 54.5 -22q46 0 76 28t30 77
q0 33 -22 55t-56 22q-45 0 -74.5 -28t-29.5 -77q0 -33 21.5 -55z" />
    <glyph glyph-name="yen" unicode="&#xa5;" horiz-adv-x="609" 
d="M520 355h64l-15 -94h-104l-30 -53h126l-15 -94h-130l-18 -114h-194l18 114h-130l15 94h127l-13 53h-106l15 94h69l-94 388h211l49 -335l161 335h219z" />
    <glyph glyph-name="brokenbar" unicode="&#xa6;" horiz-adv-x="250" 
d="M170 770h154l-54 -341h-154zM89 256h154l-52 -328h-154z" />
    <glyph glyph-name="section" unicode="&#xa7;" horiz-adv-x="532" 
d="M70 11l21 137h204q22 0 30 4t10 15q3 15 3 21q0 12 -25 12h-80q-74 0 -113 22t-39 75q0 8 2 26l5 32q7 42 27.5 65t63.5 39q-26 14 -37 36.5t-11 53.5q0 20 3 41l8 48q11 65 63 105.5t150 40.5q61 0 126.5 -5t104.5 -15l-21 -134h-204q-37 0 -40 -24l-2 -15q0 -8 5 -12
t20 -4h77q78 0 117 -23t39 -75q0 -12 -3 -27l-5 -32q-5 -31 -27.5 -59.5t-60.5 -43.5q52 -18 52 -82q0 -15 -3 -30l-7 -43q-14 -91 -67.5 -128.5t-142.5 -37.5q-157 0 -243 17zM335 344q21 0 30.5 6t12.5 24l5 29v5q0 22 -34 22h-30q-36 0 -39 -29l-5 -28v-5q0 -12 8 -18
t22 -6h30z" />
    <glyph glyph-name="dieresis" unicode="&#xa8;" horiz-adv-x="390" 
d="M134.5 632q-5.5 5 -5.5 14l19 115q3 25 26 25h90q20 0 20 -20l-18 -116q-1 -11 -8.5 -17t-18.5 -6h-90q-9 0 -14.5 5zM331.5 632q-5.5 5 -5.5 14l19 115q3 25 26 25h90q20 0 20 -20l-18 -116q-1 -11 -8.5 -17t-18.5 -6h-90q-9 0 -14.5 5z" />
    <glyph glyph-name="copyright" unicode="&#xa9;" horiz-adv-x="792" 
d="M201 31.5q-58 31.5 -89.5 90t-31.5 136.5q0 117 31 224t108 178.5t205 71.5h170q116 0 177.5 -61t61.5 -167q0 -130 -42 -246t-116.5 -187t-166.5 -71h-170q-79 0 -137 31.5zM514 104q55 0 104 48t79.5 135.5t30.5 200.5q0 63 -29.5 101.5t-91.5 38.5h-200
q-69 0 -119.5 -48t-76.5 -128.5t-26 -175.5q0 -80 36 -126t103 -46h190zM259 295q0 69 26.5 136t73 109.5t104.5 42.5q39 0 85.5 -5.5t79.5 -18.5l-15 -92q-81 12 -126 12q-57 0 -84.5 -46t-27.5 -112q0 -38 17.5 -54t55.5 -16q36 0 66.5 4t72.5 12l-14 -92q-37 -18 -78 -23
t-102 -5q-134 0 -134 148z" />
    <glyph glyph-name="ordfeminine" unicode="&#xaa;" horiz-adv-x="412" 
d="M117.5 390.5q-28.5 34.5 -28.5 103.5q0 30 9 87q14 87 67 131t149 44q57 0 105.5 -14t79.5 -35l-55 -347h-144l-11 37q-16 -17 -43.5 -29t-56.5 -12q-43 0 -71.5 34.5zM292 493q9 5 13 11l20 120h-19q-35 0 -49 -51q-8 -30 -8 -52q0 -33 23 -33q11 0 20 5zM74 336h372
l-14 -88h-372z" />
    <glyph glyph-name="guillemotleft" unicode="&#xab;" horiz-adv-x="626" 
d="M64 284l261 223l82 -95l-150 -128l111 -130l-109 -98zM314 284l261 223l82 -95l-150 -128l111 -130l-109 -98z" />
    <glyph glyph-name="logicalnot" unicode="&#xac;" horiz-adv-x="609" 
d="M600 455l-47 -296h-154l38 240h-294l25 154h448z" />
    <glyph glyph-name="uni00AD" unicode="&#xad;" horiz-adv-x="353" 
d="M78 367h314l-24 -154h-314z" />
    <glyph glyph-name="registered" unicode="&#xae;" horiz-adv-x="792" 
d="M201 31.5q-58 31.5 -89.5 90t-31.5 136.5q0 117 31 224t108 178.5t205 71.5h170q116 0 177.5 -61t61.5 -167q0 -130 -42 -246t-116.5 -187t-166.5 -71h-170q-79 0 -137 31.5zM514 104q55 0 104 48t79.5 135.5t30.5 200.5q0 63 -29.5 101.5t-91.5 38.5h-200
q-69 0 -119.5 -48t-76.5 -128.5t-26 -175.5q0 -80 36 -126t103 -46h190zM329 580h187q50 0 82.5 -23.5t32.5 -79.5t-24 -104t-64 -62l59 -158h-114l-51 162h-36l-26 -162h-114zM483 399q12 0 22 18t10 37q0 22 -20 22h-69l-12 -77h69z" />
    <glyph glyph-name="macron" unicode="&#xaf;" horiz-adv-x="348" 
d="M146 745h292l-18 -114h-292z" />
    <glyph glyph-name="degree" unicode="&#xb0;" horiz-adv-x="311" 
d="M136 507q-36 37 -36 97q0 45 20 84t60 63t99 24q60 0 94.5 -36.5t34.5 -96.5q0 -73 -44.5 -122.5t-133.5 -49.5q-58 0 -94 37zM299 578.5q21 21.5 21 57.5q0 24 -15 38t-40 14q-34 0 -55.5 -22t-21.5 -57q0 -24 15 -38t41 -14q34 0 55 21.5z" />
    <glyph glyph-name="plusminus" unicode="&#xb1;" horiz-adv-x="609" 
d="M117 233h448l-25 -154h-448zM596 429h-147l-23 -147h-154l23 147h-147l24 154h147l23 147h154l-23 -147h147z" />
    <glyph glyph-name="uni00B2" unicode="&#xb2;" horiz-adv-x="414" 
d="M114 474l157 149q20 21 33 38.5t13 24.5q0 10 -6 13.5t-20 3.5h-136l19 120q50 11 86 17t84 6q73 0 105 -24.5t32 -76.5q0 -53 -23 -98t-81 -100l-58 -57h137l-22 -135h-339z" />
    <glyph glyph-name="uni00B3" unicode="&#xb3;" horiz-adv-x="414" 
d="M96 372l20 122h140q35 0 45 2.5t11 8.5l1 6v5q0 9 -8.5 13.5t-27.5 5.5l-116 5l19 118l110 8q23 2 33.5 5t11.5 10l1 6v3q0 8 -10.5 10.5t-38.5 2.5h-135l19 121q122 22 202 22q58 0 90 -24.5t33 -74.5q0 -8 -2 -28l-5 -30q-5 -35 -18.5 -56.5t-47.5 -33.5
q24 -8 33.5 -28t9.5 -50q0 -14 -3 -31l-3 -18q-10 -59 -53 -90t-112 -31q-104 0 -199 21z" />
    <glyph glyph-name="acute" unicode="&#xb4;" horiz-adv-x="244" 
d="M192 774h164l-121 -143h-124z" />
    <glyph glyph-name="uni00B5" unicode="&#xb5;" horiz-adv-x="600" 
 />
    <glyph glyph-name="paragraph" unicode="&#xb6;" horiz-adv-x="574" 
d="M283 319q-29 -17 -71 -17q-62 0 -92 31t-30 82q0 14 6 50l22 138q11 69 58 104.5t120 35.5h406l-20 -126h-50l-98 -617h-124l98 619h-54l-141 -889h-124zM299 426l31 193h-44q-27 0 -36 -9.5t-14 -40.5l-14 -87q-4 -23 -4 -32q0 -14 9 -19t28 -5h44z" />
    <glyph glyph-name="periodcentered" unicode="&#xb7;" horiz-adv-x="256" 
d="M103.5 311.5q-5.5 6.5 -4.5 16.5l19 117q2 11 9 18t19 7h113q26 0 21 -25l-19 -117q-4 -23 -28 -23h-113q-11 0 -16.5 6.5z" />
    <glyph glyph-name="cedilla" unicode="&#xb8;" horiz-adv-x="238" 
d="M168 -68.5q15 -15.5 15 -44.5q0 -39 -32 -64.5t-96 -25.5h-59l12 79l16 3q36 6 36 32q0 19 -27 27l63 82h86l-53 -69q24 -4 39 -19.5z" />
    <glyph glyph-name="uni00B9" unicode="&#xb9;" horiz-adv-x="414" 
d="M462 490l-22 -135h-337l22 135h92l35 222h-85l15 96l108 38h137l-57 -356h92z" />
    <glyph glyph-name="ordmasculine" unicode="&#xba;" horiz-adv-x="424" 
d="M133 392.5q-41 36.5 -42 103.5q0 33 6 77q12 78 38.5 117t69.5 52.5t116 13.5q69 0 105 -15.5t48.5 -46.5t13.5 -87q0 -40 -7 -79q-11 -70 -37.5 -107t-70 -51t-114.5 -14q-85 0 -126 36.5zM307.5 500q8.5 12 14.5 50q5 28 5 61q-1 9 -7 12.5t-20 3.5q-24 0 -31 -12
t-13 -52q-4 -27 -4 -40v-16q1 -9 5.5 -14t18.5 -5q23 0 31.5 12zM74 336h372l-14 -88h-372z" />
    <glyph glyph-name="guillemotright" unicode="&#xbb;" horiz-adv-x="626" 
d="M54 154l151 130l-110 128l112 95l191 -223l-267 -228zM304 154l151 130l-110 128l112 95l191 -223l-267 -228z" />
    <glyph glyph-name="onequarter" unicode="&#xbc;" horiz-adv-x="1157" 
d="M777 770h131l-488 -770h-131zM937 4h-198l-16 66l185 342h157l-148 -281h40l8 54l40 68h125l-19 -122h32l-18 -104l-34 -23l-13 -79h-154zM462 490l-22 -135h-337l22 135h92l35 222h-85l15 96l108 38h137l-57 -356h92z" />
    <glyph glyph-name="onehalf" unicode="&#xbd;" horiz-adv-x="1157" 
d="M777 770h131l-488 -770h-131zM779 44l157 149q20 21 33 38.5t13 24.5q0 10 -6 13.5t-20 3.5h-136l19 120q50 11 86 17t84 6q73 0 105 -24.5t32 -76.5q0 -53 -23 -98t-81 -100l-58 -57h137l-22 -135h-339zM462 490l-22 -135h-337l22 135h92l35 222h-85l15 96l108 38h137
l-57 -356h92z" />
    <glyph glyph-name="threequarters" unicode="&#xbe;" horiz-adv-x="1156" 
d="M777 770h131l-488 -770h-131zM937 14h-198l-16 66l185 342h157l-148 -281h40l8 54l40 68h125l-19 -122h32l-18 -104l-34 -23l-13 -79h-154zM106 372l20 122h140q35 0 45 2.5t11 8.5l1 6v5q0 9 -8.5 13.5t-27.5 5.5l-116 5l19 118l110 8q23 2 33.5 5t11.5 10l1 6v3
q0 8 -10.5 10.5t-38.5 2.5h-135l19 121q122 22 202 22q58 0 90 -24.5t33 -74.5q0 -8 -2 -28l-5 -30q-5 -35 -18.5 -56.5t-47.5 -33.5q24 -8 33.5 -28t9.5 -50q0 -14 -3 -31l-3 -18q-10 -59 -53 -90t-112 -31q-104 0 -199 21z" />
    <glyph glyph-name="questiondown" unicode="&#xbf;" horiz-adv-x="528" 
d="M477.5 540q5.5 -5 5.5 -14v-4l-19 -117q-2 -11 -9 -18t-19 -7h-113q-21 0 -21 18v7l19 117q4 23 28 23h113q10 0 15.5 -5zM412 113h-82q-35 0 -56 -12.5t-26 -44.5l-3 -15v-11q0 -52 87 -52q62 0 156 30l-23 -144q-99 -60 -221 -60q-96 0 -148.5 46.5t-52.5 122.5
q0 18 3 36l9 51q15 97 74.5 147t161.5 50l12 80h144z" />
    <glyph glyph-name="Agrave" unicode="&#xc0;" horiz-adv-x="709" 
d="M353 743h242l102 -743h-201l-11 118h-223l-48 -118h-199zM467 292l-21 286l-112 -286h133zM353 934h154l45 -143h-114z" />
    <glyph glyph-name="Aacute" unicode="&#xc1;" horiz-adv-x="709" 
d="M353 743h242l102 -743h-201l-11 118h-223l-48 -118h-199zM467 292l-21 286l-112 -286h133zM491 934h164l-121 -143h-124z" />
    <glyph glyph-name="Acircumflex" unicode="&#xc2;" horiz-adv-x="709" 
d="M353 743h242l102 -743h-201l-11 118h-223l-48 -118h-199zM467 292l-21 286l-112 -286h133zM428 937h131l68 -146h-111l-39 61l-60 -61h-112z" />
    <glyph glyph-name="Atilde" unicode="&#xc3;" horiz-adv-x="709" 
d="M353 743h242l102 -743h-201l-11 118h-223l-48 -118h-199zM467 292l-21 286l-112 -286h133zM333 890.5q34 31.5 81 31.5q23 0 42 -4.5t45 -12.5q31 -12 50 -12q28 0 35 36h96q-20 -76 -51 -109t-80 -33q-22 0 -42.5 4.5t-50.5 13.5q-33 11 -45 11q-24 0 -36 -31h-96
q18 74 52 105.5z" />
    <glyph glyph-name="Adieresis" unicode="&#xc4;" horiz-adv-x="709" 
d="M353 743h242l102 -743h-201l-11 118h-223l-48 -118h-199zM467 292l-21 286l-112 -286h133zM315.5 792q-5.5 5 -5.5 14l19 115q3 25 26 25h90q20 0 20 -20l-18 -116q-1 -11 -8.5 -17t-18.5 -6h-90q-9 0 -14.5 5zM512.5 792q-5.5 5 -5.5 14l19 115q3 25 26 25h90
q20 0 20 -20l-18 -116q-1 -11 -8.5 -17t-18.5 -6h-90q-9 0 -14.5 5z" />
    <glyph glyph-name="Aring" unicode="&#xc5;" horiz-adv-x="709" 
d="M353 743h242l102 -743h-201l-11 118h-223l-48 -118h-199zM467 292l-21 286l-112 -286h133zM386.5 784q-29.5 24 -29.5 79q0 57 39.5 94.5t109.5 37.5q61 0 90 -24t29 -79q0 -58 -39 -95t-109 -37q-61 0 -90.5 24zM523.5 846q12.5 17 12.5 43q0 37 -38 37q-26 0 -39 -17.5
t-13 -42.5q0 -37 40 -37q25 0 37.5 17z" />
    <glyph glyph-name="AE" unicode="&#xc6;" horiz-adv-x="1011" 
d="M524 18.5q-41 24.5 -41 84.5v15h-202l-86 -118h-189l370 552q74 111 174.5 151t224.5 40q131 0 297 -16l-26 -163h-259q-38 0 -51.5 -14t-19.5 -54l-6 -38l268 -10l-24 -154l-271 -10l-9 -56q-1 -5 -1 -13q0 -26 17 -32.5t47 -6.5h248l-26 -162q-66 -9 -168.5 -14
t-135.5 -6q-90 0 -131 24.5zM509 282l38 245l-155 -245h117z" />
    <glyph glyph-name="Ccedilla" unicode="&#xc7;" horiz-adv-x="592" 
d="M377 562.5q-29 -12.5 -50.5 -57.5t-36.5 -139q-12 -79 -12 -110q0 -47 27 -67.5t95 -20.5q56 0 93.5 2.5t91.5 8.5l-24 -153q-77 -30 -200 -32l-33 -43q24 -4 39 -19.5t15 -44.5q0 -39 -32 -64.5t-96 -25.5h-59l12 79l16 3q36 6 36 32q0 19 -27 27l47 62
q-96 17 -144.5 84t-48.5 174q0 65 12 141q28 180 103 265t219 85q83 0 145 -14.5t103 -34.5l-25 -154q-42 13 -93 21t-94 8q-50 0 -79 -12.5z" />
    <glyph glyph-name="Egrave" unicode="&#xc8;" horiz-adv-x="604" 
d="M131.5 25q-52.5 31 -52.5 110q0 17 3 38l61 383q29 187 217 187q127 0 304 -15l-26 -164h-248q-30 0 -43 -13.5t-18 -43.5l-7 -47l246 -10l-24 -154l-250 -10l-9 -58q-1 -5 -1 -13q0 -39 47 -39h246l-26 -164q-92 -9 -158.5 -13.5t-141.5 -4.5q-67 0 -119.5 31zM303 934
h154l45 -143h-114z" />
    <glyph glyph-name="Eacute" unicode="&#xc9;" horiz-adv-x="604" 
d="M131.5 25q-52.5 31 -52.5 110q0 17 3 38l61 383q29 187 217 187q127 0 304 -15l-26 -164h-248q-30 0 -43 -13.5t-18 -43.5l-7 -47l246 -10l-24 -154l-250 -10l-9 -58q-1 -5 -1 -13q0 -39 47 -39h246l-26 -164q-92 -9 -158.5 -13.5t-141.5 -4.5q-67 0 -119.5 31zM441 934
h164l-121 -143h-124z" />
    <glyph glyph-name="Ecircumflex" unicode="&#xca;" horiz-adv-x="604" 
d="M131.5 25q-52.5 31 -52.5 110q0 17 3 38l61 383q29 187 217 187q127 0 304 -15l-26 -164h-248q-30 0 -43 -13.5t-18 -43.5l-7 -47l246 -10l-24 -154l-250 -10l-9 -58q-1 -5 -1 -13q0 -39 47 -39h246l-26 -164q-92 -9 -158.5 -13.5t-141.5 -4.5q-67 0 -119.5 31zM378 937
h131l68 -146h-111l-39 61l-60 -61h-112z" />
    <glyph glyph-name="Edieresis" unicode="&#xcb;" horiz-adv-x="604" 
d="M131.5 25q-52.5 31 -52.5 110q0 17 3 38l61 383q29 187 217 187q127 0 304 -15l-26 -164h-248q-30 0 -43 -13.5t-18 -43.5l-7 -47l246 -10l-24 -154l-250 -10l-9 -58q-1 -5 -1 -13q0 -39 47 -39h246l-26 -164q-92 -9 -158.5 -13.5t-141.5 -4.5q-67 0 -119.5 31z
M265.5 792q-5.5 5 -5.5 14l19 115q3 25 26 25h90q20 0 20 -20l-18 -116q-1 -11 -8.5 -17t-18.5 -6h-90q-9 0 -14.5 5zM462.5 792q-5.5 5 -5.5 14l19 115q3 25 26 25h90q20 0 20 -20l-18 -116q-1 -11 -8.5 -17t-18.5 -6h-90q-9 0 -14.5 5z" />
    <glyph glyph-name="Igrave" unicode="&#xcc;" horiz-adv-x="304" 
d="M173 743h194l-118 -743h-194zM153 934h154l45 -143h-114z" />
    <glyph glyph-name="Iacute" unicode="&#xcd;" horiz-adv-x="304" 
d="M173 743h194l-118 -743h-194zM291 934h164l-121 -143h-124z" />
    <glyph glyph-name="Icircumflex" unicode="&#xce;" horiz-adv-x="304" 
d="M173 743h194l-118 -743h-194zM228 937h131l68 -146h-111l-39 61l-60 -61h-112z" />
    <glyph glyph-name="Idieresis" unicode="&#xcf;" horiz-adv-x="304" 
d="M173 743h194l-118 -743h-194zM115.5 792q-5.5 5 -5.5 14l19 115q3 25 26 25h90q20 0 20 -20l-18 -116q-1 -11 -8.5 -17t-18.5 -6h-90q-9 0 -14.5 5zM312.5 792q-5.5 5 -5.5 14l19 115q3 25 26 25h90q20 0 20 -20l-18 -116q-1 -11 -8.5 -17t-18.5 -6h-90q-9 0 -14.5 5z
" />
    <glyph glyph-name="Eth" unicode="&#xd0;" horiz-adv-x="696" 
d="M668 676q58 -67 58 -193q0 -72 -11 -139q-20 -128 -67 -203.5t-122 -108t-186 -32.5h-285l49 311h-50l20 124h50l49 308h291q146 0 204 -67zM532 474q0 54 -26.5 74.5t-89.5 20.5h-77l-21 -134h80l-20 -124h-79l-22 -137h84q69 0 106 46.5t54 154.5q11 72 11 99z" />
    <glyph glyph-name="Ntilde" unicode="&#xd1;" horiz-adv-x="709" 
d="M173 743h154l195 -414l66 414h194l-118 -743h-154l-195 414l-66 -414h-194zM315 890.5q34 31.5 81 31.5q23 0 42 -4.5t45 -12.5q31 -12 50 -12q28 0 35 36h96q-20 -76 -51 -109t-80 -33q-22 0 -42.5 4.5t-50.5 13.5q-33 11 -45 11q-24 0 -36 -31h-96q18 74 52 105.5z" />
    <glyph glyph-name="Ograve" unicode="&#xd2;" horiz-adv-x="704" 
d="M206.5 14q-57.5 20 -90.5 74t-33 151q0 69 15 159q22 135 65.5 211t117 108t189.5 32q84 0 141.5 -20.5t91.5 -77t34 -159.5q0 -64 -15 -156q-22 -139 -65.5 -212.5t-115 -101.5t-191.5 -28q-86 0 -143.5 20zM457 190q29 21 45 61.5t27 109.5q14 88 14 129
q0 50 -22.5 67.5t-77.5 17.5q-48 0 -76.5 -17.5t-45.5 -60.5t-30 -124q-14 -84 -14 -124q0 -45 23 -62.5t80 -17.5q48 0 77 21zM354 934h154l45 -143h-114z" />
    <glyph glyph-name="Oacute" unicode="&#xd3;" horiz-adv-x="704" 
d="M206.5 14q-57.5 20 -90.5 74t-33 151q0 69 15 159q22 135 65.5 211t117 108t189.5 32q84 0 141.5 -20.5t91.5 -77t34 -159.5q0 -64 -15 -156q-22 -139 -65.5 -212.5t-115 -101.5t-191.5 -28q-86 0 -143.5 20zM457 190q29 21 45 61.5t27 109.5q14 88 14 129
q0 50 -22.5 67.5t-77.5 17.5q-48 0 -76.5 -17.5t-45.5 -60.5t-30 -124q-14 -84 -14 -124q0 -45 23 -62.5t80 -17.5q48 0 77 21zM492 934h164l-121 -143h-124z" />
    <glyph glyph-name="Ocircumflex" unicode="&#xd4;" horiz-adv-x="704" 
d="M206.5 14q-57.5 20 -90.5 74t-33 151q0 69 15 159q22 135 65.5 211t117 108t189.5 32q84 0 141.5 -20.5t91.5 -77t34 -159.5q0 -64 -15 -156q-22 -139 -65.5 -212.5t-115 -101.5t-191.5 -28q-86 0 -143.5 20zM457 190q29 21 45 61.5t27 109.5q14 88 14 129
q0 50 -22.5 67.5t-77.5 17.5q-48 0 -76.5 -17.5t-45.5 -60.5t-30 -124q-14 -84 -14 -124q0 -45 23 -62.5t80 -17.5q48 0 77 21zM429 937h131l68 -146h-111l-39 61l-60 -61h-112z" />
    <glyph glyph-name="Otilde" unicode="&#xd5;" horiz-adv-x="704" 
d="M206.5 14q-57.5 20 -90.5 74t-33 151q0 69 15 159q22 135 65.5 211t117 108t189.5 32q84 0 141.5 -20.5t91.5 -77t34 -159.5q0 -64 -15 -156q-22 -139 -65.5 -212.5t-115 -101.5t-191.5 -28q-86 0 -143.5 20zM457 190q29 21 45 61.5t27 109.5q14 88 14 129
q0 50 -22.5 67.5t-77.5 17.5q-48 0 -76.5 -17.5t-45.5 -60.5t-30 -124q-14 -84 -14 -124q0 -45 23 -62.5t80 -17.5q48 0 77 21zM334 890.5q34 31.5 81 31.5q23 0 42 -4.5t45 -12.5q31 -12 50 -12q28 0 35 36h96q-20 -76 -51 -109t-80 -33q-22 0 -42.5 4.5t-50.5 13.5
q-33 11 -45 11q-24 0 -36 -31h-96q18 74 52 105.5z" />
    <glyph glyph-name="Odieresis" unicode="&#xd6;" horiz-adv-x="704" 
d="M206.5 14q-57.5 20 -90.5 74t-33 151q0 69 15 159q22 135 65.5 211t117 108t189.5 32q84 0 141.5 -20.5t91.5 -77t34 -159.5q0 -64 -15 -156q-22 -139 -65.5 -212.5t-115 -101.5t-191.5 -28q-86 0 -143.5 20zM457 190q29 21 45 61.5t27 109.5q14 88 14 129
q0 50 -22.5 67.5t-77.5 17.5q-48 0 -76.5 -17.5t-45.5 -60.5t-30 -124q-14 -84 -14 -124q0 -45 23 -62.5t80 -17.5q48 0 77 21zM316.5 792q-5.5 5 -5.5 14l19 115q3 25 26 25h90q20 0 20 -20l-18 -116q-1 -11 -8.5 -17t-18.5 -6h-90q-9 0 -14.5 5zM513.5 792q-5.5 5 -5.5 14
l19 115q3 25 26 25h90q20 0 20 -20l-18 -116q-1 -11 -8.5 -17t-18.5 -6h-90q-9 0 -14.5 5z" />
    <glyph glyph-name="multiply" unicode="&#xd7;" horiz-adv-x="609" 
d="M473 356l88 -104l-127 -109l-88 104l-120 -104l-91 109l120 104l-88 104l127 109l88 -104l120 104l91 -109z" />
    <glyph glyph-name="Oslash" unicode="&#xd8;" horiz-adv-x="708" 
d="M706 647q31 -59 31 -155q0 -64 -15 -156q-22 -139 -65.5 -212.5t-115 -101.5t-191.5 -28q-121 0 -181 39l-29 -33h-105l79 91q-31 54 -31 148q0 69 15 159q22 135 65.5 211t117 108t189.5 32q59 0 104.5 -9.5t78.5 -32.5l32 36h105zM278 278l244 279q-11 10 -30.5 14
t-48.5 4q-48 0 -76.5 -17.5t-45.5 -60.5t-30 -124q-7 -37 -13 -95zM541 459l-239 -274q21 -16 78 -16q48 0 77 21t45 61.5t27 109.5q9 50 12 98z" />
    <glyph glyph-name="Ugrave" unicode="&#xd9;" horiz-adv-x="696" 
d="M159.5 50.5q-62.5 56.5 -62.5 177.5q0 40 13 122l63 393h194l-67 -423q-1 -10 -5 -34.5t-4 -40.5q0 -39 20 -58t67 -19q36 0 58.5 13.5t37.5 46t24 92.5l67 423h194l-72 -453q-19 -122 -61.5 -186t-107.5 -87t-168 -23q-128 0 -190.5 56.5zM345 934h154l45 -143h-114z
" />
    <glyph glyph-name="Uacute" unicode="&#xda;" horiz-adv-x="696" 
d="M159.5 50.5q-62.5 56.5 -62.5 177.5q0 40 13 122l63 393h194l-67 -423q-1 -10 -5 -34.5t-4 -40.5q0 -39 20 -58t67 -19q36 0 58.5 13.5t37.5 46t24 92.5l67 423h194l-72 -453q-19 -122 -61.5 -186t-107.5 -87t-168 -23q-128 0 -190.5 56.5zM483 934h164l-121 -143h-124z
" />
    <glyph glyph-name="Ucircumflex" unicode="&#xdb;" horiz-adv-x="696" 
d="M159.5 50.5q-62.5 56.5 -62.5 177.5q0 40 13 122l63 393h194l-67 -423q-1 -10 -5 -34.5t-4 -40.5q0 -39 20 -58t67 -19q36 0 58.5 13.5t37.5 46t24 92.5l67 423h194l-72 -453q-19 -122 -61.5 -186t-107.5 -87t-168 -23q-128 0 -190.5 56.5zM420 937h131l68 -146h-111
l-39 61l-60 -61h-112z" />
    <glyph glyph-name="Udieresis" unicode="&#xdc;" horiz-adv-x="696" 
d="M159.5 50.5q-62.5 56.5 -62.5 177.5q0 40 13 122l63 393h194l-67 -423q-1 -10 -5 -34.5t-4 -40.5q0 -39 20 -58t67 -19q36 0 58.5 13.5t37.5 46t24 92.5l67 423h194l-72 -453q-19 -122 -61.5 -186t-107.5 -87t-168 -23q-128 0 -190.5 56.5zM307.5 792q-5.5 5 -5.5 14
l19 115q3 25 26 25h90q20 0 20 -20l-18 -116q-1 -11 -8.5 -17t-18.5 -6h-90q-9 0 -14.5 5zM504.5 792q-5.5 5 -5.5 14l19 115q3 25 26 25h90q20 0 20 -20l-18 -116q-1 -11 -8.5 -17t-18.5 -6h-90q-9 0 -14.5 5z" />
    <glyph glyph-name="Yacute" unicode="&#xdd;" horiz-adv-x="660" 
d="M259 200l-131 543h211l49 -335l161 335h219l-315 -543l-32 -200h-194zM471 934h164l-121 -143h-124z" />
    <glyph glyph-name="Thorn" unicode="&#xde;" horiz-adv-x="582" 
d="M580 581.5q59 -45.5 59 -156.5q0 -19 -10 -82q-18 -113 -85 -166t-154 -53q-49 0 -119 16l-22 -140h-194l118 743h194l-18 -116h70q102 0 161 -45.5zM441 406q0 26 -14.5 36.5t-45.5 10.5h-60l-25 -155h66q31 0 50.5 19t23.5 48q5 28 5 41z" />
    <glyph glyph-name="germandbls" unicode="&#xdf;" horiz-adv-x="620" 
d="M330 -1.5q-37 4.5 -58 11.5l20 131q41 -3 89 -3q31 0 41.5 4t12.5 14l1 11q0 9 -6.5 17.5t-20.5 21.5q-26 25 -41 48.5t-15 61.5q0 37 17 70.5t48 75.5q23 31 33.5 50.5t10.5 37.5q0 23 -18.5 35.5t-52.5 12.5q-38 0 -58 -30.5t-32 -106.5l-73 -461h-194l87 551
q9 60 44.5 109.5t97 79t145.5 29.5q80 0 131.5 -26t75.5 -68t24 -92q0 -43 -16 -75t-44 -70q-17 -21 -25 -35t-8 -27q0 -9 6.5 -19t19.5 -26q24 -29 38.5 -55.5t14.5 -62.5q0 -19 -9 -71q-13 -86 -73 -117t-133 -31q-43 0 -80 4.5z" />
    <glyph glyph-name="agrave" unicode="&#xe0;" horiz-adv-x="575" 
d="M104 41q-39 47 -39 141q0 36 12 117q20 124 90 185t200 61q74 0 138.5 -18.5t103.5 -47.5l-76 -479h-174l-12 52q-23 -23 -63.5 -40.5t-80.5 -17.5q-60 0 -99 47zM366 178l33 205q-6 2 -17.5 4.5t-23.5 2.5q-38 0 -60.5 -27t-30.5 -75q-8 -45 -8 -70q0 -69 43 -69
q37 0 64 29zM253 774h154l45 -143h-114z" />
    <glyph glyph-name="aacute" unicode="&#xe1;" horiz-adv-x="575" 
d="M104 41q-39 47 -39 141q0 36 12 117q20 124 90 185t200 61q74 0 138.5 -18.5t103.5 -47.5l-76 -479h-174l-12 52q-23 -23 -63.5 -40.5t-80.5 -17.5q-60 0 -99 47zM366 178l33 205q-6 2 -17.5 4.5t-23.5 2.5q-38 0 -60.5 -27t-30.5 -75q-8 -45 -8 -70q0 -69 43 -69
q37 0 64 29zM401 774h164l-121 -143h-124z" />
    <glyph glyph-name="acircumflex" unicode="&#xe2;" horiz-adv-x="575" 
d="M104 41q-39 47 -39 141q0 36 12 117q20 124 90 185t200 61q74 0 138.5 -18.5t103.5 -47.5l-76 -479h-174l-12 52q-23 -23 -63.5 -40.5t-80.5 -17.5q-60 0 -99 47zM366 178l33 205q-6 2 -17.5 4.5t-23.5 2.5q-38 0 -60.5 -27t-30.5 -75q-8 -45 -8 -70q0 -69 43 -69
q37 0 64 29zM337 777h131l68 -146h-111l-39 61l-60 -61h-112z" />
    <glyph glyph-name="atilde" unicode="&#xe3;" horiz-adv-x="575" 
d="M104 41q-39 47 -39 141q0 36 12 117q20 124 90 185t200 61q74 0 138.5 -18.5t103.5 -47.5l-76 -479h-174l-12 52q-23 -23 -63.5 -40.5t-80.5 -17.5q-60 0 -99 47zM366 178l33 205q-6 2 -17.5 4.5t-23.5 2.5q-38 0 -60.5 -27t-30.5 -75q-8 -45 -8 -70q0 -69 43 -69
q37 0 64 29zM233 730.5q34 31.5 81 31.5q23 0 42 -4.5t45 -12.5q31 -12 50 -12q28 0 35 36h96q-20 -76 -51 -109t-80 -33q-22 0 -42.5 4.5t-50.5 13.5q-33 11 -45 11q-24 0 -36 -31h-96q18 74 52 105.5z" />
    <glyph glyph-name="adieresis" unicode="&#xe4;" horiz-adv-x="575" 
d="M104 41q-39 47 -39 141q0 36 12 117q20 124 90 185t200 61q74 0 138.5 -18.5t103.5 -47.5l-76 -479h-174l-12 52q-23 -23 -63.5 -40.5t-80.5 -17.5q-60 0 -99 47zM366 178l33 205q-6 2 -17.5 4.5t-23.5 2.5q-38 0 -60.5 -27t-30.5 -75q-8 -45 -8 -70q0 -69 43 -69
q37 0 64 29zM223.5 632q-5.5 5 -5.5 14l19 115q3 25 26 25h90q20 0 20 -20l-18 -116q-1 -11 -8.5 -17t-18.5 -6h-90q-9 0 -14.5 5zM420.5 632q-5.5 5 -5.5 14l19 115q3 25 26 25h90q20 0 20 -20l-18 -116q-1 -11 -8.5 -17t-18.5 -6h-90q-9 0 -14.5 5z" />
    <glyph glyph-name="aring" unicode="&#xe5;" horiz-adv-x="575" 
d="M104 41q-39 47 -39 141q0 36 12 117q20 124 90 185t200 61q74 0 138.5 -18.5t103.5 -47.5l-76 -479h-174l-12 52q-23 -23 -63.5 -40.5t-80.5 -17.5q-60 0 -99 47zM366 178l33 205q-6 2 -17.5 4.5t-23.5 2.5q-38 0 -60.5 -27t-30.5 -75q-8 -45 -8 -70q0 -69 43 -69
q37 0 64 29zM296.5 604q-29.5 24 -29.5 79q0 57 39.5 94.5t109.5 37.5q61 0 90 -24t29 -79q0 -58 -39 -95t-109 -37q-61 0 -90.5 24zM433.5 666q12.5 17 12.5 43q0 37 -38 37q-26 0 -39 -17.5t-13 -42.5q0 -37 40 -37q25 0 37.5 17z" />
    <glyph glyph-name="ae" unicode="&#xe6;" horiz-adv-x="861" 
d="M107 38.5q-40 44.5 -40 140.5q0 204 81 285t207 81q102 0 165 -31q19 14 69 22.5t71 8.5q116 0 172 -41.5t56 -131.5t-51.5 -136t-166.5 -46q-26 0 -58.5 2.5t-42.5 5.5q-2 -10 -2 -19q0 -21 22.5 -32.5t76.5 -11.5h179l-18 -113q-44 -12 -113 -20t-132 -8
q-55 0 -103 18.5t-65 50.5q-57 -37 -104 -53t-100 -16q-63 0 -103 44.5zM691.5 310.5q16.5 15.5 16.5 40.5q0 47 -46 47q-35 0 -52.5 -24.5t-27.5 -74.5q20 -4 48 -4q45 0 61.5 15.5zM346.5 163.5q22.5 12.5 31.5 26.5v26q0 86 31 169q-5 2 -16 3.5t-19 1.5q-58 0 -86 -44.5
t-28 -129.5q0 -30 10 -47.5t32 -17.5t44.5 12.5z" />
    <glyph glyph-name="ccedilla" unicode="&#xe7;" horiz-adv-x="471" 
d="M301 366.5q-23 -31.5 -34 -96.5q-5 -32 -5 -47q0 -84 72 -84h133l-17 -109q-36 -16 -74 -25.5t-87 -10.5l-33 -43q24 -4 39 -19.5t15 -44.5q0 -39 -32 -64.5t-96 -25.5h-59l12 79l16 3q36 6 36 32q0 19 -27 27l47 61q-68 14 -103 62.5t-35 142.5q0 41 9 96
q37 245 251 245q77 0 190 -36l-18 -111h-125q-52 0 -75 -31.5z" />
    <glyph glyph-name="egrave" unicode="&#xe8;" horiz-adv-x="548" 
d="M116.5 47q-48.5 53 -48.5 156q0 42 9 96q21 132 93 189t194 57q92 0 153 -37t61 -132q0 -108 -57.5 -147t-163.5 -39q-62 0 -97 8q-2 -12 -2 -20q0 -22 24 -32.5t75 -10.5h179l-18 -113q-112 -28 -240 -28q-113 0 -161.5 53zM380.5 309.5q17.5 14.5 17.5 45.5
q0 20 -12 31.5t-35 11.5q-32 0 -51 -24.5t-28 -74.5q26 -4 39 -4q52 0 69.5 14.5zM252 774h154l45 -143h-114z" />
    <glyph glyph-name="eacute" unicode="&#xe9;" horiz-adv-x="548" 
d="M116.5 47q-48.5 53 -48.5 156q0 42 9 96q21 132 93 189t194 57q92 0 153 -37t61 -132q0 -108 -57.5 -147t-163.5 -39q-62 0 -97 8q-2 -12 -2 -20q0 -22 24 -32.5t75 -10.5h179l-18 -113q-112 -28 -240 -28q-113 0 -161.5 53zM380.5 309.5q17.5 14.5 17.5 45.5
q0 20 -12 31.5t-35 11.5q-32 0 -51 -24.5t-28 -74.5q26 -4 39 -4q52 0 69.5 14.5zM400 774h164l-121 -143h-124z" />
    <glyph glyph-name="ecircumflex" unicode="&#xea;" horiz-adv-x="548" 
d="M116.5 47q-48.5 53 -48.5 156q0 42 9 96q21 132 93 189t194 57q92 0 153 -37t61 -132q0 -108 -57.5 -147t-163.5 -39q-62 0 -97 8q-2 -12 -2 -20q0 -22 24 -32.5t75 -10.5h179l-18 -113q-112 -28 -240 -28q-113 0 -161.5 53zM380.5 309.5q17.5 14.5 17.5 45.5
q0 20 -12 31.5t-35 11.5q-32 0 -51 -24.5t-28 -74.5q26 -4 39 -4q52 0 69.5 14.5zM336 777h131l68 -146h-111l-39 61l-60 -61h-112z" />
    <glyph glyph-name="edieresis" unicode="&#xeb;" horiz-adv-x="548" 
d="M116.5 47q-48.5 53 -48.5 156q0 42 9 96q21 132 93 189t194 57q92 0 153 -37t61 -132q0 -108 -57.5 -147t-163.5 -39q-62 0 -97 8q-2 -12 -2 -20q0 -22 24 -32.5t75 -10.5h179l-18 -113q-112 -28 -240 -28q-113 0 -161.5 53zM380.5 309.5q17.5 14.5 17.5 45.5
q0 20 -12 31.5t-35 11.5q-32 0 -51 -24.5t-28 -74.5q26 -4 39 -4q52 0 69.5 14.5zM222.5 632q-5.5 5 -5.5 14l19 115q3 25 26 25h90q20 0 20 -20l-18 -116q-1 -11 -8.5 -17t-18.5 -6h-90q-9 0 -14.5 5zM419.5 632q-5.5 5 -5.5 14l19 115q3 25 26 25h90q20 0 20 -20l-18 -116
q-1 -11 -8.5 -17t-18.5 -6h-90q-9 0 -14.5 5z" />
    <glyph glyph-name="igrave" unicode="&#xec;" horiz-adv-x="281" 
d="M130 539h194l-85 -539h-194zM116 774h154l45 -143h-114z" />
    <glyph glyph-name="iacute" unicode="&#xed;" horiz-adv-x="281" 
d="M130 539h194l-85 -539h-194zM264 774h164l-121 -143h-124z" />
    <glyph glyph-name="icircumflex" unicode="&#xee;" horiz-adv-x="281" 
d="M130 539h194l-85 -539h-194zM200 777h131l68 -146h-111l-39 61l-60 -61h-112z" />
    <glyph glyph-name="idieresis" unicode="&#xef;" horiz-adv-x="281" 
d="M130 539h194l-85 -539h-194zM86.5 632q-5.5 5 -5.5 14l19 115q3 25 26 25h90q20 0 20 -20l-18 -116q-1 -11 -8.5 -17t-18.5 -6h-90q-9 0 -14.5 5zM283.5 632q-5.5 5 -5.5 14l19 115q3 25 26 25h90q20 0 20 -20l-18 -116q-1 -11 -8.5 -17t-18.5 -6h-90q-9 0 -14.5 5z" />
    <glyph glyph-name="eth" unicode="&#xf0;" horiz-adv-x="579" 
d="M538 670q69 -72 69 -218q0 -83 -21 -217q-14 -97 -49.5 -149t-94.5 -72t-153 -20q-111 0 -166 49t-55 142q0 53 5 84q17 106 48 161.5t79 75t124 19.5q70 0 125 -37q-3 44 -19 73.5t-46 46.5l-161 -66l-17 59l82 33q-35 5 -96 5l20 124q179 0 270 -50l120 49l16 -59z
M396 284q5 37 5 57q0 18 -12.5 25.5t-41.5 7.5t-44 -10.5t-23.5 -37.5t-16.5 -84q-3 -19 -3 -48q0 -25 11 -35t38 -10q29 0 44 9t23.5 32.5t16.5 71.5z" />
    <glyph glyph-name="ntilde" unicode="&#xf1;" horiz-adv-x="600" 
d="M129 539h162l24 -52q73 58 169 58q62 0 98 -32.5t36 -85.5q0 -25 -2 -49.5t-10 -73.5l-48 -304h-194l47 298q4 25 4 36q0 37 -45 37q-22 0 -42.5 -10t-36.5 -27l-53 -334h-194zM245 730.5q34 31.5 81 31.5q23 0 42 -4.5t45 -12.5q31 -12 50 -12q28 0 35 36h96
q-20 -76 -51 -109t-80 -33q-22 0 -42.5 4.5t-50.5 13.5q-33 11 -45 11q-24 0 -36 -31h-96q18 74 52 105.5z" />
    <glyph glyph-name="ograve" unicode="&#xf2;" horiz-adv-x="579" 
d="M123 43q-55 49 -55 142q0 54 8 104q17 107 52 162t92.5 74.5t154.5 19.5q90 0 137.5 -21t65 -64t17.5 -116q0 -50 -9 -109q-15 -97 -50.5 -149t-94 -72t-152.5 -20q-111 0 -166 49zM353 158q15 9 23.5 32.5t16.5 71.5q9 68 9 91t-12 32t-40 9q-29 0 -44 -10.5
t-23.5 -37.5t-16.5 -84q-6 -40 -6 -68q0 -25 11 -35t38 -10q29 0 44 9zM252 774h154l45 -143h-114z" />
    <glyph glyph-name="oacute" unicode="&#xf3;" horiz-adv-x="579" 
d="M123 43q-55 49 -55 142q0 54 8 104q17 107 52 162t92.5 74.5t154.5 19.5q90 0 137.5 -21t65 -64t17.5 -116q0 -50 -9 -109q-15 -97 -50.5 -149t-94 -72t-152.5 -20q-111 0 -166 49zM353 158q15 9 23.5 32.5t16.5 71.5q9 68 9 91t-12 32t-40 9q-29 0 -44 -10.5
t-23.5 -37.5t-16.5 -84q-6 -40 -6 -68q0 -25 11 -35t38 -10q29 0 44 9zM400 774h164l-121 -143h-124z" />
    <glyph glyph-name="ocircumflex" unicode="&#xf4;" horiz-adv-x="579" 
d="M123 43q-55 49 -55 142q0 54 8 104q17 107 52 162t92.5 74.5t154.5 19.5q90 0 137.5 -21t65 -64t17.5 -116q0 -50 -9 -109q-15 -97 -50.5 -149t-94 -72t-152.5 -20q-111 0 -166 49zM353 158q15 9 23.5 32.5t16.5 71.5q9 68 9 91t-12 32t-40 9q-29 0 -44 -10.5
t-23.5 -37.5t-16.5 -84q-6 -40 -6 -68q0 -25 11 -35t38 -10q29 0 44 9zM336 777h131l68 -146h-111l-39 61l-60 -61h-112z" />
    <glyph glyph-name="otilde" unicode="&#xf5;" horiz-adv-x="579" 
d="M123 43q-55 49 -55 142q0 54 8 104q17 107 52 162t92.5 74.5t154.5 19.5q90 0 137.5 -21t65 -64t17.5 -116q0 -50 -9 -109q-15 -97 -50.5 -149t-94 -72t-152.5 -20q-111 0 -166 49zM353 158q15 9 23.5 32.5t16.5 71.5q9 68 9 91t-12 32t-40 9q-29 0 -44 -10.5
t-23.5 -37.5t-16.5 -84q-6 -40 -6 -68q0 -25 11 -35t38 -10q29 0 44 9zM232 730.5q34 31.5 81 31.5q23 0 42 -4.5t45 -12.5q31 -12 50 -12q28 0 35 36h96q-20 -76 -51 -109t-80 -33q-22 0 -42.5 4.5t-50.5 13.5q-33 11 -45 11q-24 0 -36 -31h-96q18 74 52 105.5z" />
    <glyph glyph-name="odieresis" unicode="&#xf6;" horiz-adv-x="579" 
d="M123 43q-55 49 -55 142q0 54 8 104q17 107 52 162t92.5 74.5t154.5 19.5q90 0 137.5 -21t65 -64t17.5 -116q0 -50 -9 -109q-15 -97 -50.5 -149t-94 -72t-152.5 -20q-111 0 -166 49zM353 158q15 9 23.5 32.5t16.5 71.5q9 68 9 91t-12 32t-40 9q-29 0 -44 -10.5
t-23.5 -37.5t-16.5 -84q-6 -40 -6 -68q0 -25 11 -35t38 -10q29 0 44 9zM222.5 632q-5.5 5 -5.5 14l19 115q3 25 26 25h90q20 0 20 -20l-18 -116q-1 -11 -8.5 -17t-18.5 -6h-90q-9 0 -14.5 5zM419.5 632q-5.5 5 -5.5 14l19 115q3 25 26 25h90q20 0 20 -20l-18 -116
q-1 -11 -8.5 -17t-18.5 -6h-90q-9 0 -14.5 5z" />
    <glyph glyph-name="divide" unicode="&#xf7;" horiz-adv-x="609" 
d="M313.5 499.5q-5.5 6.5 -4.5 16.5l16 97q2 11 9 18t19 7h112q24 0 21 -25l-16 -97q-4 -23 -28 -23h-112q-11 0 -16.5 6.5zM149 433h448l-25 -154h-448zM247 80.5q-5 6.5 -4 16.5l15 97q5 25 28 25h112q26 0 21 -25l-15 -97q-4 -23 -29 -23h-112q-11 0 -16 6.5z" />
    <glyph glyph-name="oslash" unicode="&#xf8;" horiz-adv-x="574" 
d="M573 469q22 -41 22 -125q0 -50 -9 -109q-15 -97 -50.5 -149t-94 -72t-152.5 -20q-99 0 -154 40l-34 -34h-86l79 78q-26 42 -26 107q0 54 8 104q17 107 52 162t92.5 74.5t154.5 19.5q109 0 157 -32l26 26h86zM264 247l132 132q-10 15 -46 15q-29 0 -44 -10.5t-23.5 -37.5
t-16.5 -84zM397 294l-131 -130q10 -15 43 -15q29 0 44 9t23.5 32.5t16.5 71.5z" />
    <glyph glyph-name="ugrave" unicode="&#xf9;" horiz-adv-x="600" 
d="M67 122q0 36 5 69l55 348h194l-50 -321q-1 -5 -1 -15q0 -35 42 -35q45 0 82 37l53 334h194l-85 -539h-174l-12 52q-44 -32 -80.5 -45t-93.5 -13q-129 0 -129 128zM276 774h154l45 -143h-114z" />
    <glyph glyph-name="uacute" unicode="&#xfa;" horiz-adv-x="600" 
d="M67 122q0 36 5 69l55 348h194l-50 -321q-1 -5 -1 -15q0 -35 42 -35q45 0 82 37l53 334h194l-85 -539h-174l-12 52q-44 -32 -80.5 -45t-93.5 -13q-129 0 -129 128zM424 774h164l-121 -143h-124z" />
    <glyph glyph-name="ucircumflex" unicode="&#xfb;" horiz-adv-x="600" 
d="M67 122q0 36 5 69l55 348h194l-50 -321q-1 -5 -1 -15q0 -35 42 -35q45 0 82 37l53 334h194l-85 -539h-174l-12 52q-44 -32 -80.5 -45t-93.5 -13q-129 0 -129 128zM360 777h131l68 -146h-111l-39 61l-60 -61h-112z" />
    <glyph glyph-name="udieresis" unicode="&#xfc;" horiz-adv-x="600" 
d="M67 122q0 36 5 69l55 348h194l-50 -321q-1 -5 -1 -15q0 -35 42 -35q45 0 82 37l53 334h194l-85 -539h-174l-12 52q-44 -32 -80.5 -45t-93.5 -13q-129 0 -129 128zM246.5 632q-5.5 5 -5.5 14l19 115q3 25 26 25h90q20 0 20 -20l-18 -116q-1 -11 -8.5 -17t-18.5 -6h-90
q-9 0 -14.5 5zM443.5 632q-5.5 5 -5.5 14l19 115q3 25 26 25h90q20 0 20 -20l-18 -116q-1 -11 -8.5 -17t-18.5 -6h-90q-9 0 -14.5 5z" />
    <glyph glyph-name="yacute" unicode="&#xfd;" horiz-adv-x="587" 
d="M96 -101q73 14 114.5 36.5t62.5 64.5q-83 7 -115.5 44.5t-39.5 111.5l-32 383h200l3 -342q0 -21 12.5 -30.5t29.5 -10.5l86 238q31 85 34 153h184q0 -133 -74 -290l-116 -247q-61 -129 -143 -184t-206 -63v136zM404 774h164l-121 -143h-124z" />
    <glyph glyph-name="thorn" unicode="&#xfe;" horiz-adv-x="581" 
d="M164 763h195l-35 -222q37 4 89 4q99 0 140 -48t41 -149q0 -43 -10 -110q-20 -124 -87.5 -184t-162.5 -60q-30 0 -56.5 4t-38.5 11l-39 -246h-195zM366 184q22 26 33 90q4 28 4 39q0 40 -11 58.5t-37 18.5h-56l-36 -225q14 -7 45 -7q36 0 58 26z" />
    <glyph glyph-name="ydieresis" unicode="&#xff;" horiz-adv-x="587" 
d="M96 -101q73 14 114.5 36.5t62.5 64.5q-83 7 -115.5 44.5t-39.5 111.5l-32 383h200l3 -342q0 -21 12.5 -30.5t29.5 -10.5l86 238q31 85 34 153h184q0 -133 -74 -290l-116 -247q-61 -129 -143 -184t-206 -63v136zM226.5 632q-5.5 5 -5.5 14l19 115q3 25 26 25h90
q20 0 20 -20l-18 -116q-1 -11 -8.5 -17t-18.5 -6h-90q-9 0 -14.5 5zM423.5 632q-5.5 5 -5.5 14l19 115q3 25 26 25h90q20 0 20 -20l-18 -116q-1 -11 -8.5 -17t-18.5 -6h-90q-9 0 -14.5 5z" />
    <glyph glyph-name="Amacron" unicode="&#x100;" horiz-adv-x="709" 
d="M353 743h242l102 -743h-201l-11 118h-223l-48 -118h-199zM467 292l-21 286l-112 -286h133zM347 905h292l-18 -114h-292z" />
    <glyph glyph-name="amacron" unicode="&#x101;" horiz-adv-x="575" 
d="M104 41q-39 47 -39 141q0 36 12 117q20 124 90 185t200 61q74 0 138.5 -18.5t103.5 -47.5l-76 -479h-174l-12 52q-23 -23 -63.5 -40.5t-80.5 -17.5q-60 0 -99 47zM366 178l33 205q-6 2 -17.5 4.5t-23.5 2.5q-38 0 -60.5 -27t-30.5 -75q-8 -45 -8 -70q0 -69 43 -69
q37 0 64 29zM257 745h292l-18 -114h-292z" />
    <glyph glyph-name="Abreve" unicode="&#x102;" horiz-adv-x="709" 
d="M353 743h242l102 -743h-201l-11 118h-223l-48 -118h-199zM467 292l-21 286l-112 -286h133zM379 809q-31 29 -31 86q0 12 4 42h89q-2 -14 -2 -20q0 -26 13 -38t33 -12q55 0 66 70h91q-12 -78 -55 -117.5t-116 -39.5q-61 0 -92 29z" />
    <glyph glyph-name="abreve" unicode="&#x103;" horiz-adv-x="575" 
d="M104 41q-39 47 -39 141q0 36 12 117q20 124 90 185t200 61q74 0 138.5 -18.5t103.5 -47.5l-76 -479h-174l-12 52q-23 -23 -63.5 -40.5t-80.5 -17.5q-60 0 -99 47zM366 178l33 205q-6 2 -17.5 4.5t-23.5 2.5q-38 0 -60.5 -27t-30.5 -75q-8 -45 -8 -70q0 -69 43 -69
q37 0 64 29zM289 649q-31 29 -31 86q0 12 4 42h89q-2 -14 -2 -20q0 -26 13 -38t33 -12q55 0 66 70h91q-12 -78 -55 -117.5t-116 -39.5q-61 0 -92 29z" />
    <glyph glyph-name="Aogonek" unicode="&#x104;" horiz-adv-x="709" 
d="M353 743h242l102 -743h-201l-11 118h-223l-48 -118h-199zM467 292l-21 286l-112 -286h133zM439 -174q-22 22 -22 54q0 40 21.5 70.5t57.5 49.5h69q-26 -16 -37.5 -34t-11.5 -32q0 -16 10.5 -25.5t25.5 -9.5h10l-14 -90q-12 -5 -37 -5q-50 0 -72 22z" />
    <glyph glyph-name="aogonek" unicode="&#x105;" horiz-adv-x="575" 
d="M495.5 -34q-11.5 -18 -11.5 -32q0 -16 10.5 -25.5t25.5 -9.5h10l-14 -90q-12 -5 -37 -5q-50 0 -72 22t-22 54q0 40 21.5 70.5t57.5 49.5h-105l-12 52q-23 -23 -63.5 -40.5t-80.5 -17.5q-60 0 -99 47t-39 141q0 36 12 117q20 124 90 185t200 61q74 0 138.5 -18.5
t103.5 -47.5l-76 -479q-26 -16 -37.5 -34zM399 383q-6 2 -17.5 4.5t-23.5 2.5q-38 0 -60.5 -27t-30.5 -75q-8 -45 -8 -70q0 -69 43 -69q37 0 64 29z" />
    <glyph glyph-name="Cacute" unicode="&#x106;" horiz-adv-x="592" 
d="M151.5 63.5q-65.5 69.5 -65.5 194.5q0 65 12 141q28 180 103 265t219 85q83 0 145 -14.5t103 -34.5l-25 -154q-42 13 -93 21t-94 8q-50 0 -79 -12.5t-50.5 -57.5t-36.5 -139q-12 -79 -12 -110q0 -47 27 -67.5t95 -20.5q56 0 93.5 2.5t91.5 8.5l-24 -153q-81 -32 -213 -32
q-131 0 -196.5 69.5zM471 934h164l-121 -143h-124z" />
    <glyph glyph-name="cacute" unicode="&#x107;" horiz-adv-x="471" 
d="M120 42.5q-51 48.5 -51 161.5q0 41 9 96q37 245 251 245q77 0 190 -36l-18 -111h-125q-52 0 -75 -31.5t-34 -96.5q-5 -32 -5 -47q0 -84 72 -84h133l-17 -109q-39 -18 -81 -27t-99 -9q-99 0 -150 48.5zM381 774h164l-121 -143h-124z" />
    <glyph glyph-name="Ccircumflex" unicode="&#x108;" horiz-adv-x="592" 
d="M151.5 63.5q-65.5 69.5 -65.5 194.5q0 65 12 141q28 180 103 265t219 85q83 0 145 -14.5t103 -34.5l-25 -154q-42 13 -93 21t-94 8q-50 0 -79 -12.5t-50.5 -57.5t-36.5 -139q-12 -79 -12 -110q0 -47 27 -67.5t95 -20.5q56 0 93.5 2.5t91.5 8.5l-24 -153q-81 -32 -213 -32
q-131 0 -196.5 69.5zM408 937h131l68 -146h-111l-39 61l-60 -61h-112z" />
    <glyph glyph-name="ccircumflex" unicode="&#x109;" horiz-adv-x="471" 
d="M120 42.5q-51 48.5 -51 161.5q0 41 9 96q37 245 251 245q77 0 190 -36l-18 -111h-125q-52 0 -75 -31.5t-34 -96.5q-5 -32 -5 -47q0 -84 72 -84h133l-17 -109q-39 -18 -81 -27t-99 -9q-99 0 -150 48.5zM317 777h131l68 -146h-111l-39 61l-60 -61h-112z" />
    <glyph glyph-name="Cdotaccent" unicode="&#x10a;" horiz-adv-x="592" 
d="M151.5 63.5q-65.5 69.5 -65.5 194.5q0 65 12 141q28 180 103 265t219 85q83 0 145 -14.5t103 -34.5l-25 -154q-42 13 -93 21t-94 8q-50 0 -79 -12.5t-50.5 -57.5t-36.5 -139q-12 -79 -12 -110q0 -47 27 -67.5t95 -20.5q56 0 93.5 2.5t91.5 8.5l-24 -153q-81 -32 -213 -32
q-131 0 -196.5 69.5zM392.5 799q-5.5 5 -5.5 14v4l18 111q3 25 27 25h90q20 0 20 -20v-5l-18 -111q-1 -11 -8.5 -17t-18.5 -6h-90q-9 0 -14.5 5z" />
    <glyph glyph-name="cdotaccent" unicode="&#x10b;" horiz-adv-x="471" 
d="M120 42.5q-51 48.5 -51 161.5q0 41 9 96q37 245 251 245q77 0 190 -36l-18 -111h-125q-52 0 -75 -31.5t-34 -96.5q-5 -32 -5 -47q0 -84 72 -84h133l-17 -109q-39 -18 -81 -27t-99 -9q-99 0 -150 48.5zM302.5 639q-5.5 5 -5.5 14v4l18 111q3 25 27 25h90q20 0 20 -20v-5
l-18 -111q-1 -11 -8.5 -17t-18.5 -6h-90q-9 0 -14.5 5z" />
    <glyph glyph-name="Ccaron" unicode="&#x10c;" horiz-adv-x="592" 
d="M151.5 63.5q-65.5 69.5 -65.5 194.5q0 65 12 141q28 180 103 265t219 85q83 0 145 -14.5t103 -34.5l-25 -154q-42 13 -93 21t-94 8q-50 0 -79 -12.5t-50.5 -57.5t-36.5 -139q-12 -79 -12 -110q0 -47 27 -67.5t95 -20.5q56 0 93.5 2.5t91.5 8.5l-24 -153q-81 -32 -213 -32
q-131 0 -196.5 69.5zM333 937h111l39 -61l60 61h112l-123 -146h-131z" />
    <glyph glyph-name="ccaron" unicode="&#x10d;" horiz-adv-x="471" 
d="M120 42.5q-51 48.5 -51 161.5q0 41 9 96q37 245 251 245q77 0 190 -36l-18 -111h-125q-52 0 -75 -31.5t-34 -96.5q-5 -32 -5 -47q0 -84 72 -84h133l-17 -109q-39 -18 -81 -27t-99 -9q-99 0 -150 48.5zM233 777h111l39 -61l60 61h112l-123 -146h-131z" />
    <glyph glyph-name="Dcaron" unicode="&#x10e;" horiz-adv-x="696" 
d="M173 743h291q146 0 204 -67t58 -193q0 -72 -11 -139q-20 -128 -67 -203.5t-122 -108t-186 -32.5h-285zM361 174q69 0 106 46.5t54 154.5q11 72 11 99q0 54 -26.5 74.5t-89.5 20.5h-77l-62 -395h84zM323 937h111l39 -61l60 61h112l-123 -146h-131z" />
    <glyph glyph-name="dcaron" unicode="&#x10f;" horiz-adv-x="580" 
d="M104.5 44q-36.5 50 -36.5 142q0 56 12 117q16 82 44.5 134t83 80t143.5 28q47 0 76 -4l35 222h194l-121 -763h-174l-12 52q-28 -27 -63 -42.5t-71 -15.5q-74 0 -110.5 50zM369 178l33 205q-16 7 -41 7q-33 0 -57.5 -23t-37.5 -96q-5 -32 -5 -54q0 -68 44 -68q35 0 64 29z
M693 716l11 67h175l-11 -67l-31 -134h-154z" />
    <glyph glyph-name="Dcroat" unicode="&#x110;" horiz-adv-x="696" 
d="M668 676q58 -67 58 -193q0 -72 -11 -139q-20 -128 -67 -203.5t-122 -108t-186 -32.5h-285l49 311h-50l20 124h50l49 308h291q146 0 204 -67zM532 474q0 54 -26.5 74.5t-89.5 20.5h-77l-21 -134h80l-20 -124h-79l-22 -137h84q69 0 106 46.5t54 154.5q11 72 11 99z" />
    <glyph glyph-name="dcroat" unicode="&#x111;" horiz-adv-x="580" 
d="M683 606h-52l-96 -606h-174l-12 52q-28 -27 -63 -42.5t-71 -15.5q-74 0 -110.5 50t-36.5 142q0 56 12 117q16 82 44.5 134t83 80t143.5 28q47 0 76 -4l10 65h-102l12 74h102l13 83h194l-13 -83h52zM402 383q-16 7 -41 7q-33 0 -57.5 -23t-37.5 -96q-5 -32 -5 -54
q0 -68 44 -68q35 0 64 29z" />
    <glyph glyph-name="Emacron" unicode="&#x112;" horiz-adv-x="604" 
d="M131.5 25q-52.5 31 -52.5 110q0 17 3 38l61 383q29 187 217 187q127 0 304 -15l-26 -164h-248q-30 0 -43 -13.5t-18 -43.5l-7 -47l246 -10l-24 -154l-250 -10l-9 -58q-1 -5 -1 -13q0 -39 47 -39h246l-26 -164q-92 -9 -158.5 -13.5t-141.5 -4.5q-67 0 -119.5 31zM297 905
h292l-18 -114h-292z" />
    <glyph glyph-name="emacron" unicode="&#x113;" horiz-adv-x="548" 
d="M116.5 47q-48.5 53 -48.5 156q0 42 9 96q21 132 93 189t194 57q92 0 153 -37t61 -132q0 -108 -57.5 -147t-163.5 -39q-62 0 -97 8q-2 -12 -2 -20q0 -22 24 -32.5t75 -10.5h179l-18 -113q-112 -28 -240 -28q-113 0 -161.5 53zM380.5 309.5q17.5 14.5 17.5 45.5
q0 20 -12 31.5t-35 11.5q-32 0 -51 -24.5t-28 -74.5q26 -4 39 -4q52 0 69.5 14.5zM256 745h292l-18 -114h-292z" />
    <glyph glyph-name="Ebreve" unicode="&#x114;" horiz-adv-x="604" 
d="M131.5 25q-52.5 31 -52.5 110q0 17 3 38l61 383q29 187 217 187q127 0 304 -15l-26 -164h-248q-30 0 -43 -13.5t-18 -43.5l-7 -47l246 -10l-24 -154l-250 -10l-9 -58q-1 -5 -1 -13q0 -39 47 -39h246l-26 -164q-92 -9 -158.5 -13.5t-141.5 -4.5q-67 0 -119.5 31zM329 809
q-31 29 -31 86q0 12 4 42h89q-2 -14 -2 -20q0 -26 13 -38t33 -12q55 0 66 70h91q-12 -78 -55 -117.5t-116 -39.5q-61 0 -92 29z" />
    <glyph glyph-name="ebreve" unicode="&#x115;" horiz-adv-x="548" 
d="M116.5 47q-48.5 53 -48.5 156q0 42 9 96q21 132 93 189t194 57q92 0 153 -37t61 -132q0 -108 -57.5 -147t-163.5 -39q-62 0 -97 8q-2 -12 -2 -20q0 -22 24 -32.5t75 -10.5h179l-18 -113q-112 -28 -240 -28q-113 0 -161.5 53zM380.5 309.5q17.5 14.5 17.5 45.5
q0 20 -12 31.5t-35 11.5q-32 0 -51 -24.5t-28 -74.5q26 -4 39 -4q52 0 69.5 14.5zM288 649q-31 29 -31 86q0 12 4 42h89q-2 -14 -2 -20q0 -26 13 -38t33 -12q55 0 66 70h91q-12 -78 -55 -117.5t-116 -39.5q-61 0 -92 29z" />
    <glyph glyph-name="Edotaccent" unicode="&#x116;" horiz-adv-x="604" 
d="M131.5 25q-52.5 31 -52.5 110q0 17 3 38l61 383q29 187 217 187q127 0 304 -15l-26 -164h-248q-30 0 -43 -13.5t-18 -43.5l-7 -47l246 -10l-24 -154l-250 -10l-9 -58q-1 -5 -1 -13q0 -39 47 -39h246l-26 -164q-92 -9 -158.5 -13.5t-141.5 -4.5q-67 0 -119.5 31z
M362.5 799q-5.5 5 -5.5 14v4l18 111q3 25 27 25h90q20 0 20 -20v-5l-18 -111q-1 -11 -8.5 -17t-18.5 -6h-90q-9 0 -14.5 5z" />
    <glyph glyph-name="edotaccent" unicode="&#x117;" horiz-adv-x="548" 
d="M116.5 47q-48.5 53 -48.5 156q0 42 9 96q21 132 93 189t194 57q92 0 153 -37t61 -132q0 -108 -57.5 -147t-163.5 -39q-62 0 -97 8q-2 -12 -2 -20q0 -22 24 -32.5t75 -10.5h179l-18 -113q-112 -28 -240 -28q-113 0 -161.5 53zM380.5 309.5q17.5 14.5 17.5 45.5
q0 20 -12 31.5t-35 11.5q-32 0 -51 -24.5t-28 -74.5q26 -4 39 -4q52 0 69.5 14.5zM321.5 639q-5.5 5 -5.5 14v4l18 111q3 25 27 25h90q20 0 20 -20v-5l-18 -111q-1 -11 -8.5 -17t-18.5 -6h-90q-9 0 -14.5 5z" />
    <glyph glyph-name="Eogonek" unicode="&#x118;" horiz-adv-x="604" 
d="M347 550.5q-13 -13.5 -18 -43.5l-7 -47l246 -10l-24 -154l-250 -10l-9 -58q-1 -5 -1 -13q0 -39 47 -39h246l-26 -164q-26 -16 -37.5 -34t-11.5 -32q0 -16 10.5 -25.5t25.5 -9.5h10l-14 -90q-12 -5 -37 -5q-50 0 -72 22t-22 54q0 36 18 64.5t48 47.5q-136 -10 -218 -10
q-67 0 -119.5 31t-52.5 110q0 17 3 38l61 383q29 187 217 187q127 0 304 -15l-26 -164h-248q-30 0 -43 -13.5z" />
    <glyph glyph-name="eogonek" unicode="&#x119;" horiz-adv-x="548" 
d="M282 145.5q24 -10.5 75 -10.5h179l-18 -113q-26 -16 -37.5 -34t-11.5 -32q0 -16 10.5 -25.5t25.5 -9.5h10l-14 -90q-12 -5 -37 -5q-50 0 -72 22t-22 54q0 59 51 102q-72 -10 -143 -10q-113 0 -161.5 53t-48.5 156q0 42 9 96q21 132 93 189t194 57q92 0 153 -37t61 -132
q0 -108 -57.5 -147t-163.5 -39q-62 0 -97 8q-2 -12 -2 -20q0 -22 24 -32.5zM300 373.5q-19 -24.5 -28 -74.5q26 -4 39 -4q52 0 69.5 14.5t17.5 45.5q0 20 -12 31.5t-35 11.5q-32 0 -51 -24.5z" />
    <glyph glyph-name="Ecaron" unicode="&#x11a;" horiz-adv-x="604" 
d="M131.5 25q-52.5 31 -52.5 110q0 17 3 38l61 383q29 187 217 187q127 0 304 -15l-26 -164h-248q-30 0 -43 -13.5t-18 -43.5l-7 -47l246 -10l-24 -154l-250 -10l-9 -58q-1 -5 -1 -13q0 -39 47 -39h246l-26 -164q-92 -9 -158.5 -13.5t-141.5 -4.5q-67 0 -119.5 31zM303 937
h111l39 -61l60 61h112l-123 -146h-131z" />
    <glyph glyph-name="ecaron" unicode="&#x11b;" horiz-adv-x="548" 
d="M116.5 47q-48.5 53 -48.5 156q0 42 9 96q21 132 93 189t194 57q92 0 153 -37t61 -132q0 -108 -57.5 -147t-163.5 -39q-62 0 -97 8q-2 -12 -2 -20q0 -22 24 -32.5t75 -10.5h179l-18 -113q-112 -28 -240 -28q-113 0 -161.5 53zM380.5 309.5q17.5 14.5 17.5 45.5
q0 20 -12 31.5t-35 11.5q-32 0 -51 -24.5t-28 -74.5q26 -4 39 -4q52 0 69.5 14.5zM252 777h111l39 -61l60 61h112l-123 -146h-131z" />
    <glyph glyph-name="Gcircumflex" unicode="&#x11c;" horiz-adv-x="666" 
d="M126.5 50.5q-44.5 56.5 -44.5 180.5q0 65 18 179q27 173 110 256t222 83q91 0 151.5 -9.5t113.5 -26.5l-24 -152q-77 15 -216 15q-58 0 -89 -18t-48 -61t-30 -129q-12 -76 -12 -118q0 -77 67 -77q30 0 65.5 3t53.5 7l15 96h-103l25 154l37 3q77 7 129 7q78 0 124 -2
l-70 -441h-146l-18 49q-31 -20 -87.5 -37.5t-94.5 -17.5q-104 0 -148.5 56.5zM398 937h131l68 -146h-111l-39 61l-60 -61h-112z" />
    <glyph glyph-name="gcircumflex" unicode="&#x11d;" horiz-adv-x="582" 
d="M26 -221l21 134h174q55 0 82 13t33 50l12 76q-20 -22 -63.5 -40t-81.5 -18q-70 0 -103.5 54.5t-33.5 134.5q0 37 14 130q37 232 284 232q73 0 137.5 -11.5t112.5 -28.5l-89 -559q-15 -95 -80.5 -139t-196.5 -44q-39 0 -97 5zM367 178l33 205q-20 7 -45 7q-29 0 -53 -24
t-33 -75q-5 -26 -7 -42.5t-2 -31.5q0 -68 45 -68q35 0 62 29zM337 777h131l68 -146h-111l-39 61l-60 -61h-112z" />
    <glyph glyph-name="Gbreve" unicode="&#x11e;" horiz-adv-x="666" 
d="M126.5 50.5q-44.5 56.5 -44.5 180.5q0 65 18 179q27 173 110 256t222 83q91 0 151.5 -9.5t113.5 -26.5l-24 -152q-77 15 -216 15q-58 0 -89 -18t-48 -61t-30 -129q-12 -76 -12 -118q0 -77 67 -77q30 0 65.5 3t53.5 7l15 96h-103l25 154l37 3q77 7 129 7q78 0 124 -2
l-70 -441h-146l-18 49q-31 -20 -87.5 -37.5t-94.5 -17.5q-104 0 -148.5 56.5zM349 809q-31 29 -31 86q0 12 4 42h89q-2 -14 -2 -20q0 -26 13 -38t33 -12q55 0 66 70h91q-12 -78 -55 -117.5t-116 -39.5q-61 0 -92 29z" />
    <glyph glyph-name="gbreve" unicode="&#x11f;" horiz-adv-x="582" 
d="M26 -221l21 134h174q55 0 82 13t33 50l12 76q-20 -22 -63.5 -40t-81.5 -18q-70 0 -103.5 54.5t-33.5 134.5q0 37 14 130q37 232 284 232q73 0 137.5 -11.5t112.5 -28.5l-89 -559q-15 -95 -80.5 -139t-196.5 -44q-39 0 -97 5zM367 178l33 205q-20 7 -45 7q-29 0 -53 -24
t-33 -75q-5 -26 -7 -42.5t-2 -31.5q0 -68 45 -68q35 0 62 29zM289 649q-31 29 -31 86q0 12 4 42h89q-2 -14 -2 -20q0 -26 13 -38t33 -12q55 0 66 70h91q-12 -78 -55 -117.5t-116 -39.5q-61 0 -92 29z" />
    <glyph glyph-name="Gdotaccent" unicode="&#x120;" horiz-adv-x="666" 
d="M126.5 50.5q-44.5 56.5 -44.5 180.5q0 65 18 179q27 173 110 256t222 83q91 0 151.5 -9.5t113.5 -26.5l-24 -152q-77 15 -216 15q-58 0 -89 -18t-48 -61t-30 -129q-12 -76 -12 -118q0 -77 67 -77q30 0 65.5 3t53.5 7l15 96h-103l25 154l37 3q77 7 129 7q78 0 124 -2
l-70 -441h-146l-18 49q-31 -20 -87.5 -37.5t-94.5 -17.5q-104 0 -148.5 56.5zM382.5 799q-5.5 5 -5.5 14v4l18 111q3 25 27 25h90q20 0 20 -20v-5l-18 -111q-1 -11 -8.5 -17t-18.5 -6h-90q-9 0 -14.5 5z" />
    <glyph glyph-name="gdotaccent" unicode="&#x121;" horiz-adv-x="582" 
d="M26 -221l21 134h174q55 0 82 13t33 50l12 76q-20 -22 -63.5 -40t-81.5 -18q-70 0 -103.5 54.5t-33.5 134.5q0 37 14 130q37 232 284 232q73 0 137.5 -11.5t112.5 -28.5l-89 -559q-15 -95 -80.5 -139t-196.5 -44q-39 0 -97 5zM367 178l33 205q-20 7 -45 7q-29 0 -53 -24
t-33 -75q-5 -26 -7 -42.5t-2 -31.5q0 -68 45 -68q35 0 62 29zM322.5 639q-5.5 5 -5.5 14v4l18 111q3 25 27 25h90q20 0 20 -20v-5l-18 -111q-1 -11 -8.5 -17t-18.5 -6h-90q-9 0 -14.5 5z" />
    <glyph glyph-name="Gcommaaccent" unicode="&#x122;" horiz-adv-x="666" 
d="M126.5 50.5q-44.5 56.5 -44.5 180.5q0 65 18 179q27 173 110 256t222 83q91 0 151.5 -9.5t113.5 -26.5l-24 -152q-77 15 -216 15q-58 0 -89 -18t-48 -61t-30 -129q-12 -76 -12 -118q0 -77 67 -77q30 0 65.5 3t53.5 7l15 96h-103l25 154l37 3q77 7 129 7q78 0 124 -2
l-70 -441h-146l-18 49q-31 -20 -87.5 -37.5t-94.5 -17.5q-104 0 -148.5 56.5zM183 -146l27 9q26 8 35 19t13 39h117q-12 -78 -44 -112t-100 -34h-61z" />
    <glyph glyph-name="gcommaaccent" unicode="&#x123;" horiz-adv-x="582" 
d="M26 -221l21 134h174q55 0 82 13t33 50l12 76q-20 -22 -63.5 -40t-81.5 -18q-70 0 -103.5 54.5t-33.5 134.5q0 37 14 130q37 232 284 232q73 0 137.5 -11.5t112.5 -28.5l-89 -559q-15 -95 -80.5 -139t-196.5 -44q-39 0 -97 5zM367 178l33 205q-20 7 -45 7q-29 0 -53 -24
t-33 -75q-5 -26 -7 -42.5t-2 -31.5q0 -68 45 -68q35 0 62 29zM343 747q32 34 100 34h61l-13 -79l-27 -9q-26 -8 -35 -19t-13 -39h-117q12 78 44 112z" />
    <glyph glyph-name="Hcircumflex" unicode="&#x124;" horiz-adv-x="708" 
d="M173 743h194l-46 -286h220l46 286h194l-118 -743h-194l45 283h-220l-45 -283h-194zM430 937h131l68 -146h-111l-39 61l-60 -61h-112z" />
    <glyph glyph-name="hcircumflex" unicode="&#x125;" horiz-adv-x="600" 
d="M165 763h194l-44 -276q29 25 73 41.5t98 16.5q65 0 98.5 -32t33.5 -104q0 -30 -6 -69l-54 -340h-194l50 318q1 5 1 15q0 38 -41 38q-48 0 -83 -37l-53 -334h-194zM310 977h131l68 -146h-111l-39 61l-60 -61h-112z" />
    <glyph glyph-name="Hbar" unicode="&#x126;" horiz-adv-x="708" 
d="M789 513h-45l-81 -513h-194l45 283h-220l-45 -283h-194l81 513h-45l15 94h45l22 136h194l-22 -136h220l22 136h194l-22 -136h45zM550 513h-220l-9 -56h220z" />
    <glyph glyph-name="hbar" unicode="&#x127;" horiz-adv-x="601" 
d="M584.5 513q33.5 -32 33.5 -104q0 -30 -6 -69l-54 -340h-194l50 318q1 5 1 15q0 38 -41 38q-48 0 -83 -37l-53 -334h-194l96 606h-44l12 74h44l13 83h194l-13 -83h110l-12 -74h-110l-19 -119q29 25 73 41.5t98 16.5q65 0 98.5 -32z" />
    <glyph glyph-name="Itilde" unicode="&#x128;" horiz-adv-x="304" 
d="M173 743h194l-118 -743h-194zM133 890.5q34 31.5 81 31.5q23 0 42 -4.5t45 -12.5q31 -12 50 -12q28 0 35 36h96q-20 -76 -51 -109t-80 -33q-22 0 -42.5 4.5t-50.5 13.5q-33 11 -45 11q-24 0 -36 -31h-96q18 74 52 105.5z" />
    <glyph glyph-name="itilde" unicode="&#x129;" horiz-adv-x="281" 
d="M130 539h194l-85 -539h-194zM96 730.5q34 31.5 81 31.5q23 0 42 -4.5t45 -12.5q31 -12 50 -12q28 0 35 36h96q-20 -76 -51 -109t-80 -33q-22 0 -42.5 4.5t-50.5 13.5q-33 11 -45 11q-24 0 -36 -31h-96q18 74 52 105.5z" />
    <glyph glyph-name="Imacron" unicode="&#x12a;" horiz-adv-x="304" 
d="M173 743h194l-118 -743h-194zM147 905h292l-18 -114h-292z" />
    <glyph glyph-name="imacron" unicode="&#x12b;" horiz-adv-x="281" 
d="M130 539h194l-85 -539h-194zM120 745h292l-18 -114h-292z" />
    <glyph glyph-name="Ibreve" unicode="&#x12c;" horiz-adv-x="304" 
d="M173 743h194l-118 -743h-194zM179 809q-31 29 -31 86q0 12 4 42h89q-2 -14 -2 -20q0 -26 13 -38t33 -12q55 0 66 70h91q-12 -78 -55 -117.5t-116 -39.5q-61 0 -92 29z" />
    <glyph glyph-name="ibreve" unicode="&#x12d;" horiz-adv-x="281" 
d="M130 539h194l-85 -539h-194zM152 649q-31 29 -31 86q0 12 4 42h89q-2 -14 -2 -20q0 -26 13 -38t33 -12q55 0 66 70h91q-12 -78 -55 -117.5t-116 -39.5q-61 0 -92 29z" />
    <glyph glyph-name="Iogonek" unicode="&#x12e;" horiz-adv-x="304" 
d="M173 743h194l-118 -743h-194zM123 -174q-22 22 -22 54q0 40 21.5 70.5t57.5 49.5h69q-26 -16 -37.5 -34t-11.5 -32q0 -16 10.5 -25.5t25.5 -9.5h10l-14 -90q-12 -5 -37 -5q-50 0 -72 22z" />
    <glyph glyph-name="iogonek" unicode="&#x12f;" horiz-adv-x="280" 
d="M145.5 613.5q-5.5 6.5 -3.5 16.5l17 111q5 25 28 25h152q11 0 15.5 -7t2.5 -18l-17 -111q-5 -23 -26 -23h-152q-11 0 -16.5 6.5zM129 539h194l-85 -539h-194zM112 -174q-22 22 -22 54q0 40 21.5 70.5t57.5 49.5h69q-26 -16 -37.5 -34t-11.5 -32q0 -16 10.5 -25.5
t25.5 -9.5h10l-14 -90q-12 -5 -37 -5q-50 0 -72 22z" />
    <glyph glyph-name="Idotaccent" unicode="&#x130;" horiz-adv-x="304" 
d="M173 743h194l-118 -743h-194zM212.5 799q-5.5 5 -5.5 14v4l18 111q3 25 27 25h90q20 0 20 -20v-5l-18 -111q-1 -11 -8.5 -17t-18.5 -6h-90q-9 0 -14.5 5z" />
    <glyph glyph-name="dotlessi" unicode="&#x131;" horiz-adv-x="281" 
d="M130 539h194l-85 -539h-194z" />
    <glyph glyph-name="Jcircumflex" unicode="&#x134;" horiz-adv-x="417" 
d="M91 0q-35 6 -57 15l25 155h64q40 0 58.5 15.5t23.5 46.5l81 511h194l-88 -554q-17 -106 -71 -150.5t-164 -44.5q-31 0 -66 6zM339 937h131l68 -146h-111l-39 61l-60 -61h-112z" />
    <glyph glyph-name="jcircumflex" unicode="&#x135;" horiz-adv-x="281" 
d="M130 539h194l-86 -543q-16 -103 -87 -233h-144zM200 777h131l68 -146h-111l-39 61l-60 -61h-112z" />
    <glyph glyph-name="Kcommaaccent" unicode="&#x136;" horiz-adv-x="671" 
d="M173 743h194l-45 -283h76l174 283h197l-229 -374l131 -369h-192l-98 286h-87l-45 -286h-194zM193 -146l27 9q26 8 35 19t13 39h117q-12 -78 -44 -112t-100 -34h-61z" />
    <glyph glyph-name="kcommaaccent" unicode="&#x137;" horiz-adv-x="587" 
d="M165 763h194l-63 -397q114 31 147 173h194q-49 -182 -163 -251l131 -288h-198l-94 228q-24 -6 -40 -6l-35 -222h-194zM198 -146l27 9q26 8 35 19t13 39h117q-12 -78 -44 -112t-100 -34h-61z" />
    <glyph glyph-name="kgreenlandic" unicode="&#x138;" horiz-adv-x="587" 
d="M128 539h194l-27 -173q114 31 147 173h194q-49 -182 -163 -251l131 -288h-198l-94 228q-24 -6 -40 -6l-35 -222h-194z" />
    <glyph glyph-name="Lacute" unicode="&#x139;" horiz-adv-x="537" 
d="M125 37.5q-42 37.5 -42 112.5q0 26 4 50l86 543h194l-82 -517q-1 -5 -1 -13q0 -39 47 -39h214l-28 -174h-274q-76 0 -118 37.5zM291 934h164l-121 -143h-124z" />
    <glyph glyph-name="lacute" unicode="&#x13a;" horiz-adv-x="342" 
d="M118.5 35.5q-47.5 35.5 -47.5 93.5q0 42 3 60l91 574h194l-80 -505q-8 -52 -8 -69q0 -22 10.5 -30.5t35.5 -12.5l29 -5l-22 -141h-68q-90 0 -137.5 35.5zM293 974h164l-121 -143h-124z" />
    <glyph glyph-name="Lcommaaccent" unicode="&#x13b;" horiz-adv-x="537" 
d="M125 37.5q-42 37.5 -42 112.5q0 26 4 50l86 543h194l-82 -517q-1 -5 -1 -13q0 -39 47 -39h214l-28 -174h-274q-76 0 -118 37.5zM133 -146l27 9q26 8 35 19t13 39h117q-12 -78 -44 -112t-100 -34h-61z" />
    <glyph glyph-name="lcommaaccent" unicode="&#x13c;" horiz-adv-x="342" 
d="M118.5 35.5q-47.5 35.5 -47.5 93.5q0 42 3 60l91 574h194l-80 -505q-8 -52 -8 -69q0 -22 10.5 -30.5t35.5 -12.5l29 -5l-22 -141h-68q-90 0 -137.5 35.5zM68 -146l27 9q26 8 35 19t13 39h117q-12 -78 -44 -112t-100 -34h-61z" />
    <glyph glyph-name="Lcaron" unicode="&#x13d;" horiz-adv-x="537" 
d="M125 37.5q-42 37.5 -42 112.5q0 26 4 50l86 543h194l-82 -517q-1 -5 -1 -13q0 -39 47 -39h214l-28 -174h-274q-76 0 -118 37.5zM427 696l11 67h175l-11 -67l-31 -134h-154z" />
    <glyph glyph-name="lcaron" unicode="&#x13e;" horiz-adv-x="342" 
d="M118.5 35.5q-47.5 35.5 -47.5 93.5q0 42 3 60l91 574h194l-80 -505q-8 -52 -8 -69q0 -22 10.5 -30.5t35.5 -12.5l29 -5l-22 -141h-68q-90 0 -137.5 35.5zM397 716l11 67h175l-11 -67l-31 -134h-154z" />
    <glyph glyph-name="Ldot" unicode="&#x13f;" horiz-adv-x="537" 
d="M125 37.5q-42 37.5 -42 112.5q0 26 4 50l86 543h194l-82 -517q-1 -5 -1 -13q0 -39 47 -39h214l-28 -174h-274q-76 0 -118 37.5zM384.5 361.5q-5.5 6.5 -4.5 16.5l19 117q2 11 9 18t19 7h113q26 0 21 -25l-19 -117q-4 -23 -28 -23h-113q-11 0 -16.5 6.5z" />
    <glyph glyph-name="ldot" unicode="&#x140;" horiz-adv-x="396" 
d="M118.5 35.5q-47.5 35.5 -47.5 93.5q0 42 3 60l91 574h194l-80 -505q-8 -52 -8 -69q0 -22 10.5 -30.5t35.5 -12.5l29 -5l-22 -141h-68q-90 0 -137.5 35.5zM318.5 311.5q-5.5 6.5 -4.5 16.5l19 117q2 11 9 18t19 7h113q26 0 21 -25l-19 -117q-4 -23 -28 -23h-113
q-11 0 -16.5 6.5z" />
    <glyph glyph-name="Lslash" unicode="&#x141;" horiz-adv-x="537" 
d="M545 174l-28 -174h-274q-76 0 -118 37.5t-42 112.5q0 26 4 50l19 121l-59 -24l16 101l59 24l51 321h194l-41 -261l138 57l-16 -101l-138 -57l-25 -155q-1 -5 -1 -13q0 -39 47 -39h214z" />
    <glyph glyph-name="lslash" unicode="&#x142;" horiz-adv-x="342" 
d="M279 258q-8 -52 -8 -69q0 -22 10.5 -30.5t35.5 -12.5l29 -5l-22 -141h-68q-90 0 -137.5 35.5t-47.5 93.5q0 42 3 60l25 158l-54 -21l16 101l54 21l50 315h194l-40 -250l85 34l-16 -101l-85 -34z" />
    <glyph glyph-name="Nacute" unicode="&#x143;" horiz-adv-x="709" 
d="M173 743h154l195 -414l66 414h194l-118 -743h-154l-195 414l-66 -414h-194zM473 934h164l-121 -143h-124z" />
    <glyph glyph-name="nacute" unicode="&#x144;" horiz-adv-x="600" 
d="M129 539h162l24 -52q73 58 169 58q62 0 98 -32.5t36 -85.5q0 -25 -2 -49.5t-10 -73.5l-48 -304h-194l47 298q4 25 4 36q0 37 -45 37q-22 0 -42.5 -10t-36.5 -27l-53 -334h-194zM413 774h164l-121 -143h-124z" />
    <glyph glyph-name="Ncommaaccent" unicode="&#x145;" horiz-adv-x="709" 
d="M173 743h154l195 -414l66 414h194l-118 -743h-154l-195 414l-66 -414h-194zM195 -146l27 9q26 8 35 19t13 39h117q-12 -78 -44 -112t-100 -34h-61z" />
    <glyph glyph-name="ncommaaccent" unicode="&#x146;" horiz-adv-x="600" 
d="M129 539h162l24 -52q73 58 169 58q62 0 98 -32.5t36 -85.5q0 -25 -2 -49.5t-10 -73.5l-48 -304h-194l47 298q4 25 4 36q0 37 -45 37q-22 0 -42.5 -10t-36.5 -27l-53 -334h-194zM178 -146l27 9q26 8 35 19t13 39h117q-12 -78 -44 -112t-100 -34h-61z" />
    <glyph glyph-name="Ncaron" unicode="&#x147;" horiz-adv-x="709" 
d="M173 743h154l195 -414l66 414h194l-118 -743h-154l-195 414l-66 -414h-194zM335 937h111l39 -61l60 61h112l-123 -146h-131z" />
    <glyph glyph-name="ncaron" unicode="&#x148;" horiz-adv-x="600" 
d="M129 539h162l24 -52q73 58 169 58q62 0 98 -32.5t36 -85.5q0 -25 -2 -49.5t-10 -73.5l-48 -304h-194l47 298q4 25 4 36q0 37 -45 37q-22 0 -42.5 -10t-36.5 -27l-53 -334h-194zM265 777h111l39 -61l60 61h112l-123 -146h-131z" />
    <glyph glyph-name="Eng" unicode="&#x14a;" horiz-adv-x="709" 
d="M658 -39q-16 -100 -73.5 -152t-167.5 -52q-66 0 -124 18l25 156h88q53 0 63 60l11 72l-165 351l-66 -414h-194l118 743h154l195 -414l66 414h194z" />
    <glyph glyph-name="eng" unicode="&#x14b;" horiz-adv-x="600" 
d="M582 512.5q36 -32.5 36 -85.5q0 -25 -2 -49.5t-10 -73.5l-48 -304l-7 -45q-11 -70 -48 -119t-85 -73h-154q31 31 55.5 73t36.5 114l8 50l47 298q4 25 4 36q0 37 -45 37q-22 0 -42.5 -10t-36.5 -27l-53 -334h-194l85 539h162l24 -52q73 58 169 58q62 0 98 -32.5z" />
    <glyph glyph-name="Omacron" unicode="&#x14c;" horiz-adv-x="704" 
d="M206.5 14q-57.5 20 -90.5 74t-33 151q0 69 15 159q22 135 65.5 211t117 108t189.5 32q84 0 141.5 -20.5t91.5 -77t34 -159.5q0 -64 -15 -156q-22 -139 -65.5 -212.5t-115 -101.5t-191.5 -28q-86 0 -143.5 20zM457 190q29 21 45 61.5t27 109.5q14 88 14 129
q0 50 -22.5 67.5t-77.5 17.5q-48 0 -76.5 -17.5t-45.5 -60.5t-30 -124q-14 -84 -14 -124q0 -45 23 -62.5t80 -17.5q48 0 77 21zM348 905h292l-18 -114h-292z" />
    <glyph glyph-name="omacron" unicode="&#x14d;" horiz-adv-x="579" 
d="M123 43q-55 49 -55 142q0 54 8 104q17 107 52 162t92.5 74.5t154.5 19.5q90 0 137.5 -21t65 -64t17.5 -116q0 -50 -9 -109q-15 -97 -50.5 -149t-94 -72t-152.5 -20q-111 0 -166 49zM353 158q15 9 23.5 32.5t16.5 71.5q9 68 9 91t-12 32t-40 9q-29 0 -44 -10.5
t-23.5 -37.5t-16.5 -84q-6 -40 -6 -68q0 -25 11 -35t38 -10q29 0 44 9zM256 745h292l-18 -114h-292z" />
    <glyph glyph-name="Obreve" unicode="&#x14e;" horiz-adv-x="704" 
d="M206.5 14q-57.5 20 -90.5 74t-33 151q0 69 15 159q22 135 65.5 211t117 108t189.5 32q84 0 141.5 -20.5t91.5 -77t34 -159.5q0 -64 -15 -156q-22 -139 -65.5 -212.5t-115 -101.5t-191.5 -28q-86 0 -143.5 20zM457 190q29 21 45 61.5t27 109.5q14 88 14 129
q0 50 -22.5 67.5t-77.5 17.5q-48 0 -76.5 -17.5t-45.5 -60.5t-30 -124q-14 -84 -14 -124q0 -45 23 -62.5t80 -17.5q48 0 77 21zM380 809q-31 29 -31 86q0 12 4 42h89q-2 -14 -2 -20q0 -26 13 -38t33 -12q55 0 66 70h91q-12 -78 -55 -117.5t-116 -39.5q-61 0 -92 29z" />
    <glyph glyph-name="obreve" unicode="&#x14f;" horiz-adv-x="579" 
d="M123 43q-55 49 -55 142q0 54 8 104q17 107 52 162t92.5 74.5t154.5 19.5q90 0 137.5 -21t65 -64t17.5 -116q0 -50 -9 -109q-15 -97 -50.5 -149t-94 -72t-152.5 -20q-111 0 -166 49zM353 158q15 9 23.5 32.5t16.5 71.5q9 68 9 91t-12 32t-40 9q-29 0 -44 -10.5
t-23.5 -37.5t-16.5 -84q-6 -40 -6 -68q0 -25 11 -35t38 -10q29 0 44 9zM288 649q-31 29 -31 86q0 12 4 42h89q-2 -14 -2 -20q0 -26 13 -38t33 -12q55 0 66 70h91q-12 -78 -55 -117.5t-116 -39.5q-61 0 -92 29z" />
    <glyph glyph-name="Ohungarumlaut" unicode="&#x150;" horiz-adv-x="704" 
d="M206.5 14q-57.5 20 -90.5 74t-33 151q0 69 15 159q22 135 65.5 211t117 108t189.5 32q84 0 141.5 -20.5t91.5 -77t34 -159.5q0 -64 -15 -156q-22 -139 -65.5 -212.5t-115 -101.5t-191.5 -28q-86 0 -143.5 20zM457 190q29 21 45 61.5t27 109.5q14 88 14 129
q0 50 -22.5 67.5t-77.5 17.5q-48 0 -76.5 -17.5t-45.5 -60.5t-30 -124q-14 -84 -14 -124q0 -45 23 -62.5t80 -17.5q48 0 77 21zM402 934h144l-111 -143h-114zM575 934h144l-111 -143h-114z" />
    <glyph glyph-name="ohungarumlaut" unicode="&#x151;" horiz-adv-x="579" 
d="M123 43q-55 49 -55 142q0 54 8 104q17 107 52 162t92.5 74.5t154.5 19.5q90 0 137.5 -21t65 -64t17.5 -116q0 -50 -9 -109q-15 -97 -50.5 -149t-94 -72t-152.5 -20q-111 0 -166 49zM353 158q15 9 23.5 32.5t16.5 71.5q9 68 9 91t-12 32t-40 9q-29 0 -44 -10.5
t-23.5 -37.5t-16.5 -84q-6 -40 -6 -68q0 -25 11 -35t38 -10q29 0 44 9zM310 774h144l-111 -143h-114zM483 774h144l-111 -143h-114z" />
    <glyph glyph-name="OE" unicode="&#x152;" horiz-adv-x="1021" 
d="M765 550.5q-13 -13.5 -18 -43.5l-7 -47l246 -10l-24 -154l-249 -10q-2 -12 -4 -18l-6 -40q-1 -5 -1 -13q0 -39 47 -39h246l-26 -164q-92 -9 -158.5 -13.5t-141.5 -4.5t-120 31q-70 -31 -199 -31q-86 0 -143.5 20t-90.5 74t-33 151q0 69 15 159q22 135 65.5 211t117 108
t189.5 32q117 0 178 -39q50 33 130 33q127 0 304 -15l-26 -164h-248q-30 0 -43 -13.5zM457 190q29 21 45 61.5t27 109.5q14 88 14 129q0 50 -22.5 67.5t-77.5 17.5q-48 0 -76.5 -17.5t-45.5 -60.5t-30 -124q-14 -84 -14 -124q0 -45 23 -62.5t80 -17.5q48 0 77 21z" />
    <glyph glyph-name="oe" unicode="&#x153;" horiz-adv-x="870" 
d="M120.5 43q-52.5 49 -52.5 142q0 54 8 104q17 107 51 162t89.5 74.5t148.5 19.5q101 0 163 -68q37 34 77.5 51t90.5 17q88 0 146 -37t58 -132q0 -108 -58 -147t-164 -39q-61 0 -96 8q-2 -10 -2 -20q0 -43 99 -43h179l-18 -113q-116 -28 -206 -28q-60 0 -97.5 12.5
t-67.5 38.5q-45 -24 -90 -37.5t-100 -13.5q-106 0 -158.5 49zM702.5 309.5q17.5 14.5 17.5 45.5q0 20 -12 31.5t-35 11.5q-32 0 -51 -24.5t-28 -74.5q26 -4 39 -4q52 0 69.5 14.5zM353 158q15 9 23.5 32.5t16.5 71.5q9 68 9 91t-12 32t-40 9q-29 0 -44 -10.5t-23.5 -37.5
t-16.5 -84q-6 -40 -6 -68q0 -25 11 -35t38 -10q29 0 44 9z" />
    <glyph glyph-name="Racute" unicode="&#x154;" horiz-adv-x="644" 
d="M173 743h292q108 0 162 -47t54 -147q0 -30 -6 -66q-9 -61 -32.5 -100.5t-47.5 -58.5t-54 -36l83 -288h-197l-63 256h-74l-41 -256h-194zM395 410q44 0 61 19t24 65q2 10 2 27q0 24 -13 36t-43 12h-87l-25 -159h81zM441 934h164l-121 -143h-124z" />
    <glyph glyph-name="racute" unicode="&#x155;" horiz-adv-x="435" 
d="M130 539h174l9 -72q30 36 63 57t73 21q27 0 46 -5l-29 -194h-58q-39 0 -70 -10t-50 -26l-49 -310h-194zM344 776h164l-121 -143h-124z" />
    <glyph glyph-name="Rcommaaccent" unicode="&#x156;" horiz-adv-x="644" 
d="M173 743h292q108 0 162 -47t54 -147q0 -30 -6 -66q-9 -61 -32.5 -100.5t-47.5 -58.5t-54 -36l83 -288h-197l-63 256h-74l-41 -256h-194zM395 410q44 0 61 19t24 65q2 10 2 27q0 24 -13 36t-43 12h-87l-25 -159h81zM163 -146l27 9q26 8 35 19t13 39h117q-12 -78 -44 -112
t-100 -34h-61z" />
    <glyph glyph-name="rcommaaccent" unicode="&#x157;" horiz-adv-x="435" 
d="M130 539h174l9 -72q30 36 63 57t73 21q27 0 46 -5l-29 -194h-58q-39 0 -70 -10t-50 -26l-49 -310h-194zM29 -146l27 9q26 8 35 19t13 39h117q-12 -78 -44 -112t-100 -34h-61z" />
    <glyph glyph-name="Rcaron" unicode="&#x158;" horiz-adv-x="644" 
d="M173 743h292q108 0 162 -47t54 -147q0 -30 -6 -66q-9 -61 -32.5 -100.5t-47.5 -58.5t-54 -36l83 -288h-197l-63 256h-74l-41 -256h-194zM395 410q44 0 61 19t24 65q2 10 2 27q0 24 -13 36t-43 12h-87l-25 -159h81zM303 937h111l39 -61l60 61h112l-123 -146h-131z" />
    <glyph glyph-name="rcaron" unicode="&#x159;" horiz-adv-x="435" 
d="M130 539h174l9 -72q30 36 63 57t73 21q27 0 46 -5l-29 -194h-58q-39 0 -70 -10t-50 -26l-49 -310h-194zM196 779h111l39 -61l60 61h112l-123 -146h-131z" />
    <glyph glyph-name="Sacute" unicode="&#x15a;" horiz-adv-x="576" 
d="M56 23l24 154q93 -9 224 -9q57 0 79.5 10.5t27.5 37.5l2 11q1 5 1 13q0 20 -16.5 28t-53.5 8h-40q-89 0 -140.5 49t-51.5 126q0 21 3 43l9 57q17 104 88 151t195 47q117 0 232 -29l-24 -154q-94 9 -233 9q-69 0 -77 -47l-2 -11q-2 -12 -2 -17q0 -41 51 -41h44
q98 0 152.5 -47.5t54.5 -123.5q0 -18 -3 -39l-11 -70q-10 -63 -38.5 -103t-87 -61t-154.5 -21q-147 0 -253 29zM424 934h164l-121 -143h-124z" />
    <glyph glyph-name="sacute" unicode="&#x15b;" horiz-adv-x="516" 
d="M140 1.5q-48 7.5 -94 23.5l18 113h242q12 0 20 5t10 13l2 12l1 9q0 15 -25 15h-68q-71 0 -116.5 30t-45.5 90q0 31 3 48l6 35q12 71 67 110.5t173 39.5q53 0 110.5 -9t97.5 -23l-18 -113h-227q-15 0 -22 -4t-10 -15l-1 -4q-2 -10 -2 -14q0 -8 5 -12.5t20 -4.5h81
q69 0 110 -30t41 -80q0 -33 -3 -51l-7 -47q-12 -76 -74.5 -110t-171.5 -34q-74 0 -122 7.5zM397 774h164l-121 -143h-124z" />
    <glyph glyph-name="Scircumflex" unicode="&#x15c;" horiz-adv-x="576" 
d="M56 23l24 154q93 -9 224 -9q57 0 79.5 10.5t27.5 37.5l2 11q1 5 1 13q0 20 -16.5 28t-53.5 8h-40q-89 0 -140.5 49t-51.5 126q0 21 3 43l9 57q17 104 88 151t195 47q117 0 232 -29l-24 -154q-94 9 -233 9q-69 0 -77 -47l-2 -11q-2 -12 -2 -17q0 -41 51 -41h44
q98 0 152.5 -47.5t54.5 -123.5q0 -18 -3 -39l-11 -70q-10 -63 -38.5 -103t-87 -61t-154.5 -21q-147 0 -253 29zM361 937h131l68 -146h-111l-39 61l-60 -61h-112z" />
    <glyph glyph-name="scircumflex" unicode="&#x15d;" horiz-adv-x="516" 
d="M140 1.5q-48 7.5 -94 23.5l18 113h242q12 0 20 5t10 13l2 12l1 9q0 15 -25 15h-68q-71 0 -116.5 30t-45.5 90q0 31 3 48l6 35q12 71 67 110.5t173 39.5q53 0 110.5 -9t97.5 -23l-18 -113h-227q-15 0 -22 -4t-10 -15l-1 -4q-2 -10 -2 -14q0 -8 5 -12.5t20 -4.5h81
q69 0 110 -30t41 -80q0 -33 -3 -51l-7 -47q-12 -76 -74.5 -110t-171.5 -34q-74 0 -122 7.5zM333 777h131l68 -146h-111l-39 61l-60 -61h-112z" />
    <glyph glyph-name="Scedilla" unicode="&#x15e;" horiz-adv-x="576" 
d="M303 517q-2 -12 -2 -17q0 -41 51 -41h44q98 0 152.5 -47.5t54.5 -123.5q0 -18 -3 -39l-11 -70q-10 -63 -38.5 -103t-85.5 -61t-151 -21l-33 -43q24 -4 39 -19.5t15 -44.5q0 -39 -32 -64.5t-96 -25.5h-59l12 79l16 3q36 6 36 32q0 19 -27 27l45 58q-101 6 -174 27l24 154
q93 -9 224 -9q57 0 79.5 10.5t27.5 37.5l2 11q1 5 1 13q0 20 -16.5 28t-53.5 8h-40q-89 0 -140.5 49t-51.5 126q0 21 3 43l9 57q17 104 88 151t195 47q117 0 232 -29l-24 -154q-94 9 -233 9q-69 0 -77 -47z" />
    <glyph glyph-name="scedilla" unicode="&#x15f;" horiz-adv-x="516" 
d="M263 377q-2 -10 -2 -14q0 -8 5 -12.5t20 -4.5h81q69 0 110 -30t41 -80q0 -33 -3 -51l-7 -47q-10 -68 -61.5 -102.5t-140.5 -40.5l-34 -44q24 -4 39 -19.5t15 -44.5q0 -39 -32 -64.5t-96 -25.5h-59l12 79l16 3q36 6 36 32q0 19 -27 27l44 57q-55 1 -94.5 8.5t-79.5 21.5
l18 113h242q12 0 20 5t10 13l2 12l1 9q0 15 -25 15h-68q-71 0 -116.5 30t-45.5 90q0 31 3 48l6 35q12 71 67 110.5t173 39.5q53 0 110.5 -9t97.5 -23l-18 -113h-227q-15 0 -22 -4t-10 -15z" />
    <glyph glyph-name="Scaron" unicode="&#x160;" horiz-adv-x="576" 
d="M56 23l24 154q93 -9 224 -9q57 0 79.5 10.5t27.5 37.5l2 11q1 5 1 13q0 20 -16.5 28t-53.5 8h-40q-89 0 -140.5 49t-51.5 126q0 21 3 43l9 57q17 104 88 151t195 47q117 0 232 -29l-24 -154q-94 9 -233 9q-69 0 -77 -47l-2 -11q-2 -12 -2 -17q0 -41 51 -41h44
q98 0 152.5 -47.5t54.5 -123.5q0 -18 -3 -39l-11 -70q-10 -63 -38.5 -103t-87 -61t-154.5 -21q-147 0 -253 29zM286 937h111l39 -61l60 61h112l-123 -146h-131z" />
    <glyph glyph-name="scaron" unicode="&#x161;" horiz-adv-x="516" 
d="M140 1.5q-48 7.5 -94 23.5l18 113h242q12 0 20 5t10 13l2 12l1 9q0 15 -25 15h-68q-71 0 -116.5 30t-45.5 90q0 31 3 48l6 35q12 71 67 110.5t173 39.5q53 0 110.5 -9t97.5 -23l-18 -113h-227q-15 0 -22 -4t-10 -15l-1 -4q-2 -10 -2 -14q0 -8 5 -12.5t20 -4.5h81
q69 0 110 -30t41 -80q0 -33 -3 -51l-7 -47q-12 -76 -74.5 -110t-171.5 -34q-74 0 -122 7.5zM249 777h111l39 -61l60 61h112l-123 -146h-131z" />
    <glyph glyph-name="uni0162" unicode="&#x162;" horiz-adv-x="612" 
d="M700 743l-28 -174h-184l-90 -569h-62l-38 -49q24 -4 39 -19.5t15 -44.5q0 -39 -32 -64.5t-96 -25.5h-59l12 79l16 3q36 6 36 32q0 19 -27 27l48 62h-46l90 569h-184l28 174h562z" />
    <glyph glyph-name="uni0163" unicode="&#x163;" horiz-adv-x="424" 
d="M310 224q-1 -4 -3 -18t-2 -23q0 -17 9 -24t30 -9l59 -6l-23 -144h-90l-38 -49q24 -4 39 -19.5t15 -44.5q0 -39 -32 -64.5t-96 -25.5h-59l12 79l16 3q36 6 36 32q0 19 -27 27l54 70q-101 23 -101 119q0 44 10 98l31 160h-83l20 124l95 30l48 151h154l-24 -151h109
l-24 -154h-109z" />
    <glyph glyph-name="Tcaron" unicode="&#x164;" horiz-adv-x="612" 
d="M294 569h-184l28 174h562l-28 -174h-184l-90 -569h-194zM303 937h111l39 -61l60 61h112l-123 -146h-131z" />
    <glyph glyph-name="tcaron" unicode="&#x165;" horiz-adv-x="424" 
d="M154 31q-45 31 -45 96q0 44 10 98l31 160h-83l20 124l95 30l48 151h154l-24 -151h109l-24 -154h-109l-26 -161q-1 -4 -3 -18t-2 -23q0 -17 9 -24t30 -9l59 -6l-23 -144h-91q-90 0 -135 31zM424 716l11 67h175l-11 -67l-31 -134h-154z" />
    <glyph glyph-name="Tbar" unicode="&#x166;" horiz-adv-x="600" 
d="M488 569l-22 -142h160l-15 -94h-160l-53 -333h-194l53 333h-161l15 94h161l22 142h-184l28 174h562l-28 -174h-184z" />
    <glyph glyph-name="tbar" unicode="&#x167;" horiz-adv-x="403" 
d="M336 385l-10 -65h102l-12 -74h-102l-4 -22q-1 -4 -3 -18t-2 -23q0 -17 9 -24t30 -9l59 -6l-23 -144h-91q-90 0 -135 31t-45 96q0 44 10 98l4 21h-85l12 74h87l13 65h-83l20 124l95 30l48 151h154l-24 -151h109l-24 -154h-109z" />
    <glyph glyph-name="Utilde" unicode="&#x168;" horiz-adv-x="696" 
d="M159.5 50.5q-62.5 56.5 -62.5 177.5q0 40 13 122l63 393h194l-67 -423q-1 -10 -5 -34.5t-4 -40.5q0 -39 20 -58t67 -19q36 0 58.5 13.5t37.5 46t24 92.5l67 423h194l-72 -453q-19 -122 -61.5 -186t-107.5 -87t-168 -23q-128 0 -190.5 56.5zM325 890.5q34 31.5 81 31.5
q23 0 42 -4.5t45 -12.5q31 -12 50 -12q28 0 35 36h96q-20 -76 -51 -109t-80 -33q-22 0 -42.5 4.5t-50.5 13.5q-33 11 -45 11q-24 0 -36 -31h-96q18 74 52 105.5z" />
    <glyph glyph-name="utilde" unicode="&#x169;" horiz-adv-x="600" 
d="M67 122q0 36 5 69l55 348h194l-50 -321q-1 -5 -1 -15q0 -35 42 -35q45 0 82 37l53 334h194l-85 -539h-174l-12 52q-44 -32 -80.5 -45t-93.5 -13q-129 0 -129 128zM256 730.5q34 31.5 81 31.5q23 0 42 -4.5t45 -12.5q31 -12 50 -12q28 0 35 36h96q-20 -76 -51 -109
t-80 -33q-22 0 -42.5 4.5t-50.5 13.5q-33 11 -45 11q-24 0 -36 -31h-96q18 74 52 105.5z" />
    <glyph glyph-name="Umacron" unicode="&#x16a;" horiz-adv-x="696" 
d="M159.5 50.5q-62.5 56.5 -62.5 177.5q0 40 13 122l63 393h194l-67 -423q-1 -10 -5 -34.5t-4 -40.5q0 -39 20 -58t67 -19q36 0 58.5 13.5t37.5 46t24 92.5l67 423h194l-72 -453q-19 -122 -61.5 -186t-107.5 -87t-168 -23q-128 0 -190.5 56.5zM339 905h292l-18 -114h-292z
" />
    <glyph glyph-name="umacron" unicode="&#x16b;" horiz-adv-x="600" 
d="M67 122q0 36 5 69l55 348h194l-50 -321q-1 -5 -1 -15q0 -35 42 -35q45 0 82 37l53 334h194l-85 -539h-174l-12 52q-44 -32 -80.5 -45t-93.5 -13q-129 0 -129 128zM280 745h292l-18 -114h-292z" />
    <glyph glyph-name="Ubreve" unicode="&#x16c;" horiz-adv-x="696" 
d="M159.5 50.5q-62.5 56.5 -62.5 177.5q0 40 13 122l63 393h194l-67 -423q-1 -10 -5 -34.5t-4 -40.5q0 -39 20 -58t67 -19q36 0 58.5 13.5t37.5 46t24 92.5l67 423h194l-72 -453q-19 -122 -61.5 -186t-107.5 -87t-168 -23q-128 0 -190.5 56.5zM371 809q-31 29 -31 86
q0 12 4 42h89q-2 -14 -2 -20q0 -26 13 -38t33 -12q55 0 66 70h91q-12 -78 -55 -117.5t-116 -39.5q-61 0 -92 29z" />
    <glyph glyph-name="ubreve" unicode="&#x16d;" horiz-adv-x="600" 
d="M67 122q0 36 5 69l55 348h194l-50 -321q-1 -5 -1 -15q0 -35 42 -35q45 0 82 37l53 334h194l-85 -539h-174l-12 52q-44 -32 -80.5 -45t-93.5 -13q-129 0 -129 128zM312 649q-31 29 -31 86q0 12 4 42h89q-2 -14 -2 -20q0 -26 13 -38t33 -12q55 0 66 70h91
q-12 -78 -55 -117.5t-116 -39.5q-61 0 -92 29z" />
    <glyph glyph-name="Uring" unicode="&#x16e;" horiz-adv-x="696" 
d="M159.5 50.5q-62.5 56.5 -62.5 177.5q0 40 13 122l63 393h194l-67 -423q-1 -10 -5 -34.5t-4 -40.5q0 -39 20 -58t67 -19q36 0 58.5 13.5t37.5 46t24 92.5l67 423h194l-72 -453q-19 -122 -61.5 -186t-107.5 -87t-168 -23q-128 0 -190.5 56.5zM378.5 784q-29.5 24 -29.5 79
q0 57 39.5 94.5t109.5 37.5q61 0 90 -24t29 -79q0 -58 -39 -95t-109 -37q-61 0 -90.5 24zM515.5 846q12.5 17 12.5 43q0 37 -38 37q-26 0 -39 -17.5t-13 -42.5q0 -37 40 -37q25 0 37.5 17z" />
    <glyph glyph-name="uring" unicode="&#x16f;" horiz-adv-x="600" 
d="M67 122q0 36 5 69l55 348h194l-50 -321q-1 -5 -1 -15q0 -35 42 -35q45 0 82 37l53 334h194l-85 -539h-174l-12 52q-44 -32 -80.5 -45t-93.5 -13q-129 0 -129 128zM319.5 604q-29.5 24 -29.5 79q0 57 39.5 94.5t109.5 37.5q61 0 90 -24t29 -79q0 -58 -39 -95t-109 -37
q-61 0 -90.5 24zM456.5 666q12.5 17 12.5 43q0 37 -38 37q-26 0 -39 -17.5t-13 -42.5q0 -37 40 -37q25 0 37.5 17z" />
    <glyph glyph-name="Uhungarumlaut" unicode="&#x170;" horiz-adv-x="696" 
d="M159.5 50.5q-62.5 56.5 -62.5 177.5q0 40 13 122l63 393h194l-67 -423q-1 -10 -5 -34.5t-4 -40.5q0 -39 20 -58t67 -19q36 0 58.5 13.5t37.5 46t24 92.5l67 423h194l-72 -453q-19 -122 -61.5 -186t-107.5 -87t-168 -23q-128 0 -190.5 56.5zM393 934h144l-111 -143h-114z
M566 934h144l-111 -143h-114z" />
    <glyph glyph-name="uhungarumlaut" unicode="&#x171;" horiz-adv-x="600" 
d="M67 122q0 36 5 69l55 348h194l-50 -321q-1 -5 -1 -15q0 -35 42 -35q45 0 82 37l53 334h194l-85 -539h-174l-12 52q-44 -32 -80.5 -45t-93.5 -13q-129 0 -129 128zM334 774h144l-111 -143h-114zM507 774h144l-111 -143h-114z" />
    <glyph glyph-name="Uogonek" unicode="&#x172;" horiz-adv-x="696" 
d="M759 743l-72 -453q-16 -100 -47 -160.5t-77.5 -90.5t-114.5 -39q-26 -16 -37.5 -34t-11.5 -32q0 -16 10.5 -25.5t25.5 -9.5h10l-14 -90q-12 -5 -37 -5q-50 0 -72 22t-22 54q0 37 18.5 66t50.5 48h-19q-128 0 -190.5 56.5t-62.5 177.5q0 40 13 122l63 393h194l-67 -423
q-1 -10 -5 -34.5t-4 -40.5q0 -39 20 -58t67 -19q36 0 58.5 13.5t37.5 46t24 92.5l67 423h194z" />
    <glyph glyph-name="uogonek" unicode="&#x173;" horiz-adv-x="600" 
d="M518.5 -34q-11.5 -18 -11.5 -32q0 -16 10.5 -25.5t25.5 -9.5h10l-14 -90q-12 -5 -37 -5q-50 0 -72 22t-22 54q0 40 21.5 70.5t57.5 49.5h-105l-12 52q-44 -32 -80.5 -45t-93.5 -13q-129 0 -129 128q0 36 5 69l55 348h194l-50 -321q-1 -5 -1 -15q0 -35 42 -35q45 0 82 37
l53 334h194l-85 -539q-26 -16 -37.5 -34z" />
    <glyph glyph-name="Wcircumflex" unicode="&#x174;" horiz-adv-x="1050" 
d="M133 743h201l20 -452l183 452h174l38 -452l164 452h201l-288 -743h-194l-54 454l-199 -454h-194zM597 937h131l68 -146h-111l-39 61l-60 -61h-112z" />
    <glyph glyph-name="wcircumflex" unicode="&#x175;" horiz-adv-x="869" 
d="M75 539h200l24 -360l141 360h123l63 -360l61 216q31 104 35 152h192q0 -50 -18 -111t-40 -110l-150 -326h-205l-45 222l-99 -222h-205zM470 777h131l68 -146h-111l-39 61l-60 -61h-112z" />
    <glyph glyph-name="Ycircumflex" unicode="&#x176;" horiz-adv-x="660" 
d="M259 200l-131 543h211l49 -335l161 335h219l-315 -543l-32 -200h-194zM408 937h131l68 -146h-111l-39 61l-60 -61h-112z" />
    <glyph glyph-name="ycircumflex" unicode="&#x177;" horiz-adv-x="587" 
d="M96 -101q73 14 114.5 36.5t62.5 64.5q-83 7 -115.5 44.5t-39.5 111.5l-32 383h200l3 -342q0 -21 12.5 -30.5t29.5 -10.5l86 238q31 85 34 153h184q0 -133 -74 -290l-116 -247q-61 -129 -143 -184t-206 -63v136zM340 777h131l68 -146h-111l-39 61l-60 -61h-112z" />
    <glyph glyph-name="Ydieresis" unicode="&#x178;" horiz-adv-x="660" 
d="M259 200l-131 543h211l49 -335l161 335h219l-315 -543l-32 -200h-194zM295.5 792q-5.5 5 -5.5 14l19 115q3 25 26 25h90q20 0 20 -20l-18 -116q-1 -11 -8.5 -17t-18.5 -6h-90q-9 0 -14.5 5zM492.5 792q-5.5 5 -5.5 14l19 115q3 25 26 25h90q20 0 20 -20l-18 -116
q-1 -11 -8.5 -17t-18.5 -6h-90q-9 0 -14.5 5z" />
    <glyph glyph-name="Zacute" unicode="&#x179;" horiz-adv-x="573" 
d="M56 164l345 405h-281l28 174h503l-26 -164l-344 -405h290l-28 -174h-513zM431 934h164l-121 -143h-124z" />
    <glyph glyph-name="zacute" unicode="&#x17a;" horiz-adv-x="502" 
d="M53 138l256 247h-228l24 154h452l-21 -138l-257 -247h217q-3 -25 -11.5 -77.5t-12.5 -76.5h-441zM345 774h164l-121 -143h-124z" />
    <glyph glyph-name="Zdotaccent" unicode="&#x17b;" horiz-adv-x="573" 
d="M56 164l345 405h-281l28 174h503l-26 -164l-344 -405h290l-28 -174h-513zM352.5 799q-5.5 5 -5.5 14v4l18 111q3 25 27 25h90q20 0 20 -20v-5l-18 -111q-1 -11 -8.5 -17t-18.5 -6h-90q-9 0 -14.5 5z" />
    <glyph glyph-name="zdotaccent" unicode="&#x17c;" horiz-adv-x="502" 
d="M53 138l256 247h-228l24 154h452l-21 -138l-257 -247h217q-3 -25 -11.5 -77.5t-12.5 -76.5h-441zM266.5 639q-5.5 5 -5.5 14v4l18 111q3 25 27 25h90q20 0 20 -20v-5l-18 -111q-1 -11 -8.5 -17t-18.5 -6h-90q-9 0 -14.5 5z" />
    <glyph glyph-name="Zcaron" unicode="&#x17d;" horiz-adv-x="573" 
d="M56 164l345 405h-281l28 174h503l-26 -164l-344 -405h290l-28 -174h-513zM293 937h111l39 -61l60 61h112l-123 -146h-131z" />
    <glyph glyph-name="zcaron" unicode="&#x17e;" horiz-adv-x="502" 
d="M53 138l256 247h-228l24 154h452l-21 -138l-257 -247h217q-3 -25 -11.5 -77.5t-12.5 -76.5h-441zM197 777h111l39 -61l60 61h112l-123 -146h-131z" />
    <glyph glyph-name="uni018F" unicode="&#x18f;" horiz-adv-x="644" 
d="M140.5 51q-62.5 57 -62.5 179q0 40 8 94l19 120h379q2 18 2 26q0 59 -38 82.5t-116 23.5q-96 0 -170 -9l24 151q88 32 219 32t202.5 -56t71.5 -197q0 -52 -11 -127q-23 -148 -73.5 -231t-119 -114t-160.5 -31q-112 0 -174.5 57zM412 195q30 27 45 95h-179q-4 -21 -4 -43
q0 -39 14.5 -59t51.5 -20q42 0 72 27z" />
    <glyph glyph-name="florin" unicode="&#x192;" horiz-adv-x="609" 
d="M30 -196.5q-32 7.5 -47 17.5l37 119h40q40 0 64 22.5t41 74.5l106 320h-79l42 134h74l50 141q25 70 82 119t143 49q79 0 123 -25l-37 -119h-38q-41 0 -63 -21t-36 -60l-30 -84h95l-42 -134h-90l-90 -269q-49 -147 -112.5 -219.5t-158.5 -72.5q-42 0 -74 7.5z" />
    <glyph glyph-name="Ohorn" unicode="&#x1a0;" horiz-adv-x="708" 
d="M780.5 727q-31.5 -50 -79.5 -72q36 -59 36 -163q0 -64 -15 -156q-22 -139 -65.5 -212.5t-115 -101.5t-191.5 -28q-86 0 -143.5 20t-90.5 74t-33 151q0 69 15 159q22 135 65.5 211t117 108t189.5 32q45 0 86 -6h51q34 0 55 24.5t30 83.5h132q-12 -74 -43.5 -124zM543 490
q0 50 -22.5 67.5t-77.5 17.5q-48 0 -76.5 -17.5t-45.5 -60.5t-30 -124q-14 -84 -14 -124q0 -45 23 -62.5t80 -17.5q48 0 77 21t45 61.5t27 109.5q14 88 14 129z" />
    <glyph glyph-name="ohorn" unicode="&#x1a1;" horiz-adv-x="579" 
d="M632.5 540.5q-23.5 -45.5 -58.5 -72.5q21 -41 21 -124q0 -50 -9 -109q-15 -97 -50.5 -149t-94 -72t-152.5 -20q-111 0 -166 49t-55 142q0 54 8 104q17 107 52 162t92.5 74.5t154.5 19.5q48 0 82 -6q31 2 50 27.5t27 80.5h132q-10 -61 -33.5 -106.5zM402 353q0 23 -12 32
t-40 9q-29 0 -44 -10.5t-23.5 -37.5t-16.5 -84q-6 -40 -6 -68q0 -25 11 -35t38 -10q29 0 44 9t23.5 32.5t16.5 71.5q9 68 9 91z" />
    <glyph glyph-name="Uhorn" unicode="&#x1af;" horiz-adv-x="692" 
d="M816 734.5q-28 -48.5 -70 -72.5l-59 -372q-19 -122 -61.5 -186t-107.5 -87t-168 -23q-128 0 -190.5 56.5t-62.5 177.5q0 40 13 122l63 393h194l-67 -423q-1 -10 -5 -34.5t-4 -40.5q0 -39 20 -58t67 -19q36 0 58.5 13.5t37.5 46t24 92.5l67 423h73q34 0 55 24.5t30 83.5
h132q-11 -68 -39 -116.5z" />
    <glyph glyph-name="uhorn" unicode="&#x1b0;" horiz-adv-x="600" 
d="M696.5 532q-27.5 -48 -68.5 -73l-72 -459h-174l-12 52q-44 -32 -80.5 -45t-93.5 -13q-129 0 -129 128q0 36 5 69l55 348h194l-50 -321q-1 -5 -1 -15q0 -35 42 -35q45 0 82 37l53 334h71q34 0 55 24.5t30 83.5h132q-11 -67 -38.5 -115z" />
    <glyph glyph-name="Gcaron" unicode="&#x1e6;" horiz-adv-x="666" 
d="M126.5 50.5q-44.5 56.5 -44.5 180.5q0 65 18 179q27 173 110 256t222 83q91 0 151.5 -9.5t113.5 -26.5l-24 -152q-77 15 -216 15q-58 0 -89 -18t-48 -61t-30 -129q-12 -76 -12 -118q0 -77 67 -77q30 0 65.5 3t53.5 7l15 96h-103l25 154l37 3q77 7 129 7q78 0 124 -2
l-70 -441h-146l-18 49q-31 -20 -87.5 -37.5t-94.5 -17.5q-104 0 -148.5 56.5zM323 937h111l39 -61l60 61h112l-123 -146h-131z" />
    <glyph glyph-name="gcaron" unicode="&#x1e7;" horiz-adv-x="582" 
d="M26 -221l21 134h174q55 0 82 13t33 50l12 76q-20 -22 -63.5 -40t-81.5 -18q-70 0 -103.5 54.5t-33.5 134.5q0 37 14 130q37 232 284 232q73 0 137.5 -11.5t112.5 -28.5l-89 -559q-15 -95 -80.5 -139t-196.5 -44q-39 0 -97 5zM367 178l33 205q-20 7 -45 7q-29 0 -53 -24
t-33 -75q-5 -26 -7 -42.5t-2 -31.5q0 -68 45 -68q35 0 62 29zM253 777h111l39 -61l60 61h112l-123 -146h-131z" />
    <glyph glyph-name="uni01EA" unicode="&#x1ea;" horiz-adv-x="704" 
d="M611.5 728.5q57.5 -20.5 91.5 -77t34 -159.5q0 -64 -15 -156q-18 -116 -51 -185.5t-85 -104.5t-132 -46q-26 -16 -37.5 -34t-11.5 -32q0 -16 10.5 -25.5t25.5 -9.5h10l-14 -90q-12 -5 -37 -5q-50 0 -72 22t-22 54q0 37 18.5 66t50.5 48h-25q-86 0 -143.5 20t-90.5 74
t-33 151q0 69 15 159q22 135 65.5 211t117 108t189.5 32q84 0 141.5 -20.5zM543 490q0 50 -22.5 67.5t-77.5 17.5q-48 0 -76.5 -17.5t-45.5 -60.5t-30 -124q-14 -84 -14 -124q0 -45 23 -62.5t80 -17.5q48 0 77 21t45 61.5t27 109.5q14 88 14 129z" />
    <glyph glyph-name="uni01EB" unicode="&#x1eb;" horiz-adv-x="579" 
d="M512.5 524q47.5 -21 65 -64t17.5 -116q0 -50 -9 -109q-18 -116 -65.5 -169t-137.5 -66q-26 -16 -37.5 -34t-11.5 -32q0 -16 10.5 -25.5t25.5 -9.5h10l-14 -90q-12 -5 -37 -5q-50 0 -72 22t-22 54q0 37 18.5 66t50.5 48h-15q-111 0 -166 49t-55 142q0 54 8 104
q17 107 52 162t92.5 74.5t154.5 19.5q90 0 137.5 -21zM402 353q0 23 -12 32t-40 9q-29 0 -44 -10.5t-23.5 -37.5t-16.5 -84q-6 -40 -6 -68q0 -25 11 -35t38 -10q29 0 44 9t23.5 32.5t16.5 71.5q9 68 9 91z" />
    <glyph glyph-name="Aringacute" unicode="&#x1fa;" horiz-adv-x="709" 
d="M386.5 784q-29.5 24 -29.5 79q0 44 24.5 77.5t69.5 46.5l60 107h164l-95 -113q45 -21 45 -89q0 -58 -39 -95t-109 -37q-61 0 -90.5 24zM523.5 846q12.5 17 12.5 43q0 37 -38 37q-26 0 -39 -17.5t-13 -42.5q0 -37 40 -37q25 0 37.5 17zM697 0h-201l-11 118h-223l-48 -118
h-199l338 743h242zM467 292l-21 286l-112 -286h133z" />
    <glyph glyph-name="aringacute" unicode="&#x1fb;" horiz-adv-x="575" 
d="M104 41q-39 47 -39 141q0 36 12 117q20 124 90 185t200 61q74 0 138.5 -18.5t103.5 -47.5l-76 -479h-174l-12 52q-23 -23 -63.5 -40.5t-80.5 -17.5q-60 0 -99 47zM366 178l33 205q-6 2 -17.5 4.5t-23.5 2.5q-38 0 -60.5 -27t-30.5 -75q-8 -45 -8 -70q0 -69 43 -69
q37 0 64 29zM296.5 604q-29.5 24 -29.5 79q0 57 39.5 94.5t109.5 37.5q61 0 90 -24t29 -79q0 -58 -39 -95t-109 -37q-61 0 -90.5 24zM433.5 666q12.5 17 12.5 43q0 37 -38 37q-26 0 -39 -17.5t-13 -42.5q0 -37 40 -37q25 0 37.5 17zM442 974h164l-121 -143h-124z" />
    <glyph glyph-name="AEacute" unicode="&#x1fc;" horiz-adv-x="1011" 
d="M524 18.5q-41 24.5 -41 84.5v15h-202l-86 -118h-189l370 552q74 111 174.5 151t224.5 40q131 0 297 -16l-26 -163h-259q-38 0 -51.5 -14t-19.5 -54l-6 -38l268 -10l-24 -154l-271 -10l-9 -56q-1 -5 -1 -13q0 -26 17 -32.5t47 -6.5h248l-26 -162q-66 -9 -168.5 -14
t-135.5 -6q-90 0 -131 24.5zM509 282l38 245l-155 -245h117zM691 934h164l-121 -143h-124z" />
    <glyph glyph-name="aeacute" unicode="&#x1fd;" horiz-adv-x="861" 
d="M107 38.5q-40 44.5 -40 140.5q0 204 81 285t207 81q102 0 165 -31q19 14 69 22.5t71 8.5q116 0 172 -41.5t56 -131.5t-51.5 -136t-166.5 -46q-26 0 -58.5 2.5t-42.5 5.5q-2 -10 -2 -19q0 -21 22.5 -32.5t76.5 -11.5h179l-18 -113q-44 -12 -113 -20t-132 -8
q-55 0 -103 18.5t-65 50.5q-57 -37 -104 -53t-100 -16q-63 0 -103 44.5zM691.5 310.5q16.5 15.5 16.5 40.5q0 47 -46 47q-35 0 -52.5 -24.5t-27.5 -74.5q20 -4 48 -4q45 0 61.5 15.5zM346.5 163.5q22.5 12.5 31.5 26.5v26q0 86 31 169q-5 2 -16 3.5t-19 1.5q-58 0 -86 -44.5
t-28 -129.5q0 -30 10 -47.5t32 -17.5t44.5 12.5zM551 774h164l-121 -143h-124z" />
    <glyph glyph-name="Oslashacute" unicode="&#x1fe;" horiz-adv-x="708" 
d="M706 647q31 -59 31 -155q0 -64 -15 -156q-22 -139 -65.5 -212.5t-115 -101.5t-191.5 -28q-121 0 -181 39l-29 -33h-105l79 91q-31 54 -31 148q0 69 15 159q22 135 65.5 211t117 108t189.5 32q59 0 104.5 -9.5t78.5 -32.5l32 36h105zM278 278l244 279q-11 10 -30.5 14
t-48.5 4q-48 0 -76.5 -17.5t-45.5 -60.5t-30 -124q-7 -37 -13 -95zM541 459l-239 -274q21 -16 78 -16q48 0 77 21t45 61.5t27 109.5q9 50 12 98zM475 934h164l-121 -143h-124z" />
    <glyph glyph-name="oslashacute" unicode="&#x1ff;" horiz-adv-x="574" 
d="M573 469q22 -41 22 -125q0 -50 -9 -109q-15 -97 -50.5 -149t-94 -72t-152.5 -20q-99 0 -154 40l-34 -34h-86l79 78q-26 42 -26 107q0 54 8 104q17 107 52 162t92.5 74.5t154.5 19.5q109 0 157 -32l26 26h86zM264 247l132 132q-10 15 -46 15q-29 0 -44 -10.5t-23.5 -37.5
t-16.5 -84zM397 294l-131 -130q10 -15 43 -15q29 0 44 9t23.5 32.5t16.5 71.5zM368 774h164l-121 -143h-124z" />
    <glyph glyph-name="uni0200" unicode="&#x200;" horiz-adv-x="709" 
d="M353 743h242l102 -743h-201l-11 118h-223l-48 -118h-199zM467 292l-21 286l-112 -286h133zM243 934h154l45 -143h-114zM443 934h154l45 -143h-114z" />
    <glyph glyph-name="uni0201" unicode="&#x201;" horiz-adv-x="575" 
d="M104 41q-39 47 -39 141q0 36 12 117q20 124 90 185t200 61q74 0 138.5 -18.5t103.5 -47.5l-76 -479h-174l-12 52q-23 -23 -63.5 -40.5t-80.5 -17.5q-60 0 -99 47zM366 178l33 205q-6 2 -17.5 4.5t-23.5 2.5q-38 0 -60.5 -27t-30.5 -75q-8 -45 -8 -70q0 -69 43 -69
q37 0 64 29zM144 774h154l45 -143h-114zM344 774h154l45 -143h-114z" />
    <glyph glyph-name="uni0202" unicode="&#x202;" horiz-adv-x="709" 
d="M353 743h242l102 -743h-201l-11 118h-223l-48 -118h-199zM467 292l-21 286l-112 -286h133zM391 900.5q43 39.5 116 39.5q61 0 92 -29t31 -86q0 -12 -4 -42h-89q2 14 2 20q0 26 -13 38t-33 12q-55 0 -66 -70h-91q12 78 55 117.5z" />
    <glyph glyph-name="uni0203" unicode="&#x203;" horiz-adv-x="575" 
d="M104 41q-39 47 -39 141q0 36 12 117q20 124 90 185t200 61q74 0 138.5 -18.5t103.5 -47.5l-76 -479h-174l-12 52q-23 -23 -63.5 -40.5t-80.5 -17.5q-60 0 -99 47zM366 178l33 205q-6 2 -17.5 4.5t-23.5 2.5q-38 0 -60.5 -27t-30.5 -75q-8 -45 -8 -70q0 -69 43 -69
q37 0 64 29zM291 740.5q43 39.5 116 39.5q61 0 92 -29t31 -86q0 -12 -4 -42h-89q2 14 2 20q0 26 -13 38t-33 12q-55 0 -66 -70h-91q12 78 55 117.5z" />
    <glyph glyph-name="uni0204" unicode="&#x204;" horiz-adv-x="604" 
d="M131.5 25q-52.5 31 -52.5 110q0 17 3 38l61 383q29 187 217 187q127 0 304 -15l-26 -164h-248q-30 0 -43 -13.5t-18 -43.5l-7 -47l246 -10l-24 -154l-250 -10l-9 -58q-1 -5 -1 -13q0 -39 47 -39h246l-26 -164q-92 -9 -158.5 -13.5t-141.5 -4.5q-67 0 -119.5 31zM193 934
h154l45 -143h-114zM393 934h154l45 -143h-114z" />
    <glyph glyph-name="uni0205" unicode="&#x205;" horiz-adv-x="548" 
d="M116.5 47q-48.5 53 -48.5 156q0 42 9 96q21 132 93 189t194 57q92 0 153 -37t61 -132q0 -108 -57.5 -147t-163.5 -39q-62 0 -97 8q-2 -12 -2 -20q0 -22 24 -32.5t75 -10.5h179l-18 -113q-112 -28 -240 -28q-113 0 -161.5 53zM380.5 309.5q17.5 14.5 17.5 45.5
q0 20 -12 31.5t-35 11.5q-32 0 -51 -24.5t-28 -74.5q26 -4 39 -4q52 0 69.5 14.5zM143 774h154l45 -143h-114zM343 774h154l45 -143h-114z" />
    <glyph glyph-name="uni0206" unicode="&#x206;" horiz-adv-x="604" 
d="M131.5 25q-52.5 31 -52.5 110q0 17 3 38l61 383q29 187 217 187q127 0 304 -15l-26 -164h-248q-30 0 -43 -13.5t-18 -43.5l-7 -47l246 -10l-24 -154l-250 -10l-9 -58q-1 -5 -1 -13q0 -39 47 -39h246l-26 -164q-92 -9 -158.5 -13.5t-141.5 -4.5q-67 0 -119.5 31z
M341 900.5q43 39.5 116 39.5q61 0 92 -29t31 -86q0 -12 -4 -42h-89q2 14 2 20q0 26 -13 38t-33 12q-55 0 -66 -70h-91q12 78 55 117.5z" />
    <glyph glyph-name="uni0207" unicode="&#x207;" horiz-adv-x="548" 
d="M116.5 47q-48.5 53 -48.5 156q0 42 9 96q21 132 93 189t194 57q92 0 153 -37t61 -132q0 -108 -57.5 -147t-163.5 -39q-62 0 -97 8q-2 -12 -2 -20q0 -22 24 -32.5t75 -10.5h179l-18 -113q-112 -28 -240 -28q-113 0 -161.5 53zM380.5 309.5q17.5 14.5 17.5 45.5
q0 20 -12 31.5t-35 11.5q-32 0 -51 -24.5t-28 -74.5q26 -4 39 -4q52 0 69.5 14.5zM290 740.5q43 39.5 116 39.5q61 0 92 -29t31 -86q0 -12 -4 -42h-89q2 14 2 20q0 26 -13 38t-33 12q-55 0 -66 -70h-91q12 78 55 117.5z" />
    <glyph glyph-name="uni0208" unicode="&#x208;" horiz-adv-x="304" 
d="M173 743h194l-118 -743h-194zM43 934h154l45 -143h-114zM243 934h154l45 -143h-114z" />
    <glyph glyph-name="uni0209" unicode="&#x209;" horiz-adv-x="281" 
d="M130 539h194l-85 -539h-194zM7 774h154l45 -143h-114zM207 774h154l45 -143h-114z" />
    <glyph glyph-name="uni020A" unicode="&#x20a;" horiz-adv-x="304" 
d="M173 743h194l-118 -743h-194zM191 900.5q43 39.5 116 39.5q61 0 92 -29t31 -86q0 -12 -4 -42h-89q2 14 2 20q0 26 -13 38t-33 12q-55 0 -66 -70h-91q12 78 55 117.5z" />
    <glyph glyph-name="uni020B" unicode="&#x20b;" horiz-adv-x="281" 
d="M130 539h194l-85 -539h-194zM154 740.5q43 39.5 116 39.5q61 0 92 -29t31 -86q0 -12 -4 -42h-89q2 14 2 20q0 26 -13 38t-33 12q-55 0 -66 -70h-91q12 78 55 117.5z" />
    <glyph glyph-name="uni020C" unicode="&#x20c;" horiz-adv-x="704" 
d="M206.5 14q-57.5 20 -90.5 74t-33 151q0 69 15 159q22 135 65.5 211t117 108t189.5 32q84 0 141.5 -20.5t91.5 -77t34 -159.5q0 -64 -15 -156q-22 -139 -65.5 -212.5t-115 -101.5t-191.5 -28q-86 0 -143.5 20zM457 190q29 21 45 61.5t27 109.5q14 88 14 129
q0 50 -22.5 67.5t-77.5 17.5q-48 0 -76.5 -17.5t-45.5 -60.5t-30 -124q-14 -84 -14 -124q0 -45 23 -62.5t80 -17.5q48 0 77 21zM244 934h154l45 -143h-114zM444 934h154l45 -143h-114z" />
    <glyph glyph-name="uni020D" unicode="&#x20d;" horiz-adv-x="579" 
d="M123 43q-55 49 -55 142q0 54 8 104q17 107 52 162t92.5 74.5t154.5 19.5q90 0 137.5 -21t65 -64t17.5 -116q0 -50 -9 -109q-15 -97 -50.5 -149t-94 -72t-152.5 -20q-111 0 -166 49zM353 158q15 9 23.5 32.5t16.5 71.5q9 68 9 91t-12 32t-40 9q-29 0 -44 -10.5
t-23.5 -37.5t-16.5 -84q-6 -40 -6 -68q0 -25 11 -35t38 -10q29 0 44 9zM143 774h154l45 -143h-114zM343 774h154l45 -143h-114z" />
    <glyph glyph-name="uni020E" unicode="&#x20e;" horiz-adv-x="704" 
d="M206.5 14q-57.5 20 -90.5 74t-33 151q0 69 15 159q22 135 65.5 211t117 108t189.5 32q84 0 141.5 -20.5t91.5 -77t34 -159.5q0 -64 -15 -156q-22 -139 -65.5 -212.5t-115 -101.5t-191.5 -28q-86 0 -143.5 20zM457 190q29 21 45 61.5t27 109.5q14 88 14 129
q0 50 -22.5 67.5t-77.5 17.5q-48 0 -76.5 -17.5t-45.5 -60.5t-30 -124q-14 -84 -14 -124q0 -45 23 -62.5t80 -17.5q48 0 77 21zM392 900.5q43 39.5 116 39.5q61 0 92 -29t31 -86q0 -12 -4 -42h-89q2 14 2 20q0 26 -13 38t-33 12q-55 0 -66 -70h-91q12 78 55 117.5z" />
    <glyph glyph-name="uni020F" unicode="&#x20f;" horiz-adv-x="579" 
d="M123 43q-55 49 -55 142q0 54 8 104q17 107 52 162t92.5 74.5t154.5 19.5q90 0 137.5 -21t65 -64t17.5 -116q0 -50 -9 -109q-15 -97 -50.5 -149t-94 -72t-152.5 -20q-111 0 -166 49zM353 158q15 9 23.5 32.5t16.5 71.5q9 68 9 91t-12 32t-40 9q-29 0 -44 -10.5
t-23.5 -37.5t-16.5 -84q-6 -40 -6 -68q0 -25 11 -35t38 -10q29 0 44 9zM290 740.5q43 39.5 116 39.5q61 0 92 -29t31 -86q0 -12 -4 -42h-89q2 14 2 20q0 26 -13 38t-33 12q-55 0 -66 -70h-91q12 78 55 117.5z" />
    <glyph glyph-name="uni0210" unicode="&#x210;" horiz-adv-x="644" 
d="M173 743h292q108 0 162 -47t54 -147q0 -30 -6 -66q-9 -61 -32.5 -100.5t-47.5 -58.5t-54 -36l83 -288h-197l-63 256h-74l-41 -256h-194zM395 410q44 0 61 19t24 65q2 10 2 27q0 24 -13 36t-43 12h-87l-25 -159h81zM193 934h154l45 -143h-114zM393 934h154l45 -143h-114z
" />
    <glyph glyph-name="uni0211" unicode="&#x211;" horiz-adv-x="435" 
d="M130 539h174l9 -72q30 36 63 57t73 21q27 0 46 -5l-29 -194h-58q-39 0 -70 -10t-50 -26l-49 -310h-194zM87 776h154l45 -143h-114zM287 776h154l45 -143h-114z" />
    <glyph glyph-name="uni0212" unicode="&#x212;" horiz-adv-x="644" 
d="M173 743h292q108 0 162 -47t54 -147q0 -30 -6 -66q-9 -61 -32.5 -100.5t-47.5 -58.5t-54 -36l83 -288h-197l-63 256h-74l-41 -256h-194zM395 410q44 0 61 19t24 65q2 10 2 27q0 24 -13 36t-43 12h-87l-25 -159h81zM341 900.5q43 39.5 116 39.5q61 0 92 -29t31 -86
q0 -12 -4 -42h-89q2 14 2 20q0 26 -13 38t-33 12q-55 0 -66 -70h-91q12 78 55 117.5z" />
    <glyph glyph-name="uni0213" unicode="&#x213;" horiz-adv-x="435" 
d="M130 539h174l9 -72q30 36 63 57t73 21q27 0 46 -5l-29 -194h-58q-39 0 -70 -10t-50 -26l-49 -310h-194zM234 742.5q43 39.5 116 39.5q61 0 92 -29t31 -86q0 -12 -4 -42h-89q2 14 2 20q0 26 -13 38t-33 12q-55 0 -66 -70h-91q12 78 55 117.5z" />
    <glyph glyph-name="uni0214" unicode="&#x214;" horiz-adv-x="696" 
d="M159.5 50.5q-62.5 56.5 -62.5 177.5q0 40 13 122l63 393h194l-67 -423q-1 -10 -5 -34.5t-4 -40.5q0 -39 20 -58t67 -19q36 0 58.5 13.5t37.5 46t24 92.5l67 423h194l-72 -453q-19 -122 -61.5 -186t-107.5 -87t-168 -23q-128 0 -190.5 56.5zM235 934h154l45 -143h-114z
M435 934h154l45 -143h-114z" />
    <glyph glyph-name="uni0215" unicode="&#x215;" horiz-adv-x="600" 
d="M67 122q0 36 5 69l55 348h194l-50 -321q-1 -5 -1 -15q0 -35 42 -35q45 0 82 37l53 334h194l-85 -539h-174l-12 52q-44 -32 -80.5 -45t-93.5 -13q-129 0 -129 128zM167 774h154l45 -143h-114zM367 774h154l45 -143h-114z" />
    <glyph glyph-name="uni0216" unicode="&#x216;" horiz-adv-x="696" 
d="M159.5 50.5q-62.5 56.5 -62.5 177.5q0 40 13 122l63 393h194l-67 -423q-1 -10 -5 -34.5t-4 -40.5q0 -39 20 -58t67 -19q36 0 58.5 13.5t37.5 46t24 92.5l67 423h194l-72 -453q-19 -122 -61.5 -186t-107.5 -87t-168 -23q-128 0 -190.5 56.5zM383 900.5q43 39.5 116 39.5
q61 0 92 -29t31 -86q0 -12 -4 -42h-89q2 14 2 20q0 26 -13 38t-33 12q-55 0 -66 -70h-91q12 78 55 117.5z" />
    <glyph glyph-name="uni0217" unicode="&#x217;" horiz-adv-x="600" 
d="M67 122q0 36 5 69l55 348h194l-50 -321q-1 -5 -1 -15q0 -35 42 -35q45 0 82 37l53 334h194l-85 -539h-174l-12 52q-44 -32 -80.5 -45t-93.5 -13q-129 0 -129 128zM314 740.5q43 39.5 116 39.5q61 0 92 -29t31 -86q0 -12 -4 -42h-89q2 14 2 20q0 26 -13 38t-33 12
q-55 0 -66 -70h-91q12 78 55 117.5z" />
    <glyph glyph-name="Scommaaccent" unicode="&#x218;" horiz-adv-x="576" 
d="M56 23l24 154q93 -9 224 -9q57 0 79.5 10.5t27.5 37.5l2 11q1 5 1 13q0 20 -16.5 28t-53.5 8h-40q-89 0 -140.5 49t-51.5 126q0 21 3 43l9 57q17 104 88 151t195 47q117 0 232 -29l-24 -154q-94 9 -233 9q-69 0 -77 -47l-2 -11q-2 -12 -2 -17q0 -41 51 -41h44
q98 0 152.5 -47.5t54.5 -123.5q0 -18 -3 -39l-11 -70q-10 -63 -38.5 -103t-87 -61t-154.5 -21q-147 0 -253 29zM146 -146l27 9q26 8 35 19t13 39h117q-12 -78 -44 -112t-100 -34h-61z" />
    <glyph glyph-name="scommaaccent" unicode="&#x219;" horiz-adv-x="516" 
d="M140 1.5q-48 7.5 -94 23.5l18 113h242q12 0 20 5t10 13l2 12l1 9q0 15 -25 15h-68q-71 0 -116.5 30t-45.5 90q0 31 3 48l6 35q12 71 67 110.5t173 39.5q53 0 110.5 -9t97.5 -23l-18 -113h-227q-15 0 -22 -4t-10 -15l-1 -4q-2 -10 -2 -14q0 -8 5 -12.5t20 -4.5h81
q69 0 110 -30t41 -80q0 -33 -3 -51l-7 -47q-12 -76 -74.5 -110t-171.5 -34q-74 0 -122 7.5zM162 -146l27 9q26 8 35 19t13 39h117q-12 -78 -44 -112t-100 -34h-61z" />
    <glyph glyph-name="uni021A" unicode="&#x21a;" horiz-adv-x="612" 
d="M294 569h-184l28 174h562l-28 -174h-184l-90 -569h-194zM163 -146l27 9q26 8 35 19t13 39h117q-12 -78 -44 -112t-100 -34h-61z" />
    <glyph glyph-name="uni021B" unicode="&#x21b;" horiz-adv-x="424" 
d="M154 31q-45 31 -45 96q0 44 10 98l31 160h-83l20 124l95 30l48 151h154l-24 -151h109l-24 -154h-109l-26 -161q-1 -4 -3 -18t-2 -23q0 -17 9 -24t30 -9l59 -6l-23 -144h-91q-90 0 -135 31zM142 -146l27 9q26 8 35 19t13 39h117q-12 -78 -44 -112t-100 -34h-61z" />
    <glyph glyph-name="uni022A" unicode="&#x22a;" horiz-adv-x="704" 
d="M206.5 14q-57.5 20 -90.5 74t-33 151q0 69 15 159q22 135 65.5 211t117 108t189.5 32q84 0 141.5 -20.5t91.5 -77t34 -159.5q0 -64 -15 -156q-22 -139 -65.5 -212.5t-115 -101.5t-191.5 -28q-86 0 -143.5 20zM457 190q29 21 45 61.5t27 109.5q14 88 14 129
q0 50 -22.5 67.5t-77.5 17.5q-48 0 -76.5 -17.5t-45.5 -60.5t-30 -124q-14 -84 -14 -124q0 -45 23 -62.5t80 -17.5q48 0 77 21zM316.5 792q-5.5 5 -5.5 14l19 115q3 25 26 25h90q20 0 20 -20l-18 -116q-1 -11 -8.5 -17t-18.5 -6h-90q-9 0 -14.5 5zM513.5 792q-5.5 5 -5.5 14
l19 115q3 25 26 25h90q20 0 20 -20l-18 -116q-1 -11 -8.5 -17t-18.5 -6h-90q-9 0 -14.5 5zM372 1095h292l-18 -114h-292z" />
    <glyph glyph-name="uni022B" unicode="&#x22b;" horiz-adv-x="579" 
d="M123 43q-55 49 -55 142q0 54 8 104q17 107 52 162t92.5 74.5t154.5 19.5q90 0 137.5 -21t65 -64t17.5 -116q0 -50 -9 -109q-15 -97 -50.5 -149t-94 -72t-152.5 -20q-111 0 -166 49zM353 158q15 9 23.5 32.5t16.5 71.5q9 68 9 91t-12 32t-40 9q-29 0 -44 -10.5
t-23.5 -37.5t-16.5 -84q-6 -40 -6 -68q0 -25 11 -35t38 -10q29 0 44 9zM219.5 612q-5.5 5 -5.5 14l19 115q3 25 26 25h90q20 0 20 -20l-18 -116q-1 -11 -8.5 -17t-18.5 -6h-90q-9 0 -14.5 5zM416.5 612q-5.5 5 -5.5 14l19 115q3 25 26 25h90q20 0 20 -20l-18 -116
q-1 -11 -8.5 -17t-18.5 -6h-90q-9 0 -14.5 5zM278 915h292l-18 -114h-292z" />
    <glyph glyph-name="uni022C" unicode="&#x22c;" horiz-adv-x="704" 
d="M206.5 14q-57.5 20 -90.5 74t-33 151q0 69 15 159q22 135 65.5 211t117 108t189.5 32q84 0 141.5 -20.5t91.5 -77t34 -159.5q0 -64 -15 -156q-22 -139 -65.5 -212.5t-115 -101.5t-191.5 -28q-86 0 -143.5 20zM457 190q29 21 45 61.5t27 109.5q14 88 14 129
q0 50 -22.5 67.5t-77.5 17.5q-48 0 -76.5 -17.5t-45.5 -60.5t-30 -124q-14 -84 -14 -124q0 -45 23 -62.5t80 -17.5q48 0 77 21zM368 1075h292l-18 -114h-292zM334 890.5q34 31.5 81 31.5q23 0 42 -4.5t45 -12.5q31 -12 50 -12q28 0 35 36h96q-20 -76 -51 -109t-80 -33
q-22 0 -42.5 4.5t-50.5 13.5q-33 11 -45 11q-24 0 -36 -31h-96q18 74 52 105.5z" />
    <glyph glyph-name="uni022D" unicode="&#x22d;" horiz-adv-x="579" 
d="M123 43q-55 49 -55 142q0 54 8 104q17 107 52 162t92.5 74.5t154.5 19.5q90 0 137.5 -21t65 -64t17.5 -116q0 -50 -9 -109q-15 -97 -50.5 -149t-94 -72t-152.5 -20q-111 0 -166 49zM353 158q15 9 23.5 32.5t16.5 71.5q9 68 9 91t-12 32t-40 9q-29 0 -44 -10.5
t-23.5 -37.5t-16.5 -84q-6 -40 -6 -68q0 -25 11 -35t38 -10q29 0 44 9zM266 895h292l-18 -114h-292zM232 710.5q34 31.5 81 31.5q23 0 42 -4.5t45 -12.5q31 -12 50 -12q28 0 35 36h96q-20 -76 -51 -109t-80 -33q-22 0 -42.5 4.5t-50.5 13.5q-33 11 -45 11q-24 0 -36 -31h-96
q18 74 52 105.5z" />
    <glyph glyph-name="uni0230" unicode="&#x230;" horiz-adv-x="704" 
d="M206.5 14q-57.5 20 -90.5 74t-33 151q0 69 15 159q22 135 65.5 211t117 108t189.5 32q84 0 141.5 -20.5t91.5 -77t34 -159.5q0 -64 -15 -156q-22 -139 -65.5 -212.5t-115 -101.5t-191.5 -28q-86 0 -143.5 20zM457 190q29 21 45 61.5t27 109.5q14 88 14 129
q0 50 -22.5 67.5t-77.5 17.5q-48 0 -76.5 -17.5t-45.5 -60.5t-30 -124q-14 -84 -14 -124q0 -45 23 -62.5t80 -17.5q48 0 77 21zM413.5 799q-5.5 5 -5.5 14v4l18 111q3 25 27 25h90q20 0 20 -20v-5l-18 -111q-1 -11 -8.5 -17t-18.5 -6h-90q-9 0 -14.5 5zM373 1105h292
l-18 -114h-292z" />
    <glyph glyph-name="uni0231" unicode="&#x231;" horiz-adv-x="579" 
d="M123 43q-55 49 -55 142q0 54 8 104q17 107 52 162t92.5 74.5t154.5 19.5q90 0 137.5 -21t65 -64t17.5 -116q0 -50 -9 -109q-15 -97 -50.5 -149t-94 -72t-152.5 -20q-111 0 -166 49zM353 158q15 9 23.5 32.5t16.5 71.5q9 68 9 91t-12 32t-40 9q-29 0 -44 -10.5
t-23.5 -37.5t-16.5 -84q-6 -40 -6 -68q0 -25 11 -35t38 -10q29 0 44 9zM315.5 609q-5.5 5 -5.5 14v4l18 111q3 25 27 25h90q20 0 20 -20v-5l-18 -111q-1 -11 -8.5 -17t-18.5 -6h-90q-9 0 -14.5 5zM269 915h292l-18 -114h-292z" />
    <glyph glyph-name="uni0232" unicode="&#x232;" horiz-adv-x="660" 
d="M259 200l-131 543h211l49 -335l161 335h219l-315 -543l-32 -200h-194zM327 905h292l-18 -114h-292z" />
    <glyph glyph-name="uni0233" unicode="&#x233;" horiz-adv-x="587" 
d="M96 -101q73 14 114.5 36.5t62.5 64.5q-83 7 -115.5 44.5t-39.5 111.5l-32 383h200l3 -342q0 -21 12.5 -30.5t29.5 -10.5l86 238q31 85 34 153h184q0 -133 -74 -290l-116 -247q-61 -129 -143 -184t-206 -63v136zM260 745h292l-18 -114h-292z" />
    <glyph glyph-name="uni0237" unicode="&#x237;" horiz-adv-x="281" 
d="M130 539h194l-86 -543q-16 -103 -87 -233h-144z" />
    <glyph glyph-name="uni0259" unicode="&#x259;" horiz-adv-x="548" 
d="M522.5 495q48.5 -53 48.5 -156q0 -42 -9 -96q-21 -132 -93 -189t-194 -57q-92 0 -153 37t-61 132q0 108 57.5 147t163.5 39q62 0 97 -8q2 12 2 20q0 22 -24 32.5t-75 10.5h-179l18 113q112 28 240 28q113 0 161.5 -53zM258.5 232.5q-17.5 -14.5 -17.5 -45.5
q0 -20 12 -31.5t35 -11.5q32 0 51 24.5t28 74.5q-26 4 -39 4q-52 0 -69.5 -14.5z" />
    <glyph glyph-name="uni02B9" unicode="&#x2b9;" horiz-adv-x="200" 
d="M137 763h175l-93 -328h-134z" />
    <glyph glyph-name="uni02BA" unicode="&#x2ba;" horiz-adv-x="420" 
d="M137 763h175l-93 -328h-134zM357 763h175l-93 -328h-134z" />
    <glyph glyph-name="uni02BB" unicode="&#x2bb;" horiz-adv-x="257" 
d="M294.5 759.5q17.5 -3.5 22.5 -5.5l-10 -62q-17 0 -24.5 -4t-9.5 -17l-3 -19h11q21 0 21 -20l-3 -24l-13 -78q-3 -27 -29 -27h-111q-20 0 -20 20q0 8 3 26l21 128q15 86 106 86q21 0 38.5 -3.5z" />
    <glyph glyph-name="uni02BC" unicode="&#x2bc;" horiz-adv-x="250" 
d="M115 476l12 72q19 0 26 9t10 22l2 15h-11q-21 0 -21 20v5l18 114q5 27 29 27h121q21 0 21 -20l-1 -7l-25 -160q-9 -58 -49 -79.5t-89 -21.5q-30 0 -43 4z" />
    <glyph glyph-name="uni02BE" unicode="&#x2be;" horiz-adv-x="212" 
d="M127 659q31 0 46.5 13t15.5 33q0 17 -12 24t-37 7l12 79q67 0 101.5 -25.5t34.5 -76.5q0 -34 -19.5 -64.5t-59 -49.5t-94.5 -19z" />
    <glyph glyph-name="uni02BF" unicode="&#x2bf;" horiz-adv-x="212" 
d="M156.5 604.5q-34.5 24.5 -34.5 71.5q0 38 19.5 69.5t58.5 50.5t94 19l-12 -79q-61 0 -61 -46q0 -17 11.5 -24t36.5 -7l-12 -79q-66 0 -100.5 24.5z" />
    <glyph glyph-name="circumflex" unicode="&#x2c6;" horiz-adv-x="378" 
d="M251 777h131l68 -146h-111l-39 61l-60 -61h-112z" />
    <glyph glyph-name="caron" unicode="&#x2c7;" horiz-adv-x="378" 
d="M151 777h111l39 -61l60 61h112l-123 -146h-131z" />
    <glyph glyph-name="uni02C8" unicode="&#x2c8;" horiz-adv-x="210" 
d="M151 763h150l-41 -260h-150z" />
    <glyph glyph-name="uni02C9" unicode="&#x2c9;" horiz-adv-x="348" 
d="M146 745h292l-18 -114h-292z" />
    <glyph glyph-name="uni02CA" unicode="&#x2ca;" horiz-adv-x="244" 
d="M192 774h164l-121 -143h-124z" />
    <glyph glyph-name="uni02CB" unicode="&#x2cb;" horiz-adv-x="244" 
d="M114 774h154l45 -143h-114z" />
    <glyph glyph-name="uni02CC" unicode="&#x2cc;" horiz-adv-x="210" 
d="M33 23h150l-41 -260h-150z" />
    <glyph glyph-name="breve" unicode="&#x2d8;" horiz-adv-x="346" 
d="M178 649q-31 29 -31 86q0 12 4 42h89q-2 -14 -2 -20q0 -26 13 -38t33 -12q55 0 66 70h91q-12 -78 -55 -117.5t-116 -39.5q-61 0 -92 29z" />
    <glyph glyph-name="dotaccent" unicode="&#x2d9;" horiz-adv-x="193" 
d="M136.5 632q-5.5 5 -5.5 14v4l18 111q3 25 27 25h90q20 0 20 -20v-5l-18 -111q-1 -11 -8.5 -17t-18.5 -6h-90q-9 0 -14.5 5z" />
    <glyph glyph-name="ring" unicode="&#x2da;" horiz-adv-x="319" 
d="M165.5 604q-29.5 24 -29.5 79q0 57 39.5 94.5t109.5 37.5q61 0 90 -24t29 -79q0 -58 -39 -95t-109 -37q-61 0 -90.5 24zM302.5 666q12.5 17 12.5 43q0 37 -38 37q-26 0 -39 -17.5t-13 -42.5q0 -37 40 -37q25 0 37.5 17z" />
    <glyph glyph-name="ogonek" unicode="&#x2db;" horiz-adv-x="197" 
d="M31 -174q-22 22 -22 54q0 40 21.5 70.5t57.5 49.5h69q-26 -16 -37.5 -34t-11.5 -32q0 -16 10.5 -25.5t25.5 -9.5h10l-14 -90q-12 -5 -37 -5q-50 0 -72 22z" />
    <glyph glyph-name="tilde" unicode="&#x2dc;" horiz-adv-x="404" 
d="M169 730.5q34 31.5 81 31.5q23 0 42 -4.5t45 -12.5q31 -12 50 -12q28 0 35 36h96q-20 -76 -51 -109t-80 -33q-22 0 -42.5 4.5t-50.5 13.5q-33 11 -45 11q-24 0 -36 -31h-96q18 74 52 105.5z" />
    <glyph glyph-name="hungarumlaut" unicode="&#x2dd;" horiz-adv-x="419" 
d="M192 774h144l-111 -143h-114zM365 774h144l-111 -143h-114z" />
    <glyph glyph-name="gravecomb" unicode="&#x300;" 
d="M-396 774h154l45 -143h-114z" />
    <glyph glyph-name="acutecomb" unicode="&#x301;" 
d="M-248 774h164l-121 -143h-124z" />
    <glyph glyph-name="uni0302" unicode="&#x302;" 
d="M-312 777h131l68 -146h-111l-39 61l-60 -61h-112z" />
    <glyph glyph-name="tildecomb" unicode="&#x303;" 
d="M-416 730.5q34 31.5 81 31.5q23 0 42 -4.5t45 -12.5q31 -12 50 -12q28 0 35 36h96q-20 -76 -51 -109t-80 -33q-22 0 -42.5 4.5t-50.5 13.5q-33 11 -45 11q-24 0 -36 -31h-96q18 74 52 105.5z" />
    <glyph glyph-name="uni0304" unicode="&#x304;" 
d="M-392 745h292l-18 -114h-292z" />
    <glyph glyph-name="uni0306" unicode="&#x306;" 
d="M-360 649q-31 29 -31 86q0 12 4 42h89q-2 -14 -2 -20q0 -26 13 -38t33 -12q55 0 66 70h91q-12 -78 -55 -117.5t-116 -39.5q-61 0 -92 29z" />
    <glyph glyph-name="uni0307" unicode="&#x307;" 
d="M-326.5 639q-5.5 5 -5.5 14v4l18 111q3 25 27 25h90q20 0 20 -20v-5l-18 -111q-1 -11 -8.5 -17t-18.5 -6h-90q-9 0 -14.5 5z" />
    <glyph glyph-name="uni0308" unicode="&#x308;" 
d="M-425.5 632q-5.5 5 -5.5 14l19 115q3 25 26 25h90q20 0 20 -20l-18 -116q-1 -11 -8.5 -17t-18.5 -6h-90q-9 0 -14.5 5zM-228.5 632q-5.5 5 -5.5 14l19 115q3 25 26 25h90q20 0 20 -20l-18 -116q-1 -11 -8.5 -17t-18.5 -6h-90q-9 0 -14.5 5z" />
    <glyph glyph-name="hookabovecomb" unicode="&#x309;" 
d="M-238 672q34 9 34 31q0 13 -22 13q-9 0 -31 -6l12 74q29 9 58 9q86 0 86 -73q0 -91 -150 -132z" />
    <glyph glyph-name="uni030A" unicode="&#x30a;" 
d="M-352.5 604q-29.5 24 -29.5 79q0 57 39.5 94.5t109.5 37.5q61 0 90 -24t29 -79q0 -58 -39 -95t-109 -37q-61 0 -90.5 24zM-215.5 666q12.5 17 12.5 43q0 37 -38 37q-26 0 -39 -17.5t-13 -42.5q0 -37 40 -37q25 0 37.5 17z" />
    <glyph glyph-name="uni030B" unicode="&#x30b;" 
d="M-338 774h144l-111 -143h-114zM-165 774h144l-111 -143h-114z" />
    <glyph glyph-name="uni030C" unicode="&#x30c;" 
d="M-396 777h111l39 -61l60 61h112l-123 -146h-131z" />
    <glyph glyph-name="uni030F" unicode="&#x30f;" 
d="M-556 774h154l45 -143h-114zM-356 774h154l45 -143h-114z" />
    <glyph glyph-name="uni0311" unicode="&#x311;" 
d="M-358 740.5q43 39.5 116 39.5q61 0 92 -29t31 -86q0 -12 -4 -42h-89q2 14 2 20q0 26 -13 38t-33 12q-55 0 -66 -70h-91q12 78 55 117.5z" />
    <glyph glyph-name="uni0312" unicode="&#x312;" 
d="M-254 747q32 34 100 34h61l-13 -79l-27 -9q-26 -8 -35 -19t-13 -39h-117q12 78 44 112z" />
    <glyph glyph-name="uni031B" unicode="&#x31b;" 
d="M-195 539h71q34 0 54.5 24.5t29.5 83.5h132q-16 -100 -67.5 -156t-127.5 -56h-108z" />
    <glyph glyph-name="dotbelowcomb" unicode="&#x323;" 
d="M-326.5 -231q-5.5 5 -5.5 14v4l18 111q3 25 27 25h90q20 0 20 -20v-5l-18 -111q-1 -11 -8.5 -17t-18.5 -6h-90q-9 0 -14.5 5z" />
    <glyph glyph-name="uni0324" unicode="&#x324;" 
d="M-433.5 -218q-5.5 5 -5.5 14l19 115q3 25 26 25h90q20 0 20 -20l-18 -116q-1 -11 -8.5 -17t-18.5 -6h-90q-9 0 -14.5 5zM-236.5 -218q-5.5 5 -5.5 14l19 115q3 25 26 25h90q20 0 20 -20l-18 -116q-1 -11 -8.5 -17t-18.5 -6h-90q-9 0 -14.5 5z" />
    <glyph glyph-name="uni0326" unicode="&#x326;" 
d="M-432 -146l27 9q26 8 35 19t13 39h117q-12 -78 -44 -112t-100 -34h-61z" />
    <glyph glyph-name="uni0327" unicode="&#x327;" 
d="M-208 -68.5q15 -15.5 15 -44.5q0 -39 -32 -64.5t-96 -25.5h-59l12 79l16 3q36 6 36 32q0 19 -27 27l63 82h86l-53 -69q24 -4 39 -19.5z" />
    <glyph glyph-name="uni0328" unicode="&#x328;" 
d="M-369 -174q-22 22 -22 54q0 40 21.5 70.5t57.5 49.5h69q-26 -16 -37.5 -34t-11.5 -32q0 -16 10.5 -25.5t25.5 -9.5h10l-14 -90q-12 -5 -37 -5q-50 0 -72 22z" />
    <glyph glyph-name="uni032E" unicode="&#x32e;" 
d="M-372 -201q-31 29 -31 86q0 12 4 42h89q-2 -14 -2 -20q0 -26 13 -38t33 -12q55 0 66 70h91q-12 -78 -55 -117.5t-116 -39.5q-61 0 -92 29z" />
    <glyph glyph-name="uni0331" unicode="&#x331;" 
d="M-392 -115h292l-18 -114h-292z" />
    <glyph glyph-name="uni0335" unicode="&#x335;" 
d="M-321 351h318l-14 -86h-318z" />
    <glyph glyph-name="uni03A9" unicode="&#x3a9;" horiz-adv-x="751" 
d="M57 158l113 10q-34 28 -54 76t-20 117q0 88 37.5 174.5t124 145t225.5 58.5q157 0 227 -69.5t70 -188.5q0 -93 -39 -172t-101 -142l110 -10l-25 -157h-288l27 168q57 56 87.5 125t30.5 147q0 125 -125 125q-99 0 -134.5 -66.5t-35.5 -164.5q0 -91 60 -166l-27 -168h-288z
" />
    <glyph glyph-name="uni03BC" unicode="&#x3bc;" horiz-adv-x="600" 
d="M641 539l-85 -539h-162l-14 52q-24 -29 -51 -43.5t-64 -14.5q-10 0 -30 2l-42 -266h-194l83 525l45 284h194l-51 -322l-1 -15q0 -20 12 -28.5t34 -8.5t43 8.5t35 22.5l54 343h194z" />
    <glyph glyph-name="pi" unicode="&#x3c0;" horiz-adv-x="650" 
d="M393 26q-33 32 -33 94q0 14 4 46l32 199h-67l-58 -365h-194l58 365h-66l27 174h590l-27 -174h-69l-30 -189q-1 -5 -1 -13q0 -14 7.5 -18.5t26.5 -4.5h38l-18 -114q-50 -32 -123 -32q-64 0 -97 32z" />
    <glyph glyph-name="uni1E02" unicode="&#x1e02;" horiz-adv-x="649" 
d="M173 743h306q113 0 156.5 -41t43.5 -117q0 -28 -4 -53q-9 -53 -44.5 -93.5t-91.5 -52.5q58 -16 83.5 -49.5t25.5 -96.5q0 -30 -6 -65q-15 -96 -84.5 -135.5t-197.5 -39.5h-303zM425 451q27 0 39.5 12.5t17.5 33.5q5 23 5 34q0 21 -12 29.5t-37 8.5h-98l-19 -118h104z
M385 174q40 0 57.5 14t22.5 52q1 7 1 20q0 24 -14.5 34t-49.5 10h-104l-20 -130h107zM343.5 799q-5.5 5 -5.5 14v4l18 111q3 25 27 25h90q20 0 20 -20v-5l-18 -111q-1 -11 -8.5 -17t-18.5 -6h-90q-9 0 -14.5 5z" />
    <glyph glyph-name="uni1E03" unicode="&#x1e03;" horiz-adv-x="589" 
d="M313.5 8.5q-39.5 14.5 -66.5 40.5l-29 -49h-174l121 763h194l-39 -248q28 13 60 21.5t56 8.5q81 0 126.5 -51t45.5 -143q0 -39 -14 -128q-17 -111 -68.5 -170t-127.5 -59q-45 0 -84.5 14.5zM382.5 176q18.5 27 27.5 97q4 38 4 47q0 70 -45 70q-18 0 -38 -4t-33 -11
l-32 -204q12 -12 27 -17t42 -5q29 0 47.5 27zM218.5 839q-5.5 5 -5.5 14v4l18 111q3 25 27 25h90q20 0 20 -20v-5l-18 -111q-1 -11 -8.5 -17t-18.5 -6h-90q-9 0 -14.5 5z" />
    <glyph glyph-name="uni1E08" unicode="&#x1e08;" horiz-adv-x="592" 
d="M514 791h-124l81 143h164zM377 562.5q-29 -12.5 -50.5 -57.5t-36.5 -139q-12 -79 -12 -110q0 -47 27 -67.5t95 -20.5q56 0 93.5 2.5t91.5 8.5l-24 -153q-77 -30 -200 -32l-33 -43q24 -4 39 -19.5t15 -44.5q0 -39 -32 -64.5t-96 -25.5h-59l12 79l16 3q36 6 36 32
q0 19 -27 27l47 62q-96 17 -144.5 84t-48.5 174q0 65 12 141q28 180 103 265t219 85q83 0 145 -14.5t103 -34.5l-25 -154q-42 13 -93 21t-94 8q-50 0 -79 -12.5z" />
    <glyph glyph-name="uni1E09" unicode="&#x1e09;" horiz-adv-x="471" 
d="M424 631h-124l81 143h164zM329 545q77 0 190 -36l-18 -111h-125q-52 0 -75 -31.5t-34 -96.5q-5 -32 -5 -47q0 -84 72 -84h133l-17 -109q-36 -16 -74 -25.5t-87 -10.5l-33 -43q24 -4 39 -19.5t15 -44.5q0 -39 -32 -64.5t-96 -25.5h-59l12 79l16 3q36 6 36 32q0 19 -27 27
l47 61q-68 14 -103 62.5t-35 142.5q0 41 9 96q37 245 251 245z" />
    <glyph glyph-name="uni1E0A" unicode="&#x1e0a;" horiz-adv-x="696" 
d="M173 743h291q146 0 204 -67t58 -193q0 -72 -11 -139q-20 -128 -67 -203.5t-122 -108t-186 -32.5h-285zM361 174q69 0 106 46.5t54 154.5q11 72 11 99q0 54 -26.5 74.5t-89.5 20.5h-77l-62 -395h84zM382.5 799q-5.5 5 -5.5 14v4l18 111q3 25 27 25h90q20 0 20 -20v-5
l-18 -111q-1 -11 -8.5 -17t-18.5 -6h-90q-9 0 -14.5 5z" />
    <glyph glyph-name="uni1E0B" unicode="&#x1e0b;" horiz-adv-x="580" 
d="M104.5 44q-36.5 50 -36.5 142q0 56 12 117q16 82 44.5 134t83 80t143.5 28q47 0 76 -4l35 222h194l-121 -763h-174l-12 52q-28 -27 -63 -42.5t-71 -15.5q-74 0 -110.5 50zM369 178l33 205q-16 7 -41 7q-33 0 -57.5 -23t-37.5 -96q-5 -32 -5 -54q0 -68 44 -68q35 0 64 29z
M515.5 839q-5.5 5 -5.5 14v4l18 111q3 25 27 25h90q20 0 20 -20v-5l-18 -111q-1 -11 -8.5 -17t-18.5 -6h-90q-9 0 -14.5 5z" />
    <glyph glyph-name="uni1E0C" unicode="&#x1e0c;" horiz-adv-x="696" 
d="M173 743h291q146 0 204 -67t58 -193q0 -72 -11 -139q-20 -128 -67 -203.5t-122 -108t-186 -32.5h-285zM361 174q69 0 106 46.5t54 154.5q11 72 11 99q0 54 -26.5 74.5t-89.5 20.5h-77l-62 -395h84zM218.5 -231q-5.5 5 -5.5 14v4l18 111q3 25 27 25h90q20 0 20 -20v-5
l-18 -111q-1 -11 -8.5 -17t-18.5 -6h-90q-9 0 -14.5 5z" />
    <glyph glyph-name="uni1E0D" unicode="&#x1e0d;" horiz-adv-x="580" 
d="M104.5 44q-36.5 50 -36.5 142q0 56 12 117q16 82 44.5 134t83 80t143.5 28q47 0 76 -4l35 222h194l-121 -763h-174l-12 52q-28 -27 -63 -42.5t-71 -15.5q-74 0 -110.5 50zM369 178l33 205q-16 7 -41 7q-33 0 -57.5 -23t-37.5 -96q-5 -32 -5 -54q0 -68 44 -68q35 0 64 29z
M207.5 -231q-5.5 5 -5.5 14v4l18 111q3 25 27 25h90q20 0 20 -20v-5l-18 -111q-1 -11 -8.5 -17t-18.5 -6h-90q-9 0 -14.5 5z" />
    <glyph glyph-name="uni1E0E" unicode="&#x1e0e;" horiz-adv-x="696" 
d="M173 743h291q146 0 204 -67t58 -193q0 -72 -11 -139q-20 -128 -67 -203.5t-122 -108t-186 -32.5h-285zM361 174q69 0 106 46.5t54 154.5q11 72 11 99q0 54 -26.5 74.5t-89.5 20.5h-77l-62 -395h84zM143 -115h292l-18 -114h-292z" />
    <glyph glyph-name="uni1E0F" unicode="&#x1e0f;" horiz-adv-x="580" 
d="M104.5 44q-36.5 50 -36.5 142q0 56 12 117q16 82 44.5 134t83 80t143.5 28q47 0 76 -4l35 222h194l-121 -763h-174l-12 52q-28 -27 -63 -42.5t-71 -15.5q-74 0 -110.5 50zM369 178l33 205q-16 7 -41 7q-33 0 -57.5 -23t-37.5 -96q-5 -32 -5 -54q0 -68 44 -68q35 0 64 29z
M144 -115h292l-18 -114h-292z" />
    <glyph glyph-name="uni1E14" unicode="&#x1e14;" horiz-adv-x="604" 
d="M131.5 25q-52.5 31 -52.5 110q0 17 3 38l61 383q29 187 217 187q127 0 304 -15l-26 -164h-248q-30 0 -43 -13.5t-18 -43.5l-7 -47l246 -10l-24 -154l-250 -10l-9 -58q-1 -5 -1 -13q0 -39 47 -39h246l-26 -164q-92 -9 -158.5 -13.5t-141.5 -4.5q-67 0 -119.5 31zM297 905
h292l-18 -114h-292zM293 1094h154l45 -143h-114z" />
    <glyph glyph-name="uni1E15" unicode="&#x1e15;" horiz-adv-x="548" 
d="M116.5 47q-48.5 53 -48.5 156q0 42 9 96q21 132 93 189t194 57q92 0 153 -37t61 -132q0 -108 -57.5 -147t-163.5 -39q-62 0 -97 8q-2 -12 -2 -20q0 -22 24 -32.5t75 -10.5h179l-18 -113q-112 -28 -240 -28q-113 0 -161.5 53zM380.5 309.5q17.5 14.5 17.5 45.5
q0 20 -12 31.5t-35 11.5q-32 0 -51 -24.5t-28 -74.5q26 -4 39 -4q52 0 69.5 14.5zM256 745h292l-18 -114h-292zM252 934h154l45 -143h-114z" />
    <glyph glyph-name="uni1E16" unicode="&#x1e16;" horiz-adv-x="604" 
d="M131.5 25q-52.5 31 -52.5 110q0 17 3 38l61 383q29 187 217 187q127 0 304 -15l-26 -164h-248q-30 0 -43 -13.5t-18 -43.5l-7 -47l246 -10l-24 -154l-250 -10l-9 -58q-1 -5 -1 -13q0 -39 47 -39h246l-26 -164q-92 -9 -158.5 -13.5t-141.5 -4.5q-67 0 -119.5 31zM297 905
h292l-18 -114h-292zM451 1094h164l-121 -143h-124z" />
    <glyph glyph-name="uni1E17" unicode="&#x1e17;" horiz-adv-x="548" 
d="M116.5 47q-48.5 53 -48.5 156q0 42 9 96q21 132 93 189t194 57q92 0 153 -37t61 -132q0 -108 -57.5 -147t-163.5 -39q-62 0 -97 8q-2 -12 -2 -20q0 -22 24 -32.5t75 -10.5h179l-18 -113q-112 -28 -240 -28q-113 0 -161.5 53zM380.5 309.5q17.5 14.5 17.5 45.5
q0 20 -12 31.5t-35 11.5q-32 0 -51 -24.5t-28 -74.5q26 -4 39 -4q52 0 69.5 14.5zM256 745h292l-18 -114h-292zM420 934h164l-121 -143h-124z" />
    <glyph glyph-name="uni1E1C" unicode="&#x1e1c;" horiz-adv-x="604" 
d="M329 809q-31 29 -31 86q0 12 4 42h89q-2 -14 -2 -20q0 -26 13 -38t33 -12q55 0 66 70h91q-12 -78 -55 -117.5t-116 -39.5q-61 0 -92 29zM347 550.5q-13 -13.5 -18 -43.5l-7 -47l246 -10l-24 -154l-250 -10l-9 -58q-1 -5 -1 -13q0 -39 47 -39h246l-26 -164
q-123 -12 -219 -16l-34 -45q24 -4 39 -19.5t15 -44.5q0 -39 -32 -64.5t-96 -25.5h-59l12 79l16 3q36 6 36 32q0 19 -27 27l43 56q-66 1 -116 32t-50 109q0 19 3 38l61 383q29 187 217 187q127 0 304 -15l-26 -164h-248q-30 0 -43 -13.5z" />
    <glyph glyph-name="uni1E1D" unicode="&#x1e1d;" horiz-adv-x="548" 
d="M288 649q-31 29 -31 86q0 12 4 42h89q-2 -14 -2 -20q0 -26 13 -38t33 -12q55 0 66 70h91q-12 -78 -55 -117.5t-116 -39.5q-61 0 -92 29zM282 145.5q24 -10.5 75 -10.5h179l-18 -113q-88 -22 -189 -27l-34 -44q24 -4 39 -19.5t15 -44.5q0 -39 -32 -64.5t-96 -25.5h-59
l12 79l16 3q36 6 36 32q0 19 -27 27l44 57q-94 9 -134.5 61t-40.5 147q0 42 9 96q21 132 93 189t194 57q92 0 153 -37t61 -132q0 -108 -57.5 -147t-163.5 -39q-62 0 -97 8q-2 -12 -2 -20q0 -22 24 -32.5zM300 373.5q-19 -24.5 -28 -74.5q26 -4 39 -4q52 0 69.5 14.5
t17.5 45.5q0 20 -12 31.5t-35 11.5q-32 0 -51 -24.5z" />
    <glyph glyph-name="uni1E1E" unicode="&#x1e1e;" horiz-adv-x="572" 
d="M144 563q16 99 75 139.5t139 40.5q152 0 304 -16l-26 -164h-246q-30 0 -43.5 -13.5t-17.5 -41.5l-12 -79l248 -9l-25 -154l-250 -10l-41 -256h-194zM372.5 799q-5.5 5 -5.5 14v4l18 111q3 25 27 25h90q20 0 20 -20v-5l-18 -111q-1 -11 -8.5 -17t-18.5 -6h-90
q-9 0 -14.5 5z" />
    <glyph glyph-name="uni1E1F" unicode="&#x1e1f;" horiz-adv-x="401" 
d="M141 385h-71l20 124l75 30l13 77q14 86 66 119.5t148 33.5q71 0 124 -11l-23 -143h-63q-34 0 -50 -11.5t-19 -43.5l-2 -21h109l-24 -154h-109l-61 -385h-194zM303.5 839q-5.5 5 -5.5 14v4l18 111q3 25 27 25h90q20 0 20 -20v-5l-18 -111q-1 -11 -8.5 -17t-18.5 -6h-90
q-9 0 -14.5 5z" />
    <glyph glyph-name="uni1E20" unicode="&#x1e20;" horiz-adv-x="666" 
d="M126.5 50.5q-44.5 56.5 -44.5 180.5q0 65 18 179q27 173 110 256t222 83q91 0 151.5 -9.5t113.5 -26.5l-24 -152q-77 15 -216 15q-58 0 -89 -18t-48 -61t-30 -129q-12 -76 -12 -118q0 -77 67 -77q30 0 65.5 3t53.5 7l15 96h-103l25 154l37 3q77 7 129 7q78 0 124 -2
l-70 -441h-146l-18 49q-31 -20 -87.5 -37.5t-94.5 -17.5q-104 0 -148.5 56.5zM317 905h292l-18 -114h-292z" />
    <glyph glyph-name="uni1E21" unicode="&#x1e21;" horiz-adv-x="582" 
d="M26 -221l21 134h174q55 0 82 13t33 50l12 76q-20 -22 -63.5 -40t-81.5 -18q-70 0 -103.5 54.5t-33.5 134.5q0 37 14 130q37 232 284 232q73 0 137.5 -11.5t112.5 -28.5l-89 -559q-15 -95 -80.5 -139t-196.5 -44q-39 0 -97 5zM367 178l33 205q-20 7 -45 7q-29 0 -53 -24
t-33 -75q-5 -26 -7 -42.5t-2 -31.5q0 -68 45 -68q35 0 62 29zM257 745h292l-18 -114h-292z" />
    <glyph glyph-name="uni1E24" unicode="&#x1e24;" horiz-adv-x="708" 
d="M173 743h194l-46 -286h220l46 286h194l-118 -743h-194l45 283h-220l-45 -283h-194zM250.5 -231q-5.5 5 -5.5 14v4l18 111q3 25 27 25h90q20 0 20 -20v-5l-18 -111q-1 -11 -8.5 -17t-18.5 -6h-90q-9 0 -14.5 5z" />
    <glyph glyph-name="uni1E25" unicode="&#x1e25;" horiz-adv-x="600" 
d="M165 763h194l-44 -276q29 25 73 41.5t98 16.5q65 0 98.5 -32t33.5 -104q0 -30 -6 -69l-54 -340h-194l50 318q1 5 1 15q0 38 -41 38q-48 0 -83 -37l-53 -334h-194zM206.5 -231q-5.5 5 -5.5 14v4l18 111q3 25 27 25h90q20 0 20 -20v-5l-18 -111q-1 -11 -8.5 -17t-18.5 -6
h-90q-9 0 -14.5 5z" />
    <glyph glyph-name="uni1E2A" unicode="&#x1e2a;" horiz-adv-x="708" 
d="M173 743h194l-46 -286h220l46 286h194l-118 -743h-194l45 283h-220l-45 -283h-194zM225 -201q-31 29 -31 86q0 12 4 42h89q-2 -14 -2 -20q0 -26 13 -38t33 -12q55 0 66 70h91q-12 -78 -55 -117.5t-116 -39.5q-61 0 -92 29z" />
    <glyph glyph-name="uni1E2B" unicode="&#x1e2b;" horiz-adv-x="600" 
d="M165 763h194l-44 -276q29 25 73 41.5t98 16.5q65 0 98.5 -32t33.5 -104q0 -30 -6 -69l-54 -340h-194l50 318q1 5 1 15q0 38 -41 38q-48 0 -83 -37l-53 -334h-194zM163 -201q-31 29 -31 86q0 12 4 42h89q-2 -14 -2 -20q0 -26 13 -38t33 -12q55 0 66 70h91
q-12 -78 -55 -117.5t-116 -39.5q-61 0 -92 29z" />
    <glyph glyph-name="uni1E2E" unicode="&#x1e2e;" horiz-adv-x="304" 
d="M173 743h194l-118 -743h-194zM115.5 792q-5.5 5 -5.5 14l19 115q3 25 26 25h90q20 0 20 -20l-18 -116q-1 -11 -8.5 -17t-18.5 -6h-90q-9 0 -14.5 5zM312.5 792q-5.5 5 -5.5 14l19 115q3 25 26 25h90q20 0 20 -20l-18 -116q-1 -11 -8.5 -17t-18.5 -6h-90q-9 0 -14.5 5z
M311 1114h164l-121 -143h-124z" />
    <glyph glyph-name="uni1E2F" unicode="&#x1e2f;" horiz-adv-x="281" 
d="M130 539h194l-85 -539h-194zM86.5 632q-5.5 5 -5.5 14l19 115q3 25 26 25h90q20 0 20 -20l-18 -116q-1 -11 -8.5 -17t-18.5 -6h-90q-9 0 -14.5 5zM283.5 632q-5.5 5 -5.5 14l19 115q3 25 26 25h90q20 0 20 -20l-18 -116q-1 -11 -8.5 -17t-18.5 -6h-90q-9 0 -14.5 5z
M284 974h164l-121 -143h-124z" />
    <glyph glyph-name="uni1E36" unicode="&#x1e36;" horiz-adv-x="537" 
d="M125 37.5q-42 37.5 -42 112.5q0 26 4 50l86 543h194l-82 -517q-1 -5 -1 -13q0 -39 47 -39h214l-28 -174h-274q-76 0 -118 37.5zM168.5 -231q-5.5 5 -5.5 14v4l18 111q3 25 27 25h90q20 0 20 -20v-5l-18 -111q-1 -11 -8.5 -17t-18.5 -6h-90q-9 0 -14.5 5z" />
    <glyph glyph-name="uni1E37" unicode="&#x1e37;" horiz-adv-x="342" 
d="M118.5 35.5q-47.5 35.5 -47.5 93.5q0 42 3 60l91 574h194l-80 -505q-8 -52 -8 -69q0 -22 10.5 -30.5t35.5 -12.5l29 -5l-22 -141h-68q-90 0 -137.5 35.5zM96.5 -231q-5.5 5 -5.5 14v4l18 111q3 25 27 25h90q20 0 20 -20v-5l-18 -111q-1 -11 -8.5 -17t-18.5 -6h-90
q-9 0 -14.5 5z" />
    <glyph glyph-name="uni1E3A" unicode="&#x1e3a;" horiz-adv-x="537" 
d="M125 37.5q-42 37.5 -42 112.5q0 26 4 50l86 543h194l-82 -517q-1 -5 -1 -13q0 -39 47 -39h214l-28 -174h-274q-76 0 -118 37.5zM93 -115h292l-18 -114h-292z" />
    <glyph glyph-name="uni1E3B" unicode="&#x1e3b;" horiz-adv-x="342" 
d="M118.5 35.5q-47.5 35.5 -47.5 93.5q0 42 3 60l91 574h194l-80 -505q-8 -52 -8 -69q0 -22 10.5 -30.5t35.5 -12.5l29 -5l-22 -141h-68q-90 0 -137.5 35.5zM33 -115h292l-18 -114h-292z" />
    <glyph glyph-name="uni1E40" unicode="&#x1e40;" horiz-adv-x="906" 
d="M241 743h182l70 -522l236 522h180l-29 -743h-187l16 400l-162 -400h-182l-35 392l-108 -392h-192zM502.5 799q-5.5 5 -5.5 14v4l18 111q3 25 27 25h90q20 0 20 -20v-5l-18 -111q-1 -11 -8.5 -17t-18.5 -6h-90q-9 0 -14.5 5z" />
    <glyph glyph-name="uni1E41" unicode="&#x1e41;" horiz-adv-x="921" 
d="M129 539h162l24 -52q36 28 76 43t96 15q44 0 75 -18t52 -60q40 40 88 59t92 19q77 0 110 -34t33 -94q0 -47 -8 -95l-51 -322h-194l50 317q1 5 1 14q0 40 -46 40q-41 0 -78 -37l-3 -19l-50 -315h-194l50 317q1 6 1 15q0 21 -11.5 30t-33.5 9q-25 0 -43.5 -10t-35.5 -27
l-53 -334h-194zM514.5 639q-5.5 5 -5.5 14v4l18 111q3 25 27 25h90q20 0 20 -20v-5l-18 -111q-1 -11 -8.5 -17t-18.5 -6h-90q-9 0 -14.5 5z" />
    <glyph glyph-name="uni1E42" unicode="&#x1e42;" horiz-adv-x="906" 
d="M241 743h182l70 -522l236 522h180l-29 -743h-187l16 400l-162 -400h-182l-35 392l-108 -392h-192zM338.5 -231q-5.5 5 -5.5 14v4l18 111q3 25 27 25h90q20 0 20 -20v-5l-18 -111q-1 -11 -8.5 -17t-18.5 -6h-90q-9 0 -14.5 5z" />
    <glyph glyph-name="uni1E43" unicode="&#x1e43;" horiz-adv-x="921" 
d="M129 539h162l24 -52q36 28 76 43t96 15q44 0 75 -18t52 -60q40 40 88 59t92 19q77 0 110 -34t33 -94q0 -47 -8 -95l-51 -322h-194l50 317q1 5 1 14q0 40 -46 40q-41 0 -78 -37l-3 -19l-50 -315h-194l50 317q1 6 1 15q0 21 -11.5 30t-33.5 9q-25 0 -43.5 -10t-35.5 -27
l-53 -334h-194zM386.5 -231q-5.5 5 -5.5 14v4l18 111q3 25 27 25h90q20 0 20 -20v-5l-18 -111q-1 -11 -8.5 -17t-18.5 -6h-90q-9 0 -14.5 5z" />
    <glyph glyph-name="uni1E44" unicode="&#x1e44;" horiz-adv-x="709" 
d="M173 743h154l195 -414l66 414h194l-118 -743h-154l-195 414l-66 -414h-194zM230.5 -231q-5.5 5 -5.5 14v4l18 111q3 25 27 25h90q20 0 20 -20v-5l-18 -111q-1 -11 -8.5 -17t-18.5 -6h-90q-9 0 -14.5 5z" />
    <glyph glyph-name="uni1E45" unicode="&#x1e45;" horiz-adv-x="600" 
d="M129 539h162l24 -52q73 58 169 58q62 0 98 -32.5t36 -85.5q0 -25 -2 -49.5t-10 -73.5l-48 -304h-194l47 298q4 25 4 36q0 37 -45 37q-22 0 -42.5 -10t-36.5 -27l-53 -334h-194zM206.5 -231q-5.5 5 -5.5 14v4l18 111q3 25 27 25h90q20 0 20 -20v-5l-18 -111
q-1 -11 -8.5 -17t-18.5 -6h-90q-9 0 -14.5 5z" />
    <glyph glyph-name="uni1E46" unicode="&#x1e46;" horiz-adv-x="709" 
d="M173 743h154l195 -414l66 414h194l-118 -743h-154l-195 414l-66 -414h-194zM230.5 -231q-5.5 5 -5.5 14v4l18 111q3 25 27 25h90q20 0 20 -20v-5l-18 -111q-1 -11 -8.5 -17t-18.5 -6h-90q-9 0 -14.5 5z" />
    <glyph glyph-name="uni1E47" unicode="&#x1e47;" horiz-adv-x="600" 
d="M129 539h162l24 -52q73 58 169 58q62 0 98 -32.5t36 -85.5q0 -25 -2 -49.5t-10 -73.5l-48 -304h-194l47 298q4 25 4 36q0 37 -45 37q-22 0 -42.5 -10t-36.5 -27l-53 -334h-194zM206.5 -231q-5.5 5 -5.5 14v4l18 111q3 25 27 25h90q20 0 20 -20v-5l-18 -111
q-1 -11 -8.5 -17t-18.5 -6h-90q-9 0 -14.5 5z" />
    <glyph glyph-name="uni1E48" unicode="&#x1e48;" horiz-adv-x="709" 
d="M173 743h154l195 -414l66 414h194l-118 -743h-154l-195 414l-66 -414h-194zM155 -115h292l-18 -114h-292z" />
    <glyph glyph-name="uni1E49" unicode="&#x1e49;" horiz-adv-x="600" 
d="M129 539h162l24 -52q73 58 169 58q62 0 98 -32.5t36 -85.5q0 -25 -2 -49.5t-10 -73.5l-48 -304h-194l47 298q4 25 4 36q0 37 -45 37q-22 0 -42.5 -10t-36.5 -27l-53 -334h-194zM143 -115h292l-18 -114h-292z" />
    <glyph glyph-name="uni1E4C" unicode="&#x1e4c;" horiz-adv-x="704" 
d="M206.5 14q-57.5 20 -90.5 74t-33 151q0 69 15 159q22 135 65.5 211t117 108t189.5 32q84 0 141.5 -20.5t91.5 -77t34 -159.5q0 -64 -15 -156q-22 -139 -65.5 -212.5t-115 -101.5t-191.5 -28q-86 0 -143.5 20zM457 190q29 21 45 61.5t27 109.5q14 88 14 129
q0 50 -22.5 67.5t-77.5 17.5q-48 0 -76.5 -17.5t-45.5 -60.5t-30 -124q-14 -84 -14 -124q0 -45 23 -62.5t80 -17.5q48 0 77 21zM334 890.5q34 31.5 81 31.5q23 0 42 -4.5t45 -12.5q31 -12 50 -12q28 0 35 36h96q-20 -76 -51 -109t-80 -33q-22 0 -42.5 4.5t-50.5 13.5
q-33 11 -45 11q-24 0 -36 -31h-96q18 74 52 105.5zM512 1104h164l-121 -143h-124z" />
    <glyph glyph-name="uni1E4D" unicode="&#x1e4d;" horiz-adv-x="579" 
d="M123 43q-55 49 -55 142q0 54 8 104q17 107 52 162t92.5 74.5t154.5 19.5q90 0 137.5 -21t65 -64t17.5 -116q0 -50 -9 -109q-15 -97 -50.5 -149t-94 -72t-152.5 -20q-111 0 -166 49zM353 158q15 9 23.5 32.5t16.5 71.5q9 68 9 91t-12 32t-40 9q-29 0 -44 -10.5
t-23.5 -37.5t-16.5 -84q-6 -40 -6 -68q0 -25 11 -35t38 -10q29 0 44 9zM232 730.5q34 31.5 81 31.5q23 0 42 -4.5t45 -12.5q31 -12 50 -12q28 0 35 36h96q-20 -76 -51 -109t-80 -33q-22 0 -42.5 4.5t-50.5 13.5q-33 11 -45 11q-24 0 -36 -31h-96q18 74 52 105.5zM410 934
h164l-121 -143h-124z" />
    <glyph glyph-name="uni1E4E" unicode="&#x1e4e;" horiz-adv-x="704" 
d="M206.5 14q-57.5 20 -90.5 74t-33 151q0 69 15 159q22 135 65.5 211t117 108t189.5 32q84 0 141.5 -20.5t91.5 -77t34 -159.5q0 -64 -15 -156q-22 -139 -65.5 -212.5t-115 -101.5t-191.5 -28q-86 0 -143.5 20zM457 190q29 21 45 61.5t27 109.5q14 88 14 129
q0 50 -22.5 67.5t-77.5 17.5q-48 0 -76.5 -17.5t-45.5 -60.5t-30 -124q-14 -84 -14 -124q0 -45 23 -62.5t80 -17.5q48 0 77 21zM334 890.5q34 31.5 81 31.5q23 0 42 -4.5t45 -12.5q31 -12 50 -12q28 0 35 36h96q-20 -76 -51 -109t-80 -33q-22 0 -42.5 4.5t-50.5 13.5
q-33 11 -45 11q-24 0 -36 -31h-96q18 74 52 105.5zM336.5 972q-5.5 5 -5.5 14l19 115q3 25 26 25h90q20 0 20 -20l-18 -116q-1 -11 -8.5 -17t-18.5 -6h-90q-9 0 -14.5 5zM533.5 972q-5.5 5 -5.5 14l19 115q3 25 26 25h90q20 0 20 -20l-18 -116q-1 -11 -8.5 -17t-18.5 -6h-90
q-9 0 -14.5 5z" />
    <glyph glyph-name="uni1E4F" unicode="&#x1e4f;" horiz-adv-x="579" 
d="M123 43q-55 49 -55 142q0 54 8 104q17 107 52 162t92.5 74.5t154.5 19.5q90 0 137.5 -21t65 -64t17.5 -116q0 -50 -9 -109q-15 -97 -50.5 -149t-94 -72t-152.5 -20q-111 0 -166 49zM353 158q15 9 23.5 32.5t16.5 71.5q9 68 9 91t-12 32t-40 9q-29 0 -44 -10.5
t-23.5 -37.5t-16.5 -84q-6 -40 -6 -68q0 -25 11 -35t38 -10q29 0 44 9zM232 730.5q34 31.5 81 31.5q23 0 42 -4.5t45 -12.5q31 -12 50 -12q28 0 35 36h96q-20 -76 -51 -109t-80 -33q-22 0 -42.5 4.5t-50.5 13.5q-33 11 -45 11q-24 0 -36 -31h-96q18 74 52 105.5zM234.5 812
q-5.5 5 -5.5 14l19 115q3 25 26 25h90q20 0 20 -20l-18 -116q-1 -11 -8.5 -17t-18.5 -6h-90q-9 0 -14.5 5zM431.5 812q-5.5 5 -5.5 14l19 115q3 25 26 25h90q20 0 20 -20l-18 -116q-1 -11 -8.5 -17t-18.5 -6h-90q-9 0 -14.5 5z" />
    <glyph glyph-name="uni1E50" unicode="&#x1e50;" horiz-adv-x="704" 
d="M206.5 14q-57.5 20 -90.5 74t-33 151q0 69 15 159q22 135 65.5 211t117 108t189.5 32q84 0 141.5 -20.5t91.5 -77t34 -159.5q0 -64 -15 -156q-22 -139 -65.5 -212.5t-115 -101.5t-191.5 -28q-86 0 -143.5 20zM457 190q29 21 45 61.5t27 109.5q14 88 14 129
q0 50 -22.5 67.5t-77.5 17.5q-48 0 -76.5 -17.5t-45.5 -60.5t-30 -124q-14 -84 -14 -124q0 -45 23 -62.5t80 -17.5q48 0 77 21zM348 905h292l-18 -114h-292zM344 1094h154l45 -143h-114z" />
    <glyph glyph-name="uni1E51" unicode="&#x1e51;" horiz-adv-x="579" 
d="M123 43q-55 49 -55 142q0 54 8 104q17 107 52 162t92.5 74.5t154.5 19.5q90 0 137.5 -21t65 -64t17.5 -116q0 -50 -9 -109q-15 -97 -50.5 -149t-94 -72t-152.5 -20q-111 0 -166 49zM353 158q15 9 23.5 32.5t16.5 71.5q9 68 9 91t-12 32t-40 9q-29 0 -44 -10.5
t-23.5 -37.5t-16.5 -84q-6 -40 -6 -68q0 -25 11 -35t38 -10q29 0 44 9zM256 745h292l-18 -114h-292zM252 934h154l45 -143h-114z" />
    <glyph glyph-name="uni1E52" unicode="&#x1e52;" horiz-adv-x="704" 
d="M206.5 14q-57.5 20 -90.5 74t-33 151q0 69 15 159q22 135 65.5 211t117 108t189.5 32q84 0 141.5 -20.5t91.5 -77t34 -159.5q0 -64 -15 -156q-22 -139 -65.5 -212.5t-115 -101.5t-191.5 -28q-86 0 -143.5 20zM457 190q29 21 45 61.5t27 109.5q14 88 14 129
q0 50 -22.5 67.5t-77.5 17.5q-48 0 -76.5 -17.5t-45.5 -60.5t-30 -124q-14 -84 -14 -124q0 -45 23 -62.5t80 -17.5q48 0 77 21zM348 905h292l-18 -114h-292zM512 1094h164l-121 -143h-124z" />
    <glyph glyph-name="uni1E53" unicode="&#x1e53;" horiz-adv-x="579" 
d="M123 43q-55 49 -55 142q0 54 8 104q17 107 52 162t92.5 74.5t154.5 19.5q90 0 137.5 -21t65 -64t17.5 -116q0 -50 -9 -109q-15 -97 -50.5 -149t-94 -72t-152.5 -20q-111 0 -166 49zM353 158q15 9 23.5 32.5t16.5 71.5q9 68 9 91t-12 32t-40 9q-29 0 -44 -10.5
t-23.5 -37.5t-16.5 -84q-6 -40 -6 -68q0 -25 11 -35t38 -10q29 0 44 9zM256 745h292l-18 -114h-292zM430 934h164l-121 -143h-124z" />
    <glyph glyph-name="uni1E56" unicode="&#x1e56;" horiz-adv-x="616" 
d="M173 743h306q98 0 154 -49t56 -169q0 -19 -10 -82q-20 -124 -86 -181.5t-153 -57.5q-44 0 -88.5 6.5t-66.5 15.5l-36 -226h-194zM412 378q31 0 50 25t24 62q5 28 5 41q0 34 -12 48.5t-38 14.5h-102l-30 -191h103zM352.5 799q-5.5 5 -5.5 14v4l18 111q3 25 27 25h90
q20 0 20 -20v-5l-18 -111q-1 -11 -8.5 -17t-18.5 -6h-90q-9 0 -14.5 5z" />
    <glyph glyph-name="uni1E57" unicode="&#x1e57;" horiz-adv-x="576" 
d="M125 511q92 17 156 25.5t131 8.5q99 0 140.5 -48t41.5 -149q0 -43 -10 -110q-20 -124 -88 -184t-163 -60q-30 0 -56 4t-38 11l-39 -246h-194zM366 184.5q22 26.5 33 89.5q4 28 4 39q0 41 -11 59t-36 18h-57l-36 -225q14 -7 46 -7q35 0 57 26.5zM331.5 639q-5.5 5 -5.5 14
v4l18 111q3 25 27 25h90q20 0 20 -20v-5l-18 -111q-1 -11 -8.5 -17t-18.5 -6h-90q-9 0 -14.5 5z" />
    <glyph glyph-name="uni1E5A" unicode="&#x1e5a;" horiz-adv-x="644" 
d="M173 743h292q108 0 162 -47t54 -147q0 -30 -6 -66q-9 -61 -32.5 -100.5t-47.5 -58.5t-54 -36l83 -288h-197l-63 256h-74l-41 -256h-194zM395 410q44 0 61 19t24 65q2 10 2 27q0 24 -13 36t-43 12h-87l-25 -159h81zM228.5 -231q-5.5 5 -5.5 14v4l18 111q3 25 27 25h90
q20 0 20 -20v-5l-18 -111q-1 -11 -8.5 -17t-18.5 -6h-90q-9 0 -14.5 5z" />
    <glyph glyph-name="uni1E5B" unicode="&#x1e5b;" horiz-adv-x="435" 
d="M130 539h174l9 -72q30 36 63 57t73 21q27 0 46 -5l-29 -194h-58q-39 0 -70 -10t-50 -26l-49 -310h-194zM57.5 -231q-5.5 5 -5.5 14v4l18 111q3 25 27 25h90q20 0 20 -20v-5l-18 -111q-1 -11 -8.5 -17t-18.5 -6h-90q-9 0 -14.5 5z" />
    <glyph glyph-name="uni1E5E" unicode="&#x1e5e;" horiz-adv-x="644" 
d="M173 743h292q108 0 162 -47t54 -147q0 -30 -6 -66q-9 -61 -32.5 -100.5t-47.5 -58.5t-54 -36l83 -288h-197l-63 256h-74l-41 -256h-194zM395 410q44 0 61 19t24 65q2 10 2 27q0 24 -13 36t-43 12h-87l-25 -159h81zM153 -115h292l-18 -114h-292z" />
    <glyph glyph-name="uni1E5F" unicode="&#x1e5f;" horiz-adv-x="435" 
d="M130 539h174l9 -72q30 36 63 57t73 21q27 0 46 -5l-29 -194h-58q-39 0 -70 -10t-50 -26l-49 -310h-194zM-6 -115h292l-18 -114h-292z" />
    <glyph glyph-name="uni1E60" unicode="&#x1e60;" horiz-adv-x="576" 
d="M56 23l24 154q93 -9 224 -9q57 0 79.5 10.5t27.5 37.5l2 11q1 5 1 13q0 20 -16.5 28t-53.5 8h-40q-89 0 -140.5 49t-51.5 126q0 21 3 43l9 57q17 104 88 151t195 47q117 0 232 -29l-24 -154q-94 9 -233 9q-69 0 -77 -47l-2 -11q-2 -12 -2 -17q0 -41 51 -41h44
q98 0 152.5 -47.5t54.5 -123.5q0 -18 -3 -39l-11 -70q-10 -63 -38.5 -103t-87 -61t-154.5 -21q-147 0 -253 29zM345.5 799q-5.5 5 -5.5 14v4l18 111q3 25 27 25h90q20 0 20 -20v-5l-18 -111q-1 -11 -8.5 -17t-18.5 -6h-90q-9 0 -14.5 5z" />
    <glyph glyph-name="uni1E61" unicode="&#x1e61;" horiz-adv-x="516" 
d="M140 1.5q-48 7.5 -94 23.5l18 113h242q12 0 20 5t10 13l2 12l1 9q0 15 -25 15h-68q-71 0 -116.5 30t-45.5 90q0 31 3 48l6 35q12 71 67 110.5t173 39.5q53 0 110.5 -9t97.5 -23l-18 -113h-227q-15 0 -22 -4t-10 -15l-1 -4q-2 -10 -2 -14q0 -8 5 -12.5t20 -4.5h81
q69 0 110 -30t41 -80q0 -33 -3 -51l-7 -47q-12 -76 -74.5 -110t-171.5 -34q-74 0 -122 7.5zM318.5 639q-5.5 5 -5.5 14v4l18 111q3 25 27 25h90q20 0 20 -20v-5l-18 -111q-1 -11 -8.5 -17t-18.5 -6h-90q-9 0 -14.5 5z" />
    <glyph glyph-name="uni1E62" unicode="&#x1e62;" horiz-adv-x="576" 
d="M56 23l24 154q93 -9 224 -9q57 0 79.5 10.5t27.5 37.5l2 11q1 5 1 13q0 20 -16.5 28t-53.5 8h-40q-89 0 -140.5 49t-51.5 126q0 21 3 43l9 57q17 104 88 151t195 47q117 0 232 -29l-24 -154q-94 9 -233 9q-69 0 -77 -47l-2 -11q-2 -12 -2 -17q0 -41 51 -41h44
q98 0 152.5 -47.5t54.5 -123.5q0 -18 -3 -39l-11 -70q-10 -63 -38.5 -103t-87 -61t-154.5 -21q-147 0 -253 29zM181.5 -231q-5.5 5 -5.5 14v4l18 111q3 25 27 25h90q20 0 20 -20v-5l-18 -111q-1 -11 -8.5 -17t-18.5 -6h-90q-9 0 -14.5 5z" />
    <glyph glyph-name="uni1E63" unicode="&#x1e63;" horiz-adv-x="516" 
d="M140 1.5q-48 7.5 -94 23.5l18 113h242q12 0 20 5t10 13l2 12l1 9q0 15 -25 15h-68q-71 0 -116.5 30t-45.5 90q0 31 3 48l6 35q12 71 67 110.5t173 39.5q53 0 110.5 -9t97.5 -23l-18 -113h-227q-15 0 -22 -4t-10 -15l-1 -4q-2 -10 -2 -14q0 -8 5 -12.5t20 -4.5h81
q69 0 110 -30t41 -80q0 -33 -3 -51l-7 -47q-12 -76 -74.5 -110t-171.5 -34q-74 0 -122 7.5zM190.5 -231q-5.5 5 -5.5 14v4l18 111q3 25 27 25h90q20 0 20 -20v-5l-18 -111q-1 -11 -8.5 -17t-18.5 -6h-90q-9 0 -14.5 5z" />
    <glyph glyph-name="uni1E64" unicode="&#x1e64;" horiz-adv-x="576" 
d="M56 23l24 154q93 -9 224 -9q57 0 79.5 10.5t27.5 37.5l2 11q1 5 1 13q0 20 -16.5 28t-53.5 8h-40q-89 0 -140.5 49t-51.5 126q0 21 3 43l9 57q17 104 88 151t195 47q117 0 232 -29l-24 -154q-94 9 -233 9q-69 0 -77 -47l-2 -11q-2 -12 -2 -17q0 -41 51 -41h44
q98 0 152.5 -47.5t54.5 -123.5q0 -18 -3 -39l-11 -70q-10 -63 -38.5 -103t-87 -61t-154.5 -21q-147 0 -253 29zM394 934h164l-121 -143h-124zM405.5 979q-5.5 5 -5.5 14v4l18 111q3 25 27 25h90q20 0 20 -20v-5l-18 -111q-1 -11 -8.5 -17t-18.5 -6h-90q-9 0 -14.5 5z" />
    <glyph glyph-name="uni1E65" unicode="&#x1e65;" horiz-adv-x="516" 
d="M140 1.5q-48 7.5 -94 23.5l18 113h242q12 0 20 5t10 13l2 12l1 9q0 15 -25 15h-68q-71 0 -116.5 30t-45.5 90q0 31 3 48l6 35q12 71 67 110.5t173 39.5q53 0 110.5 -9t97.5 -23l-18 -113h-227q-15 0 -22 -4t-10 -15l-1 -4q-2 -10 -2 -14q0 -8 5 -12.5t20 -4.5h81
q69 0 110 -30t41 -80q0 -33 -3 -51l-7 -47q-12 -76 -74.5 -110t-171.5 -34q-74 0 -122 7.5zM347 774h164l-121 -143h-124zM348.5 819q-5.5 5 -5.5 14v4l18 111q3 25 27 25h90q20 0 20 -20v-5l-18 -111q-1 -11 -8.5 -17t-18.5 -6h-90q-9 0 -14.5 5z" />
    <glyph glyph-name="uni1E66" unicode="&#x1e66;" horiz-adv-x="576" 
d="M56 23l24 154q93 -9 224 -9q57 0 79.5 10.5t27.5 37.5l2 11q1 5 1 13q0 20 -16.5 28t-53.5 8h-40q-89 0 -140.5 49t-51.5 126q0 21 3 43l9 57q17 104 88 151t195 47q117 0 232 -29l-24 -154q-94 9 -233 9q-69 0 -77 -47l-2 -11q-2 -12 -2 -17q0 -41 51 -41h44
q98 0 152.5 -47.5t54.5 -123.5q0 -18 -3 -39l-11 -70q-10 -63 -38.5 -103t-87 -61t-154.5 -21q-147 0 -253 29zM286 937h111l39 -61l60 61h112l-123 -146h-131zM385.5 979q-5.5 5 -5.5 14v4l18 111q3 25 27 25h90q20 0 20 -20v-5l-18 -111q-1 -11 -8.5 -17t-18.5 -6h-90
q-9 0 -14.5 5z" />
    <glyph glyph-name="uni1E67" unicode="&#x1e67;" horiz-adv-x="516" 
d="M140 1.5q-48 7.5 -94 23.5l18 113h242q12 0 20 5t10 13l2 12l1 9q0 15 -25 15h-68q-71 0 -116.5 30t-45.5 90q0 31 3 48l6 35q12 71 67 110.5t173 39.5q53 0 110.5 -9t97.5 -23l-18 -113h-227q-15 0 -22 -4t-10 -15l-1 -4q-2 -10 -2 -14q0 -8 5 -12.5t20 -4.5h81
q69 0 110 -30t41 -80q0 -33 -3 -51l-7 -47q-12 -76 -74.5 -110t-171.5 -34q-74 0 -122 7.5zM249 777h111l39 -61l60 61h112l-123 -146h-131zM338.5 819q-5.5 5 -5.5 14v4l18 111q3 25 27 25h90q20 0 20 -20v-5l-18 -111q-1 -11 -8.5 -17t-18.5 -6h-90q-9 0 -14.5 5z" />
    <glyph glyph-name="uni1E68" unicode="&#x1e68;" horiz-adv-x="576" 
d="M56 23l24 154q93 -9 224 -9q57 0 79.5 10.5t27.5 37.5l2 11q1 5 1 13q0 20 -16.5 28t-53.5 8h-40q-89 0 -140.5 49t-51.5 126q0 21 3 43l9 57q17 104 88 151t195 47q117 0 232 -29l-24 -154q-94 9 -233 9q-69 0 -77 -47l-2 -11q-2 -12 -2 -17q0 -41 51 -41h44
q98 0 152.5 -47.5t54.5 -123.5q0 -18 -3 -39l-11 -70q-10 -63 -38.5 -103t-87 -61t-154.5 -21q-147 0 -253 29zM181.5 -231q-5.5 5 -5.5 14v4l18 111q3 25 27 25h90q20 0 20 -20v-5l-18 -111q-1 -11 -8.5 -17t-18.5 -6h-90q-9 0 -14.5 5zM345.5 799q-5.5 5 -5.5 14v4l18 111
q3 25 27 25h90q20 0 20 -20v-5l-18 -111q-1 -11 -8.5 -17t-18.5 -6h-90q-9 0 -14.5 5z" />
    <glyph glyph-name="uni1E69" unicode="&#x1e69;" horiz-adv-x="516" 
d="M140 1.5q-48 7.5 -94 23.5l18 113h242q12 0 20 5t10 13l2 12l1 9q0 15 -25 15h-68q-71 0 -116.5 30t-45.5 90q0 31 3 48l6 35q12 71 67 110.5t173 39.5q53 0 110.5 -9t97.5 -23l-18 -113h-227q-15 0 -22 -4t-10 -15l-1 -4q-2 -10 -2 -14q0 -8 5 -12.5t20 -4.5h81
q69 0 110 -30t41 -80q0 -33 -3 -51l-7 -47q-12 -76 -74.5 -110t-171.5 -34q-74 0 -122 7.5zM190.5 -231q-5.5 5 -5.5 14v4l18 111q3 25 27 25h90q20 0 20 -20v-5l-18 -111q-1 -11 -8.5 -17t-18.5 -6h-90q-9 0 -14.5 5zM318.5 639q-5.5 5 -5.5 14v4l18 111q3 25 27 25h90
q20 0 20 -20v-5l-18 -111q-1 -11 -8.5 -17t-18.5 -6h-90q-9 0 -14.5 5z" />
    <glyph glyph-name="uni1E6A" unicode="&#x1e6a;" horiz-adv-x="612" 
d="M294 569h-184l28 174h562l-28 -174h-184l-90 -569h-194zM362.5 799q-5.5 5 -5.5 14v4l18 111q3 25 27 25h90q20 0 20 -20v-5l-18 -111q-1 -11 -8.5 -17t-18.5 -6h-90q-9 0 -14.5 5z" />
    <glyph glyph-name="uni1E6B" unicode="&#x1e6b;" horiz-adv-x="424" 
d="M154 31q-45 31 -45 96q0 44 10 98l31 160h-83l20 124l95 30l48 151h154l-24 -151h109l-24 -154h-109l-26 -161q-1 -4 -3 -18t-2 -23q0 -17 9 -24t30 -9l59 -6l-23 -144h-91q-90 0 -135 31zM260.5 739q-5.5 5 -5.5 14v4l18 111q3 25 27 25h90q20 0 20 -20v-5l-18 -111
q-1 -11 -8.5 -17t-18.5 -6h-90q-9 0 -14.5 5z" />
    <glyph glyph-name="uni1E6C" unicode="&#x1e6c;" horiz-adv-x="612" 
d="M294 569h-184l28 174h562l-28 -174h-184l-90 -569h-194zM198.5 -231q-5.5 5 -5.5 14v4l18 111q3 25 27 25h90q20 0 20 -20v-5l-18 -111q-1 -11 -8.5 -17t-18.5 -6h-90q-9 0 -14.5 5z" />
    <glyph glyph-name="uni1E6D" unicode="&#x1e6d;" horiz-adv-x="424" 
d="M154 31q-45 31 -45 96q0 44 10 98l31 160h-83l20 124l95 30l48 151h154l-24 -151h109l-24 -154h-109l-26 -161q-1 -4 -3 -18t-2 -23q0 -17 9 -24t30 -9l59 -6l-23 -144h-91q-90 0 -135 31zM170.5 -231q-5.5 5 -5.5 14v4l18 111q3 25 27 25h90q20 0 20 -20v-5l-18 -111
q-1 -11 -8.5 -17t-18.5 -6h-90q-9 0 -14.5 5z" />
    <glyph glyph-name="uni1E6E" unicode="&#x1e6e;" horiz-adv-x="612" 
d="M294 569h-184l28 174h562l-28 -174h-184l-90 -569h-194zM123 -115h292l-18 -114h-292z" />
    <glyph glyph-name="uni1E6F" unicode="&#x1e6f;" horiz-adv-x="424" 
d="M154 31q-45 31 -45 96q0 44 10 98l31 160h-83l20 124l95 30l48 151h154l-24 -151h109l-24 -154h-109l-26 -161q-1 -4 -3 -18t-2 -23q0 -17 9 -24t30 -9l59 -6l-23 -144h-91q-90 0 -135 31zM107 -115h292l-18 -114h-292z" />
    <glyph glyph-name="uni1E78" unicode="&#x1e78;" horiz-adv-x="696" 
d="M159.5 50.5q-62.5 56.5 -62.5 177.5q0 40 13 122l63 393h194l-67 -423q-1 -10 -5 -34.5t-4 -40.5q0 -39 20 -58t67 -19q36 0 58.5 13.5t37.5 46t24 92.5l67 423h194l-72 -453q-19 -122 -61.5 -186t-107.5 -87t-168 -23q-128 0 -190.5 56.5zM325 890.5q34 31.5 81 31.5
q23 0 42 -4.5t45 -12.5q31 -12 50 -12q28 0 35 36h96q-20 -76 -51 -109t-80 -33q-22 0 -42.5 4.5t-50.5 13.5q-33 11 -45 11q-24 0 -36 -31h-96q18 74 52 105.5zM513 1114h164l-121 -143h-124z" />
    <glyph glyph-name="uni1E79" unicode="&#x1e79;" horiz-adv-x="600" 
d="M67 122q0 36 5 69l55 348h194l-50 -321q-1 -5 -1 -15q0 -35 42 -35q45 0 82 37l53 334h194l-85 -539h-174l-12 52q-44 -32 -80.5 -45t-93.5 -13q-129 0 -129 128zM256 730.5q34 31.5 81 31.5q23 0 42 -4.5t45 -12.5q31 -12 50 -12q28 0 35 36h96q-20 -76 -51 -109
t-80 -33q-22 0 -42.5 4.5t-50.5 13.5q-33 11 -45 11q-24 0 -36 -31h-96q18 74 52 105.5zM434 934h164l-121 -143h-124z" />
    <glyph glyph-name="uni1E7A" unicode="&#x1e7a;" horiz-adv-x="696" 
d="M159.5 50.5q-62.5 56.5 -62.5 177.5q0 40 13 122l63 393h194l-67 -423q-1 -10 -5 -34.5t-4 -40.5q0 -39 20 -58t67 -19q36 0 58.5 13.5t37.5 46t24 92.5l67 423h194l-72 -453q-19 -122 -61.5 -186t-107.5 -87t-168 -23q-128 0 -190.5 56.5zM339 905h292l-18 -114h-292z
M329.5 952q-5.5 5 -5.5 14l19 115q3 25 26 25h90q20 0 20 -20l-18 -116q-1 -11 -8.5 -17t-18.5 -6h-90q-9 0 -14.5 5zM526.5 952q-5.5 5 -5.5 14l19 115q3 25 26 25h90q20 0 20 -20l-18 -116q-1 -11 -8.5 -17t-18.5 -6h-90q-9 0 -14.5 5z" />
    <glyph glyph-name="uni1E7B" unicode="&#x1e7b;" horiz-adv-x="600" 
d="M67 122q0 36 5 69l55 348h194l-50 -321q-1 -5 -1 -15q0 -35 42 -35q45 0 82 37l53 334h194l-85 -539h-174l-12 52q-44 -32 -80.5 -45t-93.5 -13q-129 0 -129 128zM280 745h292l-18 -114h-292zM266.5 792q-5.5 5 -5.5 14l19 115q3 25 26 25h90q20 0 20 -20l-18 -116
q-1 -11 -8.5 -17t-18.5 -6h-90q-9 0 -14.5 5zM463.5 792q-5.5 5 -5.5 14l19 115q3 25 26 25h90q20 0 20 -20l-18 -116q-1 -11 -8.5 -17t-18.5 -6h-90q-9 0 -14.5 5z" />
    <glyph glyph-name="Wgrave" unicode="&#x1e80;" horiz-adv-x="1050" 
d="M133 743h201l20 -452l183 452h174l38 -452l164 452h201l-288 -743h-194l-54 454l-199 -454h-194zM522 934h154l45 -143h-114z" />
    <glyph glyph-name="wgrave" unicode="&#x1e81;" horiz-adv-x="869" 
d="M75 539h200l24 -360l141 360h123l63 -360l61 216q31 104 35 152h192q0 -50 -18 -111t-40 -110l-150 -326h-205l-45 222l-99 -222h-205zM386 774h154l45 -143h-114z" />
    <glyph glyph-name="Wacute" unicode="&#x1e82;" horiz-adv-x="1050" 
d="M133 743h201l20 -452l183 452h174l38 -452l164 452h201l-288 -743h-194l-54 454l-199 -454h-194zM660 934h164l-121 -143h-124z" />
    <glyph glyph-name="wacute" unicode="&#x1e83;" horiz-adv-x="869" 
d="M75 539h200l24 -360l141 360h123l63 -360l61 216q31 104 35 152h192q0 -50 -18 -111t-40 -110l-150 -326h-205l-45 222l-99 -222h-205zM534 774h164l-121 -143h-124z" />
    <glyph glyph-name="Wdieresis" unicode="&#x1e84;" horiz-adv-x="1050" 
d="M133 743h201l20 -452l183 452h174l38 -452l164 452h201l-288 -743h-194l-54 454l-199 -454h-194zM484.5 792q-5.5 5 -5.5 14l19 115q3 25 26 25h90q20 0 20 -20l-18 -116q-1 -11 -8.5 -17t-18.5 -6h-90q-9 0 -14.5 5zM681.5 792q-5.5 5 -5.5 14l19 115q3 25 26 25h90
q20 0 20 -20l-18 -116q-1 -11 -8.5 -17t-18.5 -6h-90q-9 0 -14.5 5z" />
    <glyph glyph-name="wdieresis" unicode="&#x1e85;" horiz-adv-x="869" 
d="M75 539h200l24 -360l141 360h123l63 -360l61 216q31 104 35 152h192q0 -50 -18 -111t-40 -110l-150 -326h-205l-45 222l-99 -222h-205zM356.5 632q-5.5 5 -5.5 14l19 115q3 25 26 25h90q20 0 20 -20l-18 -116q-1 -11 -8.5 -17t-18.5 -6h-90q-9 0 -14.5 5zM553.5 632
q-5.5 5 -5.5 14l19 115q3 25 26 25h90q20 0 20 -20l-18 -116q-1 -11 -8.5 -17t-18.5 -6h-90q-9 0 -14.5 5z" />
    <glyph glyph-name="uni1E8E" unicode="&#x1e8e;" horiz-adv-x="660" 
d="M259 200l-131 543h211l49 -335l161 335h219l-315 -543l-32 -200h-194zM228.5 -231q-5.5 5 -5.5 14v4l18 111q3 25 27 25h90q20 0 20 -20v-5l-18 -111q-1 -11 -8.5 -17t-18.5 -6h-90q-9 0 -14.5 5z" />
    <glyph glyph-name="uni1E8F" unicode="&#x1e8f;" horiz-adv-x="587" 
d="M96 -101q73 14 114.5 36.5t62.5 64.5q-83 7 -115.5 44.5t-39.5 111.5l-32 383h200l3 -342q0 -21 12.5 -30.5t29.5 -10.5l86 238q31 85 34 153h184q0 -133 -74 -290l-116 -247q-61 -129 -143 -184t-206 -63v136zM457.5 -231q-5.5 5 -5.5 14v4l18 111q3 25 27 25h90
q20 0 20 -20v-5l-18 -111q-1 -11 -8.5 -17t-18.5 -6h-90q-9 0 -14.5 5z" />
    <glyph glyph-name="uni1E92" unicode="&#x1e92;" horiz-adv-x="573" 
d="M56 164l345 405h-281l28 174h503l-26 -164l-344 -405h290l-28 -174h-513zM188.5 -231q-5.5 5 -5.5 14v4l18 111q3 25 27 25h90q20 0 20 -20v-5l-18 -111q-1 -11 -8.5 -17t-18.5 -6h-90q-9 0 -14.5 5z" />
    <glyph glyph-name="uni1E93" unicode="&#x1e93;" horiz-adv-x="502" 
d="M53 138l256 247h-228l24 154h452l-21 -138l-257 -247h217q-3 -25 -11.5 -77.5t-12.5 -76.5h-441zM138.5 -231q-5.5 5 -5.5 14v4l18 111q3 25 27 25h90q20 0 20 -20v-5l-18 -111q-1 -11 -8.5 -17t-18.5 -6h-90q-9 0 -14.5 5z" />
    <glyph glyph-name="uni1E97" unicode="&#x1e97;" horiz-adv-x="424" 
d="M154 31q-45 31 -45 96q0 44 10 98l31 160h-83l20 124l95 30l48 151h154l-24 -151h109l-24 -154h-109l-26 -161q-1 -4 -3 -18t-2 -23q0 -17 9 -24t30 -9l59 -6l-23 -144h-91q-90 0 -135 31zM154.5 732q-5.5 5 -5.5 14l19 115q3 25 26 25h90q20 0 20 -20l-18 -116
q-1 -11 -8.5 -17t-18.5 -6h-90q-9 0 -14.5 5zM351.5 732q-5.5 5 -5.5 14l19 115q3 25 26 25h90q20 0 20 -20l-18 -116q-1 -11 -8.5 -17t-18.5 -6h-90q-9 0 -14.5 5z" />
    <glyph glyph-name="uni1E9E" unicode="&#x1e9e;" horiz-adv-x="757" 
d="M722 380q43 -36 43 -104q0 -25 -11 -81q-15 -81 -51 -125t-90.5 -60t-135.5 -16q-40 0 -85.5 5.5t-80.5 15.5l28 174q84 -21 136 -21q41 0 61.5 11t24.5 39q2 12 2 16q0 18 -13 27t-42 9h-133l24 154l126 145h-129q-29 0 -45 -13t-19 -34l-83 -522h-194l82 519
q18 116 94.5 170t184.5 54q101 0 177 -3.5t176 -9.5l-24 -151l-139 -157q73 -6 116 -42z" />
    <glyph glyph-name="uni1EA0" unicode="&#x1ea0;" horiz-adv-x="709" 
d="M353 743h242l102 -743h-201l-11 118h-223l-48 -118h-199zM467 292l-21 286l-112 -286h133zM248.5 -231q-5.5 5 -5.5 14v4l18 111q3 25 27 25h90q20 0 20 -20v-5l-18 -111q-1 -11 -8.5 -17t-18.5 -6h-90q-9 0 -14.5 5z" />
    <glyph glyph-name="uni1EA1" unicode="&#x1ea1;" horiz-adv-x="575" 
d="M104 41q-39 47 -39 141q0 36 12 117q20 124 90 185t200 61q74 0 138.5 -18.5t103.5 -47.5l-76 -479h-174l-12 52q-23 -23 -63.5 -40.5t-80.5 -17.5q-60 0 -99 47zM366 178l33 205q-6 2 -17.5 4.5t-23.5 2.5q-38 0 -60.5 -27t-30.5 -75q-8 -45 -8 -70q0 -69 43 -69
q37 0 64 29zM194.5 -231q-5.5 5 -5.5 14v4l18 111q3 25 27 25h90q20 0 20 -20v-5l-18 -111q-1 -11 -8.5 -17t-18.5 -6h-90q-9 0 -14.5 5z" />
    <glyph glyph-name="uni1EA2" unicode="&#x1ea2;" horiz-adv-x="709" 
d="M353 743h242l102 -743h-201l-11 118h-223l-48 -118h-199zM467 292l-21 286l-112 -286h133zM469 842q34 9 34 31q0 13 -22 13q-9 0 -31 -6l12 74q29 9 58 9q86 0 86 -73q0 -91 -150 -132z" />
    <glyph glyph-name="uni1EA3" unicode="&#x1ea3;" horiz-adv-x="575" 
d="M104 41q-39 47 -39 141q0 36 12 117q20 124 90 185t200 61q74 0 138.5 -18.5t103.5 -47.5l-76 -479h-174l-12 52q-23 -23 -63.5 -40.5t-80.5 -17.5q-60 0 -99 47zM366 178l33 205q-6 2 -17.5 4.5t-23.5 2.5q-38 0 -60.5 -27t-30.5 -75q-8 -45 -8 -70q0 -69 43 -69
q37 0 64 29zM349 672q34 9 34 31q0 13 -22 13q-9 0 -31 -6l12 74q29 9 58 9q86 0 86 -73q0 -91 -150 -132z" />
    <glyph glyph-name="uni1EA4" unicode="&#x1ea4;" horiz-adv-x="709" 
d="M353 743h242l102 -743h-201l-11 118h-223l-48 -118h-199zM467 292l-21 286l-112 -286h133zM629 1004h144l-78 -123h-104zM433 907h131l73 -116h-111l-44 31l-55 -31h-112z" />
    <glyph glyph-name="uni1EA5" unicode="&#x1ea5;" horiz-adv-x="575" 
d="M104 41q-39 47 -39 141q0 36 12 117q20 124 90 185t200 61q74 0 138.5 -18.5t103.5 -47.5l-76 -479h-174l-12 52q-23 -23 -63.5 -40.5t-80.5 -17.5q-60 0 -99 47zM366 178l33 205q-6 2 -17.5 4.5t-23.5 2.5q-38 0 -60.5 -27t-30.5 -75q-8 -45 -8 -70q0 -69 43 -69
q37 0 64 29zM529 844h144l-78 -123h-104zM333 747h131l73 -116h-111l-44 31l-55 -31h-112z" />
    <glyph glyph-name="uni1EA6" unicode="&#x1ea6;" horiz-adv-x="709" 
d="M353 743h242l102 -743h-201l-11 118h-223l-48 -118h-199zM467 292l-21 286l-112 -286h133zM251 1004h144l-2 -123h-104zM433 907h131l73 -116h-111l-44 31l-55 -31h-112z" />
    <glyph glyph-name="uni1EA7" unicode="&#x1ea7;" horiz-adv-x="575" 
d="M104 41q-39 47 -39 141q0 36 12 117q20 124 90 185t200 61q74 0 138.5 -18.5t103.5 -47.5l-76 -479h-174l-12 52q-23 -23 -63.5 -40.5t-80.5 -17.5q-60 0 -99 47zM366 178l33 205q-6 2 -17.5 4.5t-23.5 2.5q-38 0 -60.5 -27t-30.5 -75q-8 -45 -8 -70q0 -69 43 -69
q37 0 64 29zM151 844h144l-2 -123h-104zM333 747h131l73 -116h-111l-44 31l-55 -31h-112z" />
    <glyph glyph-name="uni1EA8" unicode="&#x1ea8;" horiz-adv-x="709" 
d="M353 743h242l102 -743h-201l-11 118h-223l-48 -118h-199zM467 292l-21 286l-112 -286h133zM623 922q13 7 18 13t5 14q0 9 -12 9t-32 -6l12 74q29 9 57 9q35 0 52 -15t17 -46q0 -44 -30.5 -75.5t-98.5 -50.5zM433 907h131l73 -116h-111l-44 31l-55 -31h-112z" />
    <glyph glyph-name="uni1EA9" unicode="&#x1ea9;" horiz-adv-x="575" 
d="M104 41q-39 47 -39 141q0 36 12 117q20 124 90 185t200 61q74 0 138.5 -18.5t103.5 -47.5l-76 -479h-174l-12 52q-23 -23 -63.5 -40.5t-80.5 -17.5q-60 0 -99 47zM366 178l33 205q-6 2 -17.5 4.5t-23.5 2.5q-38 0 -60.5 -27t-30.5 -75q-8 -45 -8 -70q0 -69 43 -69
q37 0 64 29zM523 762q13 7 18 13t5 14q0 9 -12 9t-32 -6l12 74q29 9 57 9q35 0 52 -15t17 -46q0 -44 -30.5 -75.5t-98.5 -50.5zM333 747h131l73 -116h-111l-44 31l-55 -31h-112z" />
    <glyph glyph-name="uni1EAA" unicode="&#x1eaa;" horiz-adv-x="709" 
d="M353 743h242l102 -743h-201l-11 118h-223l-48 -118h-199zM467 292l-21 286l-112 -286h133zM371.5 1034.5q30.5 22.5 80.5 22.5q23 0 63 -11q26 -8 36 -8q29 0 34 26h96q-18 -69 -46.5 -93t-80.5 -24q-21 0 -42.5 5.5t-25.5 6.5q-23 7 -32 7q-14 0 -22.5 -6.5t-11.5 -14.5
h-96q17 67 47.5 89.5zM434 907h131l72 -116h-111l-44 31l-55 -31h-112z" />
    <glyph glyph-name="uni1EAB" unicode="&#x1eab;" horiz-adv-x="575" 
d="M104 41q-39 47 -39 141q0 36 12 117q20 124 90 185t200 61q74 0 138.5 -18.5t103.5 -47.5l-76 -479h-174l-12 52q-23 -23 -63.5 -40.5t-80.5 -17.5q-60 0 -99 47zM366 178l33 205q-6 2 -17.5 4.5t-23.5 2.5q-38 0 -60.5 -27t-30.5 -75q-8 -45 -8 -70q0 -69 43 -69
q37 0 64 29zM271.5 874.5q30.5 22.5 80.5 22.5q23 0 63 -11q26 -8 36 -8q29 0 34 26h96q-18 -69 -46.5 -93t-80.5 -24q-21 0 -42.5 5.5t-25.5 6.5q-23 7 -32 7q-14 0 -22.5 -6.5t-11.5 -14.5h-96q17 67 47.5 89.5zM334 747h131l72 -116h-111l-44 31l-55 -31h-112z" />
    <glyph glyph-name="uni1EAC" unicode="&#x1eac;" horiz-adv-x="709" 
d="M353 743h242l102 -743h-201l-11 118h-223l-48 -118h-199zM467 292l-21 286l-112 -286h133zM428 937h131l68 -146h-111l-39 61l-60 -61h-112zM248.5 -231q-5.5 5 -5.5 14v4l18 111q3 25 27 25h90q20 0 20 -20v-5l-18 -111q-1 -11 -8.5 -17t-18.5 -6h-90q-9 0 -14.5 5z" />
    <glyph glyph-name="uni1EAD" unicode="&#x1ead;" horiz-adv-x="575" 
d="M104 41q-39 47 -39 141q0 36 12 117q20 124 90 185t200 61q74 0 138.5 -18.5t103.5 -47.5l-76 -479h-174l-12 52q-23 -23 -63.5 -40.5t-80.5 -17.5q-60 0 -99 47zM366 178l33 205q-6 2 -17.5 4.5t-23.5 2.5q-38 0 -60.5 -27t-30.5 -75q-8 -45 -8 -70q0 -69 43 -69
q37 0 64 29zM337 777h131l68 -146h-111l-39 61l-60 -61h-112zM194.5 -231q-5.5 5 -5.5 14v4l18 111q3 25 27 25h90q20 0 20 -20v-5l-18 -111q-1 -11 -8.5 -17t-18.5 -6h-90q-9 0 -14.5 5z" />
    <glyph glyph-name="uni1EAE" unicode="&#x1eae;" horiz-adv-x="709" 
d="M353 743h242l102 -743h-201l-11 118h-223l-48 -118h-199zM467 292l-21 286l-112 -286h133zM501 1064h164l-121 -143h-124zM337 859q0 18 2 28h89q-1 -4 -1 -11q0 -21 13.5 -30t34.5 -9q55 0 63 50h91q-20 -127 -166 -127q-126 0 -126 99z" />
    <glyph glyph-name="uni1EAF" unicode="&#x1eaf;" horiz-adv-x="575" 
d="M104 41q-39 47 -39 141q0 36 12 117q20 124 90 185t200 61q74 0 138.5 -18.5t103.5 -47.5l-76 -479h-174l-12 52q-23 -23 -63.5 -40.5t-80.5 -17.5q-60 0 -99 47zM366 178l33 205q-6 2 -17.5 4.5t-23.5 2.5q-38 0 -60.5 -27t-30.5 -75q-8 -45 -8 -70q0 -69 43 -69
q37 0 64 29zM401 904h164l-121 -143h-124zM237 699q0 18 2 28h89q-1 -4 -1 -11q0 -21 13.5 -30t34.5 -9q55 0 63 50h91q-20 -127 -166 -127q-126 0 -126 99z" />
    <glyph glyph-name="uni1EB0" unicode="&#x1eb0;" horiz-adv-x="709" 
d="M353 743h242l102 -743h-201l-11 118h-223l-48 -118h-199zM467 292l-21 286l-112 -286h133zM343 1064h154l45 -143h-114zM337 859q0 18 2 28h89q-1 -4 -1 -11q0 -21 13.5 -30t34.5 -9q55 0 63 50h91q-20 -127 -166 -127q-126 0 -126 99z" />
    <glyph glyph-name="uni1EB1" unicode="&#x1eb1;" horiz-adv-x="575" 
d="M104 41q-39 47 -39 141q0 36 12 117q20 124 90 185t200 61q74 0 138.5 -18.5t103.5 -47.5l-76 -479h-174l-12 52q-23 -23 -63.5 -40.5t-80.5 -17.5q-60 0 -99 47zM366 178l33 205q-6 2 -17.5 4.5t-23.5 2.5q-38 0 -60.5 -27t-30.5 -75q-8 -45 -8 -70q0 -69 43 -69
q37 0 64 29zM243 904h154l45 -143h-114zM237 699q0 18 2 28h89q-1 -4 -1 -11q0 -21 13.5 -30t34.5 -9q55 0 63 50h91q-20 -127 -166 -127q-126 0 -126 99z" />
    <glyph glyph-name="uni1EB2" unicode="&#x1eb2;" horiz-adv-x="709" 
d="M353 743h242l102 -743h-201l-11 118h-223l-48 -118h-199zM467 292l-21 286l-112 -286h133zM465 962q34 9 34 31q0 13 -22 13q-9 0 -31 -6l12 74q29 9 58 9q86 0 86 -73q0 -91 -150 -132zM337 859q0 18 2 28h89q-1 -4 -1 -11q0 -21 13.5 -30t34.5 -9q55 0 63 50h91
q-20 -127 -166 -127q-126 0 -126 99z" />
    <glyph glyph-name="uni1EB3" unicode="&#x1eb3;" horiz-adv-x="575" 
d="M104 41q-39 47 -39 141q0 36 12 117q20 124 90 185t200 61q74 0 138.5 -18.5t103.5 -47.5l-76 -479h-174l-12 52q-23 -23 -63.5 -40.5t-80.5 -17.5q-60 0 -99 47zM366 178l33 205q-6 2 -17.5 4.5t-23.5 2.5q-38 0 -60.5 -27t-30.5 -75q-8 -45 -8 -70q0 -69 43 -69
q37 0 64 29zM365 802q34 9 34 31q0 13 -22 13q-9 0 -31 -6l12 74q29 9 58 9q86 0 86 -73q0 -91 -150 -132zM237 699q0 18 2 28h89q-1 -4 -1 -11q0 -21 13.5 -30t34.5 -9q55 0 63 50h91q-20 -127 -166 -127q-126 0 -126 99z" />
    <glyph glyph-name="uni1EB4" unicode="&#x1eb4;" horiz-adv-x="709" 
d="M353 743h242l102 -743h-201l-11 118h-223l-48 -118h-199zM467 292l-21 286l-112 -286h133zM368.5 1014.5q30.5 22.5 80.5 22.5q23 0 63 -11q26 -8 36 -8q30 0 33 26h96q-17 -69 -45.5 -93t-80.5 -24q-21 0 -42.5 5.5t-25.5 6.5q-23 7 -32 7q-14 0 -22.5 -6.5t-11.5 -14.5
h-96q17 67 47.5 89.5zM371.5 784.5q-32.5 24.5 -32.5 73.5q0 14 3 29h89q-1 -4 -1 -12q0 -20 13.5 -29t34.5 -9q55 0 63 50h91q-21 -127 -166 -127q-62 0 -94.5 24.5z" />
    <glyph glyph-name="uni1EB5" unicode="&#x1eb5;" horiz-adv-x="575" 
d="M104 41q-39 47 -39 141q0 36 12 117q20 124 90 185t200 61q74 0 138.5 -18.5t103.5 -47.5l-76 -479h-174l-12 52q-23 -23 -63.5 -40.5t-80.5 -17.5q-60 0 -99 47zM366 178l33 205q-6 2 -17.5 4.5t-23.5 2.5q-38 0 -60.5 -27t-30.5 -75q-8 -45 -8 -70q0 -69 43 -69
q37 0 64 29zM268.5 854.5q30.5 22.5 80.5 22.5q23 0 63 -11q26 -8 36 -8q30 0 33 26h96q-17 -69 -45.5 -93t-80.5 -24q-21 0 -42.5 5.5t-25.5 6.5q-23 7 -32 7q-14 0 -22.5 -6.5t-11.5 -14.5h-96q17 67 47.5 89.5zM271.5 624.5q-32.5 24.5 -32.5 73.5q0 14 3 29h89
q-1 -4 -1 -12q0 -20 13.5 -29t34.5 -9q55 0 63 50h91q-21 -127 -166 -127q-62 0 -94.5 24.5z" />
    <glyph glyph-name="uni1EB6" unicode="&#x1eb6;" horiz-adv-x="709" 
d="M353 743h242l102 -743h-201l-11 118h-223l-48 -118h-199zM467 292l-21 286l-112 -286h133zM379 809q-31 29 -31 86q0 12 4 42h89q-2 -14 -2 -20q0 -26 13 -38t33 -12q55 0 66 70h91q-12 -78 -55 -117.5t-116 -39.5q-61 0 -92 29zM248.5 -231q-5.5 5 -5.5 14v4l18 111
q3 25 27 25h90q20 0 20 -20v-5l-18 -111q-1 -11 -8.5 -17t-18.5 -6h-90q-9 0 -14.5 5z" />
    <glyph glyph-name="uni1EB7" unicode="&#x1eb7;" horiz-adv-x="575" 
d="M104 41q-39 47 -39 141q0 36 12 117q20 124 90 185t200 61q74 0 138.5 -18.5t103.5 -47.5l-76 -479h-174l-12 52q-23 -23 -63.5 -40.5t-80.5 -17.5q-60 0 -99 47zM366 178l33 205q-6 2 -17.5 4.5t-23.5 2.5q-38 0 -60.5 -27t-30.5 -75q-8 -45 -8 -70q0 -69 43 -69
q37 0 64 29zM289 649q-31 29 -31 86q0 12 4 42h89q-2 -14 -2 -20q0 -26 13 -38t33 -12q55 0 66 70h91q-12 -78 -55 -117.5t-116 -39.5q-61 0 -92 29zM194.5 -231q-5.5 5 -5.5 14v4l18 111q3 25 27 25h90q20 0 20 -20v-5l-18 -111q-1 -11 -8.5 -17t-18.5 -6h-90q-9 0 -14.5 5
z" />
    <glyph glyph-name="uni1EB8" unicode="&#x1eb8;" horiz-adv-x="604" 
d="M131.5 25q-52.5 31 -52.5 110q0 17 3 38l61 383q29 187 217 187q127 0 304 -15l-26 -164h-248q-30 0 -43 -13.5t-18 -43.5l-7 -47l246 -10l-24 -154l-250 -10l-9 -58q-1 -5 -1 -13q0 -39 47 -39h246l-26 -164q-92 -9 -158.5 -13.5t-141.5 -4.5q-67 0 -119.5 31z
M198.5 -231q-5.5 5 -5.5 14v4l18 111q3 25 27 25h90q20 0 20 -20v-5l-18 -111q-1 -11 -8.5 -17t-18.5 -6h-90q-9 0 -14.5 5z" />
    <glyph glyph-name="uni1EB9" unicode="&#x1eb9;" horiz-adv-x="548" 
d="M116.5 47q-48.5 53 -48.5 156q0 42 9 96q21 132 93 189t194 57q92 0 153 -37t61 -132q0 -108 -57.5 -147t-163.5 -39q-62 0 -97 8q-2 -12 -2 -20q0 -22 24 -32.5t75 -10.5h179l-18 -113q-112 -28 -240 -28q-113 0 -161.5 53zM380.5 309.5q17.5 14.5 17.5 45.5
q0 20 -12 31.5t-35 11.5q-32 0 -51 -24.5t-28 -74.5q26 -4 39 -4q52 0 69.5 14.5zM213.5 -231q-5.5 5 -5.5 14v4l18 111q3 25 27 25h90q20 0 20 -20v-5l-18 -111q-1 -11 -8.5 -17t-18.5 -6h-90q-9 0 -14.5 5z" />
    <glyph glyph-name="uni1EBA" unicode="&#x1eba;" horiz-adv-x="604" 
d="M131.5 25q-52.5 31 -52.5 110q0 17 3 38l61 383q29 187 217 187q127 0 304 -15l-26 -164h-248q-30 0 -43 -13.5t-18 -43.5l-7 -47l246 -10l-24 -154l-250 -10l-9 -58q-1 -5 -1 -13q0 -39 47 -39h246l-26 -164q-92 -9 -158.5 -13.5t-141.5 -4.5q-67 0 -119.5 31zM419 842
q34 9 34 31q0 13 -22 13q-9 0 -31 -6l12 74q29 9 58 9q86 0 86 -73q0 -91 -150 -132z" />
    <glyph glyph-name="uni1EBB" unicode="&#x1ebb;" horiz-adv-x="548" 
d="M116.5 47q-48.5 53 -48.5 156q0 42 9 96q21 132 93 189t194 57q92 0 153 -37t61 -132q0 -108 -57.5 -147t-163.5 -39q-62 0 -97 8q-2 -12 -2 -20q0 -22 24 -32.5t75 -10.5h179l-18 -113q-112 -28 -240 -28q-113 0 -161.5 53zM380.5 309.5q17.5 14.5 17.5 45.5
q0 20 -12 31.5t-35 11.5q-32 0 -51 -24.5t-28 -74.5q26 -4 39 -4q52 0 69.5 14.5zM348 672q34 9 34 31q0 13 -22 13q-9 0 -31 -6l12 74q29 9 58 9q86 0 86 -73q0 -91 -150 -132z" />
    <glyph glyph-name="uni1EBC" unicode="&#x1ebc;" horiz-adv-x="604" 
d="M131.5 25q-52.5 31 -52.5 110q0 17 3 38l61 383q29 187 217 187q127 0 304 -15l-26 -164h-248q-30 0 -43 -13.5t-18 -43.5l-7 -47l246 -10l-24 -154l-250 -10l-9 -58q-1 -5 -1 -13q0 -39 47 -39h246l-26 -164q-92 -9 -158.5 -13.5t-141.5 -4.5q-67 0 -119.5 31z
M283 890.5q34 31.5 81 31.5q23 0 42 -4.5t45 -12.5q31 -12 50 -12q28 0 35 36h96q-20 -76 -51 -109t-80 -33q-22 0 -42.5 4.5t-50.5 13.5q-33 11 -45 11q-24 0 -36 -31h-96q18 74 52 105.5z" />
    <glyph glyph-name="uni1EBD" unicode="&#x1ebd;" horiz-adv-x="548" 
d="M116.5 47q-48.5 53 -48.5 156q0 42 9 96q21 132 93 189t194 57q92 0 153 -37t61 -132q0 -108 -57.5 -147t-163.5 -39q-62 0 -97 8q-2 -12 -2 -20q0 -22 24 -32.5t75 -10.5h179l-18 -113q-112 -28 -240 -28q-113 0 -161.5 53zM380.5 309.5q17.5 14.5 17.5 45.5
q0 20 -12 31.5t-35 11.5q-32 0 -51 -24.5t-28 -74.5q26 -4 39 -4q52 0 69.5 14.5zM232 730.5q34 31.5 81 31.5q23 0 42 -4.5t45 -12.5q31 -12 50 -12q28 0 35 36h96q-20 -76 -51 -109t-80 -33q-22 0 -42.5 4.5t-50.5 13.5q-33 11 -45 11q-24 0 -36 -31h-96q18 74 52 105.5z
" />
    <glyph glyph-name="uni1EBE" unicode="&#x1ebe;" horiz-adv-x="604" 
d="M131.5 25q-52.5 31 -52.5 110q0 17 3 38l61 383q29 187 217 187q127 0 304 -15l-26 -164h-248q-30 0 -43 -13.5t-18 -43.5l-7 -47l246 -10l-24 -154l-250 -10l-9 -58q-1 -5 -1 -13q0 -39 47 -39h246l-26 -164q-92 -9 -158.5 -13.5t-141.5 -4.5q-67 0 -119.5 31zM579 1004
h144l-78 -123h-104zM383 907h131l73 -116h-111l-44 31l-55 -31h-112z" />
    <glyph glyph-name="uni1EBF" unicode="&#x1ebf;" horiz-adv-x="548" 
d="M116.5 47q-48.5 53 -48.5 156q0 42 9 96q21 132 93 189t194 57q92 0 153 -37t61 -132q0 -108 -57.5 -147t-163.5 -39q-62 0 -97 8q-2 -12 -2 -20q0 -22 24 -32.5t75 -10.5h179l-18 -113q-112 -28 -240 -28q-113 0 -161.5 53zM380.5 309.5q17.5 14.5 17.5 45.5
q0 20 -12 31.5t-35 11.5q-32 0 -51 -24.5t-28 -74.5q26 -4 39 -4q52 0 69.5 14.5zM528 844h144l-78 -123h-104zM332 747h131l73 -116h-111l-44 31l-55 -31h-112z" />
    <glyph glyph-name="uni1EC0" unicode="&#x1ec0;" horiz-adv-x="604" 
d="M131.5 25q-52.5 31 -52.5 110q0 17 3 38l61 383q29 187 217 187q127 0 304 -15l-26 -164h-248q-30 0 -43 -13.5t-18 -43.5l-7 -47l246 -10l-24 -154l-250 -10l-9 -58q-1 -5 -1 -13q0 -39 47 -39h246l-26 -164q-92 -9 -158.5 -13.5t-141.5 -4.5q-67 0 -119.5 31zM201 1004
h144l-2 -123h-104zM383 907h131l73 -116h-111l-44 31l-55 -31h-112z" />
    <glyph glyph-name="uni1EC1" unicode="&#x1ec1;" horiz-adv-x="548" 
d="M116.5 47q-48.5 53 -48.5 156q0 42 9 96q21 132 93 189t194 57q92 0 153 -37t61 -132q0 -108 -57.5 -147t-163.5 -39q-62 0 -97 8q-2 -12 -2 -20q0 -22 24 -32.5t75 -10.5h179l-18 -113q-112 -28 -240 -28q-113 0 -161.5 53zM380.5 309.5q17.5 14.5 17.5 45.5
q0 20 -12 31.5t-35 11.5q-32 0 -51 -24.5t-28 -74.5q26 -4 39 -4q52 0 69.5 14.5zM150 844h144l-2 -123h-104zM332 747h131l73 -116h-111l-44 31l-55 -31h-112z" />
    <glyph glyph-name="uni1EC2" unicode="&#x1ec2;" horiz-adv-x="604" 
d="M131.5 25q-52.5 31 -52.5 110q0 17 3 38l61 383q29 187 217 187q127 0 304 -15l-26 -164h-248q-30 0 -43 -13.5t-18 -43.5l-7 -47l246 -10l-24 -154l-250 -10l-9 -58q-1 -5 -1 -13q0 -39 47 -39h246l-26 -164q-92 -9 -158.5 -13.5t-141.5 -4.5q-67 0 -119.5 31zM573 922
q13 7 18 13t5 14q0 9 -12 9t-32 -6l12 74q29 9 57 9q35 0 52 -15t17 -46q0 -44 -30.5 -75.5t-98.5 -50.5zM383 907h131l73 -116h-111l-44 31l-55 -31h-112z" />
    <glyph glyph-name="uni1EC3" unicode="&#x1ec3;" horiz-adv-x="548" 
d="M116.5 47q-48.5 53 -48.5 156q0 42 9 96q21 132 93 189t194 57q92 0 153 -37t61 -132q0 -108 -57.5 -147t-163.5 -39q-62 0 -97 8q-2 -12 -2 -20q0 -22 24 -32.5t75 -10.5h179l-18 -113q-112 -28 -240 -28q-113 0 -161.5 53zM380.5 309.5q17.5 14.5 17.5 45.5
q0 20 -12 31.5t-35 11.5q-32 0 -51 -24.5t-28 -74.5q26 -4 39 -4q52 0 69.5 14.5zM522 762q13 7 18 13t5 14q0 9 -12 9t-32 -6l12 74q29 9 57 9q35 0 52 -15t17 -46q0 -44 -30.5 -75.5t-98.5 -50.5zM332 747h131l73 -116h-111l-44 31l-55 -31h-112z" />
    <glyph glyph-name="uni1EC4" unicode="&#x1ec4;" horiz-adv-x="604" 
d="M131.5 25q-52.5 31 -52.5 110q0 17 3 38l61 383q29 187 217 187q127 0 304 -15l-26 -164h-248q-30 0 -43 -13.5t-18 -43.5l-7 -47l246 -10l-24 -154l-250 -10l-9 -58q-1 -5 -1 -13q0 -39 47 -39h246l-26 -164q-92 -9 -158.5 -13.5t-141.5 -4.5q-67 0 -119.5 31z
M321.5 1034.5q30.5 22.5 80.5 22.5q23 0 63 -11q26 -8 36 -8q29 0 34 26h96q-18 -69 -46.5 -93t-80.5 -24q-21 0 -42.5 5.5t-25.5 6.5q-23 7 -32 7q-14 0 -22.5 -6.5t-11.5 -14.5h-96q17 67 47.5 89.5zM384 907h131l72 -116h-111l-44 31l-55 -31h-112z" />
    <glyph glyph-name="uni1EC5" unicode="&#x1ec5;" horiz-adv-x="548" 
d="M116.5 47q-48.5 53 -48.5 156q0 42 9 96q21 132 93 189t194 57q92 0 153 -37t61 -132q0 -108 -57.5 -147t-163.5 -39q-62 0 -97 8q-2 -12 -2 -20q0 -22 24 -32.5t75 -10.5h179l-18 -113q-112 -28 -240 -28q-113 0 -161.5 53zM380.5 309.5q17.5 14.5 17.5 45.5
q0 20 -12 31.5t-35 11.5q-32 0 -51 -24.5t-28 -74.5q26 -4 39 -4q52 0 69.5 14.5zM270.5 874.5q30.5 22.5 80.5 22.5q23 0 63 -11q26 -8 36 -8q29 0 34 26h96q-18 -69 -46.5 -93t-80.5 -24q-21 0 -42.5 5.5t-25.5 6.5q-23 7 -32 7q-14 0 -22.5 -6.5t-11.5 -14.5h-96
q17 67 47.5 89.5zM333 747h131l72 -116h-111l-44 31l-55 -31h-112z" />
    <glyph glyph-name="uni1EC6" unicode="&#x1ec6;" horiz-adv-x="604" 
d="M131.5 25q-52.5 31 -52.5 110q0 17 3 38l61 383q29 187 217 187q127 0 304 -15l-26 -164h-248q-30 0 -43 -13.5t-18 -43.5l-7 -47l246 -10l-24 -154l-250 -10l-9 -58q-1 -5 -1 -13q0 -39 47 -39h246l-26 -164q-92 -9 -158.5 -13.5t-141.5 -4.5q-67 0 -119.5 31zM378 937
h131l68 -146h-111l-39 61l-60 -61h-112zM198.5 -231q-5.5 5 -5.5 14v4l18 111q3 25 27 25h90q20 0 20 -20v-5l-18 -111q-1 -11 -8.5 -17t-18.5 -6h-90q-9 0 -14.5 5z" />
    <glyph glyph-name="uni1EC7" unicode="&#x1ec7;" horiz-adv-x="548" 
d="M116.5 47q-48.5 53 -48.5 156q0 42 9 96q21 132 93 189t194 57q92 0 153 -37t61 -132q0 -108 -57.5 -147t-163.5 -39q-62 0 -97 8q-2 -12 -2 -20q0 -22 24 -32.5t75 -10.5h179l-18 -113q-112 -28 -240 -28q-113 0 -161.5 53zM380.5 309.5q17.5 14.5 17.5 45.5
q0 20 -12 31.5t-35 11.5q-32 0 -51 -24.5t-28 -74.5q26 -4 39 -4q52 0 69.5 14.5zM336 777h131l68 -146h-111l-39 61l-60 -61h-112zM213.5 -231q-5.5 5 -5.5 14v4l18 111q3 25 27 25h90q20 0 20 -20v-5l-18 -111q-1 -11 -8.5 -17t-18.5 -6h-90q-9 0 -14.5 5z" />
    <glyph glyph-name="uni1EC8" unicode="&#x1ec8;" horiz-adv-x="304" 
d="M173 743h194l-118 -743h-194zM269 842q34 9 34 31q0 13 -22 13q-9 0 -31 -6l12 74q29 9 58 9q86 0 86 -73q0 -91 -150 -132z" />
    <glyph glyph-name="uni1EC9" unicode="&#x1ec9;" horiz-adv-x="281" 
d="M130 539h194l-85 -539h-194zM212 672q34 9 34 31q0 13 -22 13q-9 0 -31 -6l12 74q29 9 58 9q86 0 86 -73q0 -91 -150 -132z" />
    <glyph glyph-name="uni1ECA" unicode="&#x1eca;" horiz-adv-x="304" 
d="M173 743h194l-118 -743h-194zM48.5 -231q-5.5 5 -5.5 14v4l18 111q3 25 27 25h90q20 0 20 -20v-5l-18 -111q-1 -11 -8.5 -17t-18.5 -6h-90q-9 0 -14.5 5z" />
    <glyph glyph-name="uni1ECB" unicode="&#x1ecb;" horiz-adv-x="280" 
d="M145.5 613.5q-5.5 6.5 -3.5 16.5l17 111q5 25 28 25h152q11 0 15.5 -7t2.5 -18l-17 -111q-5 -23 -26 -23h-152q-11 0 -16.5 6.5zM129 539h194l-85 -539h-194zM66.5 -231q-5.5 5 -5.5 14v4l18 111q3 25 27 25h90q20 0 20 -20v-5l-18 -111q-1 -11 -8.5 -17t-18.5 -6h-90
q-9 0 -14.5 5z" />
    <glyph glyph-name="uni1ECC" unicode="&#x1ecc;" horiz-adv-x="704" 
d="M206.5 14q-57.5 20 -90.5 74t-33 151q0 69 15 159q22 135 65.5 211t117 108t189.5 32q84 0 141.5 -20.5t91.5 -77t34 -159.5q0 -64 -15 -156q-22 -139 -65.5 -212.5t-115 -101.5t-191.5 -28q-86 0 -143.5 20zM457 190q29 21 45 61.5t27 109.5q14 88 14 129
q0 50 -22.5 67.5t-77.5 17.5q-48 0 -76.5 -17.5t-45.5 -60.5t-30 -124q-14 -84 -14 -124q0 -45 23 -62.5t80 -17.5q48 0 77 21zM249.5 -231q-5.5 5 -5.5 14v4l18 111q3 25 27 25h90q20 0 20 -20v-5l-18 -111q-1 -11 -8.5 -17t-18.5 -6h-90q-9 0 -14.5 5z" />
    <glyph glyph-name="uni1ECD" unicode="&#x1ecd;" horiz-adv-x="579" 
d="M123 43q-55 49 -55 142q0 54 8 104q17 107 52 162t92.5 74.5t154.5 19.5q90 0 137.5 -21t65 -64t17.5 -116q0 -50 -9 -109q-15 -97 -50.5 -149t-94 -72t-152.5 -20q-111 0 -166 49zM353 158q15 9 23.5 32.5t16.5 71.5q9 68 9 91t-12 32t-40 9q-29 0 -44 -10.5
t-23.5 -37.5t-16.5 -84q-6 -40 -6 -68q0 -25 11 -35t38 -10q29 0 44 9zM193.5 -231q-5.5 5 -5.5 14v4l18 111q3 25 27 25h90q20 0 20 -20v-5l-18 -111q-1 -11 -8.5 -17t-18.5 -6h-90q-9 0 -14.5 5z" />
    <glyph glyph-name="uni1ECE" unicode="&#x1ece;" horiz-adv-x="704" 
d="M206.5 14q-57.5 20 -90.5 74t-33 151q0 69 15 159q22 135 65.5 211t117 108t189.5 32q84 0 141.5 -20.5t91.5 -77t34 -159.5q0 -64 -15 -156q-22 -139 -65.5 -212.5t-115 -101.5t-191.5 -28q-86 0 -143.5 20zM457 190q29 21 45 61.5t27 109.5q14 88 14 129
q0 50 -22.5 67.5t-77.5 17.5q-48 0 -76.5 -17.5t-45.5 -60.5t-30 -124q-14 -84 -14 -124q0 -45 23 -62.5t80 -17.5q48 0 77 21zM470 842q34 9 34 31q0 13 -22 13q-9 0 -31 -6l12 74q29 9 58 9q86 0 86 -73q0 -91 -150 -132z" />
    <glyph glyph-name="uni1ECF" unicode="&#x1ecf;" horiz-adv-x="579" 
d="M123 43q-55 49 -55 142q0 54 8 104q17 107 52 162t92.5 74.5t154.5 19.5q90 0 137.5 -21t65 -64t17.5 -116q0 -50 -9 -109q-15 -97 -50.5 -149t-94 -72t-152.5 -20q-111 0 -166 49zM353 158q15 9 23.5 32.5t16.5 71.5q9 68 9 91t-12 32t-40 9q-29 0 -44 -10.5
t-23.5 -37.5t-16.5 -84q-6 -40 -6 -68q0 -25 11 -35t38 -10q29 0 44 9zM348 672q34 9 34 31q0 13 -22 13q-9 0 -31 -6l12 74q29 9 58 9q86 0 86 -73q0 -91 -150 -132z" />
    <glyph glyph-name="uni1ED0" unicode="&#x1ed0;" horiz-adv-x="704" 
d="M206.5 14q-57.5 20 -90.5 74t-33 151q0 69 15 159q22 135 65.5 211t117 108t189.5 32q84 0 141.5 -20.5t91.5 -77t34 -159.5q0 -64 -15 -156q-22 -139 -65.5 -212.5t-115 -101.5t-191.5 -28q-86 0 -143.5 20zM457 190q29 21 45 61.5t27 109.5q14 88 14 129
q0 50 -22.5 67.5t-77.5 17.5q-48 0 -76.5 -17.5t-45.5 -60.5t-30 -124q-14 -84 -14 -124q0 -45 23 -62.5t80 -17.5q48 0 77 21zM630 1004h144l-78 -123h-104zM434 907h131l73 -116h-111l-44 31l-55 -31h-112z" />
    <glyph glyph-name="uni1ED1" unicode="&#x1ed1;" horiz-adv-x="579" 
d="M123 43q-55 49 -55 142q0 54 8 104q17 107 52 162t92.5 74.5t154.5 19.5q90 0 137.5 -21t65 -64t17.5 -116q0 -50 -9 -109q-15 -97 -50.5 -149t-94 -72t-152.5 -20q-111 0 -166 49zM353 158q15 9 23.5 32.5t16.5 71.5q9 68 9 91t-12 32t-40 9q-29 0 -44 -10.5
t-23.5 -37.5t-16.5 -84q-6 -40 -6 -68q0 -25 11 -35t38 -10q29 0 44 9zM528 844h144l-78 -123h-104zM332 747h131l73 -116h-111l-44 31l-55 -31h-112z" />
    <glyph glyph-name="uni1ED2" unicode="&#x1ed2;" horiz-adv-x="704" 
d="M206.5 14q-57.5 20 -90.5 74t-33 151q0 69 15 159q22 135 65.5 211t117 108t189.5 32q84 0 141.5 -20.5t91.5 -77t34 -159.5q0 -64 -15 -156q-22 -139 -65.5 -212.5t-115 -101.5t-191.5 -28q-86 0 -143.5 20zM457 190q29 21 45 61.5t27 109.5q14 88 14 129
q0 50 -22.5 67.5t-77.5 17.5q-48 0 -76.5 -17.5t-45.5 -60.5t-30 -124q-14 -84 -14 -124q0 -45 23 -62.5t80 -17.5q48 0 77 21zM252 1004h144l-2 -123h-104zM434 907h131l73 -116h-111l-44 31l-55 -31h-112z" />
    <glyph glyph-name="uni1ED3" unicode="&#x1ed3;" horiz-adv-x="579" 
d="M123 43q-55 49 -55 142q0 54 8 104q17 107 52 162t92.5 74.5t154.5 19.5q90 0 137.5 -21t65 -64t17.5 -116q0 -50 -9 -109q-15 -97 -50.5 -149t-94 -72t-152.5 -20q-111 0 -166 49zM353 158q15 9 23.5 32.5t16.5 71.5q9 68 9 91t-12 32t-40 9q-29 0 -44 -10.5
t-23.5 -37.5t-16.5 -84q-6 -40 -6 -68q0 -25 11 -35t38 -10q29 0 44 9zM150 844h144l-2 -123h-104zM332 747h131l73 -116h-111l-44 31l-55 -31h-112z" />
    <glyph glyph-name="uni1ED4" unicode="&#x1ed4;" horiz-adv-x="704" 
d="M206.5 14q-57.5 20 -90.5 74t-33 151q0 69 15 159q22 135 65.5 211t117 108t189.5 32q84 0 141.5 -20.5t91.5 -77t34 -159.5q0 -64 -15 -156q-22 -139 -65.5 -212.5t-115 -101.5t-191.5 -28q-86 0 -143.5 20zM457 190q29 21 45 61.5t27 109.5q14 88 14 129
q0 50 -22.5 67.5t-77.5 17.5q-48 0 -76.5 -17.5t-45.5 -60.5t-30 -124q-14 -84 -14 -124q0 -45 23 -62.5t80 -17.5q48 0 77 21zM624 922q13 7 18 13t5 14q0 9 -12 9t-32 -6l12 74q29 9 57 9q35 0 52 -15t17 -46q0 -44 -30.5 -75.5t-98.5 -50.5zM434 907h131l73 -116h-111
l-44 31l-55 -31h-112z" />
    <glyph glyph-name="uni1ED5" unicode="&#x1ed5;" horiz-adv-x="579" 
d="M123 43q-55 49 -55 142q0 54 8 104q17 107 52 162t92.5 74.5t154.5 19.5q90 0 137.5 -21t65 -64t17.5 -116q0 -50 -9 -109q-15 -97 -50.5 -149t-94 -72t-152.5 -20q-111 0 -166 49zM353 158q15 9 23.5 32.5t16.5 71.5q9 68 9 91t-12 32t-40 9q-29 0 -44 -10.5
t-23.5 -37.5t-16.5 -84q-6 -40 -6 -68q0 -25 11 -35t38 -10q29 0 44 9zM522 762q13 7 18 13t5 14q0 9 -12 9t-32 -6l12 74q29 9 57 9q35 0 52 -15t17 -46q0 -44 -30.5 -75.5t-98.5 -50.5zM332 747h131l73 -116h-111l-44 31l-55 -31h-112z" />
    <glyph glyph-name="uni1ED6" unicode="&#x1ed6;" horiz-adv-x="704" 
d="M206.5 14q-57.5 20 -90.5 74t-33 151q0 69 15 159q22 135 65.5 211t117 108t189.5 32q84 0 141.5 -20.5t91.5 -77t34 -159.5q0 -64 -15 -156q-22 -139 -65.5 -212.5t-115 -101.5t-191.5 -28q-86 0 -143.5 20zM457 190q29 21 45 61.5t27 109.5q14 88 14 129
q0 50 -22.5 67.5t-77.5 17.5q-48 0 -76.5 -17.5t-45.5 -60.5t-30 -124q-14 -84 -14 -124q0 -45 23 -62.5t80 -17.5q48 0 77 21zM372.5 1034.5q30.5 22.5 80.5 22.5q23 0 63 -11q26 -8 36 -8q29 0 34 26h96q-18 -69 -46.5 -93t-80.5 -24q-21 0 -42.5 5.5t-25.5 6.5
q-23 7 -32 7q-14 0 -22.5 -6.5t-11.5 -14.5h-96q17 67 47.5 89.5zM435 907h131l72 -116h-111l-44 31l-55 -31h-112z" />
    <glyph glyph-name="uni1ED7" unicode="&#x1ed7;" horiz-adv-x="579" 
d="M123 43q-55 49 -55 142q0 54 8 104q17 107 52 162t92.5 74.5t154.5 19.5q90 0 137.5 -21t65 -64t17.5 -116q0 -50 -9 -109q-15 -97 -50.5 -149t-94 -72t-152.5 -20q-111 0 -166 49zM353 158q15 9 23.5 32.5t16.5 71.5q9 68 9 91t-12 32t-40 9q-29 0 -44 -10.5
t-23.5 -37.5t-16.5 -84q-6 -40 -6 -68q0 -25 11 -35t38 -10q29 0 44 9zM270.5 874.5q30.5 22.5 80.5 22.5q23 0 63 -11q26 -8 36 -8q29 0 34 26h96q-18 -69 -46.5 -93t-80.5 -24q-21 0 -42.5 5.5t-25.5 6.5q-23 7 -32 7q-14 0 -22.5 -6.5t-11.5 -14.5h-96q17 67 47.5 89.5z
M333 747h131l72 -116h-111l-44 31l-55 -31h-112z" />
    <glyph glyph-name="uni1ED8" unicode="&#x1ed8;" horiz-adv-x="704" 
d="M206.5 14q-57.5 20 -90.5 74t-33 151q0 69 15 159q22 135 65.5 211t117 108t189.5 32q84 0 141.5 -20.5t91.5 -77t34 -159.5q0 -64 -15 -156q-22 -139 -65.5 -212.5t-115 -101.5t-191.5 -28q-86 0 -143.5 20zM457 190q29 21 45 61.5t27 109.5q14 88 14 129
q0 50 -22.5 67.5t-77.5 17.5q-48 0 -76.5 -17.5t-45.5 -60.5t-30 -124q-14 -84 -14 -124q0 -45 23 -62.5t80 -17.5q48 0 77 21zM429 937h131l68 -146h-111l-39 61l-60 -61h-112zM249.5 -231q-5.5 5 -5.5 14v4l18 111q3 25 27 25h90q20 0 20 -20v-5l-18 -111q-1 -11 -8.5 -17
t-18.5 -6h-90q-9 0 -14.5 5z" />
    <glyph glyph-name="uni1ED9" unicode="&#x1ed9;" horiz-adv-x="579" 
d="M123 43q-55 49 -55 142q0 54 8 104q17 107 52 162t92.5 74.5t154.5 19.5q90 0 137.5 -21t65 -64t17.5 -116q0 -50 -9 -109q-15 -97 -50.5 -149t-94 -72t-152.5 -20q-111 0 -166 49zM353 158q15 9 23.5 32.5t16.5 71.5q9 68 9 91t-12 32t-40 9q-29 0 -44 -10.5
t-23.5 -37.5t-16.5 -84q-6 -40 -6 -68q0 -25 11 -35t38 -10q29 0 44 9zM336 777h131l68 -146h-111l-39 61l-60 -61h-112zM193.5 -231q-5.5 5 -5.5 14v4l18 111q3 25 27 25h90q20 0 20 -20v-5l-18 -111q-1 -11 -8.5 -17t-18.5 -6h-90q-9 0 -14.5 5z" />
    <glyph glyph-name="uni1EDA" unicode="&#x1eda;" horiz-adv-x="708" 
d="M780.5 727q-31.5 -50 -79.5 -72q36 -59 36 -163q0 -64 -15 -156q-22 -139 -65.5 -212.5t-115 -101.5t-191.5 -28q-86 0 -143.5 20t-90.5 74t-33 151q0 69 15 159q22 135 65.5 211t117 108t189.5 32q45 0 86 -6h51q34 0 55 24.5t30 83.5h132q-12 -74 -43.5 -124zM543 490
q0 50 -22.5 67.5t-77.5 17.5q-48 0 -76.5 -17.5t-45.5 -60.5t-30 -124q-14 -84 -14 -124q0 -45 23 -62.5t80 -17.5q48 0 77 21t45 61.5t27 109.5q14 88 14 129zM463 934h164l-121 -143h-124z" />
    <glyph glyph-name="uni1EDB" unicode="&#x1edb;" horiz-adv-x="579" 
d="M632.5 540.5q-23.5 -45.5 -58.5 -72.5q21 -41 21 -124q0 -50 -9 -109q-15 -97 -50.5 -149t-94 -72t-152.5 -20q-111 0 -166 49t-55 142q0 54 8 104q17 107 52 162t92.5 74.5t154.5 19.5q48 0 82 -6q31 2 50 27.5t27 80.5h132q-10 -61 -33.5 -106.5zM402 353q0 23 -12 32
t-40 9q-29 0 -44 -10.5t-23.5 -37.5t-16.5 -84q-6 -40 -6 -68q0 -25 11 -35t38 -10q29 0 44 9t23.5 32.5t16.5 71.5q9 68 9 91zM368 774h164l-121 -143h-124z" />
    <glyph glyph-name="uni1EDC" unicode="&#x1edc;" horiz-adv-x="708" 
d="M780.5 727q-31.5 -50 -79.5 -72q36 -59 36 -163q0 -64 -15 -156q-22 -139 -65.5 -212.5t-115 -101.5t-191.5 -28q-86 0 -143.5 20t-90.5 74t-33 151q0 69 15 159q22 135 65.5 211t117 108t189.5 32q45 0 86 -6h51q34 0 55 24.5t30 83.5h132q-12 -74 -43.5 -124zM543 490
q0 50 -22.5 67.5t-77.5 17.5q-48 0 -76.5 -17.5t-45.5 -60.5t-30 -124q-14 -84 -14 -124q0 -45 23 -62.5t80 -17.5q48 0 77 21t45 61.5t27 109.5q14 88 14 129zM325 934h154l45 -143h-114z" />
    <glyph glyph-name="uni1EDD" unicode="&#x1edd;" horiz-adv-x="579" 
d="M632.5 540.5q-23.5 -45.5 -58.5 -72.5q21 -41 21 -124q0 -50 -9 -109q-15 -97 -50.5 -149t-94 -72t-152.5 -20q-111 0 -166 49t-55 142q0 54 8 104q17 107 52 162t92.5 74.5t154.5 19.5q48 0 82 -6q31 2 50 27.5t27 80.5h132q-10 -61 -33.5 -106.5zM402 353q0 23 -12 32
t-40 9q-29 0 -44 -10.5t-23.5 -37.5t-16.5 -84q-6 -40 -6 -68q0 -25 11 -35t38 -10q29 0 44 9t23.5 32.5t16.5 71.5q9 68 9 91zM220 774h154l45 -143h-114z" />
    <glyph glyph-name="uni1EDE" unicode="&#x1ede;" horiz-adv-x="708" 
d="M780.5 727q-31.5 -50 -79.5 -72q36 -59 36 -163q0 -64 -15 -156q-22 -139 -65.5 -212.5t-115 -101.5t-191.5 -28q-86 0 -143.5 20t-90.5 74t-33 151q0 69 15 159q22 135 65.5 211t117 108t189.5 32q45 0 86 -6h51q34 0 55 24.5t30 83.5h132q-12 -74 -43.5 -124zM543 490
q0 50 -22.5 67.5t-77.5 17.5q-48 0 -76.5 -17.5t-45.5 -60.5t-30 -124q-14 -84 -14 -124q0 -45 23 -62.5t80 -17.5q48 0 77 21t45 61.5t27 109.5q14 88 14 129zM441 842q34 9 34 31q0 13 -22 13q-9 0 -31 -6l12 74q29 9 58 9q86 0 86 -73q0 -91 -150 -132z" />
    <glyph glyph-name="uni1EDF" unicode="&#x1edf;" horiz-adv-x="579" 
d="M632.5 540.5q-23.5 -45.5 -58.5 -72.5q21 -41 21 -124q0 -50 -9 -109q-15 -97 -50.5 -149t-94 -72t-152.5 -20q-111 0 -166 49t-55 142q0 54 8 104q17 107 52 162t92.5 74.5t154.5 19.5q48 0 82 -6q31 2 50 27.5t27 80.5h132q-10 -61 -33.5 -106.5zM402 353q0 23 -12 32
t-40 9q-29 0 -44 -10.5t-23.5 -37.5t-16.5 -84q-6 -40 -6 -68q0 -25 11 -35t38 -10q29 0 44 9t23.5 32.5t16.5 71.5q9 68 9 91zM316 672q34 9 34 31q0 13 -22 13q-9 0 -31 -6l12 74q29 9 58 9q86 0 86 -73q0 -91 -150 -132z" />
    <glyph glyph-name="uni1EE0" unicode="&#x1ee0;" horiz-adv-x="708" 
d="M780.5 727q-31.5 -50 -79.5 -72q36 -59 36 -163q0 -64 -15 -156q-22 -139 -65.5 -212.5t-115 -101.5t-191.5 -28q-86 0 -143.5 20t-90.5 74t-33 151q0 69 15 159q22 135 65.5 211t117 108t189.5 32q45 0 86 -6h51q34 0 55 24.5t30 83.5h132q-12 -74 -43.5 -124zM543 490
q0 50 -22.5 67.5t-77.5 17.5q-48 0 -76.5 -17.5t-45.5 -60.5t-30 -124q-14 -84 -14 -124q0 -45 23 -62.5t80 -17.5q48 0 77 21t45 61.5t27 109.5q14 88 14 129zM305 890.5q34 31.5 81 31.5q23 0 42 -4.5t45 -12.5q31 -12 50 -12q28 0 35 36h96q-20 -76 -51 -109t-80 -33
q-22 0 -42.5 4.5t-50.5 13.5q-33 11 -45 11q-24 0 -36 -31h-96q18 74 52 105.5z" />
    <glyph glyph-name="uni1EE1" unicode="&#x1ee1;" horiz-adv-x="579" 
d="M632.5 540.5q-23.5 -45.5 -58.5 -72.5q21 -41 21 -124q0 -50 -9 -109q-15 -97 -50.5 -149t-94 -72t-152.5 -20q-111 0 -166 49t-55 142q0 54 8 104q17 107 52 162t92.5 74.5t154.5 19.5q48 0 82 -6q31 2 50 27.5t27 80.5h132q-10 -61 -33.5 -106.5zM402 353q0 23 -12 32
t-40 9q-29 0 -44 -10.5t-23.5 -37.5t-16.5 -84q-6 -40 -6 -68q0 -25 11 -35t38 -10q29 0 44 9t23.5 32.5t16.5 71.5q9 68 9 91zM200 730.5q34 31.5 81 31.5q23 0 42 -4.5t45 -12.5q31 -12 50 -12q28 0 35 36h96q-20 -76 -51 -109t-80 -33q-22 0 -42.5 4.5t-50.5 13.5
q-33 11 -45 11q-24 0 -36 -31h-96q18 74 52 105.5z" />
    <glyph glyph-name="uni1EE2" unicode="&#x1ee2;" horiz-adv-x="708" 
d="M780.5 727q-31.5 -50 -79.5 -72q36 -59 36 -163q0 -64 -15 -156q-22 -139 -65.5 -212.5t-115 -101.5t-191.5 -28q-86 0 -143.5 20t-90.5 74t-33 151q0 69 15 159q22 135 65.5 211t117 108t189.5 32q45 0 86 -6h51q34 0 55 24.5t30 83.5h132q-12 -74 -43.5 -124zM543 490
q0 50 -22.5 67.5t-77.5 17.5q-48 0 -76.5 -17.5t-45.5 -60.5t-30 -124q-14 -84 -14 -124q0 -45 23 -62.5t80 -17.5q48 0 77 21t45 61.5t27 109.5q14 88 14 129zM244.5 -231q-5.5 5 -5.5 14v4l18 111q3 25 27 25h90q20 0 20 -20v-5l-18 -111q-1 -11 -8.5 -17t-18.5 -6h-90
q-9 0 -14.5 5z" />
    <glyph glyph-name="uni1EE3" unicode="&#x1ee3;" horiz-adv-x="579" 
d="M632.5 540.5q-23.5 -45.5 -58.5 -72.5q21 -41 21 -124q0 -50 -9 -109q-15 -97 -50.5 -149t-94 -72t-152.5 -20q-111 0 -166 49t-55 142q0 54 8 104q17 107 52 162t92.5 74.5t154.5 19.5q48 0 82 -6q31 2 50 27.5t27 80.5h132q-10 -61 -33.5 -106.5zM402 353q0 23 -12 32
t-40 9q-29 0 -44 -10.5t-23.5 -37.5t-16.5 -84q-6 -40 -6 -68q0 -25 11 -35t38 -10q29 0 44 9t23.5 32.5t16.5 71.5q9 68 9 91zM207.5 -231q-5.5 5 -5.5 14v4l18 111q3 25 27 25h90q20 0 20 -20v-5l-18 -111q-1 -11 -8.5 -17t-18.5 -6h-90q-9 0 -14.5 5z" />
    <glyph glyph-name="uni1EE4" unicode="&#x1ee4;" horiz-adv-x="696" 
d="M159.5 50.5q-62.5 56.5 -62.5 177.5q0 40 13 122l63 393h194l-67 -423q-1 -10 -5 -34.5t-4 -40.5q0 -39 20 -58t67 -19q36 0 58.5 13.5t37.5 46t24 92.5l67 423h194l-72 -453q-19 -122 -61.5 -186t-107.5 -87t-168 -23q-128 0 -190.5 56.5zM240.5 -231q-5.5 5 -5.5 14v4
l18 111q3 25 27 25h90q20 0 20 -20v-5l-18 -111q-1 -11 -8.5 -17t-18.5 -6h-90q-9 0 -14.5 5z" />
    <glyph glyph-name="uni1EE5" unicode="&#x1ee5;" horiz-adv-x="600" 
d="M67 122q0 36 5 69l55 348h194l-50 -321q-1 -5 -1 -15q0 -35 42 -35q45 0 82 37l53 334h194l-85 -539h-174l-12 52q-44 -32 -80.5 -45t-93.5 -13q-129 0 -129 128zM217.5 -231q-5.5 5 -5.5 14v4l18 111q3 25 27 25h90q20 0 20 -20v-5l-18 -111q-1 -11 -8.5 -17t-18.5 -6
h-90q-9 0 -14.5 5z" />
    <glyph glyph-name="uni1EE6" unicode="&#x1ee6;" horiz-adv-x="696" 
d="M159.5 50.5q-62.5 56.5 -62.5 177.5q0 40 13 122l63 393h194l-67 -423q-1 -10 -5 -34.5t-4 -40.5q0 -39 20 -58t67 -19q36 0 58.5 13.5t37.5 46t24 92.5l67 423h194l-72 -453q-19 -122 -61.5 -186t-107.5 -87t-168 -23q-128 0 -190.5 56.5zM461 842q34 9 34 31
q0 13 -22 13q-9 0 -31 -6l12 74q29 9 58 9q86 0 86 -73q0 -91 -150 -132z" />
    <glyph glyph-name="uni1EE7" unicode="&#x1ee7;" horiz-adv-x="600" 
d="M67 122q0 36 5 69l55 348h194l-50 -321q-1 -5 -1 -15q0 -35 42 -35q45 0 82 37l53 334h194l-85 -539h-174l-12 52q-44 -32 -80.5 -45t-93.5 -13q-129 0 -129 128zM372 672q34 9 34 31q0 13 -22 13q-9 0 -31 -6l12 74q29 9 58 9q86 0 86 -73q0 -91 -150 -132z" />
    <glyph glyph-name="uni1EE8" unicode="&#x1ee8;" horiz-adv-x="692" 
d="M816 734.5q-28 -48.5 -70 -72.5l-59 -372q-19 -122 -61.5 -186t-107.5 -87t-168 -23q-128 0 -190.5 56.5t-62.5 177.5q0 40 13 122l63 393h194l-67 -423q-1 -10 -5 -34.5t-4 -40.5q0 -39 20 -58t67 -19q36 0 58.5 13.5t37.5 46t24 92.5l67 423h73q34 0 55 24.5t30 83.5
h132q-11 -68 -39 -116.5zM467 934h164l-121 -143h-124z" />
    <glyph glyph-name="uni1EE9" unicode="&#x1ee9;" horiz-adv-x="600" 
d="M696.5 532q-27.5 -48 -68.5 -73l-72 -459h-174l-12 52q-44 -32 -80.5 -45t-93.5 -13q-129 0 -129 128q0 36 5 69l55 348h194l-50 -321q-1 -5 -1 -15q0 -35 42 -35q45 0 82 37l53 334h71q34 0 55 24.5t30 83.5h132q-11 -67 -38.5 -115zM389 774h164l-121 -143h-124z" />
    </font>
</defs>
</svg>
