<?xml version="1.0" encoding="utf-8"?>
<!-- Generator: Adobe Illustrator 23.0.0, SVG Export Plug-In . SVG Version: 6.00 Build 0)  -->
<svg version="1.1" id="Layer_1" xmlns="http://www.w3.org/2000/svg" xmlns:xlink="http://www.w3.org/1999/xlink" x="0px" y="0px"
	 viewBox="0 0 192 192" style="enable-background:new 0 0 192 192;" xml:space="preserve">
<style type="text/css">
	.st0{fill:none;stroke:#FFFFFF;stroke-miterlimit:10;}
	.st1{fill:#F89521;}
</style>
<circle class="st0" cx="96" cy="96" r="95"/>
<g>
	<path class="st1" d="M135.5,76.2c1.5-1.5,1.9-3.7,1.1-5.7c-0.8-2-2.7-3.2-4.8-3.2h-24.8v-4.1c0-0.8-0.6-1.4-1.4-1.4h-8.2
		c-0.8,0-1.4,0.6-1.4,1.4v4.1H74.1c-0.8,0-1.4,0.6-1.4,1.4V70h-5.5c-0.4,0-0.7,0.1-1,0.4l-2.5,2.5L60,74.2c-0.6,0.2-0.9,0.7-0.9,1.3
		H55v2.7h4.1c0,0.6,0.4,1.1,0.9,1.3l3.8,1.3l2.5,2.5c0.3,0.3,0.6,0.4,1,0.4h5.5v1.4c0,0.8,0.6,1.4,1.4,1.4h1.4V96h-2.7
		c-0.5,0-1,0.3-1.2,0.8c-0.2,0.5-0.2,1,0.2,1.5l1.8,2.2c-1.4,8.1-1.4,16.4-0.1,24.5l0.7,4.1c0.1,0.7,0.7,1.1,1.3,1.1h8.2
		c0.7,0,1.2-0.5,1.3-1.1l0.7-4.1c1.4-8.1,1.3-16.4-0.1-24.5l1.8-2.2c0.3-0.4,0.4-1,0.2-1.5C87.4,96.3,87,96,86.4,96h-2.7v-9.6h5.9
		l2.4,6.5c1,2.7,3.6,4.4,6.4,4.4H109l1.6,2c2,2.5,3.1,5.7,3.1,8.9c0,0.8,0.6,1.4,1.4,1.4h4.1v14.6l-1.1,1.6
		c-0.6,0.8-0.6,1.9-0.1,2.8c0.5,0.9,1.4,1.4,2.4,1.4h9.7c3.8,0,6.8-3.1,6.8-6.8v-13.4c0-9.4-1.5-18.7-4.5-27.5
		c-0.5-1.5-0.1-3.1,1-4.2L135.5,76.2z M98.7,64.6h5.5v2.7h-5.5V64.6z M75.5,70h8.2v2.7h-5.5v2.7h5.5v2.7h-5.5V81h5.5v2.7h-8.2V70z
		 M61.8,76.5l1.4-0.5v1.7l-1.4-0.5V76.5z M67.9,81L65.9,79v-4.3l1.9-1.9h4.9V81H67.9z M83.4,122h-3.8v2.7H83l-0.5,2.7h-5.9l-0.5-2.9
		c-1.3-8-1.3-16.2,0.2-24.2c0.1-0.4,0-0.8-0.3-1.1l-0.4-0.5h7.9l-0.4,0.5c-0.3,0.3-0.4,0.7-0.3,1.1C84.1,107.5,84.3,114.8,83.4,122
		L83.4,122z M81,96h-2.7v-9.6H81V96z M116.4,106.9c-0.3-3.3-1.5-6.4-3.5-9l0.1,0c0.4,0.2,0.8,0.3,1.2,0.5c0,0,0.1,0,0.1,0.1
		c0.3,0.2,0.7,0.4,1,0.6c0.1,0.1,0.2,0.1,0.2,0.2c0.3,0.3,0.6,0.5,0.9,0.8c0.1,0.1,0.1,0.1,0.2,0.2c0.3,0.3,0.5,0.6,0.7,0.9
		c0,0.1,0.1,0.1,0.1,0.2c0.2,0.3,0.5,0.7,0.6,1.1c0,0.1,0.1,0.2,0.1,0.2c0.2,0.3,0.3,0.7,0.4,1.1c0,0.1,0,0.1,0.1,0.2
		c0.1,0.4,0.2,0.8,0.3,1.3c0,0.1,0,0.2,0,0.3c0.1,0.4,0.1,0.9,0.1,1.3H116.4z M129.9,83.3c2.9,8.6,4.3,17.6,4.3,26.7v13.4
		c0,2.3-1.8,4.1-4.1,4.1h-9.7l1.3-2c0.1-0.2,0.2-0.5,0.2-0.8v-17.8c0-6.8-5.5-12.3-12.3-12.3H98.4c-1.7,0-3.2-1.1-3.8-2.7l-2.7-7.2
		V81h-2.7v2.7h-2.7V70H111v2.7h2.7V70h2.7v2.7h2.7V70h2.7v2.7h2.7V70h2.7v2.7h2.7V70h1.6c1,0,1.9,0.6,2.3,1.5c0.4,0.9,0.2,2-0.5,2.7
		l-1.9,1.9C129.7,78.1,129.1,80.8,129.9,83.3L129.9,83.3z M129.9,83.3"/>
	<rect x="97.4" y="78.2" class="st1" width="2.7" height="8.2"/>
	<rect x="102.8" y="78.2" class="st1" width="2.7" height="8.2"/>
	<rect x="108.3" y="78.2" class="st1" width="2.7" height="8.2"/>
	<path class="st1" d="M122,87.8c-2.3,0-4.1,1.8-4.1,4.1c0,2.3,1.8,4.1,4.1,4.1c2.3,0,4.1-1.8,4.1-4.1
		C126.1,89.6,124.2,87.8,122,87.8L122,87.8z M122,93.3c-0.8,0-1.4-0.6-1.4-1.4c0-0.8,0.6-1.4,1.4-1.4c0.8,0,1.4,0.6,1.4,1.4
		C123.3,92.7,122.7,93.3,122,93.3L122,93.3z M122,93.3"/>
</g>
</svg>
