<?xml version="1.0" encoding="utf-8"?>
<!-- Generator: Adobe Illustrator 23.0.0, SVG Export Plug-In . SVG Version: 6.00 Build 0)  -->
<svg version="1.1" id="Layer_1" xmlns="http://www.w3.org/2000/svg" xmlns:xlink="http://www.w3.org/1999/xlink" x="0px" y="0px"
	 viewBox="0 0 192 192" style="enable-background:new 0 0 192 192;" xml:space="preserve">
<style type="text/css">
	.st0{fill:#F89521;}
	.st1{fill:none;stroke:#FFFFFF;stroke-miterlimit:10;}
</style>
<g>
	<g>
		<path class="st0" d="M135,66.3c-0.2-0.3-0.6-0.5-1-0.3l-3.5,2c-0.3,0.2-0.5,0.6-0.3,1c0.2,0.3,0.6,0.5,1,0.3l3.5-2
			C135.1,67.1,135.2,66.7,135,66.3L135,66.3z M135,66.3"/>
		<path class="st0" d="M134.7,84.8l-3.5-2c-0.3-0.2-0.8-0.1-1,0.3c-0.2,0.3-0.1,0.8,0.3,1l3.5,2c0.3,0.2,0.8,0.1,1-0.3
			C135.2,85.5,135.1,85,134.7,84.8L134.7,84.8z M134.7,84.8"/>
		<path class="st0" d="M118.2,90.1c-0.4,0-0.7,0.3-0.8,0.7c0,0,0,0.1,0,0.1v4c0,0.4,0.3,0.7,0.7,0.8c0.4,0,0.7-0.3,0.8-0.7
			c0,0,0-0.1,0-0.1v-4C118.9,90.4,118.6,90.1,118.2,90.1L118.2,90.1z M118.2,90.1"/>
		<path class="st0" d="M105.7,68.1l-3.5-2c-0.3-0.2-0.8-0.1-1,0.3c-0.2,0.3-0.1,0.8,0.3,1l3.5,2c0.3,0.2,0.8,0.1,1-0.3
			C106.1,68.7,106,68.3,105.7,68.1L105.7,68.1z M105.7,68.1"/>
		<path class="st0" d="M118.2,56.5c-0.4,0-0.7,0.3-0.8,0.7c0,0,0,0.1,0,0.1v4c0,0.4,0.3,0.7,0.7,0.7c0.4,0,0.7-0.3,0.7-0.7v-4
			C118.9,56.9,118.6,56.6,118.2,56.5L118.2,56.5z M118.2,56.5"/>
		<path class="st0" d="M111.3,62.9l-2-3.5c-0.2-0.3-0.6-0.5-1-0.3c-0.3,0.2-0.5,0.6-0.3,1l2,3.5c0.2,0.3,0.6,0.5,1,0.3
			C111.4,63.7,111.5,63.3,111.3,62.9L111.3,62.9z M111.3,62.9"/>
		<path class="st0" d="M118.2,69.7c0,0-0.1,0-0.1,0c-3.5,0-6.3,2.8-6.3,6.3c0,0.4,0.3,0.7,0.7,0.7c0.4,0,0.7-0.3,0.7-0.7
			c0-2.7,2.2-4.9,4.9-4.9c0,0,0,0,0,0c0.4,0,0.7-0.3,0.8-0.7C118.9,70.1,118.6,69.8,118.2,69.7L118.2,69.7z M118.2,69.7"/>
		<path class="st0" d="M137.5,76c0-0.4-0.3-0.6-0.7-0.7h-4c-0.4,0-0.7,0.3-0.8,0.7c0,0.4,0.3,0.7,0.7,0.8c0,0,0.1,0,0.1,0h4
			C137.3,76.7,137.6,76.4,137.5,76L137.5,76z M137.5,76"/>
		<path class="st0" d="M103.5,75.4c0,0-0.1,0-0.1,0h-4c-0.4,0-0.7,0.4-0.7,0.8c0,0.4,0.3,0.6,0.7,0.7h4c0.4,0,0.7-0.3,0.8-0.7
			C104.1,75.7,103.9,75.4,103.5,75.4L103.5,75.4z M103.5,75.4"/>
		<path class="st0" d="M118.1,65.6c-5.8,0-10.4,4.7-10.5,10.4c0,2.8,1.1,5.4,3.1,7.4c2,2,4.6,3.1,7.4,3.1c5.8,0,10.5-4.7,10.5-10.4
			C128.6,70.3,123.9,65.6,118.1,65.6L118.1,65.6z M124.5,82.5c-3.5,3.5-9.2,3.5-12.8,0c-1.7-1.7-2.6-4-2.6-6.4
			c0-2.4,0.9-4.7,2.6-6.4v0c3.5-3.5,9.2-3.5,12.8,0C128,73.2,128,78.9,124.5,82.5L124.5,82.5z M124.5,82.5"/>
		<path class="st0" d="M128.1,92C128.1,91.9,128.1,91.9,128.1,92l-2-3.5c-0.2-0.3-0.6-0.5-1-0.3c-0.3,0.2-0.5,0.6-0.3,1l2,3.5
			c0.2,0.3,0.6,0.5,1,0.3C128.2,92.7,128.3,92.3,128.1,92L128.1,92z M128.1,92"/>
		<path class="st0" d="M127.9,59.2c-0.3-0.2-0.8-0.1-1,0.3l-2,3.5c-0.2,0.3-0.1,0.8,0.3,1c0,0,0,0,0,0c0.3,0.2,0.8,0.1,1-0.3
			c0,0,0,0,0,0l2-3.5C128.3,59.8,128.2,59.4,127.9,59.2L127.9,59.2z M127.9,59.2"/>
		<path class="st0" d="M111.1,88.2c-0.3-0.2-0.8-0.1-1,0.3l-2,3.5c-0.2,0.3-0.1,0.8,0.3,1c0.3,0.2,0.8,0.1,1-0.3l2-3.5
			C111.5,88.9,111.4,88.4,111.1,88.2L111.1,88.2z M111.1,88.2"/>
		<path class="st0" d="M105.9,83.1c-0.2-0.3-0.6-0.5-1-0.3l-3.5,2c-0.3,0.2-0.5,0.6-0.3,1c0.2,0.3,0.6,0.5,1,0.3l3.5-2
			C106,83.9,106.1,83.4,105.9,83.1L105.9,83.1z M105.9,83.1"/>
	</g>
	<g>
		<path class="st0" d="M85.6,123.5c-0.2-0.1-0.4-0.1-0.6-0.1l-4.5,1.5l-2.7-1.6l3.1-1.1c0.2-0.1,0.3-0.2,0.4-0.3l0-0.1
			c0.2-0.4,0.1-0.8-0.3-1c-0.2-0.1-0.4-0.1-0.6-0.1l-4.5,1.5l-2.5-1.4v-1.3l2.5-1.4l4.5,1.5c0.2,0.1,0.4,0,0.6-0.1
			c0.4-0.2,0.5-0.7,0.3-1l0-0.1c-0.1-0.2-0.2-0.3-0.4-0.3l-3.1-1.1l2.7-1.6L85,117c0.2,0.1,0.4,0,0.6-0.1c0.4-0.2,0.5-0.7,0.3-1
			l0-0.1c-0.1-0.2-0.2-0.3-0.4-0.3l-3.1-1.1l1.5-0.9c0.5-0.3,0.7-1,0.4-1.5c-0.3-0.5-1-0.7-1.5-0.4l-1.5,0.9l0.6-3.2
			c0-0.2,0-0.4-0.1-0.5l0-0.1c-0.2-0.4-0.7-0.5-1-0.3c-0.2,0.1-0.3,0.3-0.4,0.5l-1,4.6l-2.7,1.6l0.6-3.2c0-0.2,0-0.4-0.1-0.5l0-0.1
			c-0.2-0.4-0.7-0.5-1-0.3c-0.2,0.1-0.3,0.3-0.4,0.5l-1,4.6l-1.8,1l-1.8-0.9v-2.2l3.5-3.1c0.2-0.1,0.3-0.3,0.3-0.6
			c0-0.4-0.3-0.7-0.7-0.7h-0.1c-0.2,0-0.4,0.1-0.5,0.2l-2.5,2.1V109l3.5-3.1c0.2-0.1,0.3-0.3,0.3-0.6c0-0.4-0.3-0.7-0.7-0.7h-0.1
			c-0.2,0-0.4,0.1-0.5,0.2l-2.5,2.1v-1.8c0-0.6-0.5-1.1-1.1-1.1c-0.6,0-1.1,0.5-1.1,1.1v1.8l-2.5-2.1c-0.1-0.1-0.3-0.2-0.5-0.2h-0.1
			c-0.4,0-0.7,0.3-0.7,0.7c0,0.2,0.1,0.4,0.3,0.6l3.5,3.1v3.2l-2.5-2.1c-0.1-0.1-0.3-0.2-0.5-0.2h-0.1c-0.4,0-0.7,0.3-0.7,0.7
			c0,0.2,0.1,0.4,0.3,0.6l3.5,3.1v2.2l-1.8,0.9l-1.8-1l-1-4.6c0-0.2-0.2-0.4-0.4-0.5c-0.4-0.2-0.8-0.1-1,0.3l0,0.1
			c-0.1,0.2-0.1,0.3-0.1,0.5l0.6,3.2l-2.7-1.6l-1-4.6c0-0.2-0.2-0.4-0.4-0.5c-0.4-0.2-0.8-0.1-1,0.3l0,0.1c-0.1,0.2-0.1,0.3-0.1,0.5
			l0.6,3.2l-1.5-0.9c-0.5-0.3-1.2-0.1-1.5,0.4c-0.3,0.5-0.1,1.2,0.4,1.5l1.5,0.9l-3.1,1.1c-0.2,0.1-0.3,0.2-0.4,0.3l0,0.1
			c-0.2,0.4-0.1,0.8,0.3,1c0.2,0.1,0.4,0.1,0.6,0.1l4.5-1.5l2.7,1.6l-3.1,1.1c-0.2,0.1-0.3,0.2-0.4,0.3l0,0.1
			c-0.2,0.4-0.1,0.8,0.3,1c0.2,0.1,0.4,0.1,0.6,0.1l4.5-1.5l2.5,1.4v1.3l-2.5,1.4l-4.5-1.5c-0.2-0.1-0.4,0-0.6,0.1
			c-0.4,0.2-0.5,0.7-0.3,1l0,0.1c0.1,0.2,0.2,0.3,0.4,0.3l3.1,1.1l-2.7,1.6l-4.5-1.5c-0.2-0.1-0.4,0-0.6,0.1c-0.4,0.2-0.5,0.7-0.3,1
			l0,0.1c0.1,0.2,0.2,0.3,0.4,0.3l3.1,1.1l-1.5,0.9c-0.5,0.3-0.7,1-0.4,1.5c0.3,0.5,1,0.7,1.5,0.4l1.5-0.9l-0.6,3.2
			c0,0.2,0,0.4,0.1,0.5l0,0.1c0.2,0.4,0.7,0.5,1,0.3c0.2-0.1,0.3-0.3,0.4-0.5l1-4.6l2.7-1.6l-0.6,3.2c0,0.2,0,0.4,0.1,0.5l0,0.1
			c0.2,0.4,0.7,0.5,1,0.3c0.2-0.1,0.3-0.3,0.4-0.5l1-4.6l1.8-1l1.8,0.9v2.2l-3.5,3.1c-0.2,0.1-0.3,0.3-0.3,0.6
			c0,0.4,0.3,0.7,0.7,0.7h0.1c0.2,0,0.4-0.1,0.5-0.2l2.5-2.1v3.2l-3.5,3.1c-0.2,0.1-0.3,0.3-0.3,0.6c0,0.4,0.3,0.7,0.7,0.7h0.1
			c0.2,0,0.4-0.1,0.5-0.2l2.5-2.1v1.8c0,0.6,0.5,1.1,1.1,1.1c0.6,0,1.1-0.5,1.1-1.1v-1.8l2.5,2.1c0.1,0.1,0.3,0.2,0.5,0.2h0.1
			c0.4,0,0.7-0.3,0.7-0.7c0-0.2-0.1-0.4-0.3-0.6l-3.5-3.1v-3.2l2.5,2.1c0.1,0.1,0.3,0.2,0.5,0.2h0.1c0.4,0,0.7-0.3,0.7-0.7
			c0-0.2-0.1-0.4-0.3-0.6l-3.5-3.1V124l1.8-0.9l1.8,1l1,4.6c0,0.2,0.2,0.4,0.4,0.5c0.4,0.2,0.8,0.1,1-0.3l0-0.1
			c0.1-0.2,0.1-0.3,0.1-0.5l-0.6-3.2l2.7,1.6l1,4.6c0,0.2,0.2,0.4,0.4,0.5c0.4,0.2,0.8,0.1,1-0.3l0-0.1c0.1-0.2,0.1-0.3,0.1-0.5
			l-0.6-3.2l1.5,0.9c0.5,0.3,1.2,0.1,1.5-0.4c0.3-0.5,0.1-1.2-0.4-1.5l-1.5-0.9l3.1-1.1c0.2-0.1,0.3-0.2,0.4-0.3l0-0.1
			C86.1,124.2,86,123.7,85.6,123.5L85.6,123.5z M71.3,121.3l-1.1,0.5l-1.1-0.5v-2.2l1.1-0.5l1.1,0.5V121.3z M71.3,121.3"/>
	</g>
	<g>
		<path class="st0" d="M132,114.9c0.9-4.7,1-8.5,1-8.6c0-0.2-0.1-0.5-0.3-0.6c-0.2-0.2-0.4-0.3-0.6-0.3c-0.2,0-3.9,0-8.6,1
			c-1.7,0.3-3.3,0.8-4.8,1.2c0,0,0,0,0,0c-1,0.3-1.9,0.7-2.8,1c-1.1,0.5-2.1,1-3,1.5c0,0-0.1,0-0.1,0c-1.5,0.9-2.8,1.9-3.9,3
			c-2.2,2.2-3.4,5.1-3.4,8.1c0,2.8,1,5.4,2.8,7.5l-4.8,4.8c-0.3,0.3-0.3,0.9,0,1.2c0.2,0.2,0.4,0.3,0.6,0.3c0.2,0,0.4-0.1,0.6-0.3
			l4.8-4.8c2.1,1.8,4.7,2.8,7.5,2.8c3.1,0,5.9-1.2,8.1-3.4c1.1-1.1,2.1-2.4,3-3.9c0,0,0-0.1,0-0.1c0.5-0.9,1-1.9,1.5-3
			c0.4-0.9,0.7-1.8,1-2.8c0,0,0,0,0,0C131.3,118.2,131.7,116.6,132,114.9L132,114.9z M123.8,108.1c3.2-0.6,6-0.8,7.4-0.9
			c-0.1,1.4-0.3,4.2-0.9,7.4c-0.2,1.2-0.6,2.6-1,4l-8.2,0l5.1-5.1c0.3-0.3,0.3-0.9,0-1.2c-0.3-0.3-0.9-0.3-1.2,0l-5.1,5.1v-8.2
			C121.2,108.6,122.6,108.3,123.8,108.1L123.8,108.1z M126.9,124.2h-11.5l3.9-3.9h9.4C128.2,121.6,127.6,122.9,126.9,124.2
			L126.9,124.2z M118.1,109.7v9.4l-3.9,3.9v-11.5C115.5,110.7,116.8,110.1,118.1,109.7L118.1,109.7z M107.3,121.3c0-2.6,1-5,2.9-6.9
			c0.7-0.7,1.5-1.3,2.3-1.9l0,12.2l-2.9,2.9C108.1,125.8,107.3,123.6,107.3,121.3L107.3,121.3z M124,128.2c-1.8,1.8-4.3,2.9-6.9,2.9
			c-2.3,0-4.5-0.8-6.2-2.3l2.9-2.9h12.2C125.3,126.7,124.7,127.5,124,128.2L124,128.2z M124,128.2"/>
	</g>
	<g>
		<path class="st0" d="M69.3,84.1c0.1-1,0.2-1.8,0.3-2.2c0.2-1.1,0.5-2.2,0.6-3c1.8-0.1,3.2-1.6,3.2-3.4c0-0.2,0-0.5-0.1-0.7
			c0.1,0.1,0.2,0.3,0.3,0.4c1.3,1.3,3.5,1.3,4.8,0c1.3-1.3,1.3-3.3,0.1-4.6c1.8,0,3.3-1.5,3.3-3.4c0-1.9-1.5-3.4-3.4-3.4
			c-0.2,0-0.3,0-0.5,0c0.1-0.1,0.2-0.1,0.3-0.2c1.3-1.3,1.3-3.5,0-4.8c-1.3-1.3-3.5-1.3-4.8,0c-0.1,0.1-0.2,0.2-0.3,0.4
			c0-0.1,0-0.2,0-0.3c0-1.9-1.5-3.4-3.4-3.4c-1.8,0-3.3,1.4-3.4,3.2c-1.3-1.2-3.4-1.2-4.7,0.1c-1.3,1.3-1.3,3.5,0,4.8
			c0.1,0.1,0.3,0.3,0.5,0.4c-0.1,0-0.3,0-0.4,0c-1.9,0-3.4,1.5-3.4,3.4c0,1.9,1.5,3.4,3.3,3.4c-1.3,1.3-1.3,3.4,0,4.7
			c1.3,1.3,3.4,1.3,4.7,0c0,0,0,0,0,0c0,1.6,1.1,2.9,2.5,3.2c-0.1,0.8-0.3,1.8-0.6,2.9c-0.3,1.4-0.6,3-0.8,4.5c0,0,0,0,0-0.1
			c-1.3-4.4-6.7-6-9.2-3.5c2.1,3.5,4.4,5.9,9,5.9c0,0.5,0,6.8,0,7.4h1.1c0.1-1.8,0.3-5.4,0.5-8.5c0,0,0,0,0-0.1c0,0,0,0,0,0
			c2-2.2,4.4-4.3,7.2-5.1c-1.9,0.7-4.1,2.1-6.7,5.5c-0.2,0.2-0.3,0.4-0.4,0.6c6.4,0,9.9-3.3,12.8-8.3C78.8,76.7,71.5,78.3,69.3,84.1
			L69.3,84.1z M67.5,88.3c-1.2-1.8-2.9-3.5-5-4.2c1.3,0.3,2.9,1.1,5,3.5C67.5,87.8,67.5,88.1,67.5,88.3L67.5,88.3z M67.1,67.1
			c0-1.6,1.3-2.9,2.9-2.9c1.6,0,2.9,1.3,2.9,2.9c0,1.6-1.3,2.9-2.9,2.9C68.4,70.1,67.1,68.8,67.1,67.1L67.1,67.1z M67.1,67.1"/>
	</g>
</g>
<circle class="st1" cx="96" cy="96" r="95"/>
</svg>
