<?xml version="1.0" encoding="utf-8"?>
<!-- Generator: Adobe Illustrator 23.0.0, SVG Export Plug-In . SVG Version: 6.00 Build 0)  -->
<svg version="1.1" id="Layer_1" xmlns="http://www.w3.org/2000/svg" xmlns:xlink="http://www.w3.org/1999/xlink" x="0px" y="0px"
	 viewBox="0 0 192 192" style="enable-background:new 0 0 192 192;" xml:space="preserve">
<style type="text/css">
	.st0{fill:none;stroke:#FFFFFF;stroke-miterlimit:10;}
	.st1{fill:#F89521;}
</style>
<circle class="st0" cx="96" cy="96" r="95"/>
<g>
	<path class="st1" d="M70.1,71.6c-2.5,0-4.6,2-4.6,4.6v12.2h3V76.2c0-0.8,0.7-1.5,1.5-1.5h36.5v-3H70.1z M70.1,71.6"/>
	<path class="st1" d="M70.1,117.3c-0.8,0-1.5-0.7-1.5-1.5v-15.2h-3v15.2c0,2.5,2,4.6,4.6,4.6h15.2v-3H70.1z M70.1,117.3"/>
	<path class="st1" d="M107.7,121.2L70.8,84.3c-0.6-0.6-1.6-0.6-2.2,0l-8.7,8.7c-0.6,0.6-0.6,1.6,0,2.2L96.9,132
		c0.3,0.3,0.7,0.4,1.1,0.4s0.8-0.2,1.1-0.4l8.7-8.7C108.3,122.7,108.3,121.8,107.7,121.2L107.7,121.2z M98,128.8L63.2,94l6.5-6.5
		l34.8,34.8L98,128.8z M98,128.8"/>
	<path class="st1" d="M126.4,117.3h-22.8v3h16.7v7.6c0,0.8,0.7,1.5,1.5,1.5h4.6c3.4,0,6.1-2.7,6.1-6.1
		C132.5,120,129.8,117.3,126.4,117.3L126.4,117.3z M126.4,126.4h-3v-6.1h3c1.7,0,3,1.4,3,3C129.5,125,128.1,126.4,126.4,126.4
		L126.4,126.4z M126.4,126.4"/>
	<path class="st1" d="M126.4,71.6h-7.6v3h7.6c1.7,0,3,1.4,3,3v45.6h3V77.7C132.5,74.4,129.8,71.6,126.4,71.6L126.4,71.6z
		 M126.4,71.6"/>
	<path class="st1" d="M82.8,107.1l4.6-4.6l2.2,2.2l-4.6,4.6L82.8,107.1z M82.8,107.1"/>
	<path class="st1" d="M76.7,101l4.6-4.6l2.2,2.2l-4.6,4.6L76.7,101z M76.7,101"/>
	<path class="st1" d="M88.8,113.2l4.6-4.6l2.2,2.2l-4.6,4.6L88.8,113.2z M88.8,113.2"/>
	<path class="st1" d="M94.9,119.2l4.6-4.6l2.2,2.2l-4.6,4.6L94.9,119.2z M94.9,119.2"/>
	<path class="st1" d="M70.6,94.9l4.6-4.6l2.2,2.2l-4.6,4.6L70.6,94.9z M70.6,94.9"/>
	<path class="st1" d="M125.1,62.9l-2.1-2.1c-1.8-1.7-4.6-1.7-6.4,0L93.5,83.9c-0.6,0.6-0.6,1.6,0,2.2l6.3,6.3
		c0.3,0.3,0.7,0.4,1.1,0.4c0.4,0,0.8-0.2,1.1-0.4l23.1-23.1c0,0,0,0,0,0C126.9,67.5,126.9,64.7,125.1,62.9L125.1,62.9z M123,67.1
		l-22.1,22.1L96.7,85l22.1-22.1c0.6-0.5,1.5-0.5,2.1,0L123,65l0,0C123.5,65.6,123.5,66.5,123,67.1L123,67.1z M123,67.1"/>
	<path class="st1" d="M100.4,89.9l-6.6,2.2l2.2-6.6l-2.9-1L90,94c-0.1,0.2-0.1,0.3-0.1,0.5c0,0.8,0.7,1.5,1.5,1.5
		c0.2,0,0.3,0,0.5-0.1l9.5-3.2L100.4,89.9z M100.4,89.9"/>
	<path class="st1" d="M112.4,67.1l2.2-2.2l6.3,6.3l-2.2,2.2L112.4,67.1z M112.4,67.1"/>
	<rect x="91.4" y="92.9" class="st1" width="22.8" height="3"/>
	<rect x="117.3" y="92.9" class="st1" width="3" height="3"/>
	<rect x="123.4" y="92.9" class="st1" width="3" height="3"/>
</g>
</svg>
