<?xml version="1.0" encoding="UTF-8"?>
<svg id="katman_1" xmlns="http://www.w3.org/2000/svg" viewBox="0 0 186.01 181.04">
  <defs>
    <style>
      .cls-1, .cls-2, .cls-3, .cls-4, .cls-5, .cls-6 {
        stroke-miterlimit: 10;
      }

      .cls-1, .cls-2, .cls-3, .cls-5, .cls-6 {
        stroke: #1d1d1b;
      }

      .cls-1, .cls-3, .cls-6 {
        fill: none;
      }

      .cls-1, .cls-5 {
        stroke-width: 4px;
      }

      .cls-2 {
        opacity: .85;
        stroke-width: .5px;
      }

      .cls-7 {
        font-size: 11.58px;
      }

      .cls-7, .cls-8 {
        font-family: BookmanOldStyle, 'Bookman Old Style';
      }

      .cls-7, .cls-8, .cls-5 {
        fill: #1d1d1b;
      }

      .cls-3 {
        stroke-width: 6px;
      }

      .cls-4 {
        fill: #fff;
        font-family: AdobeMingStd-Light-B5pc-H, 'Adobe Ming Std';
        font-size: 15.68px;
        font-weight: 300;
        stroke: #fff;
      }

      .cls-8 {
        font-size: 11.58px;
        letter-spacing: -.12em;
      }

      .cls-6 {
        stroke-width: 3px;
      }
    </style>
  </defs>
  <ellipse class="cls-3" cx="93.38" cy="91.84" rx="87.82" ry="86.21"/>
  <text class="cls-7" transform="translate(54.33 152.62) rotate(-144.57) scale(.98 1)"><tspan x="0" y="0">M</tspan></text>
  <text class="cls-7" transform="translate(46.63 147.17) rotate(-137.66) scale(.98 1)"><tspan x="0" y="0">O</tspan></text>
  <text class="cls-7" transform="translate(40.65 141.8) rotate(-131.23) scale(.98 1)"><tspan x="0" y="0">D</tspan></text>
  <text class="cls-7" transform="translate(35.3 135.77) rotate(-124.8) scale(.98 1)"><tspan x="0" y="0">U</tspan></text>
  <text class="cls-7" transform="translate(30.8 129.29) rotate(-119.18) scale(.98 1)"><tspan x="0" y="0">L</tspan></text>
  <text class="cls-7" transform="translate(27.89 124.24) rotate(-113.82) scale(.98 1)"><tspan x="0" y="0">E</tspan></text>
  <text class="cls-7" transform="translate(24.94 117.68) rotate(-107.89) scale(.98 1)"><tspan x="0" y="0">R</tspan></text>
  <text class="cls-7" transform="translate(22.77 110.8) rotate(-103.82) scale(.98 1)"><tspan x="0" y="0"> </tspan></text>
  <text class="cls-7" transform="translate(22.01 108.19) rotate(-99.76) scale(.98 1)"><tspan x="0" y="0">E</tspan></text>
  <text class="cls-7" transform="translate(20.75 101.1) rotate(-94.02) scale(.98 1)"><tspan x="0" y="0">V</tspan></text>
  <text class="cls-7" transform="translate(20.3 94.1) rotate(-90.03) scale(.98 1)"><tspan x="0" y="0"> </tspan></text>
  <text class="cls-7" transform="translate(20.26 91.37) rotate(-87.13) scale(.98 1)"><tspan x="0" y="0">•</tspan></text>
  <text class="cls-7" transform="translate(20.47 87.06) rotate(-84.22) scale(.98 1)"><tspan x="0" y="0"> </tspan></text>
  <text class="cls-7" transform="translate(20.6 84.34) rotate(-79.74) scale(.98 1)"><tspan x="0" y="0">O</tspan></text>
  <text class="cls-7" transform="translate(22.04 76.4) rotate(-73.86) scale(.98 1)"><tspan x="0" y="0">F</tspan></text>
  <text class="cls-7" transform="translate(23.83 70.31) rotate(-70.06) scale(.98 1)"><tspan x="0" y="0">İ</tspan></text>
  <text class="cls-7" transform="translate(24.74 67.53) rotate(-66.22) scale(.98 1)"><tspan x="0" y="0">S</tspan></text>
  <text class="cls-7" transform="translate(27.42 61.52) rotate(-62.48) scale(.98 1)"><tspan x="0" y="0"> </tspan></text>
  <text class="cls-7" transform="translate(28.64 59.08) rotate(-59.67) scale(.98 1)"><tspan x="0" y="0">•</tspan></text>
  <text class="cls-7" transform="translate(30.83 55.34) rotate(-56.86) scale(.98 1)"><tspan x="0" y="0"> </tspan></text>
  <text class="cls-7" transform="translate(32.15 52.98) rotate(-52.04) scale(.98 1)"><tspan x="0" y="0">M</tspan></text>
  <text class="cls-7" transform="translate(38.06 45.58) rotate(-47.19) scale(.98 1)"><tspan x="0" y="0">İ</tspan></text>
  <text class="cls-7" transform="translate(39.9 43.33) rotate(-42.36) scale(.98 1)"><tspan x="0" y="0">M</tspan></text>
  <text class="cls-7" transform="translate(46.88 36.99) rotate(-36.06) scale(.98 1)"><tspan x="0" y="0">A</tspan></text>
  <text class="cls-7" transform="translate(52.29 32.98) rotate(-30.65) scale(.98 1)"><tspan x="0" y="0">R</tspan></text>
  <text class="cls-7" transform="translate(58.48 29.3) rotate(-25.59) scale(.98 1)"><tspan x="0" y="0">L</tspan></text>
  <text class="cls-7" transform="translate(63.83 26.76) rotate(-22.15) scale(.98 1)"><tspan x="0" y="0">I</tspan></text>
  <text class="cls-7" transform="translate(66.5 25.55) rotate(-18.23) scale(.98 1)"><tspan x="0" y="0">K</tspan></text>
  <text class="cls-7" transform="translate(73.39 23.34) rotate(-14.42) scale(.98 1)"><tspan x="0" y="0"> </tspan></text>
  <text class="cls-7" transform="translate(76.07 22.61) rotate(-11.71) scale(.98 1)"><tspan x="0" y="0">•</tspan></text>
  <text class="cls-7" transform="translate(80.31 21.73) rotate(-9.03) scale(.98 1)"><tspan x="0" y="0"> </tspan></text>
  <text class="cls-7" transform="translate(82.96 21.17) rotate(-4.97) scale(.98 1)"><tspan x="0" y="0">H</tspan></text>
  <text class="cls-7" transform="translate(91.02 20.46) rotate(.68) scale(.98 1)"><tspan x="0" y="0">A</tspan></text>
  <text class="cls-7" transform="translate(97.76 20.5) rotate(5.7) scale(.98 1)"><tspan x="0" y="0">F</tspan></text>
  <text class="cls-7" transform="translate(104.07 21.16) rotate(9.29) scale(.98 1)"><tspan x="0" y="0">İ</tspan></text>
  <text class="cls-7" transform="translate(107.01 21.56) rotate(12.91) scale(.98 1)"><tspan x="0" y="0">F</tspan></text>
  <text class="cls-7" transform="translate(113.18 23) rotate(16.42) scale(.98 1)"><tspan x="0" y="0"> </tspan></text>
  <text class="cls-7" transform="translate(115.82 23.66) rotate(20.39) scale(.98 1)"><tspan x="0" y="0">Ç</tspan></text>
  <text class="cls-7" transform="translate(122.77 26.19) rotate(26.06) scale(.98 1)"><tspan x="0" y="0">E</tspan></text>
  <text class="cls-7" transform="translate(129.25 29.35) rotate(31.17) scale(.98 1)"><tspan x="0" y="0">L</tspan></text>
  <text class="cls-7" transform="translate(134.29 32.42) rotate(34.64) scale(.98 1)"><tspan x="0" y="0">İ</tspan></text>
  <text class="cls-7" transform="translate(136.77 34) rotate(38.66) scale(.98 1)"><tspan x="0" y="0">K</tspan></text>
  <text class="cls-7" transform="translate(142.4 38.56) rotate(42.6) scale(.98 1)"><tspan x="0" y="0"> </tspan></text>
  <text class="cls-7" transform="translate(144.43 40.37) rotate(45.41) scale(.98 1)"><tspan x="0" y="0">•</tspan></text>
  <text class="cls-7" transform="translate(147.49 43.38) rotate(49.58) scale(.98 1)"><tspan x="0" y="0">P</tspan></text>
  <text class="cls-7" transform="translate(151.48 47.96) rotate(54.96) scale(.98 1)"><tspan x="0" y="0">R</tspan></text>
  <text class="cls-7" transform="translate(155.64 53.8) rotate(60.82) scale(.98 1)"><tspan x="0" y="0">E</tspan></text>
  <text class="cls-7" transform="translate(159.18 60.09) rotate(66.38) scale(.98 1)"><tspan x="0" y="0">F</tspan></text>
  <text class="cls-7" transform="translate(161.74 65.81) rotate(71.74) scale(.98 1)"><tspan x="0" y="0">A</tspan></text>
  <text class="cls-7" transform="translate(163.91 72.18) rotate(77.55) scale(.98 1)"><tspan x="0" y="0">B</tspan></text>
  <text class="cls-7" transform="translate(165.56 79.42) rotate(83.47) scale(.98 1)"><tspan x="0" y="0">R</tspan></text>
  <text class="cls-7" transform="translate(166.33 86.6) rotate(87.6) scale(.98 1)"><tspan x="0" y="0">İ</tspan></text>
  <text class="cls-7" transform="translate(166.57 89.53) rotate(91.79) scale(.98 1)"><tspan x="0" y="0">K</tspan></text>
  <text class="cls-7" transform="translate(166.29 96.77) rotate(95.89) scale(.98 1)"><tspan x="0" y="0"> </tspan></text>
  <text class="cls-7" transform="translate(166.06 99.49) rotate(98.81) scale(.98 1)"><tspan x="0" y="0">•</tspan></text>
  <text class="cls-7" transform="translate(165.4 103.75) rotate(101.71) scale(.98 1)"><tspan x="0" y="0"> </tspan></text>
  <text class="cls-7" transform="translate(164.97 106.42) rotate(105.88) scale(.98 1)"><tspan x="0" y="0">B</tspan></text>
  <text class="cls-7" transform="translate(163 113.57) rotate(112.09) scale(.98 1)"><tspan x="0" y="0">U</tspan></text>
  <text class="cls-7" transform="translate(160.09 120.85) rotate(118.21) scale(.98 1)"><tspan x="0" y="0">N</tspan></text>
  <text class="cls-7" transform="translate(156.65 127.4) rotate(124.37) scale(.98 1)"><tspan x="0" y="0">G</tspan></text>
  <text class="cls-7" transform="translate(152.11 134.08) rotate(130.19) scale(.98 1)"><tspan x="0" y="0">A</tspan></text>
  <text class="cls-7" transform="translate(147.76 139.25) rotate(135.13) scale(.98 1)"><tspan x="0" y="0">L</tspan></text>
  <text class="cls-7" transform="translate(143.7 143.44) rotate(140.56) scale(.98 1)"><tspan x="0" y="0">O</tspan></text>
  <text class="cls-7" transform="translate(137.54 148.66) rotate(147.54) scale(.98 1)"><tspan x="0" y="0">W</tspan></text>
  <circle class="cls-1" cx="93.38" cy="94.49" r="67.74"/>
  <g>
    <polyline class="cls-6" points="64.96 113.08 65.66 60.38 50.28 59.73 50.28 67.1 62.48 59.87 92.96 41.79 136.48 68.07 136.48 60.7 75.91 60.7 76.55 108.76 123.66 108.76 124 67.01"/>
    <rect class="cls-5" x="71.9" y="90.84" width="46.47" height="29.06" rx="11.72" ry="11.72"/>
    <text class="cls-4" transform="translate(75.66 110.19)"><tspan x="0" y="0">MTK</tspan></text>
    <path class="cls-2" d="M76.71,125.99c0,.83-.35,1.21-.35,1.92,0,.17.02.36.02.54,0,.19-.02.38-.08.55.55-.03.96-.13,1.4-.3.44-.05.72.05.72.19,0,.16-.33.27-.35.31-.09.24-.44.11-.65.27-.25.2-.91.24-1.21.46.06.87.09,1.95.09,2.83,0,.2-.05.44-.05.68,0,.3.17.52.17.74,0,.19-.47.49-.71.49-.41,0-.52-.28-.52-.65,0-.33.11-.72.17-.95-.06-.57-.09-1.15-.09-1.73,0-.38.02-.76.03-1.13-.63.02-1.12.44-1.72.52-.28.03-.54.17-.82.24-.46.09-.9.2-1.18.39,0,.24,0,.76.06.98.06.2-.16.28-.16.44,0,.17.11.41.11.57-.02.31-.02.38-.02.47v.79c0,.27.24.3.24.63,0,.27-.09.47-.09.65,0,.35-.27.69-.85.69-.19,0-.22-1.04-.22-1.42.02-.52-.03-.71-.03-.8.03-.52-.02-.6-.02-.87,0-.17.11-.8.11-1.29,0-.3,0-.6-.09-.61-.2-.03-.55.02-.55-.36s.49-.47.69-.79c.02-.11.02-.22.02-.43,0-.72-.06-1.34-.06-2.02,0-.44.09-.95.09-1.34,0-.19-.11-.41-.11-.63,0-.25.38-.65.68-.65.39,0,.44.22.44.49,0,.8-.16,1.57-.16,2.39v.95c-.03.3.02.49.02.63,0,.17-.03.33-.09.46.85,0,1.87-.38,2.47-.68.19-.09.83-.09,1.17-.24.27-.93.09-4.22.9-4.22.14,0,.28.06.46.06.08.2.11.49.11.77Z"/>
    <path class="cls-2" d="M87.27,131.1c-.02.25-.22.43-.3.68-.24.82-.77,1.53-1.37,2.09-.08.06-.87.8-.98.8-.19,0-.38.2-.57.25-.47.13-.98.35-1.5.35-.17,0-1.09-.2-1.09-.28,0-.17-.35-.06-.35-.22,0-.14-.35-.52-.39-.68-.17-.54-.27-.82-.27-1.35v-1.07c0-.27.2-.54.24-.8.05-.35.13-.63.2-.98.05-.19.24-.31.24-.5.05-.33.24-.58.33-.9.05-.19,0-.25.14-.38.25-.25.54-.76.77-1.17.14-.24.14-.5.35-.71.06-.06.27-.16.3-.3.02-.08.27-.28.32-.35.22-.22.46-.3.52-.3.22,0,.47.08.69.08.09,0,.22-.08.3.03.2.27,1.01.52,1.4.79.41.28.76.55,1.04.96.06.11.02.25.09.33.17.16.22.49.22.83,0,.91-.11,1.39-.19,2.05-.02.25-.14.49-.16.74ZM84.46,133.74c.43-.28.82-.5,1.13-.91.2-.27.69-.74.72-1.06.05-.46.32-.88.36-1.31.05-.44.22-.87.22-1.32,0-.5-.09-1.01-.28-1.48-.17-.46-.52-.68-.95-.93-.22-.13-.72-.41-1.09-.41-.28,0-.74.39-1.12.55-.19.08-.5.74-.65.99-.24.41-.38.71-.57,1.15-.05.13-.2.33-.2.44,0,.05.02.08.02.11,0,.17-.16.16-.22.35-.25.69-.52,1.54-.52,2.35,0,.55.16,1.31.44,1.81.38.16.77.27,1.17.27.36,0,.5-.2.8-.2.27,0,.49-.24.72-.39Z"/>
    <path class="cls-2" d="M92.68,126.04s-.02.09-.02.16c0,.16-.05.3-.11.46-.05.13-.09.24-.11.41-.03.24-.09.54-.16.82-.03.11-.03.22-.14.55-.06.17-.14.38-.14.58,0,.13.03.19.03.25,0,.11-.05.22-.09.35-.05.13-.08.24-.08.39,0,.49-.05.96-.09,1.45-.05.49-.09.98-.09,1.48,0,.43.05.87.2,1.29.95-.03,1.5-.58,2.03-1.15.09-.09.19-.2.39-.39.24-.27.44-.58.65-.93l.24-.36c.57-.88.93-1.67,1.15-2.47.28-.54.39-1.09.5-1.62l.05-.25c.09-.49.19-1.2.5-1.2s.43.54.43.95-.11.87-.2,1.29c-.09.41-.19.85-.19,1.24,0,.36-.02.47-.06.58-.09.22-.09.44-.11.66,0,.09-.02.19-.03.3-.03.22-.06.43-.11.65-.09.5-.19,1.02-.19,1.59,0,.25.02.49.03.72.02.25.03.5.03.79,0,.44-.36.58-.69.58-.06,0-.14-.02-.2-.03-.06-.36-.09-.74-.09-1.1,0-.69.11-1.4.2-2.11.05-.38.11-.85.14-1.23-.14,0-.43.55-.58.91l-.13.25c-.13.19-.25.36-.28.5-.06.14-.19.31-.27.46-.13.19-.28.31-.44.44l-.36.33c-.3.82-1.13,1.15-1.89,1.4-.28.09-.43.17-.49.17-.98,0-1.15-.98-1.15-1.81,0-.43.06-.91.13-1.32.06-.41.13-.8.13-1.2,0-.88.17-1.75.35-2.61.14-.72.28-1.43.35-2.22.02-.22.28-.47.44-.47.19,0,.49.09.57.27.02.06,0,.14-.02.2Z"/>
    <path class="cls-2" d="M106.49,126.81c-.24,0-.46-.28-.68-.38-.27-.09-.52-.16-.77-.16-.99,0-1.72.85-2.21,1.64-.17.27-.17.98-.19,1.04,0,.77.93,1.39,1.26,1.42.33.03.63.13.93.25l.69.28c.3.13.68.11.93.33.19.16.85.57.9.87.02.13.03.27.03.39,0,.77-.58,1.04-.91,1.4-.65.69-1.91,1.23-2.83,1.23-.58,0-1.31-.08-1.78-.35-.41-.22-.99-.31-1.17-.79-.08-.19-.31-.25-.31-.6,0-.24.14-.44.27-.44.06,0,.22.06.25.22.13.68,1.48,1.18,2.41,1.18,1.06,0,2.77-.55,3.07-1.81-.13-.76-1.56-.85-1.81-.98-.55-.27-1.02-.33-1.46-.63-.17-.11-.66-.27-.76-.41-.27-.38-.54-1.07-.54-1.89,0-.71.49-1.39.87-1.84.61-.74,1.2-1.32,2.28-1.32.38,0,1.86.06,2.03,1.02-.02.14-.3.32-.5.32Z"/>
    <path class="cls-2" d="M115.86,126.29c-.31,0-.63-.03-.72-.03-.66.03-1.4.13-2,.44-.39.2-.79-.09-1.04.41-.25.49-.28,1.13-.28,1.67,0,.2-.19.79-.19,1.18,0,.27.08.41.31.41.5,0,1.17-.22,1.75-.38.31-.08.58-.27.9-.27.11,0,.16-.08.25-.14.11-.06.24.03.36.03.08,0,.2-.09.27-.09.03,0,.05.06.05.28,0,.31-.52.2-.68.36-.22.2-.54.09-.71.31s-.71.27-.96.36c-.41.16-.72.36-1.15.43-.52.09-.5.22-.5.66v1.23c0,.35.38.98.63.99.3.03.63.09.93.09.61,0,1.18-.19,1.78-.44.52-.22,1.04-.33,1.39-.8.06-.08.11-.11.16-.11.16,0,.27.27.27.47,0,.68-1.18.8-1.61,1.17-.2.17-.54.11-.8.33-.2.17-1.18.3-1.69.3-1.89,0-2.03-1.65-2.03-3.46,0-.88.11-1.78.38-2.58-.02-.24-.05-.49-.05-.74,0-.3.05-.6.19-.85-.02-.25-.25-.46-.25-.69,0-.25.61-.91.95-.91.17,0,.38.11.63.11.17,0,.47-.3.65-.3.06,0,.13.02.2.02.71,0,1.28-.2,2.09-.2.54,0,1.32.13,1.32.5v.03c0,.17-.39.22-.79.22Z"/>
  </g>
  <text class="cls-8" transform="translate(80.79 174.02)"><tspan x="0" y="0">2015</tspan></text>
</svg>