<?xml version="1.0" encoding="utf-8"?>
<!-- Generator: Adobe Illustrator 24.3.0, SVG Export Plug-In . SVG Version: 6.00 Build 0)  -->
<svg version="1.1" id="katman_1" xmlns="http://www.w3.org/2000/svg" xmlns:xlink="http://www.w3.org/1999/xlink" x="0px" y="0px"
	 viewBox="0 0 36 18" style="enable-background:new 0 0 36 18;" xml:space="preserve">
<style type="text/css">
	.st0{fill:#FFFFFF;}
</style>
<g>
	<path class="st0" d="M17.8,16.1c-1,0-1.9-0.2-2.7-0.6c-0.8-0.4-1.6-0.8-2.3-1.3C9.1,11.6,5.4,9.1,1.7,6.5C1.1,6.2,0.7,5.7,0.6,5.1
		c-0.4-1.4,0.6-2.9,2-3.1c0.7-0.1,1.4,0,2,0.4c3.7,2.6,7.4,5.1,11.1,7.7c0.4,0.3,0.9,0.6,1.4,0.7c0.8,0.2,1.5,0.1,2.2-0.2
		c0.3-0.2,0.6-0.3,0.9-0.5c3.7-2.5,7.4-5.1,11-7.6c0.9-0.6,1.9-0.7,2.8-0.2c1.6,0.8,1.9,3.1,0.3,4.3c-0.9,0.6-1.7,1.2-2.6,1.8
		c-2.8,1.9-5.6,3.8-8.4,5.7c-1.4,1-3,1.6-4.6,2C18.4,16.1,18.1,16.1,17.8,16.1z"/>
</g>
</svg>
