<?xml version="1.0" encoding="utf-8"?>
<!-- Generator: Adobe Illustrator 24.3.0, SVG Export Plug-In . SVG Version: 6.00 Build 0)  -->
<svg version="1.1" id="katman_1" xmlns="http://www.w3.org/2000/svg" xmlns:xlink="http://www.w3.org/1999/xlink" x="0px" y="0px"
	 viewBox="0 0 36 18" style="enable-background:new 0 0 36 18;" xml:space="preserve">
<style type="text/css">
	.st0{fill:#FFFFFF;}
</style>
<g>
	<path class="st0" d="M18.2,1.9c1,0,1.9,0.2,2.7,0.6c0.8,0.4,1.6,0.8,2.3,1.3c3.7,2.5,7.4,5.1,11.1,7.6c0.5,0.4,0.9,0.8,1.1,1.5
		c0.4,1.4-0.6,2.9-2,3.1c-0.7,0.1-1.4,0-2-0.4c-3.7-2.6-7.4-5.1-11.1-7.7c-0.4-0.3-0.9-0.6-1.4-0.7c-0.8-0.2-1.5-0.1-2.2,0.2
		C16.3,7.6,16,7.8,15.7,8c-3.7,2.5-7.4,5.1-11,7.6c-0.9,0.6-1.9,0.7-2.8,0.2c-1.6-0.8-1.9-3.1-0.3-4.3c0.9-0.6,1.7-1.2,2.6-1.8
		C7,7.8,9.8,5.9,12.6,4c1.4-1,3-1.6,4.6-2C17.6,1.9,17.9,1.9,18.2,1.9z"/>
</g>
</svg>
