<?xml version="1.0" encoding="utf-8"?>
<!-- Generator: Adobe Illustrator 25.2.1, SVG Export Plug-In . SVG Version: 6.00 Build 0)  -->
<svg version="1.1" id="katman_1" xmlns="http://www.w3.org/2000/svg" xmlns:xlink="http://www.w3.org/1999/xlink" x="0px" y="0px"
	 viewBox="0 0 72 50" style="enable-background:new 0 0 72 50;" xml:space="preserve">
<style type="text/css">
	.st0{fill:#EEBA64;}
</style>
<g>
	<path class="st0" d="M59.2,17.5h-5.4c2.4,0,3.1,0,2.2,0c-0.9,0-2.3,0-4.4,0s-4.1,0-6.3,0s-3.3,0-3.5,0c-0.8,0-1.4,0.2-1.7,0.5
		c-0.2,0.2-0.3,0.5-0.4,0.7c-0.1,0.2-0.1,0.6-0.1,1.3v7.7h-2.9v-8.3c0-1.5,0.4-2.7,1.2-3.5c0.4-0.5,0.9-0.8,1.6-1
		c0.6-0.2,1.5-0.3,2.7-0.3h11.5h5.4h0.8h5.9c1.7,0,3,0.5,3.9,1.5c0.8,1,1.3,2.1,1.2,3.3c0,1.2-0.4,2.3-1.3,3.3c-0.8,1-2,1.5-3.6,1.5
		H47.3h-0.1c-0.9,0-1.3-0.5-1.3-1.4s0.5-1.4,1.4-1.4c0.1,0,0.2,0,0.2,0h18.1c1.7,0,2.5-0.6,2.4-2c0-1.3-0.9-2-2.7-2L59.2,17.5
		L59.2,17.5z M12.6,25H18c-2.4,0-3.1,0-2.3,0c0.9,0,2.3,0,4.4,0c2,0,4.1,0,6.3,0c2.1,0,3.3,0,3.5,0c0.8,0,1.3-0.2,1.7-0.5
		c0.2-0.2,0.3-0.4,0.4-0.7c0.1-0.3,0.1-0.8,0.1-1.3v-7.7H35v8.3c0,1.5-0.4,2.7-1.2,3.5c-0.4,0.5-1,0.8-1.6,0.9
		c-0.6,0.2-1.5,0.3-2.7,0.3H18.1h-5.4h-0.8H6c-1.8,0-3-0.5-3.9-1.5c-0.8-1-1.2-2.1-1.2-3.3c0-1.2,0.4-2.3,1.2-3.3s2-1.5,3.6-1.5
		h18.8h0.1c0.9,0.1,1.3,0.5,1.3,1.4S25.4,21,24.5,21h-0.1h-0.1H6.2c-1.7,0-2.5,0.7-2.5,2s0.9,2,2.7,2H12.6L12.6,25z"/>
	<path class="st0" d="M70.1,34.2L70.1,34.2C70,34.3,70,34.4,70,34.5s-0.1,0.2-0.1,0.3S69.8,35,69.8,35c-0.1,0.1-0.2,0.1-0.4,0.1
		h-0.6l0,0h-0.1h-0.1L68.5,35c0,0,0-0.1-0.1-0.2v-1.4h0.4c0.1,0,0.2,0,0.3,0.1c0.1,0,0.1,0.1,0.1,0.2c0,0.1,0.1,0.1,0.1,0.2
		c0,0.1,0,0.2,0,0.2h0.1v-1.5h-0.1c0,0.1,0,0.2,0,0.2c0,0.1,0,0.2-0.1,0.2c0,0.1-0.1,0.1-0.1,0.2c-0.1,0-0.2,0.1-0.3,0.1h-0.4v-1.4
		c0-0.1,0-0.1,0.1-0.2l0.1-0.1h0.1h0.1l0,0h0.4c0.2,0,0.3,0,0.4,0.1c0.1,0,0.2,0.1,0.2,0.2s0.1,0.2,0.1,0.3s0,0.2,0,0.3H70v-1h-0.3
		h-1h-0.4h-0.5h-0.4v0.1l0,0h0.1c0,0,0.1,0,0.1,0.1l0.1,0.1c0,0,0,0.1,0.1,0.2v2.9c0,0.1,0,0.1-0.1,0.2l-0.1,0.1h-0.1h-0.1l0,0v0.1
		h0.4H70L70.1,34.2L70.1,34.2z M60.9,31.5L60.9,31.5L60.9,31.5c-0.1,0.1-0.2,0.1-0.2,0.2c-0.1,0.1-0.1,0.1-0.1,0.2
		c0,0.1-0.1,0.1-0.1,0.2s-0.1,0.1-0.1,0.2c0,0.1-0.1,0.2-0.1,0.3s-0.1,0.2-0.1,0.3l-0.3,0.6c0,0.1-0.1,0.2-0.1,0.3s-0.1,0.2-0.1,0.3
		s-0.1,0.2-0.1,0.2c0,0.1-0.1,0.2-0.1,0.2v0.1v0.1l0,0l0,0l-0.2,0.5l-0.1,0.2l-0.1-0.2l-0.2-0.4l-0.4-0.9v-0.1l-0.8-2.1l0,0l0,0l0,0
		l-0.1-0.1l0.6,0.1c0,0,0,0,0,0.1s0,0.1,0.1,0.2c0,0.1,0.1,0.2,0.1,0.3s0.1,0.2,0.1,0.3s0.1,0.2,0.1,0.3s0.1,0.2,0.1,0.3
		s0,0.1,0.1,0.2l0.2,0.7c0,0.1,0.1,0.2,0.1,0.2c0,0.1,0.1,0.2,0.1,0.2l0.1,0.2l0,0l0.9-2.5c0,0,0,0,0-0.1c0,0,0,0,0-0.1s0-0.2,0-0.2
		c0-0.1,0-0.1-0.1-0.1L60,31.6h-0.1h-0.1l0,0v-0.1H60.9L60.9,31.5L60.9,31.5z M50.5,35.2L50.5,35.2l-1.4,0.1v-0.1l0,0h0.1h0.1
		c0,0,0.1,0,0.1-0.1l0.1-0.1c0,0,0,0,0-0.1l0,0v-3.1l0,0l0,0c0,0,0,0,0-0.1c0,0,0,0,0-0.1l0.5,0.3v3c0,0.1,0,0.1,0,0.2l0.1,0.1
		c0,0,0.1,0,0.1,0.1C50.4,35.2,50.5,35.2,50.5,35.2L50.5,35.2z M42.3,31.5v1.1h-0.1c0-0.1,0-0.2,0-0.3s0-0.2-0.1-0.3
		c0-0.1-0.1-0.2-0.1-0.2c-0.1-0.1-0.1-0.1-0.2-0.2c-0.1,0-0.2-0.1-0.3-0.1h-0.4v3.2l0,0v0.4l0,0l0,0c0,0,0,0,0,0.1c0,0,0,0,0,0.1
		L40.7,35v-2.8l0,0l0,0l0,0v-0.6h-0.4c-0.1,0-0.2,0-0.3,0.1c-0.1,0-0.2,0.1-0.2,0.2c-0.1,0.1-0.1,0.1-0.1,0.2c0,0.1,0,0.2-0.1,0.3
		c0,0.1,0,0.2,0,0.3h-0.1v-1.1L42.3,31.5L42.3,31.5z M24,34.2h-0.1c0,0.1,0,0.2,0,0.3s-0.1,0.2-0.1,0.3c-0.1,0.1-0.1,0.2-0.2,0.2
		c-0.1,0.1-0.2,0.1-0.4,0.1h-0.6l0,0h-0.1h-0.1L22.3,35c0,0,0-0.1-0.1-0.2v-1.4h0.4c0.1,0,0.2,0,0.3,0.1c0.1,0,0.1,0.1,0.1,0.2
		c0,0.1,0.1,0.1,0.1,0.2c0,0.1,0,0.2,0,0.2h0.1v-1.5h-0.1c0,0.1,0,0.2,0,0.2c0,0.1,0,0.2-0.1,0.2c0,0.1-0.1,0.1-0.1,0.2
		c-0.1,0-0.2,0.1-0.3,0.1h-0.4v-1.4c0-0.1,0-0.1,0.1-0.2l0.1-0.1h0.1h0.1l0,0H23c0.2,0,0.3,0,0.4,0.1c0.1,0,0.2,0.1,0.2,0.2
		c0.1,0.1,0.1,0.2,0.1,0.3s0,0.2,0,0.3h0.1v-1h-0.3h-1h-0.4h-0.5h-0.4v0.1l0,0h0.1c0,0,0.1,0,0.1,0.1l0.1,0.1c0,0,0,0.1,0.1,0.2v2.9
		c0,0.1,0,0.1-0.1,0.2l-0.1,0.1h-0.1h-0.1l0,0v0.1h0.4h2.3L24,34.2L24,34.2z M12.6,33.4h-0.5V32v-0.1v-0.1l0.1-0.1h0.1h0.1h0.1
		c0.1,0,0.3,0,0.4,0.1c0.1,0,0.2,0.1,0.2,0.2c0.1,0.1,0.1,0.1,0.1,0.2s0.1,0.1,0.1,0.2c0,0.1,0,0.1,0,0.2c0,0.1,0,0.1,0,0.1
		c0,0.1,0,0.3-0.1,0.4c0,0.1-0.1,0.2-0.1,0.2c-0.1,0.1-0.1,0.1-0.2,0.1c-0.1,0-0.1,0.1-0.2,0.1C12.8,33.4,12.7,33.4,12.6,33.4
		L12.6,33.4z M15,35.2c-0.1,0-0.1,0-0.2,0c-0.1,0-0.1,0-0.2,0h-0.1l0,0l0,0l0,0l0,0c0,0-0.1,0-0.1-0.1L14.3,35c0,0,0,0-0.1,0
		c0,0,0,0,0-0.1l0,0l0,0l-0.1-0.1c0-0.1-0.1-0.1-0.1-0.2c0-0.1-0.1-0.1-0.1-0.2c0-0.1-0.1-0.1-0.1-0.2c0-0.1-0.1-0.1-0.1-0.2
		c0-0.1-0.1-0.1-0.1-0.2c0-0.1-0.1-0.1-0.1-0.2c0,0,0,0,0-0.1c0,0,0,0,0-0.1c0.1,0,0.2-0.1,0.3-0.1c0.1-0.1,0.2-0.1,0.2-0.2
		c0.1-0.1,0.1-0.2,0.2-0.3c0-0.1,0.1-0.2,0.1-0.4c0-0.1,0-0.3-0.1-0.4c0-0.1-0.1-0.2-0.2-0.2c-0.1-0.1-0.2-0.1-0.3-0.2
		c-0.1,0-0.2-0.1-0.3-0.1s-0.2,0-0.3,0s-0.1,0-0.2,0h-0.1h-1.4v0.1l0,0h0.1h0.1l0.1,0.1c0,0,0,0,0,0.1c0,0,0,0,0,0.1c0,0,0,0,0,0.1
		c0,0,0,0,0,0.1v0.2l0,0l0,0v2.8l0.5,0.3c0,0,0,0,0-0.1c0,0,0,0,0-0.1l0,0l0,0V35v-1.4h0.6c0,0,0,0.1,0.1,0.1c0,0.1,0.1,0.1,0.1,0.2
		c0.1,0.1,0.1,0.2,0.2,0.3c0,0.1,0.1,0.2,0.2,0.2c0.1,0.1,0.1,0.2,0.2,0.2c0,0.1,0.1,0.1,0.1,0.2c0,0.1,0.1,0.1,0.1,0.2l0,0l0,0
		c0,0.1,0.1,0.1,0.2,0.1c0.1,0,0.1,0.1,0.2,0.1h0.1h0.1L15,35.2C14.9,35.3,15,35.3,15,35.2C15,35.3,15,35.3,15,35.2L15,35.2L15,35.2
		z M29.9,35.3L29.9,35.3L29.9,35.3c0.1-0.1,0.2-0.1,0.2-0.2c0.1-0.1,0.1-0.1,0.1-0.2c0-0.1,0.1-0.1,0.1-0.2c0-0.1,0.1-0.1,0.1-0.2
		c0-0.1,0.1-0.2,0.1-0.3s0.1-0.2,0.1-0.3l0.2-0.7c0-0.1,0.1-0.2,0.1-0.3s0.1-0.2,0.1-0.3s0.1-0.2,0.1-0.2c0-0.1,0.1-0.2,0.1-0.2
		v-0.1V32l0,0l0,0l0.2-0.5l0.1-0.2l0.1,0.2l0.2,0.5l0.4,0.9V33l0.8,2.1l0,0l0,0l0,0l0.1,0.1l-0.6-0.1c0,0,0,0,0-0.1s0-0.1-0.1-0.2
		c0-0.1-0.1-0.2-0.1-0.3s-0.1-0.2-0.1-0.3s-0.1-0.2-0.1-0.3S32,33.7,32,33.6s0-0.1-0.1-0.2l-0.2-0.7c0-0.1-0.1-0.2-0.1-0.2
		c0-0.1-0.1-0.2-0.1-0.2l-0.1-0.2l0,0l-0.9,2.5c0,0,0,0,0,0.1c0,0,0,0,0,0.1s0,0.2,0,0.2c0,0.1,0,0.1,0.1,0.1l0.1,0.1h0.1h0.1l0,0
		v0.1L29.9,35.3L29.9,35.3L29.9,35.3L29.9,35.3z M4.4,34.6V34H4.3c0,0,0,0,0,0.1c0,0,0,0.1,0,0.2c0,0.1,0,0.2-0.1,0.3
		c0,0.1-0.1,0.2-0.1,0.3S4,35.1,3.9,35.1l-0.1,0.1c0,0-0.1,0-0.1,0.1c-0.1,0-0.2,0.1-0.3,0.1s-0.2,0-0.3,0s-0.2,0-0.3,0
		s-0.1,0-0.2-0.1c-0.1,0-0.1-0.1-0.2-0.1s-0.1-0.1-0.1-0.1c0-0.1-0.1-0.1-0.1-0.2c-0.1-0.1-0.1-0.2-0.2-0.4l0,0l0,0
		c0-0.4-0.1-0.6-0.1-0.8s0-0.4,0-0.6c0-0.2,0.1-0.4,0.1-0.6c0.1-0.2,0.1-0.3,0.2-0.4c0.1-0.1,0.1-0.2,0.2-0.3
		c0.1-0.1,0.1-0.1,0.2-0.2c0.1,0,0.1-0.1,0.1-0.1c0.1,0,0.1,0,0.2,0s0.1,0,0.2,0c0.1,0,0.2,0,0.3,0s0.2,0.1,0.3,0.1s0.2,0.1,0.2,0.1
		C4,31.8,4,31.8,4.1,31.9c0,0,0,0,0,0.1c0,0,0,0,0,0.1s0.1,0.1,0.1,0.2c0,0.1,0,0.1,0,0.2v0.1v0.1l0,0h0.1v-0.5v-0.7l0,0l0,0v0.1
		v0.1c0,0,0,0.1-0.1,0.1H4.1l0,0l0,0c-0.1-0.1-0.3-0.2-0.4-0.3c-0.2-0.1-0.3-0.1-0.5-0.1H3c0,0,0,0-0.1,0c0,0-0.1,0-0.2,0
		s-0.2,0-0.3,0.1c-0.1,0-0.2,0.1-0.3,0.2s-0.2,0.1-0.3,0.2c-0.1,0.1-0.2,0.2-0.3,0.4c-0.1,0.1-0.1,0.3-0.2,0.5
		c0,0.2-0.1,0.4-0.1,0.7c0,0.1,0,0.3,0,0.4c0,0.1,0.1,0.3,0.1,0.4c0.1,0.1,0.1,0.3,0.2,0.4c0.3,0.2,0.4,0.3,0.6,0.4
		c0.1,0.1,0.3,0.2,0.4,0.2c0.2,0.1,0.4,0.1,0.6,0.1l0,0c0.2,0,0.3,0,0.5-0.1C3.7,35.2,3.9,35.1,4,35l0.1-0.1h0.1c0,0,0,0,0,0.1v0.1
		v0.1l0,0h0.1L4.4,34.6z"/>
</g>
</svg>
