<?xml version="1.0" encoding="utf-8"?>
<!-- Generator: Adobe Illustrator 24.3.0, SVG Export Plug-In . SVG Version: 6.00 Build 0)  -->
<svg version="1.1" id="katman_1" xmlns="http://www.w3.org/2000/svg" xmlns:xlink="http://www.w3.org/1999/xlink" x="0px" y="0px"
	 viewBox="0 0 28 34" style="enable-background:new 0 0 28 34;" xml:space="preserve">
<style type="text/css">
	.st0{fill:#FFFFFF;}
</style>
<g>
	<path class="st0" d="M1.1,17c0-4.6,0-9.2,0-13.8c0-0.4,0.1-0.8,0.2-1.2c0.4-0.7,0.9-1.2,1.7-1.4c0.2,0,0.4-0.1,0.5-0.1c1,0,2,0,3,0
		c5.9,0,11.8,0,17.7,0c1.3,0,2.4,1,2.5,2.2c0,0.2,0,0.3,0,0.5c0,5.1,0,10.3,0,15.4c0,2.5,0,5,0,7.5c0,0.1,0,0.3-0.1,0.4
		c0,0,0,0.1,0,0.1c0,0.2-0.1,0.3-0.2,0.5c-1.6,1.6-3.2,3.2-4.8,4.7c-0.5,0.5-0.9,0.9-1.4,1.4c-0.1,0.1-0.2,0.2-0.4,0.2
		c0,0-0.1,0-0.1,0c-0.1,0.1-0.3,0.1-0.5,0.1c-2.7,0-5.3,0-8,0c-2.6,0-5.2,0-7.8,0c-1.3,0-2.3-1-2.5-2.1c0-0.2,0-0.4,0-0.6
		C1.1,26.2,1.1,21.6,1.1,17z M25.5,25.4c0-0.1,0-0.1,0-0.2c0-7.3,0-14.7,0-22c0-0.1,0-0.1,0-0.2c0-0.5-0.4-0.9-0.8-1.1
		c-0.1,0-0.2,0-0.4,0C18.6,2,12.9,2,7.2,2C6,2,4.8,2,3.6,2C3.1,2,2.7,2.2,2.5,2.7C2.5,2.9,2.5,3,2.5,3.2c0,4,0,8.1,0,12.1
		c0,5.1,0,10.3,0,15.4c0,0.1,0,0.2,0,0.3c0.1,0.5,0.4,0.8,0.8,0.9c0.1,0,0.2,0,0.4,0c5,0,10,0,15,0c0,0,0,0,0.1,0c0,0,0.1,0,0.1,0
		c0-0.1,0-0.1,0-0.2c0-0.9,0-1.9,0-2.8c0-0.4,0.1-0.8,0.2-1.2c0.5-1.4,1.8-2.5,3.4-2.5c1,0,2,0,2.9,0C25.4,25.4,25.5,25.4,25.5,25.4
		z M20.5,31.2C20.6,31.2,20.6,31.2,20.5,31.2c1.4-1.4,2.8-2.7,4.2-4.1c0,0-0.1,0-0.1,0c-0.8,0-1.6,0-2.4,0c-0.3,0-0.6,0.1-0.9,0.3
		c-0.5,0.4-0.7,0.8-0.7,1.4C20.5,29.6,20.5,30.4,20.5,31.2C20.5,31.2,20.5,31.2,20.5,31.2z"/>
	<path class="st0" d="M14,10.1c-2.5,0-5,0-7.4,0c-0.1,0-0.1,0-0.2,0c-0.3,0-0.5-0.3-0.6-0.6c0-0.1,0-0.1,0-0.2c0-0.4,0-0.8,0-1.2
		c0-0.1,0-0.2,0-0.3c0.1-0.3,0.4-0.5,0.7-0.5c0,0,0.1,0,0.1,0c5,0,9.9,0,14.9,0c0.1,0,0.1,0,0.2,0c0.3,0.1,0.6,0.3,0.6,0.7
		c0,0.4,0,0.9,0,1.3c0,0.4-0.3,0.7-0.7,0.7C19,10.1,16.5,10.1,14,10.1z M21.4,8.2c-4.9,0-9.9,0-14.8,0c0,0.2,0,0.9,0,1
		c4.9,0,9.9,0,14.8,0C21.4,8.9,21.4,8.6,21.4,8.2z"/>
	<path class="st0" d="M14,11.9c2.5,0,5,0,7.5,0c0.1,0,0.1,0,0.2,0c0.3,0.1,0.6,0.3,0.6,0.7c0,0.4,0,0.9,0,1.3c0,0.4-0.3,0.7-0.7,0.7
		c-2.1,0-4.3,0-6.4,0c-2.8,0-5.7,0-8.5,0c-0.1,0-0.1,0-0.2,0c-0.3,0-0.5-0.3-0.6-0.6c0-0.1,0-0.1,0-0.2c0-0.4,0-0.8,0-1.2
		c0-0.1,0-0.2,0-0.3c0.1-0.3,0.4-0.5,0.7-0.5c1.9,0,3.8,0,5.7,0C12.8,11.9,13.4,11.9,14,11.9z M6.6,13.8c4.9,0,9.9,0,14.8,0
		c0-0.3,0-0.7,0-1c-4.9,0-9.9,0-14.8,0C6.6,13.1,6.6,13.4,6.6,13.8z"/>
	<path class="st0" d="M14,16.4c2.5,0,5,0,7.5,0c0.1,0,0.2,0,0.3,0c0.3,0.1,0.5,0.4,0.5,0.7c0,0.4,0,0.9,0,1.3c0,0.4-0.3,0.7-0.7,0.7
		c-3.7,0-7.5,0-11.2,0c-1.3,0-2.6,0-3.8,0c-0.3,0-0.6-0.2-0.7-0.5c0-0.1,0-0.2,0-0.2c0-0.4,0-0.8,0-1.2c0-0.2,0.1-0.4,0.2-0.6
		c0.1-0.1,0.3-0.2,0.5-0.2c0.1,0,0.1,0,0.2,0C9.1,16.4,11.5,16.4,14,16.4z M21.4,17.3c-4.9,0-9.9,0-14.8,0c0,0.1,0,0.9,0,1
		c4.9,0,9.9,0,14.8,0C21.4,18,21.4,17.6,21.4,17.3z"/>
</g>
</svg>
