<?xml version="1.0" encoding="utf-8"?>
<!-- Generator: Adobe Illustrator 25.0.0, SVG Export Plug-In . SVG Version: 6.00 Build 0)  -->
<svg version="1.1" id="katman_1" xmlns="http://www.w3.org/2000/svg" xmlns:xlink="http://www.w3.org/1999/xlink" x="0px" y="0px"
	 viewBox="0 0 72 88" style="enable-background:new 0 0 72 88;" xml:space="preserve">
<style type="text/css">
	.st0{fill:#FFFFFF;}
</style>
<g>
	<path class="st0" d="M15.4,15.3V7c0-1.4-1.1-2.5-2.5-2.5S10.5,5.6,10.5,7v13.2L15.4,15.3z"/>
	<g>
		<path class="st0" d="M68.9,74.5h-53C5.8,74.5,5.6,62.6,5.5,62.2V30.6c0-2.5,1.3-3.8,1.3-3.8l10.1-10.5l1.2-1.3l4.7-4.9l3.1-3.3
			l0,0c1.8-1.8,3.6,0,3.6,0l3.1,3.3l5.7,6l0,0c1.2,1.2,1.2,3,1.2,3l0,0v0.4v0.2v40.8c0,2.2-1.8,4-4,4H19.4c-2.2,0-4-1.8-4-4v-28
			c0-1.4-1.1-2.5-2.5-2.5s-2.5,1.1-2.5,2.5v28c0,4.9,4,8.9,8.9,8.9h16.1c4.9,0,8.9-4,8.9-8.9V22.4l0,0v-4.5c0-2.1-1.3-3.5-1.3-3.5
			l-1.5-1.5L39,10.1l-6.6-6.9c-0.3-0.2-0.5-0.4-0.8-0.6c-3.9-3.9-8,0-8,0l-7.2,7.5l-2.7,2.9l-2,2l-6.2,6.5l-2.4,2.5
			c0,0-2.5,2.7-2.5,6.7v38.2l0,0c0,5.8,4.7,10.5,10.5,10.5h5.8c0,4.3,3.5,7.7,7.7,7.7s7.7-3.5,7.7-7.7h2.5c0,4.3,3.5,7.7,7.7,7.7
			s7.7-3.5,7.7-7.7h18.6c1.4,0,2.5-1.1,2.5-2.5C71.4,75.6,70.3,74.5,68.9,74.5z M24.7,82.3c-1.6,0-2.9-1.3-2.9-2.9h5.7
			C27.6,81,26.3,82.3,24.7,82.3z M42.6,82.3c-1.6,0-2.9-1.3-2.9-2.9h5.7C45.5,81,44.2,82.3,42.6,82.3z"/>
		<path class="st0" d="M27.5,59.2c3.6,0,6.5-2.9,6.5-6.5v-9.6c0-3.6-2.9-6.5-6.5-6.5l0,0c-3.6,0-6.5,2.9-6.5,6.5v9.6
			C21,56.3,23.9,59.2,27.5,59.2L27.5,59.2z"/>
	</g>
</g>
</svg>
